<?xml version="1.0" encoding="iso-8859-1"?>
<!-- Generator: Adobe Illustrator 17.0.0, SVG Export Plug-In . SVG Version: 6.00 Build 0)  -->
<!DOCTYPE svg PUBLIC "-//W3C//DTD SVG 1.1//EN" "http://www.w3.org/Graphics/SVG/1.1/DTD/svg11.dtd">
<svg version="1.1" xmlns="http://www.w3.org/2000/svg" xmlns:xlink="http://www.w3.org/1999/xlink" x="0px" y="0px"
	 width="648.75px" height="660.75px" viewBox="0 0 648.75 660.75" style="enable-background:new 0 0 648.75 660.75;"
	 xml:space="preserve">
<g id="Layer_1" style="display:none;">
</g>
<g id="Layer_2">
</g>
<g id="Layer_6">
</g>
<g id="Layer_4">
	<g>
		<path style="fill:#F80E4A;" d="M247.866,95.744c0.973,0.335,1.945,0.671,2.901,0.999c9.454,4.517,17.54,10.828,24.353,18.801
			c0.59,0.69,1.428,1.168,2.151,1.745c0.246-1.019,0.492-2.039,0.738-3.058c1.297-3.877,2.762-7.708,3.858-11.642
			c2.401-8.619,4.579-17.3,6.942-25.929c0.409-1.495,1.281-2.863,1.939-4.29c1.146,0.991,2.282,1.994,3.445,2.965
			c0.367,0.306,0.807,0.524,1.213,0.782c16.079,12.385,25.286,29.413,32.727,47.955c0.452-3.128,0.904-6.257,1.356-9.385
			c2.939-13.272,8.363-25.335,17.592-35.461c3.575-3.923,7.663-7.432,13.253-7.706c2.39-0.118,4.844,1.08,7.268,1.679
			c-0.466,1.927-0.869,3.872-1.405,5.78c-2.456,8.742-2.416,17.527,0.031,26.202c0.628,2.227,2.401,4.259,4.026,6.036
			c1.178,1.288,2.518,0.877,2.835-1.118c6.539-4.716,13.026-9.508,19.653-14.097c1.688-1.169,3.819-1.696,5.724-2.51
			c0.849,0.198,1.721,0.388,2.594,0.578c0.393,0.778,0.787,1.555,1.179,2.332c0.125,2.067,0.264,4.133,0.375,6.201
			c0.581,10.831-3.858,20.174-8.864,29.29c-4.553,8.293-9.783,16.239-13.961,24.709c-12.893,26.138,1.677,46.036,21.973,55.792
			c0.276-0.005,0.467,0.121,0.567,0.375c-0.004-0.001,0.227,0.087,0.227,0.087c0.333,0.224,0.666,0.449,0.984,0.668
			c1.967,1.005,3.95,2.016,5.932,3.026c11.481,4.675,22.972,9.326,34.431,14.057c1.223,0.505,2.256,1.473,3.353,2.216
			c1.258,0.653,2.539,1.316,3.82,1.978c0.322,0.186,0.643,0.372,0.959,0.556c0.223,0.026,0.418,0.11,0.58,0.251
			c0.289-0.024,0.474,0.103,0.555,0.381c0.69,0.688,1.311,1.47,2.083,2.052c13.46,10.145,23.947,22.884,32.584,37.246
			c14.739,24.51,25.507,50.843,35.233,77.609c8.516,23.438,12.454,47.525,8.805,72.527c-2.839,19.453-8.867,37.885-17.2,55.609
			c-13.55,28.821-33.05,52.478-60.368,69.334c-21.474,13.249-44.911,21.604-69.081,28.347c-18.854,5.26-37.355,5.576-55.938-1.157
			c-16.052-5.816-32.746-7.611-49.783-7.154c-11.985,0.321-23.992,0.342-35.975,0.011c-11.319-0.313-22.25-2.851-32.68-7.395
			c-14.412-6.279-27.03-15.468-39.819-24.391c-1.176-0.821-2.594-1.297-3.899-1.933l0.079,0.058
			c-0.509-0.284-1.018-0.567-1.526-0.851l0.038,0.035c-0.521-0.507-1.042-1.014-1.563-1.521l0.064,0.049
			c-0.764-0.525-1.527-1.049-2.291-1.574l0.054,0.048c-0.27-0.269-0.539-0.537-0.809-0.806c0,0,0.056,0.058,0.056,0.058
			c-0.269-0.268-0.537-0.536-0.806-0.805l0.064,0.057c-0.274-0.268-0.547-0.536-0.82-0.804l0.083,0.058
			c-0.507-0.279-1.013-0.559-1.519-0.838c-24.692-19.403-38.845-44.809-44.315-75.643c-7.175-40.441-6.481-80.519,3.754-120.329
			c7.536-29.311,19.096-56.799,38.621-80.305c19.525-23.506,43.693-39.506,74.329-44.875c9.814-1.72,19.526-4.183,28.174-9.581
			c14.587-9.105,19.837-22.616,15.296-39.259c-2.797-10.252-8.279-19.172-13.511-28.265c-3.59-6.238-6.553-12.836-9.793-19.264
			C248.488,107.049,246.44,101.702,247.866,95.744z M294.972,182.576c-0.061,0.706-0.128,1.411-0.182,2.117
			c-1.155,15.278-12.147,28.229-27.074,31.626c-4.492,1.022-9.088,1.611-13.654,2.277c-37.762,5.507-65.963,25.105-84.901,58.025
			c-8.643,15.024-13.202,31.747-18.858,48.001c-9.274,26.651-15.447,53.865-12.899,82.255c1.772,19.747,4.535,39.415,7.234,59.067
			c1.533,11.16,6.515,20.878,14.209,29.19c11.031,11.919,22.038,23.862,32.966,35.875c10.999,12.092,24.478,19.793,40.622,22.138
			c23.081,3.352,46.178,6.812,69.381,9.049c24.834,2.394,49.432,0.089,73.1-8.499c25.622-9.297,46.702-24.458,59.753-48.952
			c14.716-27.618,22.697-57.344,24.12-88.518c0.939-20.562,0.422-41.213-0.072-61.81c-0.443-18.469-1.455-36.953-5.74-55.049
			c-7.142-30.167-23.446-53.216-52.209-66.285c-7.144-3.246-14.734-5.499-22.005-8.485c-4.373-1.796-8.788-3.726-12.727-6.296
			c-11.068-7.22-18.124-16.957-17.449-30.806c-16.903,4.446-31.349,12.775-43.704,26.135
			C303.895,201.885,301.144,191.783,294.972,182.576z"/>
		<g id="shadow_2_">
			<path style="fill:#0C0D11;" d="M167.132,536.697c1.306,0.636,2.723,1.112,3.899,1.933c12.789,8.924,25.407,18.112,39.819,24.391
				c10.43,4.544,21.361,7.082,32.68,7.395c11.984,0.331,23.991,0.31,35.975-0.011c17.036-0.456,33.731,1.338,49.783,7.154
				c18.583,6.733,37.084,6.417,55.938,1.157c24.169-6.743,47.607-15.098,69.081-28.347c27.319-16.855,46.819-40.513,60.368-69.334
				c8.332-17.724,14.361-36.156,17.2-55.609c3.649-25.002-0.289-49.089-8.805-72.527c-9.725-26.766-20.494-53.1-35.233-77.609
				c-8.637-14.362-19.124-27.101-32.584-37.246c-0.772-0.582-1.393-1.363-2.083-2.052c11.548,6.596,21.173,15.407,29.006,26.059
				c26.102,35.497,42.142,75.688,53.412,117.841c7.22,27.006,4.049,53.9-4.506,80.253c-9.813,30.228-24.544,57.5-48.269,79.227
				c-19.166,17.552-41.822,29.131-66.129,37.647c-14.315,5.015-28.787,9.52-43.921,11.598c-12.31,1.69-24.18-0.19-35.645-4.276
				c-19.866-7.082-40.268-8.483-61.112-7.528c-16.709,0.766-33.442,0.855-49.731-4.127c-10.579-3.236-20.251-8.336-29.391-14.396
				c-9.348-6.197-18.407-12.833-27.562-19.32C168.477,538.373,167.856,537.463,167.132,536.697z"/>
			<path style="fill:#0C0D11;" d="M401.761,212.396c-20.295-9.756-34.866-29.654-21.973-55.792
				c4.178-8.47,9.408-16.416,13.961-24.709c5.005-9.116,9.445-18.46,8.864-29.29c-0.111-2.068-0.25-4.134-0.375-6.201
				c0.808-0.314,1.659-0.547,2.411-0.96c1.754-0.964,2.348-0.534,2.929,1.464c2.717,9.338,1.545,18.393-2.443,26.932
				c-3.728,7.981-8.216,15.617-12.563,23.295c-4.546,8.028-9.101,16.053-10.774,25.257c-2.395,13.179,2.303,24,11.668,33.047
				C396.055,207.94,398.987,210.087,401.761,212.396z"/>
			<path style="fill:#0C0D11;" d="M329.49,114.688c-0.452,3.128-0.904,6.257-1.356,9.385c-7.441-18.542-16.648-35.57-32.727-47.955
				c0.541-1.495,1.268-2.556,2.939-1.163c2.646,2.206,5.683,4.094,7.84,6.706c5.855,7.09,11.488,14.378,16.893,21.817
				C325.594,106.94,327.376,110.935,329.49,114.688z"/>
			<path style="fill:#0C0D11;" d="M373.089,110.1c-0.316,1.995-1.657,2.406-2.835,1.118c-1.624-1.777-3.397-3.808-4.026-6.036
				c-2.448-8.675-2.487-17.46-0.031-26.202c0.536-1.908,0.939-3.853,1.405-5.78c6.722,1.226,6.848,1.264,4.929,7.736
				C369.622,90.746,369.977,100.435,373.089,110.1z"/>
			<path style="fill:#0C0D11;" d="M278.009,114.231c-0.246,1.019-0.492,2.039-0.738,3.058c-0.723-0.577-1.561-1.055-2.151-1.745
				c-6.813-7.973-14.899-14.284-24.353-18.801C261.491,100.036,270.336,106.221,278.009,114.231z"/>
		</g>
		<path style="fill:#0C0D11;" d="M409.472,216.552c-1.982-1.01-3.965-2.021-5.932-3.026
			C405.527,214.538,407.499,215.545,409.472,216.552z"/>
		<path style="fill:#0C0D11;" d="M401.059,94.071c-0.872-0.19-1.745-0.38-2.594-0.578C399.346,93.68,400.203,93.875,401.059,94.071z
			"/>
		<path style="fill:#0C0D11;" d="M451.076,234.804c-1.281-0.663-2.562-1.325-3.82-1.978
			C448.544,233.492,449.81,234.148,451.076,234.804z"/>
		<path style="fill:#0C0D11;" d="M164.159,534.419c0.521,0.507,1.042,1.014,1.563,1.521
			C165.201,535.433,164.68,534.926,164.159,534.419z"/>
		<path style="fill:#0C0D11;" d="M161.931,532.894c0.764,0.524,1.527,1.049,2.291,1.574
			C163.459,533.943,162.695,533.419,161.931,532.894z"/>
		<path style="fill:#0C0D11;" d="M158.233,529.862c0.506,0.28,1.012,0.559,1.519,0.838
			C159.246,530.421,158.74,530.141,158.233,529.862z"/>
		<path style="fill:#0C0D11;" d="M452.615,235.612c-0.162-0.142-0.357-0.226-0.58-0.251
			C452.283,235.353,452.474,235.437,452.615,235.612z"/>
		<path style="fill:#0C0D11;" d="M165.684,535.904c0.509,0.284,1.018,0.567,1.526,0.851
			C166.702,536.471,166.193,536.188,165.684,535.904z"/>
		<path style="fill:#0C0D11;" d="M159.669,530.643c0.273,0.268,0.547,0.536,0.82,0.804
			C160.216,531.179,159.943,530.911,159.669,530.643z"/>
		<path style="fill:#0C0D11;" d="M160.426,531.39c0.269,0.268,0.537,0.536,0.806,0.805
			C160.963,531.927,160.695,531.658,160.426,531.39z"/>
		<path style="fill:#0C0D11;" d="M402.556,212.858c0,0-0.231-0.088-0.227-0.087C402.333,212.772,402.556,212.858,402.556,212.858z"
			/>
		<path style="fill:#0C0D11;" d="M161.176,532.136c0.27,0.269,0.539,0.537,0.809,0.806
			C161.716,532.674,161.446,532.405,161.176,532.136z"/>
		<path style="fill:#FDFDFD;" d="M294.972,182.576c6.173,9.207,8.923,19.308,9.911,31.055
			c12.354-13.361,26.801-21.689,43.704-26.135c-0.675,13.849,6.38,23.586,17.449,30.806c3.939,2.57,8.354,4.5,12.727,6.296
			c7.271,2.987,14.861,5.239,22.005,8.485c28.764,13.07,45.067,36.118,52.209,66.285c4.284,18.097,5.297,36.58,5.74,55.049
			c0.494,20.596,1.011,41.248,0.072,61.81c-1.423,31.174-9.404,60.9-24.12,88.518c-13.051,24.494-34.131,39.655-59.753,48.952
			c-23.668,8.588-48.266,10.893-73.1,8.499c-23.203-2.237-46.3-5.696-69.381-9.049c-16.144-2.345-29.623-10.045-40.622-22.138
			c-10.928-12.014-21.934-23.957-32.966-35.875c-7.694-8.312-12.676-18.031-14.209-29.19c-2.699-19.651-5.462-39.319-7.234-59.067
			c-2.548-28.391,3.626-55.604,12.899-82.255c5.656-16.254,10.215-32.977,18.858-48.001c18.938-32.92,47.139-52.518,84.901-58.025
			c4.566-0.666,9.162-1.255,13.654-2.277c14.927-3.397,25.919-16.348,27.074-31.626
			C294.843,183.987,294.911,183.282,294.972,182.576z M406.241,398.182c2.286-0.893,5.031-1.262,6.765-2.783
			c3.984-3.496,7.859-7.256,11.091-11.441c7.648-9.902,5.71-17.063-5.63-22.492c-1.008-0.483-2.064-1.216-3.097-1.216
			c-1.534,0.001-3.539,0.043-4.526,0.954c-6.784,6.257-11.788,13.79-14.962,22.479C392.942,391.734,397.422,397.873,406.241,398.182
			z M270.028,360.305c0.316,9.333,2.001,17.569,5.7,25.343c3.236,6.802,9.601,8.595,15.195,3.598
			c2.495-2.229,4.851-5.865,5.132-9.051c0.527-5.978,0.042-12.189-1.012-18.127c-1.487-8.374-7.117-11.554-15.428-9.609
			c-1.573,0.368-3.098,0.935-4.655,1.378C271.292,354.881,268.878,356.753,270.028,360.305z M309.648,496.133
			c1.69,3.215,2.92,6.816,5.197,9.541c2.422,2.9,5.757,5.077,8.83,7.387c13.316,10.013,20.384,4.204,24.833-8.539
			c0.041-0.118,0.144-0.249,0.119-0.349c-0.386-1.517-0.31-3.505-1.264-4.468c-6.612-6.67-14.628-11.105-23.569-13.878
			C316.256,483.49,310.7,487.641,309.648,496.133z M389.568,313.195c1.569,2.676,2.653,5.875,4.832,7.891
			c2.575,2.382,5.989,3.986,9.263,5.413c1.175,0.512,3.455,0.038,4.457-0.855c6.815-6.07,11.659-13.569,14.938-22.063
			c3.432-8.89-2.228-15.811-11.726-14.417C403.684,290.287,390.751,304.853,389.568,313.195z M298.848,422.524
			c2.612-1.027,5.493-1.645,7.783-3.158c6.389-4.222,10.8-10.323,14.185-17.051c2.182-4.336,1.267-8.76-2.46-11.875
			c-2.815-2.352-6.299-3.896-9.451-5.854c-2.056-1.277-3.606-0.697-5.226,0.907c-6.561,6.496-11.675,13.928-14.817,22.634
			C286.05,415.919,290.253,421.805,298.848,422.524z M343.621,349.087c0.117-4.948-1.822-7.936-5.534-9.452
			c-4.778-1.951-9.529-1.545-13.392,1.72c-3.667,3.1-6.964,6.747-9.943,10.531c-8.043,10.217-6.399,17.024,5.205,22.836
			c0.998,0.5,2.077,0.844,3.058,1.373c1.981,1.068,3.379,0.405,4.911-1.076c6.653-6.436,11.59-13.966,14.824-22.616
			C343.264,351.025,343.504,349.544,343.621,349.087z M247.401,516.977c2.411-0.887,5.109-1.347,7.179-2.74
			c6.647-4.475,11.539-10.618,14.809-17.889c1.997-4.441,0.748-8.965-3.241-12.036c-2.726-2.099-5.955-3.547-8.966-5.274
			c-1.874-1.075-3.367-0.689-4.935,0.854c-6.584,6.476-11.671,13.928-14.9,22.579C234.367,510.456,238.604,516.371,247.401,516.977z
			 M404.46,277.762c-1.517-3.876-2.865-7.832-4.662-11.574c-0.491-1.022-2.33-1.978-3.548-1.976
			c-9.453,0.021-18.228,2.579-26.166,7.768c-3.117,2.038-3.172,3.769-0.861,6.759c4.244,5.492,8.255,11.168,12.587,16.588
			c0.895,1.12,2.782,2.082,4.192,2.054C395.621,297.196,403.554,288.353,404.46,277.762z M330.964,301.727
			c-0.792,0.712-2.111,1.573-3.007,2.754c-8.902,11.736-1.379,29.475,13.293,31.203c1.318,0.155,3.163-0.653,4.135-1.635
			c6.288-6.354,10.313-14.021,12.395-22.699c1.09-4.544,0.01-5.799-4.649-6.241c-5.193-0.493-10.371-1.179-15.539-1.895
			C335.624,302.94,333.7,302.352,330.964,301.727z M414.706,419.952c-0.311-9.282-7.052-17.314-16.683-19.194
			c-1.493-0.291-3.785,0.345-4.825,1.413c-6.315,6.482-10.484,14.231-12.501,23.085c-0.932,4.093,0.226,5.379,4.389,5.797
			c5.559,0.559,11.132,1.184,16.619,2.209c7.309,1.365,9.219,0.48,11.603-6.753C414.004,424.399,414.252,422.142,414.706,419.952z
			 M334.677,386.419c0.672,4.298,1.11,8.648,2.068,12.881c1.529,6.751,5.515,9.793,12.428,9.043
			c3.631-0.394,7.171-1.888,10.658-3.145c0.758-0.273,1.554-1.636,1.591-2.528c0.434-10.273-1.461-20.113-6.271-29.24
			c-2.548-4.834-7.12-6.139-12.11-3.738C335.974,373.093,334.802,379.421,334.677,386.419z M404.016,350.131
			c-0.833-4.768-1.389-9.606-2.57-14.285c-1.49-5.901-6.109-8.92-12.106-8.001c-3.281,0.503-6.441,1.776-9.665,2.669
			c-2.007,0.556-2.552,1.839-2.596,3.876c-0.2,9.249,1.525,18.079,5.335,26.5c3.631,8.025,11.384,9.173,17.336,2.587
			C403.186,359.675,403.722,355.039,404.016,350.131z M247.385,257.905c0.146,8.712,2.019,17.027,5.881,24.853
			c2.698,5.467,7.252,7.026,12.73,4.404c5.301-2.537,7.773-7.126,7.724-12.671c-0.05-5.69-0.599-11.45-1.667-17.038
			c-1.231-6.441-5.665-9.42-12.215-8.889c-2.324,0.189-4.668,0.773-6.885,1.523C247.336,251.985,247.362,252.064,247.385,257.905z
			 M355.87,492.332c5.226-1.109,10.551-1.886,15.652-3.411c6.324-1.891,9.086-6.531,7.816-12.982
			c-0.663-3.369-2.192-6.601-3.626-9.761c-0.389-0.857-1.847-1.733-2.823-1.743c-10.35-0.103-20.006,2.622-28.888,7.866
			c-4.175,2.465-5.258,6.469-3.514,11.037C342.654,489.013,347.817,491.87,355.87,492.332z M287.439,506.925
			c9.062-0.228,17.036-6.727,19.384-15.667c0.94-3.577,0.453-5.971-2.795-8.27c-6.63-4.692-13.672-8.187-21.682-9.67
			c-5-0.926-6.13,0.164-6.311,5.361c-0.19,5.459-0.434,10.949-1.203,16.347c-0.969,6.801-0.436,8.188,6.099,10.365
			C283.037,506.092,285.266,506.424,287.439,506.925z M217.21,339.09c0.02,11.034,7.559,19.724,17.433,21.025
			c1.18,0.156,2.981-0.185,3.646-0.993c5.812-7.07,10.661-14.712,12.714-23.805c0.891-3.944-0.42-5.424-4.462-5.847
			c-5.546-0.58-11.106-1.202-16.582-2.224c-7.285-1.359-9.313-0.399-11.65,6.75C217.657,335.991,217.413,338.118,217.21,339.09z
			 M202.883,387.507c0.255,0.903,0.413,2.456,1.1,3.723c2.962,5.466,8.287,7.7,13.776,9.57c0.623,0.212,1.743-0.235,2.297-0.743
			c7.792-7.15,13.501-15.673,16.477-25.874c1.049-3.594-0.098-6.754-3.135-8.94c-3.313-2.385-7.054-3.012-11.044-1.929
			c-6.84,1.858-18.414,15.116-19.285,22.12C203.007,385.928,202.979,386.426,202.883,387.507z M226.15,416.67
			c-1.666-2.629-2.886-5.754-5.115-7.755c-2.524-2.266-5.851-3.774-9.043-5.091c-1.207-0.499-3.492-0.068-4.47,0.828
			c-6.828,6.253-11.839,13.807-15.031,22.522c-3.042,8.308,2.22,14.948,11.022,13.957C211.858,440.19,225.092,425.643,226.15,416.67
			z M307.724,444.172c-0.286-9.383-7.704-18.044-16.958-19.226c-1.457-0.186-3.542,0.462-4.547,1.493
			c-6.217,6.377-10.276,14.037-12.38,22.684c-1.087,4.47,0.105,5.822,4.708,6.297c5.305,0.547,10.643,1.012,15.869,2.019
			c7.577,1.46,9.845,0.372,12.113-7.059C307.142,448.376,307.337,446.245,307.724,444.172z M354.39,235.336
			c0.164,7.462,2.023,15.319,5.58,22.726c3.236,6.738,9.88,8.273,15.345,3.208c2.233-2.07,4.08-5.16,4.828-8.109
			c1.859-7.331,0.38-14.686-1.727-21.769c-1.495-5.027-5.445-7.458-10.609-7.136c-2.461,0.154-4.966,0.624-7.313,1.381
			C354.103,227.698,354.007,227.972,354.39,235.336z M421.571,454.031c0.301-0.116,0.602-0.231,0.903-0.347
			c-1.537-3.996-2.934-8.056-4.712-11.943c-0.428-0.935-2.107-1.816-3.226-1.836c-9.755-0.173-18.669,2.697-26.828,7.967
			c-2.516,1.625-2.643,3.617-0.826,5.992c4.374,5.72,8.558,11.588,13.047,17.213c0.88,1.102,2.84,2.04,4.218,1.936
			C414.158,472.258,421.517,464.095,421.571,454.031z M254.486,422.271c-0.216-8.361-2.158-16.321-5.842-23.805
			c-2.785-5.658-7.982-7.131-13.476-4.036c-3.458,1.948-5.651,4.918-6.45,8.78c-1.666,8.053-0.484,15.915,2.229,23.529
			c1.2,3.368,3.925,5.662,7.627,5.755c3.059,0.077,6.247-0.176,9.185-0.986C254.551,429.637,254.692,429.202,254.486,422.271z
			 M266.303,453.004c-1.567-4.123-2.967-8.323-4.815-12.315c-0.475-1.025-2.376-1.996-3.602-1.971
			c-9.287,0.188-17.975,2.642-25.837,7.684c-3.308,2.122-3.37,3.988-0.955,7.037c4.078,5.149,8.231,10.275,11.816,15.762
			c1.78,2.724,3.691,3.29,6.466,2.793C258.338,470.388,265.123,462.496,266.303,453.004z M327.825,275.286
			c-0.468-7.403-3.69-13.317-10.072-17.303c-0.958-0.598-2.694-0.741-3.73-0.298c-8.684,3.716-15.802,9.454-21.174,17.249
			c-2.014,2.922-1.442,4.697,1.519,6.408c6.123,3.539,12.263,7.057,18.251,10.815c1.888,1.185,3.323,1.181,5.112,0.121
			C324.171,288.46,327.312,282.725,327.825,275.286z M288.398,288.298c-8.822,0.668-16.45,2.681-23.457,6.825
			c-5.29,3.128-5.303,4.463-1.463,9.127c3.756,4.562,7.207,9.426,10.3,14.46c1.557,2.534,3.11,3.435,5.954,3.051
			c13.947-1.884,21.198-16.896,14.311-29.635C292.615,289.48,291.018,287.511,288.398,288.298z M361.03,280.278
			c-0.242-0.104-0.485-0.209-0.727-0.313c-0.38-3.591-0.288-7.316-1.26-10.739c-1.199-4.224-2.741-8.552-5.127-12.184
			c-2.688-4.092-8.936-5.166-13.158-3.228c-4.517,2.073-3.895,6.325-3.178,9.741c1.781,8.48,3.792,16.976,6.618,25.152
			c2.176,6.296,9.375,6.975,13.18,1.421C359.298,287.326,359.857,283.591,361.03,280.278z M253.502,302.963
			c-0.76-4.063-1.482-10.02-3.055-15.744c-1.564-5.693-5.477-9.421-11.694-10.01c-4.914-0.466-8.294,1.874-8.277,6.678
			c0.04,10.848,2.621,21.248,7.663,30.861c2.088,3.98,6.431,4.336,10.347,1.642C252.584,313.572,253.094,309.261,253.502,302.963z
			 M416.586,402.9c1.196,6.501,1.962,12.435,3.448,18.182c1.158,4.479,3.978,8.002,8.72,9.485
			c7.363,2.303,12.498-1.153,11.256-8.601c-1.503-9.013-3.88-17.956-6.761-26.637c-2.038-6.142-9.116-6.899-12.978-1.602
			C418.334,396.385,417.703,399.995,416.586,402.9z M287.581,532.517c9.24-1.266,19.092-3.931,28.069-9.124
			c4.178-2.417,4.885-6.892,1.709-10.542c-1.535-1.764-3.919-3.54-6.122-3.844c-9.248-1.277-18.242,0.282-26.317,4.987
			c-2.452,1.429-4.596,4.409-5.57,7.146C277.007,527.725,280.33,532.506,287.581,532.517z M309.709,427.391
			c1.154,6.537,1.855,11.97,3.129,17.265c1.051,4.37,3.581,7.933,7.939,9.797c7.437,3.18,12.777-0.299,12.338-8.235
			c-0.513-9.283-2.87-18.18-6.661-26.646c-2.659-5.939-8.885-6.996-12.82-1.822C311.46,420.608,310.787,424.607,309.709,427.391z
			 M321.945,331.682c-1.342-6.051-2.348-12.203-4.136-18.119c-1.328-4.394-4.685-7.247-9.413-8.223
			c-6.334-1.307-10.123,1.463-9.931,7.852c0.295,9.851,2.821,19.255,6.949,28.161c2.471,5.331,7.592,6.115,12.012,2.19
			C320.969,340.395,321.29,336.183,321.945,331.682z M214.442,356.926c0.306-0.085,0.613-0.171,0.919-0.256
			c-1.738-6.832-2.93-13.869-5.386-20.432c-1.998-5.34-7.663-7.654-12.948-6.664c-2.888,0.541-5.172,1.833-5.285,5.261
			c-0.384,11.621,2.497,22.49,7.925,32.657c1.575,2.95,5.065,3.439,8.279,1.925C213.288,366.901,214.295,362.133,214.442,356.926z
			 M350.456,412.405c-0.014-0.166-0.028-0.332-0.041-0.497c-3.833,0.336-7.737,0.32-11.482,1.084
			c-6.875,1.402-10.48,7.725-7.309,12.974c2.472,4.092,6.56,6.212,11.5,6.349c7.861,0.217,15.027-1.874,21.307-6.62
			c1.329-1.004,2.537-2.461,3.221-3.971c2.286-5.051-1.398-10.367-6.787-10.025C357.394,411.917,353.925,412.168,350.456,412.405z
			 M311.446,481.765c7.391-0.841,14.041-2.728,19.767-7.131c1.502-1.155,2.915-2.842,3.585-4.586
			c1.992-5.183-1.698-9.885-7.076-9.575c-5.099,0.294-10.221,0.216-15.313,0.572c-2.953,0.207-5.988,0.596-8.772,1.536
			c-3.364,1.136-5.685,3.667-5.997,7.422c-0.308,3.702,1.335,6.775,4.476,8.448C304.996,479.987,308.318,480.694,311.446,481.765z
			 M360.636,299.262c0.065,0,0.13,0,0.196,0c0,4.965-0.401,9.974,0.134,14.881c0.39,3.584,2.722,6.431,6.553,7.396
			c3.673,0.925,6.666-0.524,9.043-3.171c6.512-7.254,3.607-27.992-4.589-33.215c-3.278-2.089-6.722-1.336-9.536,0.495
			c-1.243,0.809-1.536,3.504-1.73,5.397C360.429,293.758,360.636,296.521,360.636,299.262z M367.76,342.687
			c0.199-0.003,0.397-0.005,0.596-0.008c-0.128-2.111-0.064-4.255-0.421-6.327c-0.947-5.499-4.166-8.998-8.299-9.309
			c-4.462-0.336-9.112,2.83-10.241,8.15c-0.909,4.281-1.339,9.018-0.451,13.231c0.997,4.733,3.302,9.348,5.805,13.557
			c2.163,3.637,6,3.145,9.765,2.13c3.553-0.958,3.243-3.534,3.244-6.138C367.763,352.878,367.76,347.783,367.76,342.687z
			 M229.498,477.054c0-4.606,0.311-9.238-0.086-13.809c-0.413-4.769-3.925-8.304-7.878-8.83c-3.774-0.502-8.124,2.276-10.045,6.43
			c-0.261,0.565-0.543,1.137-0.686,1.737c-2.306,9.674-0.381,18.53,5.326,26.582c0.689,0.972,1.776,1.806,2.86,2.329
			c5.225,2.519,10.577-0.89,10.517-6.596C229.479,482.283,229.502,479.668,229.498,477.054z M370.683,392.334
			c-0.081,0-0.162,0-0.242,0c0,1.996-0.103,3.997,0.019,5.986c0.372,6.081,3.802,10.466,8.374,10.844
			c4.907,0.405,9.772-3.12,10.622-9.077c0.704-4.935,0.559-10.238-0.49-15.101c-0.856-3.969-3.209-7.813-5.624-11.194
			c-2.518-3.526-6.375-2.395-9.962-1.377c-3.492,0.991-2.586,3.817-2.655,6.12C370.586,383.13,370.683,387.734,370.683,392.334z
			 M263.882,419.106c-0.221,0.005-0.441,0.01-0.662,0.014c0.142,1.609,0.17,3.238,0.445,4.824c0.949,5.468,3.987,9.062,7.77,9.334
			c5.466,0.394,9.451-2.483,11.046-8.467c2.51-9.419,0.175-17.986-5.158-25.889c-0.479-0.71-1.137-1.343-1.827-1.859
			c-3.145-2.351-6.322-1.279-9.575-0.132c-2.949,1.04-1.945,3.457-1.991,5.372C263.794,407.901,263.882,413.505,263.882,419.106z
			 M359.376,455.6c0.054,0.328,0.108,0.656,0.162,0.984c4.588-0.889,9.492-1.041,13.693-2.837
			c6.632-2.835,6.952-11.004,0.943-15.072c-1.797-1.217-4.024-2.159-6.16-2.452c-8.527-1.17-16.299,1.083-23.311,5.985
			c-1,0.699-1.884,1.645-2.622,2.626c-2.502,3.326-1.139,6.614,0.254,9.874c1.27,2.971,3.877,1.635,5.891,1.624
			C351.944,456.311,355.659,455.867,359.376,455.6z M260.947,370.67c0.033,0,0.065,0,0.098,0c0-3.238,0.2-6.491-0.047-9.709
			c-0.376-4.911-3.706-8.903-7.581-9.544c-4.357-0.721-9.01,1.968-10.561,7.054c-1.096,3.592-1.47,7.571-1.314,11.341
			c0.251,6.075,2.365,11.71,6.214,16.51c2.42,3.018,5.827,3.275,10.241,1.866c3.843-1.227,2.823-4.169,2.916-6.714
			C261.045,377.877,260.947,374.271,260.947,370.67z M253.705,329.446c-0.181,0.006-0.363,0.013-0.544,0.019
			c0.214,2.843,0.135,5.747,0.709,8.515c0.975,4.7,4.41,7.912,8.11,8.154c3.951,0.258,8.35-2.409,9.646-6.889
			c1.081-3.734,1.452-7.806,1.37-11.713c-0.122-5.84-2.271-11.201-5.705-15.938c-2.491-3.437-5.955-3.918-10.751-2.318
			c-4.013,1.34-2.72,4.492-2.799,7.132C253.61,320.751,253.705,325.1,253.705,329.446z"/>
		<path style="fill:#F80E4A;" d="M406.241,398.182c-8.819-0.308-13.299-6.448-10.358-14.498c3.174-8.689,8.177-16.222,14.962-22.479
			c0.987-0.911,2.992-0.953,4.526-0.954c1.033-0.001,2.089,0.733,3.097,1.216c11.339,5.428,13.277,12.59,5.63,22.492
			c-3.232,4.184-7.107,7.945-11.091,11.441C411.272,396.92,408.527,397.289,406.241,398.182z"/>
		<path style="fill:#F80E4A;" d="M270.028,360.305c-1.15-3.552,1.264-5.424,4.932-6.467c1.557-0.443,3.082-1.01,4.655-1.378
			c8.311-1.946,13.941,1.235,15.428,9.609c1.054,5.938,1.54,12.149,1.012,18.127c-0.281,3.186-2.637,6.822-5.132,9.051
			c-5.595,4.997-11.959,3.204-15.195-3.598C272.029,377.874,270.344,369.638,270.028,360.305z"/>
		<path style="fill:#F80E4A;" d="M309.648,496.133c1.052-8.492,6.608-12.643,14.146-10.305c8.941,2.773,16.956,7.208,23.569,13.878
			c0.955,0.963,0.878,2.951,1.264,4.468c0.025,0.1-0.078,0.231-0.119,0.349c-4.449,12.743-11.518,18.551-24.833,8.539
			c-3.073-2.311-6.408-4.487-8.83-7.387C312.568,502.948,311.338,499.348,309.648,496.133z"/>
		<path style="fill:#F80E4A;" d="M389.568,313.195c1.183-8.343,14.116-22.908,21.764-24.03c9.498-1.393,15.158,5.527,11.726,14.417
			c-3.279,8.493-8.123,15.993-14.938,22.063c-1.002,0.892-3.282,1.367-4.457,0.855c-3.274-1.427-6.689-3.031-9.263-5.413
			C392.221,319.071,391.137,315.871,389.568,313.195z"/>
		<path style="fill:#F80E4A;" d="M298.848,422.524c-8.595-0.72-12.798-6.606-9.986-14.397c3.142-8.706,8.255-16.138,14.817-22.634
			c1.621-1.604,3.171-2.184,5.226-0.907c3.152,1.958,6.637,3.502,9.451,5.854c3.727,3.115,4.642,7.539,2.46,11.875
			c-3.385,6.728-7.796,12.829-14.185,17.051C304.341,420.879,301.46,421.498,298.848,422.524z"/>
		<path style="fill:#F80E4A;" d="M343.621,349.087c-0.117,0.458-0.357,1.938-0.872,3.316c-3.234,8.65-8.171,16.18-14.824,22.616
			c-1.532,1.482-2.93,2.144-4.911,1.076c-0.981-0.529-2.06-0.873-3.058-1.373c-11.604-5.811-13.248-12.619-5.205-22.836
			c2.979-3.784,6.275-7.432,9.943-10.531c3.864-3.265,8.615-3.671,13.392-1.72C341.799,341.151,343.737,344.139,343.621,349.087z"/>
		<path style="fill:#F80E4A;" d="M247.401,516.977c-8.797-0.605-13.034-6.521-10.054-14.506c3.228-8.651,8.315-16.103,14.9-22.579
			c1.568-1.543,3.062-1.929,4.935-0.854c3.011,1.727,6.24,3.175,8.966,5.274c3.989,3.071,5.238,7.595,3.241,12.036
			c-3.27,7.271-8.161,13.414-14.809,17.889C252.51,515.63,249.811,516.089,247.401,516.977z"/>
		<path style="fill:#F80E4A;" d="M404.46,277.762c-0.906,10.591-8.839,19.434-18.458,19.62c-1.409,0.027-3.297-0.934-4.192-2.054
			c-4.332-5.42-8.342-11.096-12.587-16.588c-2.31-2.99-2.256-4.721,0.861-6.759c7.938-5.189,16.713-7.747,26.166-7.768
			c1.218-0.003,3.057,0.954,3.548,1.976C401.595,269.93,402.943,273.887,404.46,277.762z"/>
		<path style="fill:#F80E4A;" d="M330.964,301.727c2.736,0.625,4.66,1.214,6.628,1.486c5.169,0.716,10.346,1.402,15.539,1.895
			c4.659,0.442,5.739,1.698,4.649,6.241c-2.082,8.679-6.107,16.345-12.395,22.699c-0.972,0.982-2.817,1.79-4.135,1.635
			c-14.672-1.728-22.195-19.467-13.293-31.203C328.853,303.3,330.172,302.439,330.964,301.727z"/>
		<path style="fill:#F80E4A;" d="M414.706,419.952c-0.453,2.19-0.702,4.448-1.397,6.558c-2.384,7.233-4.294,8.118-11.603,6.753
			c-5.487-1.025-11.06-1.65-16.619-2.209c-4.162-0.419-5.321-1.704-4.389-5.797c2.017-8.854,6.185-16.604,12.501-23.085
			c1.04-1.067,3.332-1.704,4.825-1.413C407.654,402.638,414.395,410.669,414.706,419.952z"/>
		<path style="fill:#F80E4A;" d="M334.677,386.419c0.126-6.999,1.297-13.327,8.364-16.727c4.99-2.401,9.562-1.096,12.11,3.738
			c4.81,9.127,6.705,18.967,6.271,29.24c-0.038,0.892-0.834,2.255-1.591,2.528c-3.488,1.256-7.027,2.75-10.658,3.145
			c-6.913,0.751-10.899-2.292-12.428-9.043C335.786,395.068,335.348,390.717,334.677,386.419z"/>
		<path style="fill:#F80E4A;" d="M404.016,350.131c-0.294,4.908-0.83,9.544-4.266,13.346c-5.952,6.586-13.706,5.437-17.336-2.587
			c-3.81-8.421-5.535-17.251-5.335-26.5c0.044-2.037,0.59-3.32,2.596-3.876c3.224-0.893,6.384-2.166,9.665-2.669
			c5.996-0.919,10.616,2.1,12.106,8.001C402.627,340.525,403.182,345.363,404.016,350.131z"/>
		<path style="fill:#F80E4A;" d="M247.385,257.905c-0.023-5.841-0.049-5.92,5.568-7.818c2.218-0.749,4.561-1.334,6.885-1.523
			c6.55-0.532,10.984,2.447,12.215,8.889c1.068,5.588,1.617,11.348,1.667,17.038c0.049,5.545-2.424,10.134-7.724,12.671
			c-5.478,2.622-10.031,1.063-12.73-4.404C249.404,274.931,247.531,266.617,247.385,257.905z"/>
		<path style="fill:#F80E4A;" d="M355.87,492.332c-8.053-0.462-13.217-3.319-15.383-8.995c-1.744-4.569-0.661-8.572,3.514-11.037
			c8.882-5.244,18.538-7.969,28.888-7.866c0.976,0.01,2.434,0.886,2.823,1.743c1.433,3.16,2.962,6.393,3.626,9.761
			c1.27,6.451-1.492,11.091-7.816,12.982C366.421,490.446,361.096,491.223,355.87,492.332z"/>
		<path style="fill:#F80E4A;" d="M287.439,506.925c-2.173-0.501-4.402-0.833-6.508-1.534c-6.535-2.177-7.068-3.564-6.099-10.365
			c0.769-5.398,1.013-10.888,1.203-16.347c0.181-5.197,1.311-6.287,6.311-5.361c8.01,1.483,15.052,4.979,21.682,9.67
			c3.249,2.299,3.735,4.694,2.795,8.27C304.475,500.197,296.501,506.696,287.439,506.925z"/>
		<path style="fill:#F80E4A;" d="M217.21,339.09c0.203-0.972,0.447-3.099,1.099-5.093c2.337-7.149,4.365-8.109,11.65-6.75
			c5.476,1.022,11.037,1.643,16.582,2.224c4.041,0.423,5.352,1.903,4.462,5.847c-2.053,9.093-6.902,16.735-12.714,23.805
			c-0.664,0.808-2.465,1.148-3.646,0.993C224.769,358.814,217.23,350.124,217.21,339.09z"/>
		<path style="fill:#F80E4A;" d="M202.883,387.507c0.095-1.081,0.124-1.579,0.186-2.074c0.87-7.003,12.445-20.262,19.285-22.12
			c3.99-1.084,7.732-0.456,11.044,1.929c3.037,2.187,4.183,5.346,3.135,8.94c-2.977,10.201-8.686,18.724-16.477,25.874
			c-0.554,0.508-1.674,0.955-2.297,0.743c-5.489-1.87-10.814-4.104-13.776-9.57C203.296,389.963,203.138,388.41,202.883,387.507z"/>
		<path style="fill:#F80E4A;" d="M226.15,416.67c-1.058,8.973-14.292,23.52-22.637,24.46c-8.802,0.992-14.064-5.649-11.022-13.957
			c3.191-8.714,8.203-16.268,15.031-22.522c0.979-0.896,3.263-1.326,4.47-0.828c3.192,1.318,6.518,2.826,9.043,5.091
			C223.264,410.916,224.485,414.041,226.15,416.67z"/>
		<path style="fill:#F80E4A;" d="M307.724,444.172c-0.387,2.073-0.582,4.204-1.194,6.208c-2.268,7.431-4.537,8.519-12.113,7.059
			c-5.226-1.007-10.565-1.472-15.869-2.019c-4.603-0.475-5.795-1.826-4.708-6.297c2.104-8.647,6.163-16.308,12.38-22.684
			c1.005-1.031,3.09-1.679,4.547-1.493C300.02,426.129,307.438,434.79,307.724,444.172z"/>
		<path style="fill:#F80E4A;" d="M354.39,235.336c-0.383-7.364-0.287-7.638,6.104-9.699c2.347-0.757,4.852-1.227,7.313-1.381
			c5.164-0.323,9.114,2.109,10.609,7.136c2.106,7.083,3.586,14.438,1.727,21.769c-0.748,2.949-2.595,6.039-4.828,8.109
			c-5.465,5.065-12.109,3.53-15.345-3.208C356.413,250.656,354.554,242.798,354.39,235.336z"/>
		<path style="fill:#F80E4A;" d="M421.571,454.031c-0.054,10.064-7.413,18.228-17.424,18.984c-1.378,0.104-3.338-0.834-4.218-1.936
			c-4.489-5.626-8.673-11.493-13.047-17.213c-1.817-2.376-1.69-4.367,0.826-5.992c8.158-5.271,17.073-8.14,26.828-7.967
			c1.119,0.02,2.798,0.901,3.226,1.836c1.777,3.886,3.175,7.946,4.712,11.943C422.173,453.8,421.872,453.915,421.571,454.031z"/>
		<path style="fill:#F80E4A;" d="M254.486,422.271c0.206,6.931,0.065,7.366-6.727,9.238c-2.937,0.81-6.125,1.063-9.185,0.986
			c-3.703-0.093-6.427-2.387-7.627-5.755c-2.713-7.613-3.895-15.475-2.229-23.529c0.799-3.862,2.992-6.832,6.45-8.78
			c5.494-3.094,10.691-1.621,13.476,4.036C252.328,405.95,254.27,413.911,254.486,422.271z"/>
		<path style="fill:#F80E4A;" d="M266.303,453.004c-1.18,9.492-7.965,17.384-16.926,18.989c-2.775,0.497-4.686-0.068-6.466-2.793
			c-3.585-5.486-7.738-10.613-11.816-15.762c-2.415-3.049-2.353-4.916,0.955-7.037c7.861-5.043,16.55-7.496,25.837-7.684
			c1.225-0.025,3.127,0.946,3.602,1.971C263.337,444.681,264.737,448.881,266.303,453.004z"/>
		<path style="fill:#F80E4A;" d="M327.825,275.286c-0.513,7.439-3.655,13.174-10.094,16.992c-1.789,1.061-3.224,1.064-5.112-0.121
			c-5.988-3.758-12.128-7.276-18.251-10.815c-2.961-1.711-3.533-3.486-1.519-6.408c5.373-7.795,12.491-13.534,21.174-17.249
			c1.036-0.443,2.772-0.3,3.73,0.298C324.136,261.969,327.358,267.883,327.825,275.286z"/>
		<path style="fill:#F80E4A;" d="M288.398,288.298c2.62-0.787,4.216,1.182,5.646,3.827c6.886,12.739-0.365,27.751-14.311,29.635
			c-2.844,0.384-4.397-0.517-5.954-3.051c-3.093-5.034-6.544-9.898-10.3-14.46c-3.84-4.664-3.827-5.998,1.463-9.127
			C271.948,290.979,279.577,288.966,288.398,288.298z"/>
		<path style="fill:#F80E4A;" d="M361.03,280.278c-1.174,3.313-1.732,7.048-3.652,9.85c-3.804,5.555-11.004,4.875-13.18-1.421
			c-2.826-8.176-4.837-16.672-6.618-25.152c-0.717-3.416-1.339-7.668,3.178-9.741c4.222-1.938,10.47-0.864,13.158,3.228
			c2.385,3.632,3.928,7.96,5.127,12.184c0.972,3.423,0.88,7.148,1.26,10.739C360.546,280.07,360.788,280.174,361.03,280.278z"/>
		<path style="fill:#F80E4A;" d="M253.502,302.963c-0.408,6.298-0.918,10.608-5.016,13.427c-3.915,2.694-8.259,2.338-10.347-1.642
			c-5.042-9.612-7.623-20.013-7.663-30.861c-0.018-4.804,3.363-7.144,8.277-6.678c6.217,0.589,10.13,4.317,11.694,10.01
			C252.019,292.943,252.742,298.9,253.502,302.963z"/>
		<path style="fill:#F80E4A;" d="M416.586,402.9c1.117-2.905,1.748-6.515,3.685-9.173c3.862-5.297,10.94-4.54,12.978,1.602
			c2.881,8.681,5.258,17.624,6.761,26.637c1.242,7.447-3.893,10.904-11.256,8.601c-4.742-1.483-7.562-5.006-8.72-9.485
			C418.549,415.335,417.782,409.402,416.586,402.9z"/>
		<path style="fill:#F80E4A;" d="M287.581,532.517c-7.251-0.012-10.574-4.792-8.23-11.378c0.974-2.736,3.118-5.717,5.57-7.146
			c8.075-4.706,17.069-6.264,26.317-4.987c2.202,0.304,4.586,2.079,6.122,3.844c3.177,3.651,2.469,8.126-1.709,10.542
			C306.672,528.586,296.82,531.251,287.581,532.517z"/>
		<path style="fill:#F80E4A;" d="M309.709,427.391c1.078-2.784,1.751-6.783,3.924-9.641c3.935-5.174,10.161-4.117,12.82,1.822
			c3.791,8.466,6.149,17.363,6.661,26.646c0.438,7.936-4.901,11.415-12.338,8.235c-4.358-1.863-6.888-5.427-7.939-9.797
			C311.564,439.361,310.863,433.928,309.709,427.391z"/>
		<path style="fill:#F80E4A;" d="M321.945,331.682c-0.654,4.5-0.975,8.712-4.52,11.86c-4.419,3.925-9.541,3.141-12.012-2.19
			c-4.128-8.907-6.654-18.31-6.949-28.161c-0.192-6.388,3.598-9.159,9.931-7.852c4.728,0.976,8.086,3.829,9.413,8.223
			C319.596,319.48,320.603,325.632,321.945,331.682z"/>
		<path style="fill:#F80E4A;" d="M214.442,356.926c-0.147,5.206-1.155,9.975-6.495,12.491c-3.214,1.514-6.705,1.024-8.279-1.925
			c-5.428-10.167-8.31-21.036-7.925-32.657c0.113-3.428,2.397-4.72,5.285-5.261c5.285-0.989,10.949,1.324,12.948,6.664
			c2.456,6.563,3.648,13.6,5.386,20.432C215.055,356.756,214.749,356.841,214.442,356.926z"/>
		<path style="fill:#F80E4A;" d="M350.456,412.405c3.469-0.237,6.938-0.488,10.408-0.708c5.389-0.341,9.073,4.974,6.787,10.025
			c-0.684,1.511-1.892,2.967-3.221,3.971c-6.28,4.746-13.446,6.838-21.307,6.62c-4.94-0.137-9.029-2.257-11.5-6.349
			c-3.171-5.249,0.435-11.571,7.309-12.974c3.745-0.764,7.65-0.748,11.482-1.084C350.428,412.073,350.442,412.239,350.456,412.405z"
			/>
		<path style="fill:#F80E4A;" d="M311.446,481.765c-3.128-1.071-6.45-1.778-9.331-3.313c-3.141-1.674-4.784-4.746-4.476-8.448
			c0.313-3.755,2.634-6.286,5.997-7.422c2.784-0.94,5.818-1.33,8.772-1.536c5.093-0.356,10.215-0.278,15.313-0.572
			c5.378-0.31,9.068,4.392,7.076,9.575c-0.67,1.744-2.083,3.431-3.585,4.586C325.488,479.037,318.837,480.924,311.446,481.765z"/>
		<path style="fill:#F80E4A;" d="M360.636,299.262c0-2.742-0.207-5.504,0.071-8.217c0.194-1.893,0.487-4.589,1.73-5.397
			c2.814-1.831,6.258-2.584,9.536-0.495c8.196,5.223,11.101,25.961,4.589,33.215c-2.376,2.647-5.37,4.096-9.043,3.171
			c-3.831-0.965-6.163-3.813-6.553-7.396c-0.534-4.907-0.134-9.916-0.134-14.881C360.767,299.262,360.701,299.262,360.636,299.262z"
			/>
		<path style="fill:#F80E4A;" d="M367.76,342.687c0,5.096,0.003,10.191-0.001,15.287c-0.002,2.605,0.309,5.181-3.244,6.138
			c-3.765,1.015-7.602,1.507-9.765-2.13c-2.504-4.21-4.808-8.825-5.805-13.557c-0.888-4.212-0.458-8.95,0.451-13.231
			c1.129-5.32,5.779-8.485,10.241-8.15c4.133,0.311,7.352,3.81,8.299,9.309c0.357,2.072,0.293,4.216,0.421,6.327
			C368.157,342.682,367.959,342.685,367.76,342.687z"/>
		<path style="fill:#F80E4A;" d="M229.5,477.054c0.002,2.614-0.021,5.228,0.007,7.842c0.06,5.706-5.292,9.115-10.517,6.596
			c-1.084-0.523-2.171-1.357-2.86-2.329c-5.707-8.052-7.632-16.908-5.326-26.582c0.143-0.6,0.425-1.172,0.686-1.737
			c1.921-4.153,6.27-6.932,10.045-6.43c3.953,0.526,7.464,4.061,7.878,8.83C229.808,467.816,229.498,472.449,229.5,477.054z"/>
		<path style="fill:#F80E4A;" d="M370.683,392.334c0-4.601-0.097-9.204,0.041-13.8c0.069-2.303-0.837-5.129,2.655-6.12
			c3.587-1.018,7.444-2.149,9.962,1.377c2.415,3.381,4.767,7.225,5.624,11.194c1.049,4.863,1.195,10.165,0.49,15.101
			c-0.85,5.957-5.714,9.483-10.622,9.077c-4.572-0.378-8.002-4.763-8.374-10.844c-0.122-1.988-0.019-3.99-0.019-5.986
			C370.521,392.334,370.602,392.334,370.683,392.334z"/>
		<path style="fill:#F80E4A;" d="M263.882,419.106c0-5.601-0.088-11.204,0.048-16.802c0.047-1.915-0.957-4.332,1.991-5.372
			c3.253-1.147,6.43-2.219,9.575,0.132c0.69,0.516,1.348,1.149,1.827,1.859c5.333,7.903,7.668,16.471,5.158,25.889
			c-1.595,5.985-5.58,8.861-11.046,8.467c-3.783-0.273-6.821-3.866-7.77-9.334c-0.275-1.586-0.304-3.215-0.445-4.824
			C263.44,419.115,263.661,419.111,263.882,419.106z"/>
		<path style="fill:#F80E4A;" d="M359.376,455.6c-3.717,0.268-7.432,0.711-11.15,0.732c-2.014,0.011-4.621,1.347-5.891-1.624
			c-1.394-3.26-2.756-6.548-0.254-9.874c0.738-0.981,1.622-1.927,2.622-2.626c7.011-4.902,14.783-7.155,23.311-5.985
			c2.136,0.293,4.363,1.235,6.16,2.452c6.009,4.068,5.689,12.236-0.943,15.072c-4.201,1.796-9.104,1.948-13.693,2.837
			C359.484,456.255,359.43,455.927,359.376,455.6z"/>
		<path style="fill:#F80E4A;" d="M260.947,370.67c0,3.602,0.098,7.207-0.033,10.804c-0.093,2.545,0.927,5.487-2.916,6.714
			c-4.415,1.409-7.821,1.152-10.241-1.866c-3.849-4.8-5.963-10.435-6.214-16.51c-0.156-3.771,0.218-7.749,1.314-11.341
			c1.551-5.086,6.204-7.775,10.561-7.054c3.875,0.641,7.205,4.634,7.581,9.544c0.246,3.219,0.047,6.472,0.047,9.709
			C261.012,370.67,260.98,370.67,260.947,370.67z"/>
		<path style="fill:#F80E4A;" d="M253.705,329.446c0-4.346-0.094-8.695,0.035-13.038c0.079-2.64-1.214-5.792,2.799-7.132
			c4.796-1.601,8.26-1.12,10.751,2.318c3.434,4.737,5.583,10.098,5.705,15.938c0.082,3.906-0.29,7.979-1.37,11.713
			c-1.296,4.48-5.696,7.147-9.646,6.889c-3.7-0.241-7.135-3.454-8.11-8.154c-0.574-2.768-0.494-5.672-0.709-8.515
			C253.342,329.459,253.523,329.452,253.705,329.446z"/>
	</g>
	<rect x="0" y="0" style="fill:none;" width="648.75" height="660.75"/>
</g>
</svg>
