<?xml version="1.0" encoding="iso-8859-1"?>
<!-- Generator: Adobe Illustrator 17.0.0, SVG Export Plug-In . SVG Version: 6.00 Build 0)  -->
<!DOCTYPE svg PUBLIC "-//W3C//DTD SVG 1.1//EN" "http://www.w3.org/Graphics/SVG/1.1/DTD/svg11.dtd">
<svg version="1.1" xmlns="http://www.w3.org/2000/svg" xmlns:xlink="http://www.w3.org/1999/xlink" x="0px" y="0px"
	 width="648.75px" height="660.75px" viewBox="0 0 648.75 660.75" style="enable-background:new 0 0 648.75 660.75;"
	 xml:space="preserve">
<g id="Layer_1" style="display:none;">
</g>
<g id="Layer_2">
</g>
<g id="Layer_5">
	<g>
		<g>
			<g>
				<g>
					<path style="fill:#F80E4A;" d="M249.5,43.085c0.973,0.335,1.945,0.671,2.901,0.999c9.454,4.517,17.54,10.828,24.353,18.801
						c0.59,0.69,1.428,1.168,2.151,1.745c0.246-1.019,0.492-2.039,0.738-3.058c1.297-3.877,2.762-7.708,3.858-11.642
						c2.401-8.619,4.579-17.3,6.942-25.929c0.409-1.495,1.281-2.863,1.939-4.29c1.146,0.991,2.282,1.994,3.445,2.965
						c0.367,0.306,0.807,0.524,1.213,0.782c16.079,12.385,25.286,29.413,32.727,47.955c0.452-3.128,0.904-6.257,1.356-9.385
						c2.939-13.272,8.363-25.335,17.592-35.461c3.575-3.923,7.663-7.432,13.253-7.706c2.39-0.118,4.844,1.08,7.268,1.679
						c-0.466,1.927-0.869,3.872-1.405,5.78c-2.456,8.742-2.416,17.527,0.031,26.202c0.628,2.227,2.401,4.259,4.026,6.036
						c1.178,1.288,2.518,0.877,2.835-1.118c6.539-4.716,13.026-9.508,19.653-14.097c1.688-1.169,3.819-1.696,5.724-2.51
						c0.849,0.198,1.721,0.388,2.594,0.578c0.393,0.778,0.787,1.555,1.179,2.332c0.125,2.067,0.264,4.133,0.375,6.201
						c0.581,10.831-3.858,20.174-8.864,29.29c-4.553,8.293-9.783,16.239-13.961,24.709c-12.893,26.138,1.677,46.036,21.973,55.792
						c0.276-0.005,0.467,0.121,0.567,0.375c-0.004-0.001,0.227,0.087,0.227,0.087c0.333,0.224,0.666,0.449,0.984,0.668
						c1.967,1.005,3.95,2.016,5.932,3.026c11.481,4.675,22.972,9.326,34.431,14.057c1.223,0.505,2.256,1.473,3.353,2.216
						c1.258,0.653,2.539,1.316,3.82,1.978c0.322,0.186,0.643,0.372,0.959,0.556c0.223,0.026,0.418,0.11,0.58,0.251
						c0.289-0.024,0.474,0.103,0.555,0.381c0.69,0.688,1.311,1.47,2.083,2.052c13.46,10.145,23.947,22.884,32.584,37.246
						c14.739,24.51,25.507,50.843,35.233,77.609c8.516,23.438,12.454,47.525,8.805,72.527c-2.839,19.453-8.867,37.885-17.2,55.609
						c-13.55,28.821-33.049,52.478-60.368,69.334c-21.474,13.249-44.911,21.604-69.081,28.347
						c-18.854,5.26-37.355,5.576-55.938-1.157c-16.052-5.816-32.746-7.611-49.783-7.154c-11.985,0.321-23.992,0.342-35.975,0.011
						c-11.319-0.313-22.251-2.851-32.68-7.395c-14.412-6.279-27.03-15.468-39.819-24.391c-1.176-0.821-2.594-1.297-3.899-1.933
						l0.079,0.058c-0.509-0.284-1.018-0.567-1.526-0.851l0.038,0.035c-0.521-0.507-1.042-1.014-1.563-1.521l0.064,0.049
						c-0.764-0.525-1.527-1.049-2.291-1.574l0.054,0.048c-0.27-0.269-0.539-0.538-0.809-0.806l0.056,0.058
						c-0.269-0.268-0.537-0.536-0.806-0.805l0.064,0.056c-0.274-0.268-0.547-0.536-0.82-0.804c0,0,0.083,0.058,0.083,0.058
						c-0.507-0.279-1.013-0.559-1.519-0.838c-24.692-19.403-38.845-44.809-44.315-75.643c-7.175-40.441-6.481-80.519,3.754-120.329
						c7.536-29.311,19.096-56.799,38.621-80.305c19.525-23.506,43.693-39.506,74.329-44.875c9.814-1.72,19.526-4.183,28.174-9.581
						c14.587-9.105,19.837-22.616,15.296-39.259c-2.797-10.252-8.279-19.172-13.511-28.265c-3.59-6.238-6.553-12.836-9.793-19.264
						C250.123,54.39,248.075,49.043,249.5,43.085z M296.606,129.917c-0.061,0.706-0.128,1.411-0.182,2.117
						c-1.155,15.278-12.147,28.229-27.074,31.626c-4.492,1.022-9.088,1.611-13.654,2.277c-37.762,5.507-65.963,25.105-84.901,58.025
						c-8.643,15.024-13.202,31.747-18.858,48.001c-9.274,26.651-15.447,53.865-12.899,82.255
						c1.772,19.747,4.535,39.415,7.234,59.067c1.533,11.159,6.515,20.878,14.209,29.19c11.032,11.919,22.038,23.862,32.966,35.875
						c10.999,12.092,24.478,19.793,40.622,22.138c23.081,3.352,46.178,6.812,69.381,9.049c24.834,2.394,49.432,0.089,73.1-8.499
						c25.622-9.297,46.702-24.458,59.753-48.952c14.716-27.618,22.697-57.344,24.12-88.518c0.939-20.562,0.422-41.213-0.072-61.81
						c-0.443-18.469-1.455-36.953-5.74-55.05c-7.142-30.167-23.446-53.216-52.209-66.285c-7.144-3.246-14.734-5.499-22.005-8.485
						c-4.373-1.796-8.788-3.726-12.727-6.296c-11.068-7.22-18.124-16.957-17.449-30.806c-16.903,4.446-31.349,12.775-43.704,26.135
						C305.529,149.226,302.779,139.124,296.606,129.917z"/>
					<g id="shadow_9_">
						<path style="fill:#0C0D11;" d="M168.766,484.038c1.306,0.636,2.723,1.112,3.899,1.933
							c12.789,8.924,25.407,18.112,39.819,24.391c10.43,4.544,21.361,7.082,32.68,7.395c11.984,0.331,23.991,0.31,35.975-0.011
							c17.036-0.456,33.731,1.339,49.783,7.154c18.583,6.733,37.084,6.417,55.938,1.157c24.169-6.743,47.607-15.098,69.081-28.347
							c27.319-16.855,46.819-40.513,60.368-69.334c8.333-17.724,14.361-36.156,17.2-55.609c3.649-25.002-0.289-49.089-8.805-72.527
							c-9.725-26.766-20.494-53.1-35.233-77.609c-8.637-14.362-19.124-27.101-32.584-37.246c-0.772-0.582-1.393-1.363-2.083-2.052
							c11.548,6.596,21.173,15.407,29.006,26.059c26.102,35.497,42.142,75.688,53.412,117.841c7.22,27.006,4.048,53.9-4.506,80.253
							c-9.813,30.228-24.544,57.5-48.269,79.227c-19.166,17.551-41.822,29.131-66.129,37.647
							c-14.315,5.015-28.787,9.52-43.921,11.598c-12.31,1.69-24.18-0.19-35.645-4.276c-19.866-7.082-40.268-8.483-61.112-7.528
							c-16.709,0.766-33.442,0.855-49.731-4.127c-10.579-3.236-20.251-8.336-29.391-14.396c-9.348-6.197-18.407-12.833-27.562-19.32
							C170.112,485.714,169.49,484.803,168.766,484.038z"/>
						<path style="fill:#0C0D11;" d="M403.395,159.737c-20.295-9.756-34.866-29.654-21.973-55.792
							c4.178-8.47,9.408-16.416,13.961-24.709c5.005-9.116,9.445-18.46,8.864-29.29c-0.111-2.068-0.25-4.134-0.375-6.201
							c0.808-0.314,1.659-0.547,2.411-0.96c1.754-0.964,2.348-0.534,2.929,1.464c2.717,9.338,1.545,18.393-2.443,26.932
							c-3.728,7.981-8.216,15.617-12.563,23.295c-4.546,8.028-9.101,16.053-10.774,25.257c-2.395,13.179,2.303,24,11.668,33.047
							C397.689,155.281,400.621,157.427,403.395,159.737z"/>
						<path style="fill:#0C0D11;" d="M331.124,62.029c-0.452,3.128-0.904,6.257-1.356,9.385
							c-7.441-18.542-16.648-35.57-32.727-47.955c0.541-1.495,1.268-2.556,2.939-1.163c2.646,2.206,5.683,4.094,7.841,6.706
							c5.855,7.09,11.488,14.378,16.893,21.817C327.228,54.281,329.01,58.276,331.124,62.029z"/>
						<path style="fill:#0C0D11;" d="M374.723,57.44c-0.316,1.995-1.657,2.406-2.835,1.118c-1.624-1.777-3.397-3.808-4.026-6.036
							c-2.448-8.675-2.487-17.46-0.031-26.202c0.536-1.908,0.939-3.853,1.405-5.78c6.722,1.226,6.848,1.264,4.929,7.736
							C371.256,38.086,371.611,47.775,374.723,57.44z"/>
						<path style="fill:#0C0D11;" d="M279.643,61.572c-0.246,1.019-0.492,2.039-0.738,3.058c-0.723-0.577-1.561-1.055-2.151-1.745
							c-6.813-7.973-14.899-14.284-24.353-18.801C263.125,47.376,271.97,53.562,279.643,61.572z"/>
					</g>
					<path style="fill:#0C0D11;" d="M411.106,163.893c-1.982-1.01-3.965-2.021-5.932-3.026
						C407.161,161.879,409.133,162.886,411.106,163.893z"/>
					<path style="fill:#0C0D11;" d="M402.693,41.412c-0.872-0.19-1.745-0.38-2.594-0.578
						C400.98,41.021,401.837,41.216,402.693,41.412z"/>
					<path style="fill:#0C0D11;" d="M452.71,182.145c-1.281-0.663-2.562-1.325-3.82-1.978
						C450.179,180.832,451.444,181.489,452.71,182.145z"/>
					<path style="fill:#0C0D11;" d="M165.793,481.76c0.521,0.507,1.042,1.014,1.563,1.521
						C166.835,482.773,166.314,482.266,165.793,481.76z"/>
					<path style="fill:#0C0D11;" d="M163.566,480.235c0.764,0.525,1.527,1.049,2.291,1.574
						C165.093,481.284,164.329,480.76,163.566,480.235z"/>
					<path style="fill:#0C0D11;" d="M159.867,477.203c0.506,0.28,1.012,0.559,1.519,0.838
						C160.88,477.762,160.374,477.482,159.867,477.203z"/>
					<path style="fill:#0C0D11;" d="M454.249,182.953c-0.162-0.142-0.357-0.226-0.58-0.251
						C453.917,182.694,454.108,182.778,454.249,182.953z"/>
					<path style="fill:#0C0D11;" d="M167.318,483.245c0.509,0.284,1.018,0.567,1.526,0.851
						C168.336,483.812,167.827,483.529,167.318,483.245z"/>
					<path style="fill:#0C0D11;" d="M161.304,477.983c0.273,0.268,0.547,0.536,0.82,0.804
						C161.851,478.519,161.577,478.251,161.304,477.983z"/>
					<path style="fill:#0C0D11;" d="M162.06,478.731c0.269,0.268,0.537,0.536,0.806,0.805
						C162.597,479.267,162.329,478.999,162.06,478.731z"/>
					<path style="fill:#0C0D11;" d="M404.19,160.199c0,0-0.231-0.088-0.227-0.087C403.967,160.113,404.19,160.199,404.19,160.199z"
						/>
					<path style="fill:#0C0D11;" d="M162.81,479.477c0.27,0.269,0.539,0.538,0.809,0.806
						C163.35,480.015,163.08,479.746,162.81,479.477z"/>
					<path style="fill:#FDFDFD;" d="M296.606,129.917c6.173,9.207,8.923,19.308,9.911,31.055
						c12.354-13.361,26.801-21.689,43.704-26.135c-0.675,13.849,6.38,23.586,17.449,30.806c3.939,2.57,8.354,4.5,12.727,6.296
						c7.271,2.987,14.861,5.239,22.005,8.485c28.764,13.07,45.067,36.118,52.209,66.285c4.284,18.097,5.297,36.58,5.74,55.05
						c0.494,20.596,1.011,41.248,0.072,61.81c-1.423,31.174-9.404,60.9-24.12,88.518c-13.051,24.494-34.131,39.655-59.753,48.952
						c-23.668,8.588-48.266,10.893-73.1,8.499c-23.203-2.237-46.3-5.697-69.381-9.049c-16.144-2.345-29.623-10.045-40.622-22.138
						c-10.928-12.014-21.934-23.957-32.966-35.875c-7.694-8.312-12.676-18.031-14.209-29.19
						c-2.699-19.651-5.462-39.319-7.234-59.067c-2.548-28.391,3.626-55.604,12.899-82.255c5.656-16.254,10.215-32.977,18.858-48.001
						c18.938-32.92,47.139-52.518,84.901-58.025c4.566-0.666,9.163-1.255,13.654-2.277c14.927-3.397,25.919-16.348,27.074-31.626
						C296.477,131.328,296.545,130.623,296.606,129.917z M407.875,345.522c2.286-0.893,5.031-1.262,6.765-2.783
						c3.984-3.496,7.859-7.256,11.091-11.441c7.648-9.902,5.71-17.063-5.63-22.492c-1.008-0.483-2.064-1.216-3.097-1.216
						c-1.534,0.001-3.539,0.043-4.526,0.954c-6.784,6.257-11.788,13.79-14.962,22.479
						C394.576,339.075,399.056,345.214,407.875,345.522z M271.662,307.646c0.316,9.333,2.001,17.569,5.7,25.343
						c3.236,6.802,9.601,8.595,15.195,3.598c2.495-2.229,4.851-5.865,5.132-9.051c0.527-5.978,0.042-12.189-1.012-18.127
						c-1.487-8.374-7.117-11.554-15.428-9.609c-1.573,0.368-3.098,0.935-4.655,1.378
						C272.926,302.222,270.512,304.094,271.662,307.646z M311.282,443.473c1.69,3.215,2.92,6.816,5.197,9.541
						c2.422,2.9,5.757,5.077,8.83,7.387c13.316,10.013,20.384,4.204,24.833-8.539c0.041-0.118,0.144-0.249,0.119-0.349
						c-0.386-1.517-0.31-3.505-1.264-4.468c-6.612-6.67-14.628-11.105-23.569-13.878
						C317.89,430.831,312.334,434.982,311.282,443.473z M391.202,260.536c1.569,2.676,2.653,5.875,4.832,7.891
						c2.575,2.382,5.989,3.986,9.263,5.413c1.175,0.512,3.455,0.038,4.457-0.855c6.815-6.07,11.659-13.569,14.938-22.063
						c3.432-8.89-2.228-15.811-11.726-14.417C405.318,237.628,392.385,252.194,391.202,260.536z M300.482,369.865
						c2.612-1.027,5.493-1.645,7.783-3.158c6.389-4.222,10.8-10.323,14.185-17.051c2.182-4.336,1.267-8.76-2.46-11.875
						c-2.815-2.352-6.299-3.896-9.451-5.854c-2.056-1.277-3.606-0.697-5.226,0.907c-6.561,6.496-11.675,13.928-14.817,22.634
						C287.684,363.259,291.887,369.146,300.482,369.865z M345.255,296.427c0.117-4.948-1.822-7.936-5.534-9.452
						c-4.778-1.951-9.529-1.545-13.392,1.72c-3.667,3.1-6.964,6.747-9.943,10.531c-8.043,10.217-6.399,17.024,5.205,22.836
						c0.998,0.5,2.077,0.844,3.058,1.373c1.981,1.068,3.379,0.405,4.911-1.076c6.653-6.436,11.59-13.966,14.824-22.616
						C344.898,298.365,345.138,296.885,345.255,296.427z M249.035,464.317c2.411-0.887,5.109-1.347,7.179-2.74
						c6.647-4.475,11.539-10.618,14.809-17.889c1.997-4.441,0.748-8.965-3.241-12.036c-2.726-2.099-5.955-3.547-8.966-5.274
						c-1.874-1.075-3.367-0.689-4.935,0.854c-6.584,6.476-11.671,13.928-14.9,22.579
						C236.001,457.796,240.238,463.712,249.035,464.317z M406.094,225.103c-1.517-3.876-2.865-7.832-4.662-11.574
						c-0.491-1.022-2.33-1.978-3.548-1.976c-9.453,0.021-18.228,2.58-26.166,7.768c-3.117,2.038-3.172,3.769-0.861,6.759
						c4.244,5.492,8.255,11.168,12.587,16.588c0.895,1.12,2.782,2.082,4.192,2.054C397.255,244.537,405.188,235.694,406.094,225.103
						z M332.598,249.067c-0.792,0.712-2.111,1.573-3.007,2.754c-8.902,11.736-1.379,29.475,13.293,31.203
						c1.318,0.155,3.163-0.653,4.135-1.635c6.288-6.354,10.313-14.021,12.395-22.699c1.09-4.544,0.01-5.799-4.649-6.241
						c-5.193-0.493-10.371-1.179-15.539-1.895C337.258,250.281,335.334,249.693,332.598,249.067z M416.34,367.292
						c-0.311-9.282-7.052-17.314-16.683-19.194c-1.493-0.291-3.785,0.345-4.825,1.413c-6.315,6.482-10.484,14.231-12.5,23.085
						c-0.932,4.094,0.226,5.379,4.389,5.797c5.559,0.559,11.132,1.184,16.619,2.209c7.309,1.365,9.219,0.48,11.603-6.753
						C415.638,371.74,415.886,369.482,416.34,367.292z M336.311,333.76c0.672,4.298,1.11,8.648,2.068,12.881
						c1.529,6.751,5.515,9.793,12.428,9.043c3.631-0.394,7.171-1.888,10.658-3.145c0.758-0.273,1.554-1.636,1.591-2.528
						c0.434-10.273-1.461-20.113-6.271-29.24c-2.548-4.834-7.12-6.139-12.11-3.738C337.608,320.434,336.437,326.762,336.311,333.76z
						 M405.65,297.471c-0.833-4.768-1.389-9.606-2.57-14.285c-1.49-5.901-6.109-8.92-12.106-8.001
						c-3.281,0.503-6.441,1.776-9.665,2.669c-2.007,0.556-2.552,1.839-2.597,3.876c-0.2,9.249,1.525,18.079,5.335,26.5
						c3.631,8.025,11.384,9.173,17.336,2.587C404.82,307.016,405.356,302.38,405.65,297.471z M249.019,205.245
						c0.146,8.712,2.019,17.027,5.881,24.853c2.698,5.467,7.252,7.026,12.73,4.404c5.301-2.537,7.773-7.126,7.724-12.671
						c-0.05-5.69-0.599-11.45-1.667-17.038c-1.231-6.441-5.665-9.42-12.215-8.889c-2.324,0.189-4.668,0.773-6.885,1.523
						C248.97,199.326,248.996,199.404,249.019,205.245z M357.504,439.673c5.226-1.109,10.551-1.886,15.652-3.411
						c6.324-1.891,9.086-6.531,7.816-12.982c-0.663-3.369-2.192-6.601-3.626-9.761c-0.389-0.857-1.847-1.733-2.823-1.743
						c-10.35-0.103-20.006,2.622-28.888,7.866c-4.175,2.465-5.258,6.469-3.514,11.037
						C344.288,436.354,349.451,439.211,357.504,439.673z M289.073,454.265c9.062-0.228,17.036-6.727,19.384-15.667
						c0.94-3.577,0.453-5.971-2.795-8.27c-6.63-4.692-13.672-8.187-21.682-9.67c-5-0.926-6.13,0.164-6.311,5.361
						c-0.19,5.459-0.434,10.949-1.203,16.347c-0.969,6.801-0.436,8.188,6.099,10.365C284.671,453.433,286.9,453.764,289.073,454.265
						z M218.844,286.431c0.02,11.034,7.559,19.724,17.433,21.025c1.18,0.156,2.981-0.185,3.646-0.993
						c5.812-7.07,10.661-14.712,12.714-23.805c0.891-3.944-0.42-5.424-4.462-5.847c-5.546-0.58-11.106-1.202-16.582-2.224
						c-7.285-1.359-9.313-0.399-11.65,6.75C219.291,283.332,219.047,285.459,218.844,286.431z M204.517,334.848
						c0.255,0.903,0.413,2.456,1.1,3.723c2.962,5.466,8.287,7.7,13.776,9.57c0.623,0.212,1.743-0.235,2.297-0.743
						c7.792-7.15,13.501-15.673,16.477-25.874c1.049-3.594-0.098-6.754-3.135-8.94c-3.313-2.385-7.054-3.012-11.044-1.929
						c-6.84,1.858-18.414,15.116-19.285,22.12C204.641,333.268,204.613,333.767,204.517,334.848z M227.784,364.011
						c-1.666-2.629-2.886-5.754-5.115-7.755c-2.525-2.266-5.851-3.774-9.043-5.091c-1.207-0.499-3.492-0.068-4.47,0.828
						c-6.828,6.253-11.839,13.807-15.031,22.522c-3.042,8.308,2.22,14.948,11.022,13.957
						C213.492,387.531,226.726,372.983,227.784,364.011z M309.358,391.513c-0.286-9.383-7.704-18.044-16.958-19.226
						c-1.457-0.186-3.542,0.462-4.547,1.493c-6.217,6.377-10.276,14.037-12.38,22.684c-1.087,4.47,0.105,5.822,4.708,6.297
						c5.305,0.547,10.643,1.012,15.869,2.019c7.577,1.46,9.845,0.372,12.113-7.059C308.776,395.717,308.971,393.586,309.358,391.513
						z M356.024,182.677c0.164,7.462,2.023,15.319,5.58,22.726c3.236,6.738,9.88,8.273,15.345,3.208
						c2.233-2.07,4.08-5.16,4.828-8.109c1.859-7.331,0.38-14.686-1.727-21.769c-1.495-5.027-5.445-7.458-10.609-7.136
						c-2.461,0.154-4.966,0.624-7.313,1.381C355.737,175.039,355.642,175.312,356.024,182.677z M423.205,401.372
						c0.301-0.116,0.602-0.231,0.903-0.347c-1.537-3.996-2.934-8.056-4.712-11.943c-0.428-0.935-2.107-1.816-3.226-1.836
						c-9.755-0.173-18.669,2.697-26.828,7.967c-2.516,1.625-2.643,3.617-0.826,5.992c4.374,5.72,8.558,11.588,13.047,17.213
						c0.88,1.102,2.84,2.04,4.218,1.936C415.792,419.599,423.151,411.435,423.205,401.372z M256.12,369.612
						c-0.216-8.361-2.158-16.321-5.842-23.805c-2.785-5.658-7.982-7.131-13.476-4.036c-3.458,1.948-5.651,4.918-6.45,8.78
						c-1.666,8.053-0.484,15.915,2.229,23.529c1.2,3.368,3.925,5.662,7.627,5.755c3.059,0.077,6.247-0.176,9.185-0.986
						C256.186,376.978,256.326,376.543,256.12,369.612z M267.938,400.345c-1.567-4.123-2.967-8.323-4.815-12.315
						c-0.475-1.025-2.376-1.996-3.602-1.971c-9.287,0.188-17.975,2.642-25.837,7.684c-3.308,2.122-3.37,3.988-0.955,7.037
						c4.078,5.149,8.231,10.275,11.816,15.762c1.78,2.724,3.691,3.29,6.466,2.793C259.972,417.729,266.757,409.837,267.938,400.345z
						 M329.46,222.627c-0.468-7.403-3.69-13.317-10.072-17.303c-0.958-0.598-2.694-0.741-3.73-0.298
						c-8.684,3.716-15.802,9.454-21.174,17.249c-2.014,2.922-1.442,4.697,1.519,6.408c6.123,3.539,12.263,7.057,18.251,10.815
						c1.888,1.185,3.323,1.181,5.112,0.121C325.805,235.801,328.946,230.066,329.46,222.627z M290.032,235.639
						c-8.822,0.668-16.45,2.681-23.457,6.825c-5.29,3.128-5.303,4.463-1.463,9.127c3.756,4.562,7.207,9.426,10.3,14.46
						c1.557,2.534,3.11,3.435,5.954,3.051c13.947-1.884,21.198-16.896,14.311-29.635
						C294.249,236.821,292.652,234.852,290.032,235.639z M362.665,227.619c-0.242-0.104-0.485-0.209-0.727-0.313
						c-0.38-3.591-0.288-7.316-1.26-10.739c-1.199-4.224-2.741-8.552-5.127-12.184c-2.688-4.092-8.936-5.166-13.158-3.228
						c-4.517,2.073-3.895,6.325-3.178,9.741c1.781,8.48,3.791,16.976,6.618,25.152c2.176,6.296,9.375,6.975,13.18,1.42
						C360.932,234.667,361.491,230.932,362.665,227.619z M255.136,250.304c-0.76-4.063-1.482-10.02-3.055-15.744
						c-1.564-5.693-5.477-9.42-11.694-10.01c-4.914-0.466-8.294,1.874-8.277,6.678c0.04,10.848,2.621,21.248,7.663,30.861
						c2.088,3.98,6.431,4.336,10.347,1.642C254.218,260.912,254.728,256.602,255.136,250.304z M418.22,350.241
						c1.196,6.501,1.962,12.435,3.448,18.182c1.158,4.479,3.978,8.002,8.72,9.485c7.363,2.303,12.498-1.153,11.256-8.601
						c-1.503-9.013-3.88-17.956-6.761-26.637c-2.038-6.142-9.116-6.899-12.978-1.602
						C419.968,343.726,419.337,347.336,418.22,350.241z M289.215,479.858c9.24-1.266,19.092-3.931,28.069-9.124
						c4.178-2.417,4.885-6.892,1.709-10.542c-1.535-1.764-3.919-3.54-6.122-3.844c-9.248-1.277-18.242,0.282-26.317,4.987
						c-2.452,1.429-4.596,4.409-5.57,7.146C278.641,475.065,281.964,479.846,289.215,479.858z M311.343,374.732
						c1.154,6.537,1.855,11.97,3.129,17.265c1.051,4.37,3.581,7.933,7.939,9.797c7.437,3.18,12.777-0.299,12.338-8.235
						c-0.513-9.283-2.87-18.18-6.661-26.646c-2.659-5.939-8.885-6.996-12.82-1.822C313.094,367.948,312.421,371.948,311.343,374.732
						z M323.579,279.023c-1.342-6.051-2.348-12.203-4.136-18.119c-1.327-4.394-4.685-7.247-9.413-8.223
						c-6.334-1.307-10.123,1.463-9.931,7.852c0.295,9.851,2.821,19.254,6.949,28.161c2.471,5.331,7.592,6.115,12.012,2.19
						C322.604,287.735,322.924,283.524,323.579,279.023z M216.077,304.267c0.306-0.085,0.613-0.171,0.919-0.256
						c-1.738-6.832-2.93-13.869-5.386-20.432c-1.998-5.34-7.663-7.654-12.948-6.664c-2.888,0.541-5.172,1.833-5.285,5.261
						c-0.384,11.621,2.497,22.49,7.925,32.657c1.575,2.95,5.065,3.439,8.279,1.925C214.922,314.242,215.929,309.474,216.077,304.267
						z M352.09,359.746c-0.014-0.166-0.028-0.332-0.041-0.497c-3.833,0.336-7.737,0.32-11.482,1.084
						c-6.875,1.402-10.48,7.725-7.309,12.974c2.472,4.092,6.56,6.212,11.5,6.349c7.861,0.217,15.027-1.874,21.307-6.62
						c1.329-1.004,2.537-2.46,3.221-3.971c2.286-5.051-1.398-10.367-6.787-10.025C359.028,359.258,355.559,359.509,352.09,359.746z
						 M313.08,429.106c7.391-0.841,14.041-2.728,19.767-7.131c1.502-1.155,2.915-2.842,3.585-4.586
						c1.992-5.183-1.698-9.885-7.076-9.575c-5.099,0.294-10.221,0.216-15.313,0.572c-2.953,0.207-5.988,0.596-8.772,1.536
						c-3.364,1.136-5.685,3.667-5.997,7.422c-0.308,3.702,1.335,6.775,4.476,8.448C306.63,427.328,309.952,428.034,313.08,429.106z
						 M362.27,246.603c0.065,0,0.13,0,0.196,0c0,4.965-0.401,9.974,0.134,14.881c0.39,3.584,2.722,6.431,6.553,7.396
						c3.673,0.925,6.666-0.524,9.043-3.171c6.512-7.255,3.607-27.992-4.589-33.215c-3.278-2.089-6.722-1.336-9.536,0.495
						c-1.243,0.809-1.536,3.504-1.73,5.397C362.063,241.099,362.27,243.862,362.27,246.603z M369.394,290.028
						c0.199-0.003,0.397-0.005,0.596-0.008c-0.128-2.111-0.064-4.255-0.421-6.327c-0.947-5.499-4.166-8.998-8.299-9.309
						c-4.462-0.336-9.112,2.83-10.241,8.15c-0.909,4.281-1.339,9.018-0.451,13.231c0.997,4.733,3.302,9.348,5.805,13.557
						c2.163,3.637,6,3.145,9.765,2.13c3.553-0.958,3.243-3.534,3.244-6.138C369.397,300.219,369.394,295.124,369.394,290.028z
						 M231.132,424.395c0-4.606,0.311-9.238-0.086-13.809c-0.413-4.769-3.925-8.304-7.878-8.83
						c-3.774-0.502-8.124,2.276-10.045,6.43c-0.261,0.565-0.543,1.137-0.686,1.737c-2.306,9.675-0.381,18.53,5.326,26.582
						c0.689,0.972,1.776,1.806,2.86,2.329c5.225,2.519,10.577-0.89,10.517-6.596C231.113,429.623,231.136,427.009,231.132,424.395z
						 M372.317,339.675c-0.081,0-0.162,0-0.242,0c0,1.996-0.103,3.997,0.019,5.986c0.372,6.081,3.802,10.466,8.374,10.844
						c4.907,0.405,9.772-3.12,10.621-9.077c0.704-4.935,0.559-10.238-0.49-15.101c-0.856-3.969-3.209-7.813-5.624-11.194
						c-2.518-3.526-6.375-2.395-9.962-1.377c-3.492,0.991-2.586,3.817-2.655,6.12C372.22,330.471,372.317,335.074,372.317,339.675z
						 M265.516,366.447c-0.221,0.005-0.441,0.01-0.662,0.014c0.142,1.609,0.17,3.238,0.445,4.825
						c0.949,5.468,3.987,9.062,7.77,9.334c5.466,0.394,9.451-2.482,11.046-8.467c2.51-9.419,0.175-17.986-5.158-25.889
						c-0.479-0.71-1.137-1.343-1.827-1.859c-3.145-2.351-6.322-1.279-9.575-0.132c-2.949,1.04-1.945,3.457-1.991,5.372
						C265.428,355.242,265.516,360.845,265.516,366.447z M361.01,402.94c0.054,0.328,0.108,0.656,0.162,0.984
						c4.588-0.889,9.492-1.041,13.693-2.837c6.631-2.835,6.952-11.004,0.943-15.072c-1.797-1.217-4.024-2.159-6.16-2.452
						c-8.527-1.17-16.299,1.083-23.311,5.985c-1,0.699-1.884,1.645-2.622,2.626c-2.502,3.326-1.139,6.614,0.254,9.874
						c1.27,2.971,3.877,1.635,5.891,1.624C353.578,403.652,357.293,403.208,361.01,402.94z M262.581,318.011
						c0.033,0,0.065,0,0.098,0c0-3.238,0.2-6.491-0.047-9.709c-0.376-4.911-3.706-8.903-7.581-9.544
						c-4.357-0.721-9.01,1.968-10.561,7.054c-1.096,3.592-1.47,7.57-1.314,11.341c0.251,6.075,2.365,11.71,6.214,16.51
						c2.42,3.018,5.827,3.275,10.242,1.866c3.843-1.227,2.823-4.169,2.916-6.714C262.679,325.217,262.581,321.612,262.581,318.011z
						 M255.339,276.787c-0.181,0.006-0.363,0.013-0.544,0.019c0.214,2.843,0.135,5.747,0.709,8.515c0.975,4.7,4.41,7.912,8.11,8.154
						c3.951,0.258,8.35-2.409,9.646-6.889c1.081-3.734,1.452-7.806,1.37-11.713c-0.122-5.84-2.271-11.201-5.705-15.938
						c-2.491-3.437-5.955-3.918-10.751-2.318c-4.013,1.34-2.72,4.492-2.799,7.132C255.244,268.091,255.339,272.44,255.339,276.787z"
						/>
					<path style="fill:#F80E4A;" d="M407.875,345.522c-8.819-0.308-13.299-6.448-10.358-14.498
						c3.174-8.689,8.177-16.222,14.962-22.479c0.987-0.911,2.992-0.953,4.526-0.954c1.033-0.001,2.089,0.733,3.097,1.216
						c11.339,5.428,13.277,12.59,5.63,22.492c-3.232,4.184-7.107,7.945-11.091,11.441
						C412.906,344.26,410.161,344.63,407.875,345.522z"/>
					<path style="fill:#F80E4A;" d="M271.662,307.646c-1.15-3.552,1.264-5.424,4.932-6.467c1.557-0.443,3.082-1.01,4.655-1.378
						c8.311-1.946,13.941,1.235,15.428,9.609c1.054,5.938,1.54,12.149,1.012,18.127c-0.281,3.186-2.637,6.822-5.132,9.051
						c-5.595,4.997-11.959,3.204-15.195-3.598C273.663,325.215,271.978,316.979,271.662,307.646z"/>
					<path style="fill:#F80E4A;" d="M311.282,443.473c1.052-8.492,6.608-12.643,14.146-10.305
						c8.941,2.773,16.956,7.208,23.569,13.878c0.955,0.963,0.878,2.951,1.264,4.468c0.025,0.1-0.078,0.231-0.119,0.349
						c-4.449,12.743-11.518,18.551-24.833,8.539c-3.073-2.311-6.408-4.487-8.83-7.387
						C314.202,450.289,312.972,446.689,311.282,443.473z"/>
					<path style="fill:#F80E4A;" d="M391.202,260.536c1.183-8.343,14.116-22.908,21.764-24.03
						c9.498-1.393,15.158,5.527,11.726,14.417c-3.279,8.493-8.123,15.993-14.938,22.063c-1.002,0.893-3.282,1.367-4.457,0.855
						c-3.274-1.427-6.689-3.031-9.263-5.413C393.855,266.411,392.771,263.212,391.202,260.536z"/>
					<path style="fill:#F80E4A;" d="M300.482,369.865c-8.595-0.72-12.798-6.606-9.986-14.397
						c3.142-8.706,8.255-16.138,14.817-22.634c1.621-1.604,3.171-2.184,5.226-0.907c3.152,1.958,6.637,3.502,9.451,5.854
						c3.727,3.115,4.642,7.538,2.46,11.875c-3.385,6.728-7.796,12.829-14.185,17.051
						C305.976,368.22,303.094,368.838,300.482,369.865z"/>
					<path style="fill:#F80E4A;" d="M345.255,296.427c-0.117,0.458-0.357,1.938-0.872,3.316c-3.234,8.65-8.171,16.18-14.824,22.616
						c-1.532,1.482-2.93,2.144-4.911,1.076c-0.981-0.529-2.06-0.873-3.058-1.373c-11.604-5.811-13.248-12.619-5.205-22.836
						c2.979-3.784,6.275-7.432,9.943-10.531c3.864-3.265,8.615-3.671,13.392-1.72C343.433,288.491,345.371,291.479,345.255,296.427z
						"/>
					<path style="fill:#F80E4A;" d="M249.035,464.317c-8.797-0.605-13.034-6.521-10.054-14.506
						c3.228-8.651,8.315-16.103,14.9-22.579c1.568-1.543,3.062-1.929,4.935-0.854c3.011,1.727,6.24,3.175,8.966,5.274
						c3.989,3.071,5.238,7.595,3.241,12.036c-3.27,7.271-8.161,13.414-14.809,17.889
						C254.144,462.971,251.445,463.43,249.035,464.317z"/>
					<path style="fill:#F80E4A;" d="M406.094,225.103c-0.906,10.591-8.839,19.434-18.458,19.62
						c-1.409,0.027-3.297-0.934-4.192-2.054c-4.332-5.42-8.342-11.096-12.587-16.588c-2.31-2.99-2.256-4.721,0.861-6.759
						c7.938-5.189,16.713-7.747,26.166-7.768c1.218-0.003,3.057,0.954,3.548,1.976C403.229,217.271,404.577,221.227,406.094,225.103
						z"/>
					<path style="fill:#F80E4A;" d="M332.598,249.067c2.736,0.625,4.66,1.214,6.627,1.486c5.169,0.716,10.346,1.402,15.539,1.895
						c4.659,0.442,5.739,1.698,4.649,6.241c-2.082,8.678-6.107,16.345-12.395,22.699c-0.972,0.982-2.817,1.79-4.135,1.635
						c-14.672-1.728-22.195-19.467-13.293-31.203C330.487,250.64,331.806,249.78,332.598,249.067z"/>
					<path style="fill:#F80E4A;" d="M416.34,367.292c-0.453,2.19-0.702,4.448-1.397,6.558c-2.384,7.233-4.294,8.118-11.603,6.753
						c-5.487-1.025-11.06-1.65-16.619-2.209c-4.162-0.419-5.321-1.704-4.389-5.797c2.017-8.854,6.185-16.604,12.5-23.085
						c1.04-1.067,3.332-1.704,4.825-1.413C409.288,349.979,416.029,358.01,416.34,367.292z"/>
					<path style="fill:#F80E4A;" d="M336.311,333.76c0.126-6.999,1.297-13.327,8.364-16.727c4.99-2.401,9.562-1.096,12.11,3.738
						c4.81,9.127,6.705,18.967,6.271,29.24c-0.038,0.892-0.834,2.255-1.591,2.528c-3.488,1.256-7.027,2.75-10.658,3.145
						c-6.913,0.751-10.899-2.292-12.428-9.043C337.421,342.408,336.982,338.058,336.311,333.76z"/>
					<path style="fill:#F80E4A;" d="M405.65,297.471c-0.294,4.908-0.83,9.544-4.266,13.346c-5.952,6.586-13.706,5.437-17.336-2.587
						c-3.81-8.421-5.535-17.251-5.335-26.5c0.044-2.037,0.59-3.32,2.597-3.876c3.224-0.893,6.384-2.166,9.665-2.669
						c5.996-0.919,10.616,2.1,12.106,8.001C404.261,287.866,404.816,292.704,405.65,297.471z"/>
					<path style="fill:#F80E4A;" d="M249.019,205.245c-0.023-5.841-0.049-5.92,5.568-7.818c2.218-0.749,4.561-1.334,6.885-1.523
						c6.55-0.532,10.984,2.447,12.215,8.889c1.068,5.588,1.617,11.348,1.667,17.038c0.049,5.545-2.424,10.134-7.724,12.671
						c-5.477,2.622-10.031,1.063-12.73-4.404C251.038,222.272,249.165,213.957,249.019,205.245z"/>
					<path style="fill:#F80E4A;" d="M357.504,439.673c-8.053-0.462-13.217-3.319-15.383-8.995
						c-1.744-4.569-0.661-8.572,3.514-11.037c8.882-5.244,18.538-7.969,28.888-7.866c0.976,0.01,2.434,0.886,2.823,1.743
						c1.433,3.16,2.962,6.393,3.626,9.761c1.27,6.451-1.492,11.091-7.816,12.982C368.055,437.787,362.73,438.564,357.504,439.673z"
						/>
					<path style="fill:#F80E4A;" d="M289.073,454.265c-2.173-0.501-4.402-0.833-6.508-1.534c-6.535-2.177-7.068-3.564-6.099-10.365
						c0.769-5.398,1.013-10.888,1.203-16.347c0.181-5.197,1.311-6.287,6.311-5.361c8.01,1.483,15.052,4.979,21.682,9.67
						c3.249,2.299,3.735,4.693,2.795,8.27C306.109,447.538,298.135,454.037,289.073,454.265z"/>
					<path style="fill:#F80E4A;" d="M218.844,286.431c0.203-0.972,0.447-3.099,1.099-5.093c2.337-7.149,4.365-8.109,11.65-6.75
						c5.476,1.022,11.037,1.643,16.582,2.224c4.041,0.423,5.352,1.903,4.462,5.847c-2.053,9.093-6.902,16.735-12.714,23.805
						c-0.664,0.808-2.465,1.148-3.646,0.993C226.403,306.155,218.865,297.465,218.844,286.431z"/>
					<path style="fill:#F80E4A;" d="M204.517,334.848c0.095-1.081,0.124-1.579,0.186-2.074c0.87-7.003,12.445-20.262,19.285-22.12
						c3.99-1.084,7.732-0.456,11.044,1.929c3.037,2.187,4.183,5.346,3.135,8.94c-2.977,10.201-8.686,18.724-16.477,25.874
						c-0.554,0.508-1.674,0.955-2.297,0.743c-5.489-1.87-10.814-4.104-13.776-9.57C204.93,337.304,204.772,335.751,204.517,334.848z
						"/>
					<path style="fill:#F80E4A;" d="M227.784,364.011c-1.058,8.973-14.292,23.52-22.637,24.46
						c-8.802,0.992-14.064-5.649-11.022-13.957c3.191-8.714,8.203-16.268,15.031-22.522c0.979-0.896,3.263-1.326,4.47-0.828
						c3.192,1.318,6.518,2.826,9.043,5.091C224.899,358.257,226.119,361.382,227.784,364.011z"/>
					<path style="fill:#F80E4A;" d="M309.358,391.513c-0.387,2.073-0.582,4.204-1.194,6.208c-2.268,7.431-4.537,8.519-12.113,7.059
						c-5.226-1.007-10.565-1.472-15.869-2.019c-4.603-0.475-5.795-1.826-4.708-6.297c2.104-8.647,6.163-16.308,12.38-22.684
						c1.005-1.031,3.09-1.679,4.547-1.493C301.654,373.469,309.072,382.13,309.358,391.513z"/>
					<path style="fill:#F80E4A;" d="M356.024,182.677c-0.383-7.364-0.287-7.638,6.104-9.699c2.347-0.757,4.852-1.227,7.313-1.381
						c5.164-0.323,9.114,2.109,10.609,7.136c2.106,7.083,3.586,14.438,1.727,21.769c-0.748,2.949-2.595,6.039-4.828,8.109
						c-5.465,5.065-12.109,3.53-15.345-3.208C358.047,197.996,356.188,190.138,356.024,182.677z"/>
					<path style="fill:#F80E4A;" d="M423.205,401.372c-0.054,10.064-7.413,18.228-17.424,18.984
						c-1.378,0.104-3.338-0.834-4.218-1.936c-4.489-5.626-8.673-11.493-13.047-17.213c-1.817-2.376-1.69-4.367,0.826-5.992
						c8.158-5.271,17.073-8.14,26.828-7.967c1.119,0.02,2.798,0.901,3.226,1.836c1.777,3.886,3.175,7.946,4.712,11.943
						C423.807,401.14,423.506,401.256,423.205,401.372z"/>
					<path style="fill:#F80E4A;" d="M256.12,369.612c0.206,6.931,0.065,7.366-6.727,9.238c-2.937,0.81-6.125,1.063-9.185,0.986
						c-3.703-0.093-6.427-2.387-7.627-5.755c-2.713-7.613-3.895-15.475-2.229-23.529c0.799-3.862,2.992-6.832,6.45-8.78
						c5.494-3.094,10.691-1.621,13.476,4.036C253.962,353.291,255.904,361.252,256.12,369.612z"/>
					<path style="fill:#F80E4A;" d="M267.938,400.345c-1.18,9.492-7.965,17.384-16.926,18.989c-2.775,0.497-4.686-0.068-6.466-2.793
						c-3.585-5.486-7.738-10.613-11.816-15.762c-2.415-3.049-2.353-4.916,0.955-7.037c7.861-5.043,16.55-7.496,25.837-7.684
						c1.225-0.025,3.127,0.946,3.602,1.971C264.971,392.022,266.371,396.222,267.938,400.345z"/>
					<path style="fill:#F80E4A;" d="M329.46,222.627c-0.513,7.439-3.655,13.174-10.094,16.992c-1.789,1.061-3.224,1.064-5.112-0.121
						c-5.988-3.758-12.128-7.276-18.251-10.815c-2.961-1.711-3.533-3.486-1.519-6.408c5.373-7.795,12.491-13.534,21.174-17.249
						c1.036-0.443,2.772-0.3,3.73,0.298C325.77,209.31,328.992,215.224,329.46,222.627z"/>
					<path style="fill:#F80E4A;" d="M290.032,235.639c2.62-0.787,4.216,1.182,5.646,3.827c6.886,12.739-0.365,27.751-14.311,29.635
						c-2.844,0.384-4.397-0.517-5.954-3.051c-3.093-5.034-6.544-9.898-10.3-14.46c-3.84-4.664-3.827-5.998,1.463-9.127
						C273.583,238.32,281.211,236.307,290.032,235.639z"/>
					<path style="fill:#F80E4A;" d="M362.665,227.619c-1.174,3.313-1.732,7.048-3.652,9.85c-3.804,5.555-11.004,4.875-13.18-1.42
						c-2.826-8.176-4.837-16.672-6.618-25.152c-0.718-3.416-1.339-7.668,3.178-9.741c4.222-1.938,10.47-0.864,13.158,3.228
						c2.385,3.632,3.928,7.96,5.127,12.184c0.972,3.423,0.88,7.148,1.26,10.739C362.18,227.41,362.422,227.515,362.665,227.619z"/>
					<path style="fill:#F80E4A;" d="M255.136,250.304c-0.408,6.298-0.918,10.608-5.016,13.427
						c-3.915,2.694-8.259,2.338-10.347-1.642c-5.042-9.612-7.623-20.013-7.663-30.861c-0.018-4.804,3.363-7.144,8.277-6.678
						c6.217,0.589,10.13,4.317,11.694,10.01C253.654,240.284,254.376,246.241,255.136,250.304z"/>
					<path style="fill:#F80E4A;" d="M418.22,350.241c1.117-2.905,1.748-6.515,3.685-9.173c3.862-5.297,10.94-4.54,12.978,1.602
						c2.881,8.681,5.258,17.624,6.761,26.637c1.242,7.448-3.893,10.904-11.256,8.601c-4.742-1.483-7.562-5.006-8.72-9.485
						C420.183,362.676,419.416,356.743,418.22,350.241z"/>
					<path style="fill:#F80E4A;" d="M289.215,479.858c-7.251-0.012-10.574-4.792-8.23-11.378c0.974-2.736,3.118-5.717,5.57-7.146
						c8.075-4.705,17.069-6.264,26.317-4.987c2.202,0.304,4.586,2.079,6.122,3.844c3.177,3.651,2.469,8.126-1.709,10.542
						C308.306,475.927,298.454,478.592,289.215,479.858z"/>
					<path style="fill:#F80E4A;" d="M311.343,374.732c1.078-2.784,1.751-6.783,3.924-9.641c3.935-5.174,10.161-4.117,12.82,1.822
						c3.791,8.466,6.149,17.363,6.661,26.646c0.438,7.936-4.901,11.415-12.338,8.235c-4.358-1.863-6.888-5.427-7.939-9.797
						C313.198,386.701,312.497,381.269,311.343,374.732z"/>
					<path style="fill:#F80E4A;" d="M323.579,279.023c-0.654,4.5-0.975,8.712-4.52,11.86c-4.419,3.925-9.541,3.141-12.012-2.19
						c-4.128-8.907-6.654-18.31-6.949-28.161c-0.191-6.388,3.598-9.159,9.931-7.852c4.728,0.976,8.086,3.83,9.413,8.223
						C321.23,266.821,322.237,272.973,323.579,279.023z"/>
					<path style="fill:#F80E4A;" d="M216.077,304.267c-0.147,5.207-1.155,9.975-6.496,12.491c-3.214,1.514-6.705,1.024-8.279-1.925
						c-5.428-10.167-8.31-21.036-7.925-32.657c0.113-3.428,2.397-4.72,5.285-5.261c5.285-0.989,10.949,1.324,12.948,6.664
						c2.456,6.564,3.648,13.6,5.386,20.432C216.689,304.096,216.383,304.182,216.077,304.267z"/>
					<path style="fill:#F80E4A;" d="M352.09,359.746c3.469-0.237,6.938-0.488,10.408-0.708c5.389-0.341,9.073,4.974,6.787,10.025
						c-0.684,1.511-1.892,2.967-3.221,3.971c-6.28,4.746-13.446,6.838-21.307,6.62c-4.94-0.137-9.029-2.257-11.5-6.349
						c-3.171-5.249,0.435-11.571,7.309-12.974c3.745-0.764,7.65-0.748,11.482-1.084C352.062,359.414,352.076,359.58,352.09,359.746z
						"/>
					<path style="fill:#F80E4A;" d="M313.08,429.106c-3.128-1.071-6.451-1.778-9.331-3.313c-3.141-1.674-4.784-4.746-4.476-8.448
						c0.313-3.755,2.634-6.286,5.997-7.422c2.784-0.94,5.818-1.33,8.772-1.536c5.093-0.356,10.215-0.278,15.313-0.572
						c5.378-0.31,9.068,4.392,7.076,9.575c-0.67,1.744-2.083,3.431-3.585,4.586C327.122,426.378,320.471,428.265,313.08,429.106z"/>
					<path style="fill:#F80E4A;" d="M362.27,246.603c0-2.742-0.207-5.504,0.071-8.217c0.194-1.893,0.487-4.589,1.73-5.397
						c2.814-1.831,6.258-2.584,9.536-0.495c8.196,5.223,11.101,25.961,4.589,33.215c-2.376,2.647-5.37,4.096-9.043,3.171
						c-3.831-0.965-6.163-3.813-6.553-7.396c-0.534-4.907-0.134-9.916-0.134-14.881C362.401,246.603,362.336,246.603,362.27,246.603
						z"/>
					<path style="fill:#F80E4A;" d="M369.394,290.028c0,5.096,0.003,10.191-0.001,15.287c-0.002,2.605,0.309,5.181-3.244,6.138
						c-3.765,1.015-7.602,1.507-9.765-2.13c-2.504-4.21-4.808-8.825-5.805-13.557c-0.888-4.212-0.458-8.95,0.451-13.231
						c1.129-5.32,5.779-8.485,10.241-8.15c4.133,0.311,7.352,3.81,8.299,9.309c0.357,2.072,0.293,4.216,0.421,6.327
						C369.791,290.023,369.593,290.025,369.394,290.028z"/>
					<path style="fill:#F80E4A;" d="M231.134,424.395c0.002,2.614-0.021,5.228,0.007,7.842c0.06,5.706-5.292,9.115-10.517,6.596
						c-1.084-0.523-2.171-1.357-2.86-2.329c-5.707-8.052-7.632-16.908-5.326-26.582c0.143-0.6,0.425-1.172,0.686-1.737
						c1.921-4.153,6.27-6.932,10.045-6.43c3.953,0.526,7.464,4.061,7.878,8.83C231.442,415.157,231.132,419.79,231.134,424.395z"/>
					<path style="fill:#F80E4A;" d="M372.317,339.675c0-4.601-0.097-9.204,0.041-13.8c0.069-2.303-0.837-5.129,2.655-6.12
						c3.587-1.018,7.444-2.149,9.962,1.377c2.415,3.381,4.767,7.225,5.624,11.194c1.049,4.863,1.195,10.166,0.49,15.101
						c-0.85,5.957-5.714,9.483-10.621,9.077c-4.572-0.378-8.002-4.763-8.374-10.844c-0.122-1.988-0.019-3.99-0.019-5.986
						C372.155,339.675,372.236,339.675,372.317,339.675z"/>
					<path style="fill:#F80E4A;" d="M265.516,366.447c0-5.601-0.088-11.204,0.048-16.802c0.047-1.915-0.957-4.332,1.991-5.372
						c3.253-1.147,6.43-2.219,9.575,0.132c0.69,0.516,1.348,1.149,1.827,1.859c5.333,7.903,7.668,16.471,5.158,25.889
						c-1.595,5.985-5.58,8.861-11.046,8.467c-3.783-0.273-6.821-3.866-7.77-9.334c-0.275-1.586-0.304-3.215-0.445-4.825
						C265.075,366.456,265.295,366.451,265.516,366.447z"/>
					<path style="fill:#F80E4A;" d="M361.01,402.94c-3.717,0.268-7.432,0.711-11.15,0.732c-2.014,0.011-4.621,1.347-5.891-1.624
						c-1.394-3.26-2.756-6.548-0.254-9.874c0.738-0.981,1.622-1.927,2.622-2.626c7.011-4.902,14.783-7.155,23.311-5.985
						c2.136,0.293,4.363,1.235,6.16,2.452c6.009,4.068,5.689,12.236-0.943,15.072c-4.201,1.796-9.104,1.948-13.693,2.837
						C361.118,403.596,361.064,403.268,361.01,402.94z"/>
					<path style="fill:#F80E4A;" d="M262.581,318.011c0,3.602,0.098,7.207-0.033,10.804c-0.093,2.545,0.927,5.487-2.916,6.714
						c-4.415,1.409-7.821,1.152-10.242-1.866c-3.849-4.8-5.963-10.435-6.214-16.51c-0.156-3.771,0.218-7.749,1.314-11.341
						c1.551-5.086,6.204-7.775,10.561-7.054c3.875,0.641,7.205,4.634,7.581,9.544c0.246,3.219,0.047,6.472,0.047,9.709
						C262.646,318.011,262.614,318.011,262.581,318.011z"/>
					<path style="fill:#F80E4A;" d="M255.339,276.787c0-4.346-0.094-8.695,0.035-13.038c0.079-2.64-1.214-5.792,2.799-7.132
						c4.796-1.601,8.26-1.12,10.751,2.318c3.434,4.737,5.583,10.098,5.705,15.938c0.082,3.906-0.29,7.979-1.37,11.713
						c-1.296,4.48-5.696,7.147-9.646,6.889c-3.7-0.241-7.135-3.454-8.11-8.154c-0.574-2.768-0.494-5.672-0.709-8.515
						C254.976,276.8,255.157,276.793,255.339,276.787z"/>
				</g>
				<g id="pomegranate_9_">
					<g>
						<path style="fill:#0C0D11;" d="M625.761,597.14c-2.576,2.328-4.612,5.342-7.401,7.33c-9.108,6.494-18.811,2.161-20.434-8.874
							c-0.286-1.947-0.241-3.007,2.449-3.151c8.788-0.47,16.285-3.705,20.881-11.73c2.789-4.87,3.677-10.061,1.379-15.403
							c-2.879-6.693-10.21-8.961-18.573-5.861c-12.826,4.755-22.426,20.544-20.831,36.052c0.561,5.455-1.679,8.255-5.409,10.588
							c-1.898,1.187-4.491,1.263-6.77,1.841c-0.282-2.238-1.136-4.58-0.75-6.695c2.035-11.134,4.411-22.206,6.596-33.313
							c0.355-1.805,1.126-2.378,3.006-2.377c5,0.003,6.372-1.461,7.183-7.1c-1.758,0-3.519-0.156-5.241,0.036
							c-2.786,0.31-3.085-0.922-2.542-3.252c0.932-3.997,1.588-8.057,2.501-12.059c0.39-1.707,0.204-2.342-1.734-1.92
							c-3.767,0.82-7.567,1.494-11.358,2.203c-1.893,0.354-2.933,1.154-3.189,3.359c-0.386,3.319-1.291,6.585-2.101,9.842
							c-0.164,0.66-0.969,1.74-1.333,1.683c-5.819-0.9-5.474,3.709-6.926,7.139c0.931,0.045,1.428,0.082,1.924,0.091
							c4.594,0.084,4.547,0.073,3.607,4.589c-1.394,6.7-2.92,13.383-4.011,20.135c-1.226,7.586-5.124,13.166-11.786,16.716
							c-1.536,0.819-4.028,1.196-5.411,0.481c-0.938-0.485-1.232-3.333-0.917-4.949c2.711-13.919,5.531-27.819,8.566-41.671
							c0.548-2.502-0.146-2.654-2.183-2.636c-8.624,0.073-17.253-0.142-25.871,0.088c-7.826,0.209-14.609,3.183-19.721,9.242
							c-7.684,9.108-10.878,19.925-10.14,31.587c0.302,4.781-1.652,6.862-5.178,8.597c-3.963,1.95-5.932,0.594-5.648-3.858
							c0.095-1.486,0.377-2.965,0.64-4.435c1.494-8.332,3.259-16.625,4.458-24.999c1.81-12.635-7.445-19.677-19.12-14.697
							c-2.264,0.966-4.274,2.518-6.427,3.754c-0.926,0.532-1.917,0.948-2.879,1.416c0.111-1.012,0.029-2.095,0.371-3.022
							c0.981-2.66,0.553-3.86-2.648-3.562c-2.974,0.278-6.012,0.264-8.988-0.002c-2.605-0.233-3.359,0.865-3.805,3.207
							c-2.047,10.753-4.262,21.475-6.425,32.206c-1.441,7.149-6.139,11.483-12.568,14.131c-2.907,1.198-4.575-0.056-4.638-3.14
							c-0.023-1.106,0.151-2.235,0.38-3.324c2.819-13.388,5.663-26.771,8.506-40.154c0.411-1.934,0.45-3.143-2.332-3.076
							c-8.619,0.207-17.251-0.096-25.869,0.135c-6.806,0.183-12.932,2.53-17.814,7.448c-9.305,9.373-12.648,21.174-12.057,33.845
							c0.55,11.794,10.69,18.218,21.813,14.144c4.827-1.768,9.001-5.322,13.36-7.997c3.019,7.134,6.007,9.518,12.083,9.082
							c6.215-0.445,11.222-3.585,16.459-7.987c-0.43,1.822-0.609,2.784-0.885,3.717c-0.839,2.837-0.081,4.092,3.127,3.77
							c2.722-0.273,5.536-0.357,8.233,0.022c3.501,0.491,4.413-1.308,4.926-4.187c1.725-9.684,3.662-19.33,5.328-29.024
							c0.967-5.631,3.94-9.915,8.273-13.325c2.303-1.812,5.24-4.518,7.867-2.302c1.392,1.174,1.022,5.066,0.634,7.606
							c-1.278,8.361-3.165,16.631-4.371,25c-1.277,8.86,3.086,15.68,10.512,16.727c5.373,0.757,10.042-1.453,14.107-4.779
							c1.891-1.547,2.927-2.171,4.958,0.165c3.494,4.019,8.321,5.173,13.612,4.505c6.998-0.883,12.188-4.686,16.789-10.394
							c2.46,9.176,8.129,12.684,16.612,9.501c5.214-1.956,9.838-5.487,14.617-8.247c3.552,8.985,8.622,11.77,17.651,8.096
							c4.502-1.832,8.479-4.955,12.818-7.568c4.797,8.575,12.964,9.736,22.24,8.384c11.666-1.699,17.957-9.653,22.757-19.641
							C628.814,595.253,627.07,595.957,625.761,597.14z M598.523,584.152c1.573-5.967,3.631-11.635,7.962-16.199
							c0.929-0.979,2.007-1.881,3.167-2.566c4.014-2.37,6.098-1.15,6.108,3.477c0.02,9.109-6.808,17.373-14.749,17.961
							C598.899,586.981,597.806,586.87,598.523,584.152z M407.458,571.978c-1.787,7.492-3.055,15.108-4.562,22.668
							c-0.804,4.032-8.943,11.824-12.973,12.55c-2.423,0.437-4.351-0.337-5.107-2.634c-0.917-2.785-1.387-5.716-2.051-8.584
							c0.823-8.99,2.746-17.43,8.012-24.725c1.773-2.456,4.205-4.539,6.651-6.374c2.255-1.691,4.952-1.619,7.321,0.101
							C407.111,566.696,408.242,568.69,407.458,571.978z M529.3,571.509c-1.407,6.946-2.835,13.889-4.102,20.86
							c-1.288,7.087-6.302,11.113-11.962,14.38c-3.138,1.812-5.801,0.44-6.99-3.141c-0.813-2.448-1.093-5.073-1.374-6.458
							c0.799-11.079,2.845-20.543,9.562-28.181c1.94-2.206,4.783-4.119,7.575-4.961C526.368,562.695,530.206,567.034,529.3,571.509z
							"/>
					</g>
					<path style="fill:#0C0D11;" d="M266.011,639.336c3.079-3.253,6.001-6.436,9.07-9.469c0.44-0.435,1.695-0.405,2.398-0.136
						c1.375,0.527,2.576,1.495,3.938,2.069c5.041,2.124,7.19,0.914,8.258-4.427c1.288-6.435,2.647-12.855,3.651-19.614
						c-5.672,4.203-11.437,7.544-18.714,6.859c-7.727-0.727-12.019-5.342-14.427-12.773c-5.317,6.91-11.415,11.776-20.124,12.823
						c-8.527,1.025-15.954-0.168-21.21-7.954c-4.639,4.026-9.452,7.528-15.781,7.825c-8.758,0.411-14.053-5.108-12.727-13.818
						c1.441-9.468,3.523-18.836,5.06-28.291c0.387-2.38-0.24-4.926-0.402-7.395c-2.179,1.224-4.682,2.096-6.474,3.741
						c-5.038,4.623-6.62,10.898-7.664,17.412c-1.379,8.604-3.091,17.156-4.438,25.765c-0.321,2.049-1.207,2.422-2.93,2.388
						c-3.248-0.064-6.509-0.194-9.744,0.016c-2.537,0.165-2.614-1.107-2.283-2.94c2.345-12.983,4.777-25.951,6.942-38.964
						c0.376-2.26-0.382-4.708-0.616-7.07c-2.282,0.906-4.957,1.334-6.762,2.82c-3.385,2.785-5.742,6.352-6.589,10.96
						c-2.001,10.885-4.416,21.694-6.518,32.562c-0.392,2.025-1.146,2.71-3.183,2.612c-3.242-0.156-6.506-0.174-9.743,0.027
						c-2.602,0.161-3.237-0.714-2.706-3.203c2.229-10.462,4.34-20.949,6.477-31.43c0.121-0.595,0.091-1.221,0.153-2.159
						c-3.384,2.042-6.571,3.849-9.603,5.888c-0.634,0.427-0.815,1.68-1.004,2.594c-2.54,12.285-8.325,22.194-20.513,27.047
						c-15.855,6.312-29.981-3.638-29.628-20.681c0.303-14.602,11.126-28.937,25.037-33.061c12.125-3.594,24.85,0.422,26.189,16.833
						c0.611-0.2,1.178-0.44,1.768-0.571c6.613-1.475,10.842-4.941,10.804-12.33c-0.019-3.647,1.554-5.66,5.723-4.964
						c2.431,0.406,5.001,0.236,7.483,0.023c3.074-0.264,3.841,0.81,2.701,3.611c-0.314,0.771-0.232,1.702-0.4,3.152
						c4.577-3.673,8.85-6.903,14.647-6.926c6.814-0.026,9.695,4.115,10.912,10.267c2.381-2.142,4.366-4.191,6.622-5.877
						c1.875-1.401,3.958-2.672,6.14-3.487c7.975-2.979,14.407,1.168,14.19,9.656c-0.168,6.553-1.425,13.092-2.414,19.604
						c-0.672,4.423-1.759,8.781-2.588,13.181c-0.781,4.147,0.905,5.815,4.94,4.586c1.966-0.599,4.167-1.581,5.392-3.093
						c0.967-1.193,0.864-3.474,0.791-5.254c-0.59-14.276,3.094-26.806,15.277-35.382c3.107-2.187,7.219-3.485,11.034-4.026
						c10.158-1.442,16.063,7.024,13.809,16.894c-2.258,9.891-10.211,16.114-22.319,17.111c-3.304,0.272-3.447,1.211-2.911,3.963
						c2.008,10.31,10.855,14.367,19.614,8.561c5.388-3.571,9.329-7.948,10.14-15.211c0.642-5.755,2.967-11.594,5.703-16.785
						c4.979-9.448,13.056-14.936,24.065-15.148c8.995-0.173,17.995-0.09,26.993-0.17c1.564-0.014,2.314,0.299,1.919,2.113
						c-4.228,19.442-8.394,38.897-12.627,58.338c-0.342,1.569-0.985,3.084-1.601,4.578
						C298.135,639.766,284.082,645.868,266.011,639.336z M114.066,574.784c0.131,0.177,0.262,0.355,0.393,0.532
						c-0.031-0.284-0.062-0.568-0.094-0.852c-0.91-2.012-1.524-4.237-2.789-5.994c-3.174-4.411-7.498-4.551-10.794-0.21
						c-1.764,2.324-3.035,5.136-4.031,7.907c-2.779,7.728-4.086,15.688-2.079,23.826c0.864,3.505,2.687,6.597,6.663,7.276
						c3.731,0.637,6.371-1.583,7.854-4.544c2.034-4.064,3.373-8.472,5.084-12.703c1.148-2.84,0.725-4.519-2.643-5.336
						c-2.097-0.509-3.986-1.959-5.889-3.117c-0.451-0.274-0.973-1.335-0.803-1.587c1.534-2.266,3.012-4.653,4.989-6.482
						C110.457,573.009,112.641,574.307,114.066,574.784z M276.05,594.096c0.598,3.265,0.908,6.618,1.882,9.767
						c0.84,2.716,3.38,4.092,5.975,2.875c5.857-2.748,10.885-6.747,12.538-13.333c1.871-7.454,2.932-15.11,4.745-22.582
						c0.702-2.893,0.324-5.269-2.096-6.403c-2.123-0.995-5.099-1.661-7.154-0.933c-2.506,0.887-4.831,3.073-6.555,5.238
						C279.534,576.071,277.128,584.74,276.05,594.096z M248.933,569.195c-0.589-1.546-0.91-4.172-1.826-4.399
						c-1.625-0.403-3.627,0.593-5.435,1.129c-0.553,0.164-1.02,0.701-1.467,1.13c-5.146,4.942-7.458,11.324-8.949,18.062
						c-0.086,0.388,1.387,1.625,2.121,1.613C241.489,586.604,248.308,578.666,248.933,569.195z"/>
					<path style="fill:#0C0D11;" d="M68.686,531.23c-10.181-2.02-19.847-0.265-29.048,4.204
						c-14.859,7.216-22.41,19.674-21.515,34.953c0.116,1.984,0.445,2.802,2.564,1.757c3.68-1.815,7.481-3.39,11.12-5.281
						c0.66-0.343,1.327-1.915,1.079-2.578c-4.515-12.077,1.367-20.714,13.773-25.102c-0.098,1.063-0.097,2.028-0.286,2.954
						c-4.734,23.145-9.443,46.295-14.308,69.412c-0.493,2.342-0.05,2.877,2.179,2.789c3.244-0.128,6.521-0.291,9.737,0.031
						c2.856,0.286,3.625-1.068,4.084-3.439c1.654-8.544,3.505-17.05,5.076-25.609c0.376-2.045,1.075-2.725,3.149-3.251
						c12.708-3.218,22.916-9.85,27.921-22.537C89.438,546.29,82.54,533.979,68.686,531.23z M59.036,573.615
						c-0.942,0.667-2.144,0.968-3.89,1.728c1.562-8.098,2.971-15.486,4.417-22.868c0.904-4.619,1.94-9.215,2.758-13.849
						c0.312-1.765,0.719-2.256,2.626-1.622c4.743,1.577,8.014,5.253,7.807,10.593C72.337,558.353,67.995,567.273,59.036,573.615z"/>
					<path style="fill:#0C0D11;" d="M343.793,568.193c8.074-11.398,17.918-12.76,29.635-5.767c-3.315,2.781-6.391,5.475-9.627,7.96
						c-0.503,0.386-1.861,0.059-2.608-0.341c-3.112-1.668-6.292-1.85-9.265-0.079c-6.032,3.593-10.918,8.261-12.384,15.514
						c-1.725,8.53-3.383,17.074-4.942,25.636c-0.421,2.312-1.219,3.416-3.824,3.227c-3.477-0.253-6.989-0.104-10.483-0.01
						c-1.91,0.051-2.274-0.574-1.888-2.446c3.509-17.043,6.932-34.105,10.333-51.17c0.353-1.773,1.122-2.475,3.009-2.387
						c3.364,0.156,6.753,0.211,10.109-0.024c2.733-0.191,2.813,1.153,2.413,3.142c-0.398,1.982-0.75,3.973-1.122,5.96
						C343.364,567.669,343.578,567.931,343.793,568.193z M343.535,568.249c-0.091-0.099-0.166-0.181-0.242-0.263
						c-0.08,0.16-0.188,0.315-0.226,0.484c-0.014,0.062,0.137,0.161,0.213,0.243C343.366,568.556,343.452,568.399,343.535,568.249z"
						/>
				</g>
			</g>
		</g>
	</g>
	<g>
		<g>
			<rect style="fill:none;stroke:#231F20;" width="648.75" height="660.75"/>
			<g>
				<g>
					<path style="fill:none;stroke:#231F20;" d="M249.5,43.085c0.973,0.335,1.945,0.671,2.901,0.999
						c9.454,4.517,17.54,10.828,24.353,18.801c0.59,0.69,1.428,1.168,2.151,1.745c0.246-1.019,0.492-2.039,0.738-3.058
						c1.297-3.877,2.762-7.708,3.858-11.642c2.401-8.619,4.579-17.3,6.942-25.929c0.409-1.495,1.281-2.863,1.939-4.29
						c1.146,0.991,2.282,1.994,3.445,2.965c0.367,0.306,0.807,0.524,1.213,0.782c16.079,12.385,25.286,29.413,32.727,47.955
						c0.452-3.128,0.904-6.257,1.356-9.385c2.939-13.272,8.363-25.335,17.592-35.461c3.575-3.923,7.663-7.432,13.253-7.706
						c2.39-0.118,4.844,1.08,7.268,1.679c-0.466,1.927-0.869,3.872-1.405,5.78c-2.456,8.742-2.416,17.527,0.031,26.202
						c0.628,2.227,2.401,4.259,4.026,6.036c1.178,1.288,2.518,0.877,2.835-1.118c6.539-4.716,13.026-9.508,19.653-14.097
						c1.688-1.169,3.819-1.696,5.724-2.51c0.849,0.198,1.721,0.388,2.594,0.578c0.393,0.778,0.787,1.555,1.179,2.332
						c0.125,2.067,0.264,4.133,0.375,6.201c0.581,10.831-3.858,20.174-8.864,29.29c-4.553,8.293-9.783,16.239-13.961,24.709
						c-12.893,26.138,1.677,46.036,21.973,55.792c0.276-0.005,0.467,0.121,0.567,0.375c-0.004-0.001,0.227,0.087,0.227,0.087
						c0.333,0.224,0.666,0.449,0.984,0.668c1.967,1.005,3.95,2.016,5.932,3.026c11.481,4.675,22.972,9.326,34.431,14.057
						c1.223,0.505,2.256,1.473,3.353,2.216c1.258,0.653,2.539,1.316,3.82,1.978c0.322,0.186,0.643,0.372,0.959,0.556
						c0.223,0.026,0.418,0.11,0.58,0.251c0.289-0.024,0.474,0.103,0.555,0.381c0.69,0.688,1.311,1.47,2.083,2.052
						c13.46,10.145,23.947,22.884,32.584,37.246c14.739,24.51,25.507,50.843,35.233,77.609c8.516,23.438,12.454,47.525,8.805,72.527
						c-2.839,19.453-8.867,37.885-17.2,55.609c-13.55,28.821-33.049,52.478-60.368,69.334
						c-21.474,13.249-44.911,21.604-69.081,28.347c-18.854,5.26-37.355,5.576-55.938-1.157c-16.052-5.816-32.746-7.611-49.783-7.154
						c-11.985,0.321-23.992,0.342-35.975,0.011c-11.319-0.313-22.251-2.851-32.68-7.395c-14.412-6.279-27.03-15.468-39.819-24.391
						c-1.176-0.821-2.594-1.297-3.899-1.933l0.079,0.058c-0.509-0.284-1.018-0.567-1.526-0.851l0.038,0.035
						c-0.521-0.507-1.042-1.014-1.563-1.521l0.064,0.049c-0.764-0.525-1.527-1.049-2.291-1.574l0.054,0.048
						c-0.27-0.269-0.539-0.538-0.809-0.806l0.056,0.058c-0.269-0.268-0.537-0.536-0.806-0.805l0.064,0.056
						c-0.274-0.268-0.547-0.536-0.82-0.804c0,0,0.083,0.058,0.083,0.058c-0.507-0.279-1.013-0.559-1.519-0.838
						c-24.692-19.403-38.845-44.809-44.315-75.643c-7.175-40.441-6.481-80.519,3.754-120.329
						c7.536-29.311,19.096-56.799,38.621-80.305c19.525-23.506,43.693-39.506,74.329-44.875c9.814-1.72,19.526-4.183,28.174-9.581
						c14.587-9.105,19.837-22.616,15.296-39.259c-2.797-10.252-8.279-19.172-13.511-28.265c-3.59-6.238-6.553-12.836-9.793-19.264
						C250.123,54.39,248.075,49.043,249.5,43.085z M296.606,129.917c-0.061,0.706-0.128,1.411-0.182,2.117
						c-1.155,15.278-12.147,28.229-27.074,31.626c-4.492,1.022-9.088,1.611-13.654,2.277c-37.762,5.507-65.963,25.105-84.901,58.025
						c-8.643,15.024-13.202,31.747-18.858,48.001c-9.274,26.651-15.447,53.865-12.899,82.255
						c1.772,19.747,4.535,39.415,7.234,59.067c1.533,11.159,6.515,20.878,14.209,29.19c11.032,11.919,22.038,23.862,32.966,35.875
						c10.999,12.092,24.478,19.793,40.622,22.138c23.081,3.352,46.178,6.812,69.381,9.049c24.834,2.394,49.432,0.089,73.1-8.499
						c25.622-9.297,46.702-24.458,59.753-48.952c14.716-27.618,22.697-57.344,24.12-88.518c0.939-20.562,0.422-41.213-0.072-61.81
						c-0.443-18.469-1.455-36.953-5.74-55.05c-7.142-30.167-23.446-53.216-52.209-66.285c-7.144-3.246-14.734-5.499-22.005-8.485
						c-4.373-1.796-8.788-3.726-12.727-6.296c-11.068-7.22-18.124-16.957-17.449-30.806c-16.903,4.446-31.349,12.775-43.704,26.135
						C305.529,149.226,302.779,139.124,296.606,129.917z"/>
					<g id="shadow_7_">
						<path style="fill:none;stroke:#231F20;" d="M168.766,484.038c1.306,0.636,2.723,1.112,3.899,1.933
							c12.789,8.924,25.407,18.112,39.819,24.391c10.43,4.544,21.361,7.082,32.68,7.395c11.984,0.331,23.991,0.31,35.975-0.011
							c17.036-0.456,33.731,1.339,49.783,7.154c18.583,6.733,37.084,6.417,55.938,1.157c24.169-6.743,47.607-15.098,69.081-28.347
							c27.319-16.855,46.819-40.513,60.368-69.334c8.333-17.724,14.361-36.156,17.2-55.609c3.649-25.002-0.289-49.089-8.805-72.527
							c-9.725-26.766-20.494-53.1-35.233-77.609c-8.637-14.362-19.124-27.101-32.584-37.246c-0.772-0.582-1.393-1.363-2.083-2.052
							c11.548,6.596,21.173,15.407,29.006,26.059c26.102,35.497,42.142,75.688,53.412,117.841c7.22,27.006,4.048,53.9-4.506,80.253
							c-9.813,30.228-24.544,57.5-48.269,79.227c-19.166,17.551-41.822,29.131-66.129,37.647
							c-14.315,5.015-28.787,9.52-43.921,11.598c-12.31,1.69-24.18-0.19-35.645-4.276c-19.866-7.082-40.268-8.483-61.112-7.528
							c-16.709,0.766-33.442,0.855-49.731-4.127c-10.579-3.236-20.251-8.336-29.391-14.396c-9.348-6.197-18.407-12.833-27.562-19.32
							C170.112,485.714,169.49,484.803,168.766,484.038z"/>
						<path style="fill:none;stroke:#231F20;" d="M403.395,159.737c-20.295-9.756-34.866-29.654-21.973-55.792
							c4.178-8.47,9.408-16.416,13.961-24.709c5.005-9.116,9.445-18.46,8.864-29.29c-0.111-2.068-0.25-4.134-0.375-6.201
							c0.808-0.314,1.659-0.547,2.411-0.96c1.754-0.964,2.348-0.534,2.929,1.464c2.717,9.338,1.545,18.393-2.443,26.932
							c-3.728,7.981-8.216,15.617-12.563,23.295c-4.546,8.028-9.101,16.053-10.774,25.257c-2.395,13.179,2.303,24,11.668,33.047
							C397.689,155.281,400.621,157.427,403.395,159.737z"/>
						<path style="fill:none;stroke:#231F20;" d="M331.124,62.029c-0.452,3.128-0.904,6.257-1.356,9.385
							c-7.441-18.542-16.648-35.57-32.727-47.955c0.541-1.495,1.268-2.556,2.939-1.163c2.646,2.206,5.683,4.094,7.841,6.706
							c5.855,7.09,11.488,14.378,16.893,21.817C327.228,54.281,329.01,58.276,331.124,62.029z"/>
						<path style="fill:none;stroke:#231F20;" d="M374.723,57.44c-0.316,1.995-1.657,2.406-2.835,1.118
							c-1.624-1.777-3.397-3.808-4.026-6.036c-2.448-8.675-2.487-17.46-0.031-26.202c0.536-1.908,0.939-3.853,1.405-5.78
							c6.722,1.226,6.848,1.264,4.929,7.736C371.256,38.086,371.611,47.775,374.723,57.44z"/>
						<path style="fill:none;stroke:#231F20;" d="M279.643,61.572c-0.246,1.019-0.492,2.039-0.738,3.058
							c-0.723-0.577-1.561-1.055-2.151-1.745c-6.813-7.973-14.899-14.284-24.353-18.801
							C263.125,47.376,271.97,53.562,279.643,61.572z"/>
					</g>
					<path style="fill:none;stroke:#231F20;" d="M411.106,163.893c-1.982-1.01-3.965-2.021-5.932-3.026
						C407.161,161.879,409.133,162.886,411.106,163.893z"/>
					<path style="fill:none;stroke:#231F20;" d="M402.693,41.412c-0.872-0.19-1.745-0.38-2.594-0.578
						C400.98,41.021,401.837,41.216,402.693,41.412z"/>
					<path style="fill:none;stroke:#231F20;" d="M452.71,182.145c-1.281-0.663-2.562-1.325-3.82-1.978
						C450.179,180.832,451.444,181.489,452.71,182.145z"/>
					<path style="fill:none;stroke:#231F20;" d="M165.793,481.76c0.521,0.507,1.042,1.014,1.563,1.521
						C166.835,482.773,166.314,482.266,165.793,481.76z"/>
					<path style="fill:none;stroke:#231F20;" d="M163.566,480.235c0.764,0.525,1.527,1.049,2.291,1.574
						C165.093,481.284,164.329,480.76,163.566,480.235z"/>
					<path style="fill:none;stroke:#231F20;" d="M159.867,477.203c0.506,0.28,1.012,0.559,1.519,0.838
						C160.88,477.762,160.374,477.482,159.867,477.203z"/>
					<path style="fill:none;stroke:#231F20;" d="M454.249,182.953c-0.162-0.142-0.357-0.226-0.58-0.251
						C453.917,182.694,454.108,182.778,454.249,182.953z"/>
					<path style="fill:none;stroke:#231F20;" d="M167.318,483.245c0.509,0.284,1.018,0.567,1.526,0.851
						C168.336,483.812,167.827,483.529,167.318,483.245z"/>
					<path style="fill:none;stroke:#231F20;" d="M161.304,477.983c0.273,0.268,0.547,0.536,0.82,0.804
						C161.851,478.519,161.577,478.251,161.304,477.983z"/>
					<path style="fill:none;stroke:#231F20;" d="M162.06,478.731c0.269,0.268,0.537,0.536,0.806,0.805
						C162.597,479.267,162.329,478.999,162.06,478.731z"/>
					<path style="fill:none;stroke:#231F20;" d="M404.19,160.199c0,0-0.231-0.088-0.227-0.087
						C403.967,160.113,404.19,160.199,404.19,160.199z"/>
					<path style="fill:none;stroke:#231F20;" d="M162.81,479.477c0.27,0.269,0.539,0.538,0.809,0.806
						C163.35,480.015,163.08,479.746,162.81,479.477z"/>
					<path style="fill:none;stroke:#231F20;" d="M296.606,129.917c6.173,9.207,8.923,19.308,9.911,31.055
						c12.354-13.361,26.801-21.689,43.704-26.135c-0.675,13.849,6.38,23.586,17.449,30.806c3.939,2.57,8.354,4.5,12.727,6.296
						c7.271,2.987,14.861,5.239,22.005,8.485c28.764,13.07,45.067,36.118,52.209,66.285c4.284,18.097,5.297,36.58,5.74,55.05
						c0.494,20.596,1.011,41.248,0.072,61.81c-1.423,31.174-9.404,60.9-24.12,88.518c-13.051,24.494-34.131,39.655-59.753,48.952
						c-23.668,8.588-48.266,10.893-73.1,8.499c-23.203-2.237-46.3-5.697-69.381-9.049c-16.144-2.345-29.623-10.045-40.622-22.138
						c-10.928-12.014-21.934-23.957-32.966-35.875c-7.694-8.312-12.676-18.031-14.209-29.19
						c-2.699-19.651-5.462-39.319-7.234-59.067c-2.548-28.391,3.626-55.604,12.899-82.255c5.656-16.254,10.215-32.977,18.858-48.001
						c18.938-32.92,47.139-52.518,84.901-58.025c4.566-0.666,9.163-1.255,13.654-2.277c14.927-3.397,25.919-16.348,27.074-31.626
						C296.477,131.328,296.545,130.623,296.606,129.917z M407.875,345.522c2.286-0.893,5.031-1.262,6.765-2.783
						c3.984-3.496,7.859-7.256,11.091-11.441c7.648-9.902,5.71-17.063-5.63-22.492c-1.008-0.483-2.064-1.216-3.097-1.216
						c-1.534,0.001-3.539,0.043-4.526,0.954c-6.784,6.257-11.788,13.79-14.962,22.479
						C394.576,339.075,399.056,345.214,407.875,345.522z M271.662,307.646c0.316,9.333,2.001,17.569,5.7,25.343
						c3.236,6.802,9.601,8.595,15.195,3.598c2.495-2.229,4.851-5.865,5.132-9.051c0.527-5.978,0.042-12.189-1.012-18.127
						c-1.487-8.374-7.117-11.554-15.428-9.609c-1.573,0.368-3.098,0.935-4.655,1.378
						C272.926,302.222,270.512,304.094,271.662,307.646z M311.282,443.473c1.69,3.215,2.92,6.816,5.197,9.541
						c2.422,2.9,5.757,5.077,8.83,7.387c13.316,10.013,20.384,4.204,24.833-8.539c0.041-0.118,0.144-0.249,0.119-0.349
						c-0.386-1.517-0.31-3.505-1.264-4.468c-6.612-6.67-14.628-11.105-23.569-13.878
						C317.89,430.831,312.334,434.982,311.282,443.473z M391.202,260.536c1.569,2.676,2.653,5.875,4.832,7.891
						c2.575,2.382,5.989,3.986,9.263,5.413c1.175,0.512,3.455,0.038,4.457-0.855c6.815-6.07,11.659-13.569,14.938-22.063
						c3.432-8.89-2.228-15.811-11.726-14.417C405.318,237.628,392.385,252.194,391.202,260.536z M300.482,369.865
						c2.612-1.027,5.493-1.645,7.783-3.158c6.389-4.222,10.8-10.323,14.185-17.051c2.182-4.336,1.267-8.76-2.46-11.875
						c-2.815-2.352-6.299-3.896-9.451-5.854c-2.056-1.277-3.606-0.697-5.226,0.907c-6.561,6.496-11.675,13.928-14.817,22.634
						C287.684,363.259,291.887,369.146,300.482,369.865z M345.255,296.427c0.117-4.948-1.822-7.936-5.534-9.452
						c-4.778-1.951-9.529-1.545-13.392,1.72c-3.667,3.1-6.964,6.747-9.943,10.531c-8.043,10.217-6.399,17.024,5.205,22.836
						c0.998,0.5,2.077,0.844,3.058,1.373c1.981,1.068,3.379,0.405,4.911-1.076c6.653-6.436,11.59-13.966,14.824-22.616
						C344.898,298.365,345.138,296.885,345.255,296.427z M249.035,464.317c2.411-0.887,5.109-1.347,7.179-2.74
						c6.647-4.475,11.539-10.618,14.809-17.889c1.997-4.441,0.748-8.965-3.241-12.036c-2.726-2.099-5.955-3.547-8.966-5.274
						c-1.874-1.075-3.367-0.689-4.935,0.854c-6.584,6.476-11.671,13.928-14.9,22.579
						C236.001,457.796,240.238,463.712,249.035,464.317z M406.094,225.103c-1.517-3.876-2.865-7.832-4.662-11.574
						c-0.491-1.022-2.33-1.978-3.548-1.976c-9.453,0.021-18.228,2.58-26.166,7.768c-3.117,2.038-3.172,3.769-0.861,6.759
						c4.244,5.492,8.255,11.168,12.587,16.588c0.895,1.12,2.782,2.082,4.192,2.054C397.255,244.537,405.188,235.694,406.094,225.103
						z M332.598,249.067c-0.792,0.712-2.111,1.573-3.007,2.754c-8.902,11.736-1.379,29.475,13.293,31.203
						c1.318,0.155,3.163-0.653,4.135-1.635c6.288-6.354,10.313-14.021,12.395-22.699c1.09-4.544,0.01-5.799-4.649-6.241
						c-5.193-0.493-10.371-1.179-15.539-1.895C337.258,250.281,335.334,249.693,332.598,249.067z M416.34,367.292
						c-0.311-9.282-7.052-17.314-16.683-19.194c-1.493-0.291-3.785,0.345-4.825,1.413c-6.315,6.482-10.484,14.231-12.5,23.085
						c-0.932,4.094,0.226,5.379,4.389,5.797c5.559,0.559,11.132,1.184,16.619,2.209c7.309,1.365,9.219,0.48,11.603-6.753
						C415.638,371.74,415.886,369.482,416.34,367.292z M336.311,333.76c0.672,4.298,1.11,8.648,2.068,12.881
						c1.529,6.751,5.515,9.793,12.428,9.043c3.631-0.394,7.171-1.888,10.658-3.145c0.758-0.273,1.554-1.636,1.591-2.528
						c0.434-10.273-1.461-20.113-6.271-29.24c-2.548-4.834-7.12-6.139-12.11-3.738C337.608,320.434,336.437,326.762,336.311,333.76z
						 M405.65,297.471c-0.833-4.768-1.389-9.606-2.57-14.285c-1.49-5.901-6.109-8.92-12.106-8.001
						c-3.281,0.503-6.441,1.776-9.665,2.669c-2.007,0.556-2.552,1.839-2.597,3.876c-0.2,9.249,1.525,18.079,5.335,26.5
						c3.631,8.025,11.384,9.173,17.336,2.587C404.82,307.016,405.356,302.38,405.65,297.471z M249.019,205.245
						c0.146,8.712,2.019,17.027,5.881,24.853c2.698,5.467,7.252,7.026,12.73,4.404c5.301-2.537,7.773-7.126,7.724-12.671
						c-0.05-5.69-0.599-11.45-1.667-17.038c-1.231-6.441-5.665-9.42-12.215-8.889c-2.324,0.189-4.668,0.773-6.885,1.523
						C248.97,199.326,248.996,199.404,249.019,205.245z M357.504,439.673c5.226-1.109,10.551-1.886,15.652-3.411
						c6.324-1.891,9.086-6.531,7.816-12.982c-0.663-3.369-2.192-6.601-3.626-9.761c-0.389-0.857-1.847-1.733-2.823-1.743
						c-10.35-0.103-20.006,2.622-28.888,7.866c-4.175,2.465-5.258,6.469-3.514,11.037
						C344.288,436.354,349.451,439.211,357.504,439.673z M289.073,454.265c9.062-0.228,17.036-6.727,19.384-15.667
						c0.94-3.577,0.453-5.971-2.795-8.27c-6.63-4.692-13.672-8.187-21.682-9.67c-5-0.926-6.13,0.164-6.311,5.361
						c-0.19,5.459-0.434,10.949-1.203,16.347c-0.969,6.801-0.436,8.188,6.099,10.365C284.671,453.433,286.9,453.764,289.073,454.265
						z M218.844,286.431c0.02,11.034,7.559,19.724,17.433,21.025c1.18,0.156,2.981-0.185,3.646-0.993
						c5.812-7.07,10.661-14.712,12.714-23.805c0.891-3.944-0.42-5.424-4.462-5.847c-5.546-0.58-11.106-1.202-16.582-2.224
						c-7.285-1.359-9.313-0.399-11.65,6.75C219.291,283.332,219.047,285.459,218.844,286.431z M204.517,334.848
						c0.255,0.903,0.413,2.456,1.1,3.723c2.962,5.466,8.287,7.7,13.776,9.57c0.623,0.212,1.743-0.235,2.297-0.743
						c7.792-7.15,13.501-15.673,16.477-25.874c1.049-3.594-0.098-6.754-3.135-8.94c-3.313-2.385-7.054-3.012-11.044-1.929
						c-6.84,1.858-18.414,15.116-19.285,22.12C204.641,333.268,204.613,333.767,204.517,334.848z M227.784,364.011
						c-1.666-2.629-2.886-5.754-5.115-7.755c-2.525-2.266-5.851-3.774-9.043-5.091c-1.207-0.499-3.492-0.068-4.47,0.828
						c-6.828,6.253-11.839,13.807-15.031,22.522c-3.042,8.308,2.22,14.948,11.022,13.957
						C213.492,387.531,226.726,372.983,227.784,364.011z M309.358,391.513c-0.286-9.383-7.704-18.044-16.958-19.226
						c-1.457-0.186-3.542,0.462-4.547,1.493c-6.217,6.377-10.276,14.037-12.38,22.684c-1.087,4.47,0.105,5.822,4.708,6.297
						c5.305,0.547,10.643,1.012,15.869,2.019c7.577,1.46,9.845,0.372,12.113-7.059C308.776,395.717,308.971,393.586,309.358,391.513
						z M356.024,182.677c0.164,7.462,2.023,15.319,5.58,22.726c3.236,6.738,9.88,8.273,15.345,3.208
						c2.233-2.07,4.08-5.16,4.828-8.109c1.859-7.331,0.38-14.686-1.727-21.769c-1.495-5.027-5.445-7.458-10.609-7.136
						c-2.461,0.154-4.966,0.624-7.313,1.381C355.737,175.039,355.642,175.312,356.024,182.677z M423.205,401.372
						c0.301-0.116,0.602-0.231,0.903-0.347c-1.537-3.996-2.934-8.056-4.712-11.943c-0.428-0.935-2.107-1.816-3.226-1.836
						c-9.755-0.173-18.669,2.697-26.828,7.967c-2.516,1.625-2.643,3.617-0.826,5.992c4.374,5.72,8.558,11.588,13.047,17.213
						c0.88,1.102,2.84,2.04,4.218,1.936C415.792,419.599,423.151,411.435,423.205,401.372z M256.12,369.612
						c-0.216-8.361-2.158-16.321-5.842-23.805c-2.785-5.658-7.982-7.131-13.476-4.036c-3.458,1.948-5.651,4.918-6.45,8.78
						c-1.666,8.053-0.484,15.915,2.229,23.529c1.2,3.368,3.925,5.662,7.627,5.755c3.059,0.077,6.247-0.176,9.185-0.986
						C256.186,376.978,256.326,376.543,256.12,369.612z M267.938,400.345c-1.567-4.123-2.967-8.323-4.815-12.315
						c-0.475-1.025-2.376-1.996-3.602-1.971c-9.287,0.188-17.975,2.642-25.837,7.684c-3.308,2.122-3.37,3.988-0.955,7.037
						c4.078,5.149,8.231,10.275,11.816,15.762c1.78,2.724,3.691,3.29,6.466,2.793C259.972,417.729,266.757,409.837,267.938,400.345z
						 M329.46,222.627c-0.468-7.403-3.69-13.317-10.072-17.303c-0.958-0.598-2.694-0.741-3.73-0.298
						c-8.684,3.716-15.802,9.454-21.174,17.249c-2.014,2.922-1.442,4.697,1.519,6.408c6.123,3.539,12.263,7.057,18.251,10.815
						c1.888,1.185,3.323,1.181,5.112,0.121C325.805,235.801,328.946,230.066,329.46,222.627z M290.032,235.639
						c-8.822,0.668-16.45,2.681-23.457,6.825c-5.29,3.128-5.303,4.463-1.463,9.127c3.756,4.562,7.207,9.426,10.3,14.46
						c1.557,2.534,3.11,3.435,5.954,3.051c13.947-1.884,21.198-16.896,14.311-29.635
						C294.249,236.821,292.652,234.852,290.032,235.639z M362.665,227.619c-0.242-0.104-0.485-0.209-0.727-0.313
						c-0.38-3.591-0.288-7.316-1.26-10.739c-1.199-4.224-2.741-8.552-5.127-12.184c-2.688-4.092-8.936-5.166-13.158-3.228
						c-4.517,2.073-3.895,6.325-3.178,9.741c1.781,8.48,3.791,16.976,6.618,25.152c2.176,6.296,9.375,6.975,13.18,1.42
						C360.932,234.667,361.491,230.932,362.665,227.619z M255.136,250.304c-0.76-4.063-1.482-10.02-3.055-15.744
						c-1.564-5.693-5.477-9.42-11.694-10.01c-4.914-0.466-8.294,1.874-8.277,6.678c0.04,10.848,2.621,21.248,7.663,30.861
						c2.088,3.98,6.431,4.336,10.347,1.642C254.218,260.912,254.728,256.602,255.136,250.304z M418.22,350.241
						c1.196,6.501,1.962,12.435,3.448,18.182c1.158,4.479,3.978,8.002,8.72,9.485c7.363,2.303,12.498-1.153,11.256-8.601
						c-1.503-9.013-3.88-17.956-6.761-26.637c-2.038-6.142-9.116-6.899-12.978-1.602
						C419.968,343.726,419.337,347.336,418.22,350.241z M289.215,479.858c9.24-1.266,19.092-3.931,28.069-9.124
						c4.178-2.417,4.885-6.892,1.709-10.542c-1.535-1.764-3.919-3.54-6.122-3.844c-9.248-1.277-18.242,0.282-26.317,4.987
						c-2.452,1.429-4.596,4.409-5.57,7.146C278.641,475.065,281.964,479.846,289.215,479.858z M311.343,374.732
						c1.154,6.537,1.855,11.97,3.129,17.265c1.051,4.37,3.581,7.933,7.939,9.797c7.437,3.18,12.777-0.299,12.338-8.235
						c-0.513-9.283-2.87-18.18-6.661-26.646c-2.659-5.939-8.885-6.996-12.82-1.822C313.094,367.948,312.421,371.948,311.343,374.732
						z M323.579,279.023c-1.342-6.051-2.348-12.203-4.136-18.119c-1.327-4.394-4.685-7.247-9.413-8.223
						c-6.334-1.307-10.123,1.463-9.931,7.852c0.295,9.851,2.821,19.254,6.949,28.161c2.471,5.331,7.592,6.115,12.012,2.19
						C322.604,287.735,322.924,283.524,323.579,279.023z M216.077,304.267c0.306-0.085,0.613-0.171,0.919-0.256
						c-1.738-6.832-2.93-13.869-5.386-20.432c-1.998-5.34-7.663-7.654-12.948-6.664c-2.888,0.541-5.172,1.833-5.285,5.261
						c-0.384,11.621,2.497,22.49,7.925,32.657c1.575,2.95,5.065,3.439,8.279,1.925C214.922,314.242,215.929,309.474,216.077,304.267
						z M352.09,359.746c-0.014-0.166-0.028-0.332-0.041-0.497c-3.833,0.336-7.737,0.32-11.482,1.084
						c-6.875,1.402-10.48,7.725-7.309,12.974c2.472,4.092,6.56,6.212,11.5,6.349c7.861,0.217,15.027-1.874,21.307-6.62
						c1.329-1.004,2.537-2.46,3.221-3.971c2.286-5.051-1.398-10.367-6.787-10.025C359.028,359.258,355.559,359.509,352.09,359.746z
						 M313.08,429.106c7.391-0.841,14.041-2.728,19.767-7.131c1.502-1.155,2.915-2.842,3.585-4.586
						c1.992-5.183-1.698-9.885-7.076-9.575c-5.099,0.294-10.221,0.216-15.313,0.572c-2.953,0.207-5.988,0.596-8.772,1.536
						c-3.364,1.136-5.685,3.667-5.997,7.422c-0.308,3.702,1.335,6.775,4.476,8.448C306.63,427.328,309.952,428.034,313.08,429.106z
						 M362.27,246.603c0.065,0,0.13,0,0.196,0c0,4.965-0.401,9.974,0.134,14.881c0.39,3.584,2.722,6.431,6.553,7.396
						c3.673,0.925,6.666-0.524,9.043-3.171c6.512-7.255,3.607-27.992-4.589-33.215c-3.278-2.089-6.722-1.336-9.536,0.495
						c-1.243,0.809-1.536,3.504-1.73,5.397C362.063,241.099,362.27,243.862,362.27,246.603z M369.394,290.028
						c0.199-0.003,0.397-0.005,0.596-0.008c-0.128-2.111-0.064-4.255-0.421-6.327c-0.947-5.499-4.166-8.998-8.299-9.309
						c-4.462-0.336-9.112,2.83-10.241,8.15c-0.909,4.281-1.339,9.018-0.451,13.231c0.997,4.733,3.302,9.348,5.805,13.557
						c2.163,3.637,6,3.145,9.765,2.13c3.553-0.958,3.243-3.534,3.244-6.138C369.397,300.219,369.394,295.124,369.394,290.028z
						 M231.132,424.395c0-4.606,0.311-9.238-0.086-13.809c-0.413-4.769-3.925-8.304-7.878-8.83
						c-3.774-0.502-8.124,2.276-10.045,6.43c-0.261,0.565-0.543,1.137-0.686,1.737c-2.306,9.675-0.381,18.53,5.326,26.582
						c0.689,0.972,1.776,1.806,2.86,2.329c5.225,2.519,10.577-0.89,10.517-6.596C231.113,429.623,231.136,427.009,231.132,424.395z
						 M372.317,339.675c-0.081,0-0.162,0-0.242,0c0,1.996-0.103,3.997,0.019,5.986c0.372,6.081,3.802,10.466,8.374,10.844
						c4.907,0.405,9.772-3.12,10.621-9.077c0.704-4.935,0.559-10.238-0.49-15.101c-0.856-3.969-3.209-7.813-5.624-11.194
						c-2.518-3.526-6.375-2.395-9.962-1.377c-3.492,0.991-2.586,3.817-2.655,6.12C372.22,330.471,372.317,335.074,372.317,339.675z
						 M265.516,366.447c-0.221,0.005-0.441,0.01-0.662,0.014c0.142,1.609,0.17,3.238,0.445,4.825
						c0.949,5.468,3.987,9.062,7.77,9.334c5.466,0.394,9.451-2.482,11.046-8.467c2.51-9.419,0.175-17.986-5.158-25.889
						c-0.479-0.71-1.137-1.343-1.827-1.859c-3.145-2.351-6.322-1.279-9.575-0.132c-2.949,1.04-1.945,3.457-1.991,5.372
						C265.428,355.242,265.516,360.845,265.516,366.447z M361.01,402.94c0.054,0.328,0.108,0.656,0.162,0.984
						c4.588-0.889,9.492-1.041,13.693-2.837c6.631-2.835,6.952-11.004,0.943-15.072c-1.797-1.217-4.024-2.159-6.16-2.452
						c-8.527-1.17-16.299,1.083-23.311,5.985c-1,0.699-1.884,1.645-2.622,2.626c-2.502,3.326-1.139,6.614,0.254,9.874
						c1.27,2.971,3.877,1.635,5.891,1.624C353.578,403.652,357.293,403.208,361.01,402.94z M262.581,318.011
						c0.033,0,0.065,0,0.098,0c0-3.238,0.2-6.491-0.047-9.709c-0.376-4.911-3.706-8.903-7.581-9.544
						c-4.357-0.721-9.01,1.968-10.561,7.054c-1.096,3.592-1.47,7.57-1.314,11.341c0.251,6.075,2.365,11.71,6.214,16.51
						c2.42,3.018,5.827,3.275,10.242,1.866c3.843-1.227,2.823-4.169,2.916-6.714C262.679,325.217,262.581,321.612,262.581,318.011z
						 M255.339,276.787c-0.181,0.006-0.363,0.013-0.544,0.019c0.214,2.843,0.135,5.747,0.709,8.515c0.975,4.7,4.41,7.912,8.11,8.154
						c3.951,0.258,8.35-2.409,9.646-6.889c1.081-3.734,1.452-7.806,1.37-11.713c-0.122-5.84-2.271-11.201-5.705-15.938
						c-2.491-3.437-5.955-3.918-10.751-2.318c-4.013,1.34-2.72,4.492-2.799,7.132C255.244,268.091,255.339,272.44,255.339,276.787z"
						/>
					<path style="fill:none;stroke:#231F20;" d="M407.875,345.522c-8.819-0.308-13.299-6.448-10.358-14.498
						c3.174-8.689,8.177-16.222,14.962-22.479c0.987-0.911,2.992-0.953,4.526-0.954c1.033-0.001,2.089,0.733,3.097,1.216
						c11.339,5.428,13.277,12.59,5.63,22.492c-3.232,4.184-7.107,7.945-11.091,11.441
						C412.906,344.26,410.161,344.63,407.875,345.522z"/>
					<path style="fill:none;stroke:#231F20;" d="M271.662,307.646c-1.15-3.552,1.264-5.424,4.932-6.467
						c1.557-0.443,3.082-1.01,4.655-1.378c8.311-1.946,13.941,1.235,15.428,9.609c1.054,5.938,1.54,12.149,1.012,18.127
						c-0.281,3.186-2.637,6.822-5.132,9.051c-5.595,4.997-11.959,3.204-15.195-3.598
						C273.663,325.215,271.978,316.979,271.662,307.646z"/>
					<path style="fill:none;stroke:#231F20;" d="M311.282,443.473c1.052-8.492,6.608-12.643,14.146-10.305
						c8.941,2.773,16.956,7.208,23.569,13.878c0.955,0.963,0.878,2.951,1.264,4.468c0.025,0.1-0.078,0.231-0.119,0.349
						c-4.449,12.743-11.518,18.551-24.833,8.539c-3.073-2.311-6.408-4.487-8.83-7.387
						C314.202,450.289,312.972,446.689,311.282,443.473z"/>
					<path style="fill:none;stroke:#231F20;" d="M391.202,260.536c1.183-8.343,14.116-22.908,21.764-24.03
						c9.498-1.393,15.158,5.527,11.726,14.417c-3.279,8.493-8.123,15.993-14.938,22.063c-1.002,0.893-3.282,1.367-4.457,0.855
						c-3.274-1.427-6.689-3.031-9.263-5.413C393.855,266.411,392.771,263.212,391.202,260.536z"/>
					<path style="fill:none;stroke:#231F20;" d="M300.482,369.865c-8.595-0.72-12.798-6.606-9.986-14.397
						c3.142-8.706,8.255-16.138,14.817-22.634c1.621-1.604,3.171-2.184,5.226-0.907c3.152,1.958,6.637,3.502,9.451,5.854
						c3.727,3.115,4.642,7.538,2.46,11.875c-3.385,6.728-7.796,12.829-14.185,17.051
						C305.976,368.22,303.094,368.838,300.482,369.865z"/>
					<path style="fill:none;stroke:#231F20;" d="M345.255,296.427c-0.117,0.458-0.357,1.938-0.872,3.316
						c-3.234,8.65-8.171,16.18-14.824,22.616c-1.532,1.482-2.93,2.144-4.911,1.076c-0.981-0.529-2.06-0.873-3.058-1.373
						c-11.604-5.811-13.248-12.619-5.205-22.836c2.979-3.784,6.275-7.432,9.943-10.531c3.864-3.265,8.615-3.671,13.392-1.72
						C343.433,288.491,345.371,291.479,345.255,296.427z"/>
					<path style="fill:none;stroke:#231F20;" d="M249.035,464.317c-8.797-0.605-13.034-6.521-10.054-14.506
						c3.228-8.651,8.315-16.103,14.9-22.579c1.568-1.543,3.062-1.929,4.935-0.854c3.011,1.727,6.24,3.175,8.966,5.274
						c3.989,3.071,5.238,7.595,3.241,12.036c-3.27,7.271-8.161,13.414-14.809,17.889
						C254.144,462.971,251.445,463.43,249.035,464.317z"/>
					<path style="fill:none;stroke:#231F20;" d="M406.094,225.103c-0.906,10.591-8.839,19.434-18.458,19.62
						c-1.409,0.027-3.297-0.934-4.192-2.054c-4.332-5.42-8.342-11.096-12.587-16.588c-2.31-2.99-2.256-4.721,0.861-6.759
						c7.938-5.189,16.713-7.747,26.166-7.768c1.218-0.003,3.057,0.954,3.548,1.976C403.229,217.271,404.577,221.227,406.094,225.103
						z"/>
					<path style="fill:none;stroke:#231F20;" d="M332.598,249.067c2.736,0.625,4.66,1.214,6.627,1.486
						c5.169,0.716,10.346,1.402,15.539,1.895c4.659,0.442,5.739,1.698,4.649,6.241c-2.082,8.678-6.107,16.345-12.395,22.699
						c-0.972,0.982-2.817,1.79-4.135,1.635c-14.672-1.728-22.195-19.467-13.293-31.203
						C330.487,250.64,331.806,249.78,332.598,249.067z"/>
					<path style="fill:none;stroke:#231F20;" d="M416.34,367.292c-0.453,2.19-0.702,4.448-1.397,6.558
						c-2.384,7.233-4.294,8.118-11.603,6.753c-5.487-1.025-11.06-1.65-16.619-2.209c-4.162-0.419-5.321-1.704-4.389-5.797
						c2.017-8.854,6.185-16.604,12.5-23.085c1.04-1.067,3.332-1.704,4.825-1.413C409.288,349.979,416.029,358.01,416.34,367.292z"/>
					<path style="fill:none;stroke:#231F20;" d="M336.311,333.76c0.126-6.999,1.297-13.327,8.364-16.727
						c4.99-2.401,9.562-1.096,12.11,3.738c4.81,9.127,6.705,18.967,6.271,29.24c-0.038,0.892-0.834,2.255-1.591,2.528
						c-3.488,1.256-7.027,2.75-10.658,3.145c-6.913,0.751-10.899-2.292-12.428-9.043
						C337.421,342.408,336.982,338.058,336.311,333.76z"/>
					<path style="fill:none;stroke:#231F20;" d="M405.65,297.471c-0.294,4.908-0.83,9.544-4.266,13.346
						c-5.952,6.586-13.706,5.437-17.336-2.587c-3.81-8.421-5.535-17.251-5.335-26.5c0.044-2.037,0.59-3.32,2.597-3.876
						c3.224-0.893,6.384-2.166,9.665-2.669c5.996-0.919,10.616,2.1,12.106,8.001C404.261,287.866,404.816,292.704,405.65,297.471z"
						/>
					<path style="fill:none;stroke:#231F20;" d="M249.019,205.245c-0.023-5.841-0.049-5.92,5.568-7.818
						c2.218-0.749,4.561-1.334,6.885-1.523c6.55-0.532,10.984,2.447,12.215,8.889c1.068,5.588,1.617,11.348,1.667,17.038
						c0.049,5.545-2.424,10.134-7.724,12.671c-5.477,2.622-10.031,1.063-12.73-4.404
						C251.038,222.272,249.165,213.957,249.019,205.245z"/>
					<path style="fill:none;stroke:#231F20;" d="M357.504,439.673c-8.053-0.462-13.217-3.319-15.383-8.995
						c-1.744-4.569-0.661-8.572,3.514-11.037c8.882-5.244,18.538-7.969,28.888-7.866c0.976,0.01,2.434,0.886,2.823,1.743
						c1.433,3.16,2.962,6.393,3.626,9.761c1.27,6.451-1.492,11.091-7.816,12.982C368.055,437.787,362.73,438.564,357.504,439.673z"
						/>
					<path style="fill:none;stroke:#231F20;" d="M289.073,454.265c-2.173-0.501-4.402-0.833-6.508-1.534
						c-6.535-2.177-7.068-3.564-6.099-10.365c0.769-5.398,1.013-10.888,1.203-16.347c0.181-5.197,1.311-6.287,6.311-5.361
						c8.01,1.483,15.052,4.979,21.682,9.67c3.249,2.299,3.735,4.693,2.795,8.27C306.109,447.538,298.135,454.037,289.073,454.265z"
						/>
					<path style="fill:none;stroke:#231F20;" d="M218.844,286.431c0.203-0.972,0.447-3.099,1.099-5.093
						c2.337-7.149,4.365-8.109,11.65-6.75c5.476,1.022,11.037,1.643,16.582,2.224c4.041,0.423,5.352,1.903,4.462,5.847
						c-2.053,9.093-6.902,16.735-12.714,23.805c-0.664,0.808-2.465,1.148-3.646,0.993
						C226.403,306.155,218.865,297.465,218.844,286.431z"/>
					<path style="fill:none;stroke:#231F20;" d="M204.517,334.848c0.095-1.081,0.124-1.579,0.186-2.074
						c0.87-7.003,12.445-20.262,19.285-22.12c3.99-1.084,7.732-0.456,11.044,1.929c3.037,2.187,4.183,5.346,3.135,8.94
						c-2.977,10.201-8.686,18.724-16.477,25.874c-0.554,0.508-1.674,0.955-2.297,0.743c-5.489-1.87-10.814-4.104-13.776-9.57
						C204.93,337.304,204.772,335.751,204.517,334.848z"/>
					<path style="fill:none;stroke:#231F20;" d="M227.784,364.011c-1.058,8.973-14.292,23.52-22.637,24.46
						c-8.802,0.992-14.064-5.649-11.022-13.957c3.191-8.714,8.203-16.268,15.031-22.522c0.979-0.896,3.263-1.326,4.47-0.828
						c3.192,1.318,6.518,2.826,9.043,5.091C224.899,358.257,226.119,361.382,227.784,364.011z"/>
					<path style="fill:none;stroke:#231F20;" d="M309.358,391.513c-0.387,2.073-0.582,4.204-1.194,6.208
						c-2.268,7.431-4.537,8.519-12.113,7.059c-5.226-1.007-10.565-1.472-15.869-2.019c-4.603-0.475-5.795-1.826-4.708-6.297
						c2.104-8.647,6.163-16.308,12.38-22.684c1.005-1.031,3.09-1.679,4.547-1.493C301.654,373.469,309.072,382.13,309.358,391.513z"
						/>
					<path style="fill:none;stroke:#231F20;" d="M356.024,182.677c-0.383-7.364-0.287-7.638,6.104-9.699
						c2.347-0.757,4.852-1.227,7.313-1.381c5.164-0.323,9.114,2.109,10.609,7.136c2.106,7.083,3.586,14.438,1.727,21.769
						c-0.748,2.949-2.595,6.039-4.828,8.109c-5.465,5.065-12.109,3.53-15.345-3.208
						C358.047,197.996,356.188,190.138,356.024,182.677z"/>
					<path style="fill:none;stroke:#231F20;" d="M423.205,401.372c-0.054,10.064-7.413,18.228-17.424,18.984
						c-1.378,0.104-3.338-0.834-4.218-1.936c-4.489-5.626-8.673-11.493-13.047-17.213c-1.817-2.376-1.69-4.367,0.826-5.992
						c8.158-5.271,17.073-8.14,26.828-7.967c1.119,0.02,2.798,0.901,3.226,1.836c1.777,3.886,3.175,7.946,4.712,11.943
						C423.807,401.14,423.506,401.256,423.205,401.372z"/>
					<path style="fill:none;stroke:#231F20;" d="M256.12,369.612c0.206,6.931,0.065,7.366-6.727,9.238
						c-2.937,0.81-6.125,1.063-9.185,0.986c-3.703-0.093-6.427-2.387-7.627-5.755c-2.713-7.613-3.895-15.475-2.229-23.529
						c0.799-3.862,2.992-6.832,6.45-8.78c5.494-3.094,10.691-1.621,13.476,4.036C253.962,353.291,255.904,361.252,256.12,369.612z"
						/>
					<path style="fill:none;stroke:#231F20;" d="M267.938,400.345c-1.18,9.492-7.965,17.384-16.926,18.989
						c-2.775,0.497-4.686-0.068-6.466-2.793c-3.585-5.486-7.738-10.613-11.816-15.762c-2.415-3.049-2.353-4.916,0.955-7.037
						c7.861-5.043,16.55-7.496,25.837-7.684c1.225-0.025,3.127,0.946,3.602,1.971C264.971,392.022,266.371,396.222,267.938,400.345z
						"/>
					<path style="fill:none;stroke:#231F20;" d="M329.46,222.627c-0.513,7.439-3.655,13.174-10.094,16.992
						c-1.789,1.061-3.224,1.064-5.112-0.121c-5.988-3.758-12.128-7.276-18.251-10.815c-2.961-1.711-3.533-3.486-1.519-6.408
						c5.373-7.795,12.491-13.534,21.174-17.249c1.036-0.443,2.772-0.3,3.73,0.298C325.77,209.31,328.992,215.224,329.46,222.627z"/>
					<path style="fill:none;stroke:#231F20;" d="M290.032,235.639c2.62-0.787,4.216,1.182,5.646,3.827
						c6.886,12.739-0.365,27.751-14.311,29.635c-2.844,0.384-4.397-0.517-5.954-3.051c-3.093-5.034-6.544-9.898-10.3-14.46
						c-3.84-4.664-3.827-5.998,1.463-9.127C273.583,238.32,281.211,236.307,290.032,235.639z"/>
					<path style="fill:none;stroke:#231F20;" d="M362.665,227.619c-1.174,3.313-1.732,7.048-3.652,9.85
						c-3.804,5.555-11.004,4.875-13.18-1.42c-2.826-8.176-4.837-16.672-6.618-25.152c-0.718-3.416-1.339-7.668,3.178-9.741
						c4.222-1.938,10.47-0.864,13.158,3.228c2.385,3.632,3.928,7.96,5.127,12.184c0.972,3.423,0.88,7.148,1.26,10.739
						C362.18,227.41,362.422,227.515,362.665,227.619z"/>
					<path style="fill:none;stroke:#231F20;" d="M255.136,250.304c-0.408,6.298-0.918,10.608-5.016,13.427
						c-3.915,2.694-8.259,2.338-10.347-1.642c-5.042-9.612-7.623-20.013-7.663-30.861c-0.018-4.804,3.363-7.144,8.277-6.678
						c6.217,0.589,10.13,4.317,11.694,10.01C253.654,240.284,254.376,246.241,255.136,250.304z"/>
					<path style="fill:none;stroke:#231F20;" d="M418.22,350.241c1.117-2.905,1.748-6.515,3.685-9.173
						c3.862-5.297,10.94-4.54,12.978,1.602c2.881,8.681,5.258,17.624,6.761,26.637c1.242,7.448-3.893,10.904-11.256,8.601
						c-4.742-1.483-7.562-5.006-8.72-9.485C420.183,362.676,419.416,356.743,418.22,350.241z"/>
					<path style="fill:none;stroke:#231F20;" d="M289.215,479.858c-7.251-0.012-10.574-4.792-8.23-11.378
						c0.974-2.736,3.118-5.717,5.57-7.146c8.075-4.705,17.069-6.264,26.317-4.987c2.202,0.304,4.586,2.079,6.122,3.844
						c3.177,3.651,2.469,8.126-1.709,10.542C308.306,475.927,298.454,478.592,289.215,479.858z"/>
					<path style="fill:none;stroke:#231F20;" d="M311.343,374.732c1.078-2.784,1.751-6.783,3.924-9.641
						c3.935-5.174,10.161-4.117,12.82,1.822c3.791,8.466,6.149,17.363,6.661,26.646c0.438,7.936-4.901,11.415-12.338,8.235
						c-4.358-1.863-6.888-5.427-7.939-9.797C313.198,386.701,312.497,381.269,311.343,374.732z"/>
					<path style="fill:none;stroke:#231F20;" d="M323.579,279.023c-0.654,4.5-0.975,8.712-4.52,11.86
						c-4.419,3.925-9.541,3.141-12.012-2.19c-4.128-8.907-6.654-18.31-6.949-28.161c-0.191-6.388,3.598-9.159,9.931-7.852
						c4.728,0.976,8.086,3.83,9.413,8.223C321.23,266.821,322.237,272.973,323.579,279.023z"/>
					<path style="fill:none;stroke:#231F20;" d="M216.077,304.267c-0.147,5.207-1.155,9.975-6.496,12.491
						c-3.214,1.514-6.705,1.024-8.279-1.925c-5.428-10.167-8.31-21.036-7.925-32.657c0.113-3.428,2.397-4.72,5.285-5.261
						c5.285-0.989,10.949,1.324,12.948,6.664c2.456,6.564,3.648,13.6,5.386,20.432C216.689,304.096,216.383,304.182,216.077,304.267
						z"/>
					<path style="fill:none;stroke:#231F20;" d="M352.09,359.746c3.469-0.237,6.938-0.488,10.408-0.708
						c5.389-0.341,9.073,4.974,6.787,10.025c-0.684,1.511-1.892,2.967-3.221,3.971c-6.28,4.746-13.446,6.838-21.307,6.62
						c-4.94-0.137-9.029-2.257-11.5-6.349c-3.171-5.249,0.435-11.571,7.309-12.974c3.745-0.764,7.65-0.748,11.482-1.084
						C352.062,359.414,352.076,359.58,352.09,359.746z"/>
					<path style="fill:none;stroke:#231F20;" d="M313.08,429.106c-3.128-1.071-6.451-1.778-9.331-3.313
						c-3.141-1.674-4.784-4.746-4.476-8.448c0.313-3.755,2.634-6.286,5.997-7.422c2.784-0.94,5.818-1.33,8.772-1.536
						c5.093-0.356,10.215-0.278,15.313-0.572c5.378-0.31,9.068,4.392,7.076,9.575c-0.67,1.744-2.083,3.431-3.585,4.586
						C327.122,426.378,320.471,428.265,313.08,429.106z"/>
					<path style="fill:none;stroke:#231F20;" d="M362.27,246.603c0-2.742-0.207-5.504,0.071-8.217
						c0.194-1.893,0.487-4.589,1.73-5.397c2.814-1.831,6.258-2.584,9.536-0.495c8.196,5.223,11.101,25.961,4.589,33.215
						c-2.376,2.647-5.37,4.096-9.043,3.171c-3.831-0.965-6.163-3.813-6.553-7.396c-0.534-4.907-0.134-9.916-0.134-14.881
						C362.401,246.603,362.336,246.603,362.27,246.603z"/>
					<path style="fill:none;stroke:#231F20;" d="M369.394,290.028c0,5.096,0.003,10.191-0.001,15.287
						c-0.002,2.605,0.309,5.181-3.244,6.138c-3.765,1.015-7.602,1.507-9.765-2.13c-2.504-4.21-4.808-8.825-5.805-13.557
						c-0.888-4.212-0.458-8.95,0.451-13.231c1.129-5.32,5.779-8.485,10.241-8.15c4.133,0.311,7.352,3.81,8.299,9.309
						c0.357,2.072,0.293,4.216,0.421,6.327C369.791,290.023,369.593,290.025,369.394,290.028z"/>
					<path style="fill:none;stroke:#231F20;" d="M231.134,424.395c0.002,2.614-0.021,5.228,0.007,7.842
						c0.06,5.706-5.292,9.115-10.517,6.596c-1.084-0.523-2.171-1.357-2.86-2.329c-5.707-8.052-7.632-16.908-5.326-26.582
						c0.143-0.6,0.425-1.172,0.686-1.737c1.921-4.153,6.27-6.932,10.045-6.43c3.953,0.526,7.464,4.061,7.878,8.83
						C231.442,415.157,231.132,419.79,231.134,424.395z"/>
					<path style="fill:none;stroke:#231F20;" d="M372.317,339.675c0-4.601-0.097-9.204,0.041-13.8
						c0.069-2.303-0.837-5.129,2.655-6.12c3.587-1.018,7.444-2.149,9.962,1.377c2.415,3.381,4.767,7.225,5.624,11.194
						c1.049,4.863,1.195,10.166,0.49,15.101c-0.85,5.957-5.714,9.483-10.621,9.077c-4.572-0.378-8.002-4.763-8.374-10.844
						c-0.122-1.988-0.019-3.99-0.019-5.986C372.155,339.675,372.236,339.675,372.317,339.675z"/>
					<path style="fill:none;stroke:#231F20;" d="M265.516,366.447c0-5.601-0.088-11.204,0.048-16.802
						c0.047-1.915-0.957-4.332,1.991-5.372c3.253-1.147,6.43-2.219,9.575,0.132c0.69,0.516,1.348,1.149,1.827,1.859
						c5.333,7.903,7.668,16.471,5.158,25.889c-1.595,5.985-5.58,8.861-11.046,8.467c-3.783-0.273-6.821-3.866-7.77-9.334
						c-0.275-1.586-0.304-3.215-0.445-4.825C265.075,366.456,265.295,366.451,265.516,366.447z"/>
					<path style="fill:none;stroke:#231F20;" d="M361.01,402.94c-3.717,0.268-7.432,0.711-11.15,0.732
						c-2.014,0.011-4.621,1.347-5.891-1.624c-1.394-3.26-2.756-6.548-0.254-9.874c0.738-0.981,1.622-1.927,2.622-2.626
						c7.011-4.902,14.783-7.155,23.311-5.985c2.136,0.293,4.363,1.235,6.16,2.452c6.009,4.068,5.689,12.236-0.943,15.072
						c-4.201,1.796-9.104,1.948-13.693,2.837C361.118,403.596,361.064,403.268,361.01,402.94z"/>
					<path style="fill:none;stroke:#231F20;" d="M262.581,318.011c0,3.602,0.098,7.207-0.033,10.804
						c-0.093,2.545,0.927,5.487-2.916,6.714c-4.415,1.409-7.821,1.152-10.242-1.866c-3.849-4.8-5.963-10.435-6.214-16.51
						c-0.156-3.771,0.218-7.749,1.314-11.341c1.551-5.086,6.204-7.775,10.561-7.054c3.875,0.641,7.205,4.634,7.581,9.544
						c0.246,3.219,0.047,6.472,0.047,9.709C262.646,318.011,262.614,318.011,262.581,318.011z"/>
					<path style="fill:none;stroke:#231F20;" d="M255.339,276.787c0-4.346-0.094-8.695,0.035-13.038
						c0.079-2.64-1.214-5.792,2.799-7.132c4.796-1.601,8.26-1.12,10.751,2.318c3.434,4.737,5.583,10.098,5.705,15.938
						c0.082,3.906-0.29,7.979-1.37,11.713c-1.296,4.48-5.696,7.147-9.646,6.889c-3.7-0.241-7.135-3.454-8.11-8.154
						c-0.574-2.768-0.494-5.672-0.709-8.515C254.976,276.8,255.157,276.793,255.339,276.787z"/>
				</g>
				<g id="pomegranate_7_">
					<g>
						<path style="fill:none;stroke:#231F20;" d="M625.761,597.14c-2.576,2.328-4.612,5.342-7.401,7.33
							c-9.108,6.494-18.811,2.161-20.434-8.874c-0.286-1.947-0.241-3.007,2.449-3.151c8.788-0.47,16.285-3.705,20.881-11.73
							c2.789-4.87,3.677-10.061,1.379-15.403c-2.879-6.693-10.21-8.961-18.573-5.861c-12.826,4.755-22.426,20.544-20.831,36.052
							c0.561,5.455-1.679,8.255-5.409,10.588c-1.898,1.187-4.491,1.263-6.77,1.841c-0.282-2.238-1.136-4.58-0.75-6.695
							c2.035-11.134,4.411-22.206,6.596-33.313c0.355-1.805,1.126-2.378,3.006-2.377c5,0.003,6.372-1.461,7.183-7.1
							c-1.758,0-3.519-0.156-5.241,0.036c-2.786,0.31-3.085-0.922-2.542-3.252c0.932-3.997,1.588-8.057,2.501-12.059
							c0.39-1.707,0.204-2.342-1.734-1.92c-3.767,0.82-7.567,1.494-11.358,2.203c-1.893,0.354-2.933,1.154-3.189,3.359
							c-0.386,3.319-1.291,6.585-2.101,9.842c-0.164,0.66-0.969,1.74-1.333,1.683c-5.819-0.9-5.474,3.709-6.926,7.139
							c0.931,0.045,1.428,0.082,1.924,0.091c4.594,0.084,4.547,0.073,3.607,4.589c-1.394,6.7-2.92,13.383-4.011,20.135
							c-1.226,7.586-5.124,13.166-11.786,16.716c-1.536,0.819-4.028,1.196-5.411,0.481c-0.938-0.485-1.232-3.333-0.917-4.949
							c2.711-13.919,5.531-27.819,8.566-41.671c0.548-2.502-0.146-2.654-2.183-2.636c-8.624,0.073-17.253-0.142-25.871,0.088
							c-7.826,0.209-14.609,3.183-19.721,9.242c-7.684,9.108-10.878,19.925-10.14,31.587c0.302,4.781-1.652,6.862-5.178,8.597
							c-3.963,1.95-5.932,0.594-5.648-3.858c0.095-1.486,0.377-2.965,0.64-4.435c1.494-8.332,3.259-16.625,4.458-24.999
							c1.81-12.635-7.445-19.677-19.12-14.697c-2.264,0.966-4.274,2.518-6.427,3.754c-0.926,0.532-1.917,0.948-2.879,1.416
							c0.111-1.012,0.029-2.095,0.371-3.022c0.981-2.66,0.553-3.86-2.648-3.562c-2.974,0.278-6.012,0.264-8.988-0.002
							c-2.605-0.233-3.359,0.865-3.805,3.207c-2.047,10.753-4.262,21.475-6.425,32.206c-1.441,7.149-6.139,11.483-12.568,14.131
							c-2.907,1.198-4.575-0.056-4.638-3.14c-0.023-1.106,0.151-2.235,0.38-3.324c2.819-13.388,5.663-26.771,8.506-40.154
							c0.411-1.934,0.45-3.143-2.332-3.076c-8.619,0.207-17.251-0.096-25.869,0.135c-6.806,0.183-12.932,2.53-17.814,7.448
							c-9.305,9.373-12.648,21.174-12.057,33.845c0.55,11.794,10.69,18.218,21.813,14.144c4.827-1.768,9.001-5.322,13.36-7.997
							c3.019,7.134,6.007,9.518,12.083,9.082c6.215-0.445,11.222-3.585,16.459-7.987c-0.43,1.822-0.609,2.784-0.885,3.717
							c-0.839,2.837-0.081,4.092,3.127,3.77c2.722-0.273,5.536-0.357,8.233,0.022c3.501,0.491,4.413-1.308,4.926-4.187
							c1.725-9.684,3.662-19.33,5.328-29.024c0.967-5.631,3.94-9.915,8.273-13.325c2.303-1.812,5.24-4.518,7.867-2.302
							c1.392,1.174,1.022,5.066,0.634,7.606c-1.278,8.361-3.165,16.631-4.371,25c-1.277,8.86,3.086,15.68,10.512,16.727
							c5.373,0.757,10.042-1.453,14.107-4.779c1.891-1.547,2.927-2.171,4.958,0.165c3.494,4.019,8.321,5.173,13.612,4.505
							c6.998-0.883,12.188-4.686,16.789-10.394c2.46,9.176,8.129,12.684,16.612,9.501c5.214-1.956,9.838-5.487,14.617-8.247
							c3.552,8.985,8.622,11.77,17.651,8.096c4.502-1.832,8.479-4.955,12.818-7.568c4.797,8.575,12.964,9.736,22.24,8.384
							c11.666-1.699,17.957-9.653,22.757-19.641C628.814,595.253,627.07,595.957,625.761,597.14z M598.523,584.152
							c1.573-5.967,3.631-11.635,7.962-16.199c0.929-0.979,2.007-1.881,3.167-2.566c4.014-2.37,6.098-1.15,6.108,3.477
							c0.02,9.109-6.808,17.373-14.749,17.961C598.899,586.981,597.806,586.87,598.523,584.152z M407.458,571.978
							c-1.787,7.492-3.055,15.108-4.562,22.668c-0.804,4.032-8.943,11.824-12.973,12.55c-2.423,0.437-4.351-0.337-5.107-2.634
							c-0.917-2.785-1.387-5.716-2.051-8.584c0.823-8.99,2.746-17.43,8.012-24.725c1.773-2.456,4.205-4.539,6.651-6.374
							c2.255-1.691,4.952-1.619,7.321,0.101C407.111,566.696,408.242,568.69,407.458,571.978z M529.3,571.509
							c-1.407,6.946-2.835,13.889-4.102,20.86c-1.288,7.087-6.302,11.113-11.962,14.38c-3.138,1.812-5.801,0.44-6.99-3.141
							c-0.813-2.448-1.093-5.073-1.374-6.458c0.799-11.079,2.845-20.543,9.562-28.181c1.94-2.206,4.783-4.119,7.575-4.961
							C526.368,562.695,530.206,567.034,529.3,571.509z"/>
					</g>
					<path style="fill:none;stroke:#231F20;" d="M266.011,639.336c3.079-3.253,6.001-6.436,9.07-9.469
						c0.44-0.435,1.695-0.405,2.398-0.136c1.375,0.527,2.576,1.495,3.938,2.069c5.041,2.124,7.19,0.914,8.258-4.427
						c1.288-6.435,2.647-12.855,3.651-19.614c-5.672,4.203-11.437,7.544-18.714,6.859c-7.727-0.727-12.019-5.342-14.427-12.773
						c-5.317,6.91-11.415,11.776-20.124,12.823c-8.527,1.025-15.954-0.168-21.21-7.954c-4.639,4.026-9.452,7.528-15.781,7.825
						c-8.758,0.411-14.053-5.108-12.727-13.818c1.441-9.468,3.523-18.836,5.06-28.291c0.387-2.38-0.24-4.926-0.402-7.395
						c-2.179,1.224-4.682,2.096-6.474,3.741c-5.038,4.623-6.62,10.898-7.664,17.412c-1.379,8.604-3.091,17.156-4.438,25.765
						c-0.321,2.049-1.207,2.422-2.93,2.388c-3.248-0.064-6.509-0.194-9.744,0.016c-2.537,0.165-2.614-1.107-2.283-2.94
						c2.345-12.983,4.777-25.951,6.942-38.964c0.376-2.26-0.382-4.708-0.616-7.07c-2.282,0.906-4.957,1.334-6.762,2.82
						c-3.385,2.785-5.742,6.352-6.589,10.96c-2.001,10.885-4.416,21.694-6.518,32.562c-0.392,2.025-1.146,2.71-3.183,2.612
						c-3.242-0.156-6.506-0.174-9.743,0.027c-2.602,0.161-3.237-0.714-2.706-3.203c2.229-10.462,4.34-20.949,6.477-31.43
						c0.121-0.595,0.091-1.221,0.153-2.159c-3.384,2.042-6.571,3.849-9.603,5.888c-0.634,0.427-0.815,1.68-1.004,2.594
						c-2.54,12.285-8.325,22.194-20.513,27.047c-15.855,6.312-29.981-3.638-29.628-20.681c0.303-14.602,11.126-28.937,25.037-33.061
						c12.125-3.594,24.85,0.422,26.189,16.833c0.611-0.2,1.178-0.44,1.768-0.571c6.613-1.475,10.842-4.941,10.804-12.33
						c-0.019-3.647,1.554-5.66,5.723-4.964c2.431,0.406,5.001,0.236,7.483,0.023c3.074-0.264,3.841,0.81,2.701,3.611
						c-0.314,0.771-0.232,1.702-0.4,3.152c4.577-3.673,8.85-6.903,14.647-6.926c6.814-0.026,9.695,4.115,10.912,10.267
						c2.381-2.142,4.366-4.191,6.622-5.877c1.875-1.401,3.958-2.672,6.14-3.487c7.975-2.979,14.407,1.168,14.19,9.656
						c-0.168,6.553-1.425,13.092-2.414,19.604c-0.672,4.423-1.759,8.781-2.588,13.181c-0.781,4.147,0.905,5.815,4.94,4.586
						c1.966-0.599,4.167-1.581,5.392-3.093c0.967-1.193,0.864-3.474,0.791-5.254c-0.59-14.276,3.094-26.806,15.277-35.382
						c3.107-2.187,7.219-3.485,11.034-4.026c10.158-1.442,16.063,7.024,13.809,16.894c-2.258,9.891-10.211,16.114-22.319,17.111
						c-3.304,0.272-3.447,1.211-2.911,3.963c2.008,10.31,10.855,14.367,19.614,8.561c5.388-3.571,9.329-7.948,10.14-15.211
						c0.642-5.755,2.967-11.594,5.703-16.785c4.979-9.448,13.056-14.936,24.065-15.148c8.995-0.173,17.995-0.09,26.993-0.17
						c1.564-0.014,2.314,0.299,1.919,2.113c-4.228,19.442-8.394,38.897-12.627,58.338c-0.342,1.569-0.985,3.084-1.601,4.578
						C298.135,639.766,284.082,645.868,266.011,639.336z M114.066,574.784c0.131,0.177,0.262,0.355,0.393,0.532
						c-0.031-0.284-0.062-0.568-0.094-0.852c-0.91-2.012-1.524-4.237-2.789-5.994c-3.174-4.411-7.498-4.551-10.794-0.21
						c-1.764,2.324-3.035,5.136-4.031,7.907c-2.779,7.728-4.086,15.688-2.079,23.826c0.864,3.505,2.687,6.597,6.663,7.276
						c3.731,0.637,6.371-1.583,7.854-4.544c2.034-4.064,3.373-8.472,5.084-12.703c1.148-2.84,0.725-4.519-2.643-5.336
						c-2.097-0.509-3.986-1.959-5.889-3.117c-0.451-0.274-0.973-1.335-0.803-1.587c1.534-2.266,3.012-4.653,4.989-6.482
						C110.457,573.009,112.641,574.307,114.066,574.784z M276.05,594.096c0.598,3.265,0.908,6.618,1.882,9.767
						c0.84,2.716,3.38,4.092,5.975,2.875c5.857-2.748,10.885-6.747,12.538-13.333c1.871-7.454,2.932-15.11,4.745-22.582
						c0.702-2.893,0.324-5.269-2.096-6.403c-2.123-0.995-5.099-1.661-7.154-0.933c-2.506,0.887-4.831,3.073-6.555,5.238
						C279.534,576.071,277.128,584.74,276.05,594.096z M248.933,569.195c-0.589-1.546-0.91-4.172-1.826-4.399
						c-1.625-0.403-3.627,0.593-5.435,1.129c-0.553,0.164-1.02,0.701-1.467,1.13c-5.146,4.942-7.458,11.324-8.949,18.062
						c-0.086,0.388,1.387,1.625,2.121,1.613C241.489,586.604,248.308,578.666,248.933,569.195z"/>
					<path style="fill:none;stroke:#231F20;" d="M68.686,531.23c-10.181-2.02-19.847-0.265-29.048,4.204
						c-14.859,7.216-22.41,19.674-21.515,34.953c0.116,1.984,0.445,2.802,2.564,1.757c3.68-1.815,7.481-3.39,11.12-5.281
						c0.66-0.343,1.327-1.915,1.079-2.578c-4.515-12.077,1.367-20.714,13.773-25.102c-0.098,1.063-0.097,2.028-0.286,2.954
						c-4.734,23.145-9.443,46.295-14.308,69.412c-0.493,2.342-0.05,2.877,2.179,2.789c3.244-0.128,6.521-0.291,9.737,0.031
						c2.856,0.286,3.625-1.068,4.084-3.439c1.654-8.544,3.505-17.05,5.076-25.609c0.376-2.045,1.075-2.725,3.149-3.251
						c12.708-3.218,22.916-9.85,27.921-22.537C89.438,546.29,82.54,533.979,68.686,531.23z M59.036,573.615
						c-0.942,0.667-2.144,0.968-3.89,1.728c1.562-8.098,2.971-15.486,4.417-22.868c0.904-4.619,1.94-9.215,2.758-13.849
						c0.312-1.765,0.719-2.256,2.626-1.622c4.743,1.577,8.014,5.253,7.807,10.593C72.337,558.353,67.995,567.273,59.036,573.615z"/>
					<path style="fill:none;stroke:#231F20;" d="M343.793,568.193c8.074-11.398,17.918-12.76,29.635-5.767
						c-3.315,2.781-6.391,5.475-9.627,7.96c-0.503,0.386-1.861,0.059-2.608-0.341c-3.112-1.668-6.292-1.85-9.265-0.079
						c-6.032,3.593-10.918,8.261-12.384,15.514c-1.725,8.53-3.383,17.074-4.942,25.636c-0.421,2.312-1.219,3.416-3.824,3.227
						c-3.477-0.253-6.989-0.104-10.483-0.01c-1.91,0.051-2.274-0.574-1.888-2.446c3.509-17.043,6.932-34.105,10.333-51.17
						c0.353-1.773,1.122-2.475,3.009-2.387c3.364,0.156,6.753,0.211,10.109-0.024c2.733-0.191,2.813,1.153,2.413,3.142
						c-0.398,1.982-0.75,3.973-1.122,5.96C343.364,567.669,343.578,567.931,343.793,568.193z M343.535,568.249
						c-0.091-0.099-0.166-0.181-0.242-0.263c-0.08,0.16-0.188,0.315-0.226,0.484c-0.014,0.062,0.137,0.161,0.213,0.243
						C343.366,568.556,343.452,568.399,343.535,568.249z"/>
				</g>
			</g>
		</g>
	</g>
</g>
<g id="Layer_6">
</g>
<g id="Layer_4">
</g>
</svg>
