<svg xmlns="http://www.w3.org/2000/svg" viewBox="0 0 1208.75 825.531">
  <g id="Layer_2">
    <path fill="none" d="M280 82.39h648.75v660.75H280z"/>
    <path fill="#F80E4A" d="M529.5 125.475l2.9 1c9.455 4.516 17.54 10.827 24.354 18.8.59.69 1.428 1.168 2.15 1.745l.74-3.058c1.296-3.877 2.76-7.708 3.857-11.642 2.41-8.62 4.58-17.3 6.95-25.93.41-1.494 1.28-2.862 1.94-4.29 1.15.992 2.28 1.995 3.45 2.966.37.306.81.524 1.22.782 16.08 12.385 25.29 29.413 32.73 47.955l1.36-9.385c2.94-13.272 8.37-25.335 17.6-35.46 3.58-3.924 7.67-7.433 13.26-7.707 2.39-.11 4.85 1.08 7.27 1.68-.47 1.93-.87 3.88-1.41 5.78-2.45 8.75-2.41 17.53.03 26.21.63 2.23 2.4 4.26 4.03 6.04 1.18 1.29 2.52.88 2.84-1.12 6.54-4.71 13.03-9.5 19.65-14.09 1.69-1.17 3.82-1.69 5.73-2.51.85.2 1.72.39 2.596.58l1.18 2.34c.123 2.07.26 4.14.373 6.2.58 10.83-3.856 20.18-8.86 29.29-4.557 8.3-9.787 16.24-13.96 24.71-12.898 26.14 1.672 46.04 21.97 55.79.273 0 .464.12.564.38-.01 0 .22.09.22.09.338.23.67.45.99.67l5.93 3.03c11.48 4.68 22.97 9.33 34.43 14.06 1.223.51 2.256 1.48 3.353 2.22l3.82 1.98.96.56c.22.03.416.11.58.25.29-.02.472.11.553.388.69.69 1.31 1.47 2.086 2.056 13.46 10.146 23.95 22.885 32.585 37.247 14.74 24.51 25.51 50.843 35.237 77.61 8.512 23.44 12.45 47.524 8.8 72.526-2.84 19.45-8.87 37.886-17.2 55.61-13.55 28.82-33.05 52.478-60.37 69.33-21.473 13.25-44.91 21.608-69.08 28.35-18.854 5.26-37.355 5.576-55.94-1.16-16.05-5.813-32.744-7.61-49.78-7.15-11.98.32-23.99.34-35.97.01-11.32-.315-22.25-2.85-32.68-7.397-14.41-6.28-27.03-15.47-39.82-24.39-1.176-.82-2.594-1.297-3.9-1.933l.08.06-1.53-.85.037.036-1.57-1.52.064.05-2.29-1.58.05.05-.81-.81.055.056c-.27-.266-.54-.534-.807-.803l.06.06-.82-.804.087.06-1.52-.835c-24.69-19.4-38.84-44.81-44.31-75.64-7.18-40.44-6.48-80.52 3.75-120.33 7.533-29.31 19.093-56.8 38.62-80.3 19.523-23.508 43.69-39.508 74.33-44.877 9.81-1.72 19.523-4.18 28.17-9.58 14.59-9.103 19.84-22.614 15.3-39.26-2.8-10.25-8.28-19.17-13.51-28.26-3.59-6.235-6.56-12.83-9.8-19.26-2.3-5.29-4.35-10.635-2.925-16.594zm47.106 86.833c-.06.706-.128 1.41-.182 2.117-1.155 15.278-12.147 28.23-27.074 31.626-4.492 1.03-9.088 1.62-13.654 2.28-37.762 5.51-65.963 25.11-84.9 58.03-8.644 15.03-13.203 31.75-18.86 48-9.273 26.65-15.446 53.87-12.898 82.26 1.772 19.75 4.535 39.42 7.234 59.07 1.533 11.16 6.515 20.88 14.21 29.19 11.03 11.92 22.037 23.86 32.965 35.88 11 12.1 24.478 19.8 40.622 22.14 23.08 3.35 46.17 6.81 69.38 9.05 24.83 2.4 49.43.09 73.1-8.5 25.62-9.29 46.7-24.46 59.75-48.95 14.71-27.62 22.69-57.34 24.12-88.52.94-20.56.42-41.21-.07-61.81-.45-18.47-1.46-36.95-5.74-55.05-7.14-30.16-23.45-53.21-52.21-66.28-7.15-3.25-14.74-5.5-22.01-8.48-4.38-1.79-8.79-3.72-12.73-6.29-11.07-7.22-18.13-16.95-17.45-30.8-16.91 4.45-31.35 12.78-43.71 26.14-.99-11.75-3.74-21.85-9.91-31.055z"/>
    <path id="shadow" fill="#0C0D11" d="M448.766 566.428c1.306.636 2.723 1.112 3.9 1.933 12.788 8.93 25.406 18.12 39.818 24.4 10.43 4.55 21.36 7.08 32.68 7.4 11.984.33 23.99.31 35.975-.01 17.03-.45 33.73 1.34 49.78 7.16 18.58 6.74 37.08 6.42 55.94 1.16 24.17-6.74 47.6-15.09 69.08-28.34 27.32-16.85 46.82-40.51 60.37-69.33 8.33-17.72 14.36-36.15 17.2-55.61 3.64-25-.29-49.08-8.81-72.52-9.73-26.76-20.5-53.1-35.24-77.61-8.64-14.36-19.13-27.1-32.59-37.24-.77-.58-1.4-1.36-2.09-2.05 11.55 6.6 21.17 15.41 29 26.06 26.1 35.5 42.14 75.69 53.41 117.84 7.22 27.01 4.05 53.9-4.51 80.25-9.82 30.23-24.55 57.5-48.27 79.23-19.17 17.55-41.82 29.13-66.13 37.65-14.32 5.02-28.79 9.52-43.92 11.6-12.31 1.69-24.18-.19-35.65-4.27-19.86-7.08-40.27-8.48-61.11-7.53-16.71.77-33.44.86-49.73-4.12-10.58-3.234-20.25-8.334-29.39-14.394-9.35-6.2-18.41-12.836-27.56-19.32-.85-.6-1.47-1.51-2.19-2.276zm234.63-324.3c-20.296-9.756-34.867-29.654-21.974-55.792 4.178-8.47 9.408-16.416 13.96-24.71 5.006-9.115 9.446-18.46 8.865-29.29-.11-2.067-.25-4.133-.375-6.2.808-.314 1.66-.547 2.41-.96 1.755-.964 2.35-.534 2.93 1.464 2.717 9.338 1.545 18.393-2.443 26.932-3.73 7.98-8.22 15.617-12.57 23.295-4.55 8.028-9.1 16.053-10.78 25.257-2.4 13.18 2.3 24 11.67 33.047 2.59 2.5 5.52 4.65 8.29 6.96zm-72.272-97.708l-1.356 9.385c-7.44-18.542-16.648-35.57-32.727-47.955.55-1.495 1.27-2.556 2.94-1.163 2.65 2.206 5.69 4.094 7.84 6.706 5.86 7.09 11.49 14.378 16.9 21.817 2.52 3.46 4.3 7.456 6.41 11.21zm43.6-4.59c-.317 1.996-1.658 2.407-2.836 1.12-1.624-1.778-3.397-3.81-4.026-6.037-2.448-8.675-2.487-17.46-.03-26.202.535-1.9.938-3.85 1.404-5.78 6.722 1.23 6.848 1.27 4.93 7.74-2.91 9.81-2.555 19.5.557 29.17zm-95.08 4.133l-.74 3.058c-.722-.57-1.56-1.05-2.15-1.74-6.813-7.97-14.9-14.28-24.353-18.8 10.73 3.29 19.57 9.48 27.25 17.49z"/>
    <path fill="#0C0D11" d="M691.106 246.284c-1.982-1.01-3.965-2.02-5.932-3.026 1.987 1.012 3.96 2.02 5.932 3.026zm-8.413-122.482c-.872-.19-1.745-.38-2.594-.578.88.187 1.73.383 2.59.578zm50.017 140.734c-1.28-.663-2.562-1.325-3.82-1.978 1.29.665 2.554 1.32 3.82 1.978zM445.793 564.15l1.563 1.52-1.563-1.52zm-2.227-1.524l2.29 1.574-2.29-1.574zm-3.7-3.033c.507.28 1.013.56 1.52.838-.506-.27-1.012-.55-1.52-.83zm294.384-294.25c-.163-.14-.358-.225-.58-.25.247-.01.438.075.58.25zM447.318 565.637l1.526.85-1.526-.85zm-6.015-5.262l.82.804-.82-.81zm.757.748c.27.268.537.536.806.805-.268-.27-.537-.537-.806-.805zM684.19 242.59l-.227-.087c.004 0 .227.087.227.087zM442.81 561.868l.81.806-.81-.806z"/>
    <path fill="#FDFDFD" d="M576.606 212.308c6.173 9.207 8.923 19.308 9.91 31.055 12.355-13.36 26.802-21.69 43.705-26.135-.67 13.85 6.38 23.586 17.45 30.806 3.94 2.57 8.36 4.5 12.73 6.296 7.27 2.987 14.86 5.24 22.01 8.485 28.77 13.07 45.07 36.118 52.21 66.285 4.29 18.097 5.3 36.58 5.74 55.05.5 20.596 1.01 41.248.07 61.81-1.42 31.174-9.4 60.9-24.12 88.518-13.05 24.494-34.13 39.655-59.75 48.952-23.66 8.588-48.26 10.893-73.1 8.5-23.2-2.238-46.3-5.697-69.38-9.05-16.14-2.345-29.62-10.045-40.62-22.138-10.92-12.014-21.93-23.957-32.96-35.875-7.69-8.312-12.67-18.03-14.21-29.19-2.7-19.65-5.46-39.32-7.23-59.067-2.55-28.39 3.63-55.604 12.9-82.255 5.66-16.254 10.22-32.977 18.86-48 18.94-32.92 47.14-52.52 84.9-58.026 4.57-.67 9.17-1.26 13.66-2.28 14.93-3.4 25.92-16.35 27.08-31.63.06-.71.12-1.42.19-2.12zm111.27 215.605c2.285-.893 5.03-1.262 6.764-2.783 3.984-3.496 7.86-7.256 11.09-11.44 7.65-9.903 5.71-17.064-5.63-22.493-1.007-.483-2.063-1.216-3.096-1.216-1.534.01-3.54.05-4.526.96-6.784 6.26-11.788 13.79-14.962 22.48-2.94 8.05 1.54 14.19 10.36 14.5zM551.66 390.037c.316 9.333 2 17.57 5.7 25.343 3.236 6.802 9.6 8.595 15.195 3.598 2.495-2.23 4.85-5.865 5.132-9.05.526-5.98.04-12.19-1.013-18.128-1.487-8.374-7.117-11.554-15.428-9.61-1.574.37-3.1.936-4.656 1.38-3.668 1.042-6.082 2.914-4.932 6.467zm39.62 135.827c1.69 3.215 2.92 6.816 5.197 9.54 2.42 2.9 5.756 5.077 8.83 7.388 13.315 10.013 20.383 4.204 24.832-8.54.04-.117.14-.248.12-.348-.39-1.517-.31-3.505-1.27-4.468-6.61-6.67-14.63-11.105-23.57-13.878-7.54-2.337-13.1 1.814-14.15 10.306zm79.92-182.937c1.57 2.676 2.653 5.875 4.832 7.89 2.575 2.383 5.99 3.987 9.263 5.414 1.175.52 3.455.04 4.457-.85 6.815-6.07 11.66-13.57 14.938-22.06 3.432-8.89-2.228-15.81-11.726-14.41-7.648 1.13-20.58 15.69-21.764 24.03zm-90.72 109.33c2.612-1.028 5.493-1.646 7.783-3.16 6.39-4.22 10.8-10.322 14.185-17.05 2.182-4.336 1.267-8.76-2.46-11.875-2.815-2.352-6.3-3.896-9.45-5.854-2.057-1.277-3.607-.697-5.228.907-6.56 6.496-11.675 13.928-14.817 22.634-2.81 7.79 1.392 13.67 9.987 14.39zm44.773-73.44c.117-4.947-1.822-7.935-5.534-9.45-4.78-1.952-9.53-1.546-13.39 1.72-3.67 3.1-6.97 6.746-9.95 10.53-8.05 10.217-6.4 17.024 5.2 22.836 1 .5 2.07.844 3.06 1.373 1.98 1.068 3.37.405 4.91-1.076 6.65-6.436 11.59-13.966 14.82-22.616.51-1.378.75-2.858.87-3.316zm-96.22 167.89c2.41-.886 5.11-1.346 7.18-2.74 6.646-4.474 11.538-10.617 14.808-17.888 2-4.45.75-8.97-3.24-12.04-2.72-2.1-5.95-3.55-8.96-5.28-1.87-1.08-3.36-.69-4.93.85-6.58 6.47-11.67 13.93-14.9 22.58-2.98 7.98 1.26 13.9 10.06 14.5zm157.06-239.213c-1.518-3.876-2.866-7.832-4.663-11.574-.49-1.022-2.33-1.978-3.548-1.976-9.453.02-18.228 2.58-26.166 7.768-3.117 2.038-3.172 3.77-.86 6.76 4.243 5.49 8.254 11.167 12.586 16.587.895 1.12 2.782 2.08 4.192 2.05 9.62-.19 17.552-9.03 18.458-19.62zm-73.497 23.964c-.792.712-2.11 1.573-3.007 2.754-8.9 11.736-1.38 29.475 13.29 31.203 1.32.155 3.16-.653 4.13-1.635 6.28-6.354 10.31-14.02 12.39-22.7 1.09-4.543.01-5.798-4.65-6.24-5.19-.493-10.37-1.18-15.54-1.895-1.97-.273-3.9-.862-6.63-1.487zm83.742 118.225c-.31-9.282-7.052-17.314-16.683-19.194-1.493-.3-3.785.34-4.825 1.41-6.315 6.48-10.484 14.23-12.5 23.08-.932 4.09.226 5.38 4.39 5.79 5.558.56 11.13 1.18 16.618 2.21 7.31 1.36 9.22.48 11.603-6.76.7-2.11.95-4.37 1.4-6.56zm-80.03-33.532c.673 4.3 1.11 8.65 2.07 12.89 1.528 6.75 5.514 9.8 12.427 9.05 3.63-.39 7.17-1.89 10.658-3.14.758-.27 1.554-1.63 1.59-2.52.435-10.27-1.46-20.11-6.27-29.24-2.548-4.83-7.12-6.14-12.11-3.73-7.067 3.4-8.238 9.73-8.364 16.73zm69.34-36.28c-.833-4.77-1.39-9.6-2.57-14.28-1.49-5.9-6.11-8.92-12.106-8-3.28.5-6.44 1.78-9.665 2.67-2.008.56-2.553 1.84-2.597 3.88-.2 9.25 1.525 18.08 5.335 26.5 3.63 8.03 11.384 9.18 17.336 2.59 3.44-3.8 3.98-8.43 4.27-13.34zm-156.63-92.22c.145 8.71 2.018 17.03 5.88 24.86 2.698 5.47 7.252 7.03 12.73 4.41 5.3-2.53 7.772-7.12 7.723-12.67-.05-5.69-.6-11.45-1.66-17.04-1.23-6.44-5.66-9.42-12.21-8.89-2.32.19-4.66.78-6.88 1.53-5.61 1.9-5.59 1.98-5.56 7.82zm108.484 234.42c5.226-1.11 10.55-1.88 15.652-3.41 6.324-1.89 9.086-6.53 7.816-12.98-.663-3.37-2.193-6.6-3.626-9.76-.39-.85-1.847-1.73-2.823-1.74-10.35-.1-20 2.62-28.88 7.87-4.17 2.46-5.26 6.47-3.51 11.03 2.17 5.68 7.33 8.53 15.39 9zm-68.43 14.6c9.06-.23 17.035-6.73 19.383-15.67.94-3.57.453-5.97-2.795-8.27-6.63-4.69-13.672-8.18-21.682-9.67-5-.92-6.13.17-6.31 5.36-.19 5.46-.435 10.95-1.204 16.35-.97 6.8-.436 8.19 6.1 10.37 2.105.7 4.334 1.04 6.507 1.54zm-70.23-167.83c.02 11.04 7.56 19.73 17.433 21.03 1.18.16 2.98-.18 3.646-.99 5.82-7.07 10.66-14.71 12.72-23.8.89-3.94-.42-5.42-4.46-5.84-5.54-.58-11.1-1.2-16.58-2.22-7.28-1.36-9.31-.4-11.65 6.75-.65 1.99-.89 4.12-1.1 5.09zm-14.327 48.42c.255.91.413 2.46 1.1 3.73 2.962 5.47 8.287 7.7 13.776 9.57.63.22 1.75-.23 2.3-.74 7.79-7.15 13.5-15.67 16.48-25.87 1.05-3.59-.1-6.75-3.13-8.94-3.31-2.38-7.05-3.01-11.04-1.93-6.84 1.86-18.41 15.12-19.28 22.12-.06.5-.09 1-.18 2.08zm23.267 29.17c-1.666-2.63-2.886-5.75-5.115-7.75-2.526-2.27-5.852-3.77-9.044-5.09-1.207-.5-3.49-.07-4.47.83-6.828 6.26-11.84 13.81-15.03 22.52-3.043 8.31 2.22 14.95 11.02 13.96 8.346-.94 21.58-15.49 22.638-24.46zm81.574 27.51c-.286-9.39-7.704-18.05-16.958-19.23-1.457-.182-3.542.46-4.547 1.497-6.21 6.375-10.27 14.035-12.38 22.68-1.08 4.47.11 5.82 4.71 6.297 5.31.545 10.65 1.01 15.87 2.02 7.58 1.46 9.85.37 12.12-7.06.61-2.006.81-4.137 1.2-6.21zm46.666-208.84c.164 7.46 2.023 15.32 5.58 22.73 3.236 6.738 9.88 8.27 15.345 3.208 2.232-2.07 4.08-5.16 4.827-8.11 1.86-7.33.38-14.684-1.727-21.77-1.495-5.025-5.445-7.46-10.61-7.134-2.46.154-4.965.624-7.312 1.38-6.39 2.06-6.486 2.335-6.104 9.7zm67.18 218.698l.904-.346c-1.537-4-2.934-8.06-4.712-11.945-.428-.93-2.107-1.812-3.226-1.832-9.755-.176-18.67 2.694-26.828 7.964-2.516 1.626-2.643 3.62-.826 5.99 4.374 5.72 8.558 11.59 13.047 17.216.88 1.11 2.84 2.04 4.22 1.94 10.01-.75 17.37-8.92 17.43-18.98zm-167.084-31.76c-.216-8.36-2.158-16.32-5.842-23.803-2.785-5.66-7.982-7.13-13.476-4.036-3.458 1.95-5.65 4.92-6.45 8.78-1.666 8.055-.484 15.917 2.23 23.53 1.2 3.37 3.924 5.66 7.626 5.756 3.06.08 6.247-.17 9.185-.98 6.8-1.875 6.94-2.31 6.73-9.24zm11.818 30.734c-1.567-4.125-2.966-8.325-4.815-12.32-.47-1.022-2.37-1.993-3.6-1.97-9.28.19-17.97 2.64-25.83 7.686-3.31 2.12-3.37 3.99-.95 7.035 4.08 5.15 8.23 10.274 11.82 15.76 1.78 2.724 3.69 3.29 6.47 2.793 8.96-1.604 15.75-9.5 16.93-18.99zm61.522-177.72c-.468-7.4-3.69-13.315-10.072-17.3-.958-.6-2.694-.74-3.73-.3-8.684 3.715-15.802 9.45-21.174 17.25-2.014 2.92-1.442 4.695 1.52 6.406 6.122 3.54 12.262 7.06 18.25 10.816 1.888 1.19 3.323 1.18 5.112.12 6.44-3.82 9.58-9.55 10.094-16.99zm-39.428 13.01c-8.822.67-16.45 2.68-23.457 6.827-5.29 3.124-5.303 4.46-1.463 9.123 3.756 4.56 7.207 9.427 10.3 14.46 1.557 2.535 3.11 3.436 5.954 3.05 13.946-1.882 21.198-16.894 14.31-29.633-1.427-2.645-3.024-4.615-5.644-3.827zm72.633-8.02c-.242-.102-.485-.21-.727-.31-.38-3.59-.29-7.317-1.26-10.74-1.2-4.224-2.742-8.55-5.127-12.184-2.69-4.094-8.94-5.168-13.16-3.23-4.52 2.07-3.9 6.323-3.18 9.74 1.78 8.48 3.79 16.975 6.62 25.15 2.17 6.3 9.37 6.976 13.18 1.42 1.92-2.8 2.48-6.535 3.65-9.85zm-107.53 22.69c-.76-4.062-1.48-10.02-3.054-15.743-1.57-5.695-5.48-9.42-11.7-10.01-4.92-.468-8.3 1.872-8.28 6.68.04 10.844 2.62 21.244 7.66 30.86 2.08 3.98 6.43 4.333 10.34 1.64 4.09-2.82 4.6-7.13 5.01-13.428zm163.085 99.938c1.196 6.5 1.962 12.436 3.448 18.18 1.158 4.48 3.978 8 8.72 9.48 7.363 2.3 12.498-1.15 11.256-8.6-1.503-9.02-3.88-17.96-6.76-26.64-2.04-6.14-9.117-6.9-12.98-1.6-1.936 2.65-2.567 6.26-3.684 9.17zm-129.003 129.6c9.24-1.263 19.092-3.93 28.07-9.12 4.177-2.416 4.884-6.89 1.708-10.54-1.535-1.765-3.92-3.54-6.122-3.845-9.24-1.275-18.24.284-26.31 4.99-2.45 1.43-4.59 4.41-5.57 7.145-2.34 6.59.98 11.37 8.23 11.38zm22.128-105.123c1.154 6.535 1.855 11.97 3.13 17.263 1.05 4.37 3.58 7.93 7.938 9.79 7.44 3.18 12.78-.3 12.34-8.24-.51-9.29-2.87-18.18-6.66-26.65-2.66-5.94-8.88-7-12.82-1.82-2.17 2.86-2.84 6.85-3.92 9.64zm12.236-95.71c-1.35-6.05-2.35-12.203-4.14-18.12-1.33-4.393-4.69-7.246-9.42-8.22-6.34-1.31-10.13 1.46-9.93 7.85.29 9.85 2.82 19.254 6.94 28.16 2.47 5.33 7.59 6.116 12.01 2.19 3.54-3.15 3.86-7.36 4.52-11.86zm-107.51 25.24l.92-.256c-1.74-6.832-2.93-13.87-5.39-20.432-2-5.34-7.67-7.653-12.95-6.663-2.89.54-5.17 1.833-5.29 5.26-.39 11.62 2.49 22.49 7.92 32.658 1.57 2.95 5.06 3.44 8.28 1.93 5.34-2.52 6.34-7.29 6.49-12.5zm136.01 55.48c-.02-.167-.03-.333-.04-.5-3.84.337-7.74.32-11.49 1.085-6.88 1.4-10.48 7.723-7.31 12.972 2.47 4.093 6.56 6.213 11.5 6.35 7.86.217 15.03-1.874 21.31-6.62 1.33-1.004 2.53-2.46 3.22-3.97 2.28-5.05-1.4-10.37-6.79-10.026-3.47.22-6.94.47-10.41.71zm-39.01 69.36c7.39-.84 14.04-2.73 19.76-7.13 1.5-1.16 2.91-2.845 3.58-4.59 1.99-5.19-1.7-9.89-7.08-9.58-5.1.29-10.22.21-15.32.57-2.95.2-5.98.59-8.77 1.53-3.36 1.13-5.68 3.66-5.99 7.42-.31 3.7 1.332 6.77 4.48 8.45 2.88 1.54 6.2 2.25 9.33 3.32zM642.26 329h.19c0 4.964-.4 9.973.13 14.88.39 3.584 2.72 6.43 6.55 7.396 3.67.93 6.66-.52 9.04-3.17 6.51-7.25 3.602-27.99-4.59-33.21-3.28-2.09-6.72-1.33-9.54.5-1.24.81-1.534 3.51-1.73 5.4-.275 2.72-.07 5.48-.07 8.22zm7.12 43.424l.59-.01c-.13-2.11-.07-4.26-.42-6.33-.95-5.5-4.17-9-8.3-9.31-4.47-.34-9.12 2.83-10.24 8.15-.91 4.28-1.34 9.02-.46 13.23.997 4.73 3.302 9.35 5.805 13.55 2.16 3.63 6 3.14 9.762 2.13 3.55-.96 3.24-3.54 3.243-6.14.006-5.1 0-10.19 0-15.29zM511.13 506.78c0-4.606.31-9.238-.086-13.81-.413-4.768-3.925-8.303-7.878-8.83-3.774-.5-8.124 2.277-10.045 6.43-.26.566-.54 1.138-.68 1.738-2.3 9.676-.38 18.53 5.33 26.583.69.98 1.78 1.81 2.86 2.33 5.23 2.52 10.58-.89 10.52-6.59-.02-2.61 0-5.23 0-7.84zm141.185-84.72h-.242c0 1.996-.102 3.997.02 5.986.37 6.08 3.8 10.466 8.373 10.844 4.907.405 9.772-3.12 10.622-9.077.704-4.936.56-10.24-.49-15.102-.856-3.97-3.21-7.81-5.624-11.19-2.518-3.52-6.375-2.39-9.962-1.37-3.492.99-2.586 3.82-2.655 6.12-.14 4.6-.044 9.2-.044 13.8zm-106.8 26.77l-.663.015c.142 1.61.17 3.24.445 4.825.947 5.468 3.985 9.062 7.77 9.334 5.464.393 9.45-2.483 11.044-8.468 2.51-9.42.18-17.987-5.15-25.89-.48-.71-1.13-1.343-1.82-1.86-3.14-2.35-6.32-1.28-9.57-.13-2.95 1.04-1.94 3.456-1.99 5.37-.13 5.6-.05 11.2-.05 16.803zm95.493 36.495l.162.984c4.588-.89 9.492-1.04 13.693-2.84 6.632-2.84 6.952-11.01.943-15.07-1.797-1.22-4.024-2.16-6.16-2.45-8.527-1.17-16.3 1.08-23.31 5.98-1 .69-1.885 1.64-2.623 2.62-2.502 3.32-1.14 6.61.254 9.87 1.27 2.97 3.876 1.63 5.89 1.62 3.717-.02 7.432-.47 11.15-.73zm-98.43-84.93h.1c0-3.238.2-6.49-.048-9.71-.376-4.91-3.706-8.902-7.58-9.543-4.358-.72-9.01 1.968-10.562 7.054-1.096 3.592-1.47 7.57-1.314 11.34.25 6.076 2.365 11.71 6.214 16.51 2.42 3.02 5.827 3.276 10.242 1.867 3.843-1.23 2.823-4.17 2.916-6.716.13-3.597.033-7.2.033-10.804zm-7.24-41.224l-.545.02c.214 2.85.135 5.75.71 8.52.974 4.7 4.41 7.92 8.11 8.16 3.95.26 8.35-2.41 9.645-6.89 1.08-3.73 1.452-7.8 1.37-11.71-.122-5.84-2.27-11.2-5.705-15.94-2.49-3.43-5.955-3.92-10.75-2.32-4.014 1.34-2.72 4.49-2.8 7.13-.13 4.34-.036 8.69-.036 13.04z"/>
    <path fill="#F80E4A" d="M687.875 427.913c-8.82-.308-13.3-6.448-10.358-14.498 3.174-8.69 8.177-16.222 14.962-22.48.98-.91 2.99-.952 4.52-.953 1.03 0 2.09.733 3.09 1.216 11.34 5.428 13.27 12.59 5.63 22.492-3.23 4.184-7.11 7.945-11.09 11.44-1.74 1.52-4.48 1.89-6.77 2.783zm-136.213-37.876c-1.15-3.552 1.264-5.424 4.932-6.467 1.557-.443 3.082-1.01 4.655-1.378 8.31-1.946 13.94 1.235 15.42 9.61 1.05 5.937 1.54 12.148 1.01 18.126-.28 3.186-2.64 6.822-5.14 9.05-5.6 4.998-11.96 3.205-15.2-3.597-3.7-7.77-5.39-16.01-5.7-25.34zm39.62 135.827c1.052-8.492 6.608-12.643 14.146-10.305 8.94 2.77 16.956 7.2 23.57 13.87.954.96.877 2.95 1.263 4.47.03.1-.07.23-.11.35-4.45 12.74-11.52 18.55-24.83 8.54-3.07-2.31-6.41-4.49-8.83-7.39-2.27-2.73-3.5-6.33-5.19-9.54zm79.92-182.937c1.183-8.343 14.117-22.908 21.764-24.03 9.498-1.393 15.158 5.527 11.726 14.417-3.28 8.493-8.123 15.993-14.938 22.063-1.002.893-3.282 1.367-4.457.855-3.274-1.427-6.688-3.03-9.263-5.413-2.18-2.02-3.263-5.22-4.832-7.9zm-90.72 109.33c-8.595-.72-12.798-6.607-9.986-14.398 3.142-8.71 8.255-16.14 14.817-22.64 1.62-1.61 3.17-2.19 5.227-.91 3.152 1.96 6.637 3.5 9.45 5.85 3.728 3.11 4.643 7.54 2.46 11.87-3.384 6.73-7.795 12.83-14.184 17.05-2.29 1.51-5.172 2.13-7.784 3.16zm44.773-73.44c-.117.46-.357 1.94-.872 3.317-3.234 8.65-8.17 16.18-14.824 22.616-1.54 1.482-2.93 2.144-4.92 1.076-.98-.53-2.06-.873-3.06-1.373-11.61-5.81-13.25-12.62-5.21-22.836 2.98-3.784 6.27-7.432 9.94-10.53 3.86-3.266 8.61-3.672 13.39-1.72 3.71 1.515 5.65 4.503 5.53 9.45zm-96.22 167.89c-8.797-.605-13.034-6.52-10.054-14.505 3.23-8.65 8.32-16.103 14.9-22.58 1.57-1.542 3.07-1.928 4.94-.853 3.01 1.72 6.24 3.17 8.97 5.27 3.99 3.07 5.24 7.59 3.24 12.03-3.27 7.27-8.16 13.41-14.81 17.89-2.07 1.39-4.77 1.85-7.18 2.74zm157.06-239.213c-.907 10.59-8.84 19.434-18.46 19.62-1.41.027-3.296-.934-4.19-2.054-4.333-5.42-8.343-11.096-12.588-16.588-2.31-2.99-2.256-4.72.86-6.76 7.94-5.188 16.714-7.746 26.167-7.767 1.218-.003 3.057.954 3.548 1.976 1.797 3.74 3.145 7.7 4.662 11.58zm-73.497 23.964c2.736.625 4.66 1.214 6.628 1.486 5.17.716 10.346 1.402 15.54 1.895 4.658.44 5.738 1.69 4.648 6.24-2.082 8.67-6.107 16.34-12.395 22.7-.98.98-2.82 1.79-4.14 1.63-14.67-1.73-22.2-19.47-13.3-31.21.89-1.18 2.21-2.04 3-2.76zm83.742 118.225c-.453 2.19-.702 4.448-1.397 6.558-2.384 7.24-4.294 8.12-11.603 6.76-5.487-1.02-11.06-1.65-16.62-2.21-4.16-.42-5.32-1.7-4.388-5.79 2.017-8.85 6.185-16.6 12.5-23.08 1.04-1.06 3.332-1.7 4.825-1.41 9.63 1.88 16.372 9.91 16.683 19.2zm-80.03-33.533c.127-6.998 1.298-13.326 8.365-16.726 4.99-2.4 9.562-1.096 12.11 3.738 4.81 9.127 6.705 18.967 6.27 29.24-.037.892-.833 2.255-1.59 2.528-3.488 1.256-7.027 2.75-10.658 3.145-6.913.75-10.9-2.292-12.428-9.043-.96-4.233-1.4-8.583-2.07-12.88zm69.34-36.288c-.294 4.908-.83 9.544-4.266 13.346-5.952 6.586-13.706 5.437-17.336-2.587-3.81-8.42-5.535-17.25-5.335-26.5.044-2.03.59-3.32 2.596-3.87 3.22-.89 6.38-2.16 9.66-2.67 5.99-.92 10.61 2.1 12.1 8 1.18 4.68 1.73 9.52 2.57 14.29zm-156.63-92.226c-.024-5.84-.05-5.92 5.567-7.818 2.218-.75 4.56-1.334 6.885-1.523 6.55-.532 10.984 2.447 12.215 8.89 1.068 5.587 1.617 11.347 1.667 17.037.05 5.545-2.424 10.134-7.724 12.67-5.477 2.623-10.03 1.064-12.73-4.403-3.862-7.83-5.735-16.15-5.88-24.86zm108.484 234.427c-8.053-.462-13.217-3.32-15.383-8.995-1.74-4.57-.66-8.572 3.52-11.037 8.88-5.24 18.54-7.96 28.89-7.86.98.01 2.44.89 2.83 1.75 1.44 3.16 2.96 6.4 3.63 9.76 1.27 6.45-1.49 11.09-7.81 12.99-5.1 1.53-10.43 2.31-15.65 3.42zm-68.43 14.593c-2.174-.5-4.403-.833-6.51-1.534-6.534-2.177-7.067-3.564-6.1-10.365.77-5.398 1.015-10.888 1.205-16.347.18-5.197 1.31-6.287 6.31-5.36 8.01 1.482 15.05 4.978 21.68 9.67 3.25 2.298 3.73 4.692 2.79 8.27-2.35 8.94-10.32 15.438-19.39 15.666zm-70.23-167.834c.203-.972.447-3.1 1.1-5.093 2.336-7.15 4.364-8.11 11.65-6.75 5.475 1.02 11.036 1.64 16.58 2.22 4.042.42 5.353 1.9 4.463 5.84-2.053 9.09-6.902 16.73-12.714 23.8-.664.81-2.465 1.15-3.646.99-9.874-1.31-17.412-10-17.433-21.03zm-14.327 48.416c.095-1.08.124-1.58.186-2.074.87-7.003 12.445-20.262 19.285-22.12 3.99-1.084 7.732-.456 11.044 1.93 3.037 2.186 4.184 5.345 3.135 8.94-2.977 10.2-8.686 18.723-16.477 25.873-.554.508-1.674.955-2.297.743-5.49-1.87-10.814-4.104-13.776-9.57-.687-1.265-.845-2.818-1.1-3.722zm23.267 29.162c-1.058 8.974-14.292 23.52-22.637 24.46-8.802.993-14.064-5.648-11.022-13.956 3.19-8.714 8.203-16.268 15.03-22.522.98-.896 3.264-1.326 4.47-.828 3.193 1.318 6.52 2.826 9.044 5.09 2.22 2.003 3.45 5.13 5.11 7.757zm81.574 27.504c-.387 2.073-.582 4.204-1.194 6.208-2.268 7.43-4.537 8.52-12.114 7.06-5.226-1.008-10.565-1.473-15.87-2.02-4.602-.475-5.794-1.826-4.707-6.297 2.104-8.647 6.163-16.308 12.38-22.684 1.005-1.03 3.09-1.67 4.547-1.49 9.254 1.18 16.672 9.85 16.958 19.23zm46.666-208.836c-.383-7.364-.287-7.638 6.104-9.7 2.347-.756 4.852-1.226 7.313-1.38 5.17-.323 9.12 2.11 10.61 7.136 2.11 7.083 3.59 14.438 1.73 21.77-.75 2.948-2.59 6.038-4.83 8.108-5.46 5.065-12.11 3.53-15.34-3.208-3.55-7.407-5.41-15.265-5.58-22.726zm67.18 218.694c-.053 10.064-7.412 18.228-17.423 18.984-1.37.104-3.33-.834-4.21-1.936-4.49-5.626-8.67-11.493-13.04-17.213-1.81-2.376-1.69-4.367.83-5.992 8.16-5.27 17.08-8.14 26.83-7.967 1.12.02 2.8.9 3.23 1.836 1.78 3.886 3.18 7.946 4.71 11.943l-.9.345zm-167.084-31.76c.206 6.93.065 7.367-6.727 9.24-2.937.81-6.125 1.063-9.185.986-3.703-.093-6.427-2.387-7.627-5.755-2.71-7.613-3.89-15.475-2.22-23.53.8-3.86 2.99-6.83 6.45-8.78 5.5-3.093 10.69-1.62 13.48 4.037 3.69 7.482 5.63 15.442 5.84 23.803zm11.818 30.733c-1.18 9.492-7.965 17.384-16.926 18.99-2.775.496-4.686-.07-6.466-2.794-3.585-5.48-7.738-10.61-11.816-15.76-2.415-3.05-2.353-4.91.955-7.03 7.86-5.04 16.55-7.49 25.837-7.68 1.225-.02 3.127.95 3.602 1.97 1.847 4 3.247 8.2 4.814 12.32zm61.522-177.717c-.513 7.44-3.655 13.174-10.094 16.992-1.79 1.06-3.224 1.064-5.112-.12-5.988-3.76-12.128-7.277-18.25-10.816-2.962-1.71-3.534-3.486-1.52-6.408 5.373-7.795 12.49-13.534 21.174-17.25 1.036-.442 2.772-.3 3.73.3 6.382 3.984 9.604 9.898 10.072 17.302zm-39.428 13.012c2.62-.787 4.216 1.182 5.646 3.827 6.886 12.74-.365 27.75-14.31 29.635-2.845.384-4.398-.517-5.955-3.05-3.093-5.035-6.544-9.9-10.3-14.46-3.84-4.665-3.827-6 1.463-9.128 7.007-4.144 14.635-6.156 23.456-6.824zm72.633-8.02c-1.174 3.313-1.732 7.047-3.652 9.85-3.805 5.555-11.004 4.875-13.18-1.42-2.826-8.176-4.837-16.672-6.618-25.152-.718-3.416-1.34-7.668 3.178-9.74 4.222-1.94 10.47-.866 13.158 3.227 2.39 3.632 3.93 7.96 5.13 12.184.97 3.42.88 7.14 1.26 10.73l.73.31zm-107.53 22.685c-.407 6.298-.917 10.608-5.015 13.427-3.915 2.694-8.26 2.338-10.347-1.642-5.042-9.612-7.623-20.013-7.663-30.86-.018-4.805 3.363-7.145 8.277-6.68 6.217.59 10.13 4.318 11.694 10.01 1.58 5.724 2.3 11.682 3.06 15.745zm163.085 99.937c1.117-2.905 1.748-6.515 3.686-9.173 3.862-5.3 10.94-4.54 12.978 1.6 2.88 8.68 5.258 17.62 6.76 26.63 1.243 7.45-3.892 10.9-11.255 8.6-4.75-1.48-7.57-5.01-8.72-9.49-1.49-5.75-2.26-11.68-3.45-18.18zM569.215 562.248c-7.25-.01-10.574-4.792-8.23-11.378.974-2.736 3.118-5.717 5.57-7.146 8.075-4.706 17.07-6.264 26.317-4.987 2.202.304 4.586 2.08 6.122 3.844 3.177 3.66 2.47 8.13-1.71 10.55-8.978 5.2-18.83 7.86-28.07 9.13zm22.128-105.126c1.078-2.784 1.75-6.783 3.924-9.64 3.935-5.175 10.16-4.118 12.82 1.82 3.79 8.467 6.15 17.364 6.66 26.647.44 7.93-4.9 11.41-12.337 8.23-4.358-1.87-6.888-5.43-7.94-9.8-1.272-5.3-1.973-10.73-3.127-17.27zm12.237-95.708c-.655 4.5-.976 8.712-4.52 11.86-4.42 3.925-9.542 3.14-12.013-2.19-4.128-8.907-6.654-18.31-6.95-28.16-.19-6.39 3.6-9.16 9.932-7.853 4.72.98 8.08 3.83 9.41 8.23 1.79 5.92 2.79 12.07 4.13 18.12zm-107.503 25.244c-.147 5.207-1.155 9.975-6.496 12.49-3.21 1.515-6.7 1.025-8.27-1.924-5.43-10.167-8.31-21.036-7.92-32.657.12-3.428 2.4-4.72 5.29-5.26 5.29-.99 10.95 1.323 12.95 6.663 2.46 6.564 3.65 13.6 5.39 20.432l-.92.256zm136.013 55.48c3.47-.238 6.938-.49 10.408-.71 5.39-.34 9.073 4.974 6.787 10.025-.684 1.51-1.892 2.967-3.22 3.97-6.28 4.747-13.447 6.84-21.308 6.62-4.94-.136-9.03-2.256-11.5-6.348-3.17-5.25.435-11.57 7.31-12.974 3.744-.76 7.65-.74 11.48-1.08l.043.5zm-39.01 69.358c-3.128-1.07-6.45-1.778-9.33-3.313-3.142-1.674-4.785-4.746-4.477-8.448.313-3.755 2.634-6.286 5.997-7.422 2.784-.94 5.818-1.33 8.772-1.536 5.093-.356 10.215-.278 15.313-.572 5.378-.31 9.068 4.392 7.076 9.575-.67 1.744-2.08 3.43-3.58 4.586-5.72 4.402-12.37 6.29-19.76 7.13z"/>
    <path fill="#F80E4A" d="M642.27 328.994c0-2.742-.207-5.504.07-8.217.195-1.893.488-4.59 1.73-5.397 2.815-1.83 6.26-2.584 9.537-.495 8.196 5.223 11.1 25.96 4.59 33.215-2.377 2.647-5.37 4.096-9.044 3.17-3.83-.964-6.163-3.812-6.553-7.395-.534-4.907-.134-9.916-.134-14.88h-.196zm7.124 43.426c0 5.095.003 10.19 0 15.286-.003 2.605.308 5.18-3.246 6.138-3.765 1.015-7.602 1.507-9.765-2.13-2.504-4.21-4.808-8.825-5.805-13.557-.888-4.212-.458-8.95.45-13.23 1.13-5.32 5.78-8.486 10.242-8.15 4.133.31 7.352 3.81 8.3 9.308.356 2.072.292 4.216.42 6.327l-.596.007zm-138.26 134.366c.002 2.614-.02 5.228.007 7.842.06 5.706-5.29 9.115-10.51 6.596-1.08-.523-2.17-1.357-2.86-2.33-5.7-8.05-7.63-16.907-5.32-26.58.15-.6.43-1.173.69-1.738 1.92-4.153 6.27-6.932 10.05-6.43 3.96.526 7.47 4.06 7.88 8.83.4 4.572.09 9.204.09 13.81zm141.183-84.72c0-4.6-.097-9.204.04-13.8.07-2.303-.836-5.13 2.656-6.12 3.588-1.018 7.445-2.15 9.962 1.377 2.415 3.38 4.767 7.225 5.624 11.194 1.04 4.863 1.19 10.166.49 15.1-.85 5.958-5.72 9.484-10.63 9.078-4.57-.378-8-4.763-8.38-10.844-.12-1.98-.02-3.99-.02-5.98h.24zm-106.8 26.77c0-5.6-.09-11.203.047-16.8.047-1.916-.957-4.333 1.99-5.373 3.254-1.147 6.43-2.22 9.576.132.69.516 1.348 1.15 1.827 1.86 5.333 7.902 7.668 16.47 5.158 25.888-1.595 5.985-5.58 8.86-11.046 8.467-3.79-.273-6.83-3.866-7.77-9.334-.28-1.586-.31-3.215-.45-4.825.22 0 .44 0 .66-.01zm95.493 36.494c-3.717.27-7.432.712-11.15.733-2.014.01-4.62 1.347-5.89-1.624-1.395-3.26-2.757-6.55-.255-9.88.738-.98 1.622-1.93 2.622-2.63 7.01-4.91 14.783-7.16 23.31-5.99 2.137.29 4.364 1.23 6.16 2.45 6.01 4.06 5.69 12.23-.942 15.07-4.2 1.79-9.104 1.95-13.693 2.84l-.162-.99zm-98.43-84.93c0 3.603.1 7.208-.032 10.805-.093 2.545.927 5.487-2.916 6.714-4.415 1.4-7.82 1.15-10.242-1.87-3.85-4.8-5.963-10.44-6.214-16.51-.156-3.77.218-7.75 1.314-11.34 1.55-5.09 6.204-7.78 10.56-7.06 3.876.64 7.206 4.63 7.582 9.54.246 3.22.047 6.47.047 9.71h-.1zm-7.24-41.223c0-4.346-.095-8.695.034-13.038.08-2.64-1.214-5.8 2.8-7.14 4.795-1.6 8.26-1.12 10.75 2.32 3.434 4.73 5.583 10.1 5.705 15.94.08 3.9-.29 7.98-1.37 11.71-1.3 4.48-5.7 7.14-9.65 6.89-3.7-.24-7.14-3.46-8.11-8.16-.58-2.77-.5-5.67-.71-8.52.18-.01.36-.01.54-.02z"/>
  </g>
</svg>
