<svg xmlns="http://www.w3.org/2000/svg" viewBox="0 0 699.379 187.031">
  <g id="Layer_6">
    <g id="pomegranate_2_">
      <path fill="#0C0D11" d="M651.075 107.073c-2.576 2.255-4.612 5.176-7.4 7.102-9.11 6.292-18.812 2.094-20.435-8.598-.286-1.886-.24-2.913 2.45-3.053 8.787-.456 16.284-3.59 20.88-11.365 2.79-4.72 3.677-9.75 1.38-14.93-2.88-6.49-10.21-8.69-18.574-5.68-12.826 4.61-22.426 19.9-20.83 34.93.56 5.28-1.68 8-5.41 10.26-1.898 1.15-4.49 1.22-6.77 1.78-.282-2.17-1.136-4.44-.75-6.49 2.035-10.79 4.41-21.52 6.596-32.28.355-1.75 1.126-2.31 3.006-2.3 5 0 6.372-1.42 7.183-6.88-1.75 0-3.51-.15-5.24.03-2.78.3-3.08-.9-2.54-3.15.93-3.88 1.59-7.81 2.5-11.69.39-1.66.21-2.27-1.73-1.86-3.76.79-7.56 1.45-11.36 2.13-1.89.34-2.93 1.11-3.19 3.25-.38 3.21-1.29 6.38-2.1 9.53-.16.64-.97 1.68-1.33 1.63-5.82-.87-5.47 3.59-6.92 6.92.93.04 1.43.08 1.93.08 4.6.08 4.55.07 3.61 4.45-1.39 6.49-2.92 12.97-4.01 19.51-1.22 7.35-5.12 12.76-11.78 16.19-1.54.79-4.03 1.16-5.41.46-.94-.47-1.23-3.23-.92-4.8 2.71-13.49 5.53-26.96 8.57-40.38.55-2.42-.14-2.57-2.18-2.556-8.62.07-17.25-.134-25.87.09-7.83.2-14.61 3.083-19.72 8.954-7.69 8.83-10.88 19.31-10.15 30.61.31 4.636-1.65 6.65-5.17 8.33-3.96 1.89-5.93.58-5.65-3.74.09-1.44.38-2.87.64-4.293 1.49-8.07 3.26-16.107 4.46-24.22 1.81-12.24-7.44-19.065-19.12-14.24-2.26.936-4.27 2.44-6.43 3.64-.92.52-1.91.92-2.88 1.374.11-.98.03-2.03.37-2.93.98-2.573.56-3.74-2.64-3.45-2.97.27-6.01.26-8.98 0-2.602-.22-3.36.84-3.802 3.11-2.04 10.42-4.26 20.806-6.42 31.204-1.44 6.92-6.14 11.12-12.57 13.69-2.902 1.16-4.57-.06-4.633-3.05-.027-1.07.15-2.165.38-3.22 2.82-12.97 5.66-25.94 8.5-38.905.41-1.87.45-3.043-2.33-2.98-8.62.2-17.25-.09-25.87.13-6.806.18-12.93 2.454-17.814 7.22-9.305 9.083-12.65 20.52-12.06 32.794.55 11.43 10.69 17.65 21.815 13.7 4.824-1.716 9-5.16 13.36-7.75 3.02 6.91 6.004 9.22 12.08 8.8 6.214-.43 11.22-3.475 16.46-7.74-.43 1.764-.61 2.696-.887 3.6-.84 2.75-.08 3.966 3.128 3.654 2.727-.26 5.54-.34 8.238.02 3.5.48 4.41-1.264 4.924-4.05 1.728-9.38 3.665-18.73 5.33-28.12.968-5.46 3.94-9.61 8.27-12.91 2.3-1.76 5.24-4.38 7.867-2.23 1.392 1.135 1.022 4.905.634 7.37-1.28 8.1-3.167 16.112-4.37 24.22-1.28 8.587 3.083 15.196 10.51 16.21 5.37.734 10.04-1.41 14.11-4.63 1.89-1.5 2.923-2.105 4.954.16 3.496 3.89 8.32 5.01 13.614 4.364 6.99-.854 12.18-4.54 16.79-10.07 2.46 8.89 8.12 12.29 16.61 9.21 5.21-1.898 9.84-5.32 14.61-7.99 3.55 8.71 8.62 11.4 17.65 7.84 4.5-1.772 8.48-4.8 12.82-7.33 4.8 8.308 12.96 9.43 22.24 8.124 11.668-1.647 17.96-9.354 22.76-19.03-1.885.35-3.63 1.034-4.94 2.18zM623.837 94.49c1.573-5.783 3.63-11.274 7.962-15.696.92-.95 2-1.823 3.16-2.486 4.01-2.297 6.1-1.114 6.11 3.37.02 8.824-6.81 16.832-14.75 17.4-2.11.152-3.21.045-2.49-2.59zM432.772 82.693c-1.787 7.26-3.055 14.64-4.562 21.964-.804 3.907-8.943 11.456-12.973 12.16-2.423.423-4.35-.327-5.107-2.552-.917-2.698-1.387-5.538-2.05-8.317.822-8.712 2.745-16.89 8.01-23.957 1.774-2.38 4.206-4.39 6.652-6.17 2.255-1.64 4.952-1.57 7.32.1 2.363 1.66 3.495 3.6 2.71 6.78zm121.842-.455c-1.407 6.73-2.835 13.456-4.102 20.21-1.288 6.868-6.302 10.768-11.962 13.934-3.138 1.756-5.8.427-6.99-3.043-.813-2.37-1.093-4.92-1.374-6.26.8-10.74 2.845-19.91 9.562-27.31 1.94-2.14 4.783-3.99 7.575-4.81 4.36-1.28 8.197 2.93 7.29 7.26zm-263.29 65.72c3.08-3.15 6-6.237 9.07-9.176.44-.42 1.696-.393 2.4-.132 1.374.51 2.575 1.45 3.937 2.005 5.05 2.058 7.19.886 8.26-4.29 1.29-6.234 2.65-12.455 3.65-19.003-5.67 4.072-11.43 7.31-18.71 6.646-7.72-.704-12.02-5.176-14.42-12.376-5.31 6.695-11.41 11.41-20.12 12.425-8.52.993-15.95-.163-21.21-7.707-4.64 3.9-9.45 7.294-15.78 7.582-8.76.398-14.05-4.95-12.73-13.388 1.44-9.173 3.53-18.25 5.06-27.412.39-2.306-.24-4.773-.4-7.165-2.18 1.186-4.68 2.03-6.47 3.624-5.03 4.48-6.62 10.56-7.66 16.88-1.38 8.34-3.09 16.63-4.43 24.97-.32 1.99-1.21 2.35-2.93 2.32-3.25-.06-6.51-.18-9.74.02-2.53.16-2.61-1.07-2.28-2.85 2.35-12.58 4.78-25.14 6.94-37.75.38-2.19-.38-4.56-.62-6.85-2.28.88-4.95 1.3-6.76 2.74-3.38 2.7-5.74 6.15-6.59 10.62-2 10.55-4.41 21.02-6.51 31.55-.39 1.96-1.14 2.63-3.18 2.53-3.24-.15-6.51-.17-9.74.03-2.6.16-3.23-.69-2.7-3.1 2.23-10.13 4.34-20.29 6.477-30.45.12-.57.09-1.18.15-2.09-3.382 1.98-6.57 3.73-9.6 5.71-.63.42-.81 1.63-1 2.52-2.54 11.91-8.33 21.51-20.52 26.21-15.853 6.12-29.98-3.52-29.63-20.04.306-14.14 11.13-28.03 25.04-32.03 12.126-3.48 24.85.41 26.19 16.31.61-.19 1.178-.42 1.768-.55 6.617-1.43 10.846-4.79 10.808-11.95-.02-3.53 1.55-5.48 5.72-4.81 2.43.398 5 .23 7.48.028 3.08-.255 3.84.785 2.7 3.5-.31.746-.23 1.648-.4 3.05 4.58-3.56 8.85-6.69 14.65-6.71 6.82-.03 9.7 3.987 10.917 9.947 2.38-2.075 4.36-4.06 6.62-5.694 1.87-1.36 3.953-2.59 6.14-3.38 7.97-2.885 14.402 1.13 14.19 9.357-.17 6.35-1.43 12.684-2.42 18.993-.67 4.283-1.76 8.51-2.587 12.77-.78 4.02.905 5.635 4.94 4.444 1.966-.58 4.17-1.53 5.39-2.99.97-1.16.865-3.37.79-5.09-.59-13.833 3.096-25.974 15.28-34.283 3.105-2.12 7.22-3.375 11.03-3.9 10.156-1.4 16.06 6.806 13.81 16.37-2.26 9.58-10.214 15.61-22.32 16.58-3.31.26-3.45 1.17-2.91 3.84 2.005 9.99 10.85 13.92 19.61 8.29 5.39-3.46 9.33-7.7 10.14-14.74.64-5.58 2.968-11.233 5.7-16.263 4.98-9.15 13.06-14.47 24.07-14.675 8.99-.17 17.99-.09 26.99-.17 1.567-.01 2.317.29 1.92 2.05-4.23 18.836-8.392 37.686-12.625 56.523-.343 1.52-.986 2.986-1.6 4.434-7.075 16.62-21.127 22.53-39.2 16.2zM139.38 85.41l.393.516c-.03-.275-.062-.55-.094-.825-.91-1.95-1.53-4.1-2.79-5.8-3.18-4.27-7.5-4.41-10.8-.2-1.77 2.25-3.04 4.98-4.03 7.66-2.78 7.49-4.09 15.21-2.08 23.09.86 3.4 2.68 6.39 6.66 7.05 3.73.62 6.37-1.53 7.85-4.4 2.03-3.94 3.37-8.21 5.08-12.31 1.15-2.75.72-4.38-2.65-5.17-2.1-.49-3.99-1.9-5.89-3.02-.45-.26-.97-1.29-.8-1.54 1.53-2.19 3.01-4.51 4.99-6.28.53-.47 2.71.78 4.13 1.24zm161.984 18.712c.598 3.163.908 6.413 1.882 9.463.84 2.632 3.38 3.965 5.975 2.785 5.86-2.662 10.89-6.537 12.54-12.92 1.87-7.222 2.93-14.64 4.75-21.88.7-2.802.33-5.104-2.09-6.203-2.12-.966-5.1-1.61-7.15-.906-2.5.86-4.83 2.98-6.55 5.08-5.85 7.12-8.25 15.52-9.33 24.59zm-27.117-24.127c-.59-1.498-.91-4.043-1.826-4.263-1.62-.39-3.62.575-5.43 1.094-.55.16-1.02.68-1.46 1.095-5.14 4.79-7.46 10.98-8.95 17.5-.08.38 1.39 1.58 2.12 1.57 8.12-.12 14.94-7.81 15.56-16.99zM94 43.212c-10.18-1.957-19.846-.256-29.047 4.073-14.86 6.992-22.41 19.062-21.515 33.867.116 1.922.445 2.715 2.564 1.702 3.68-1.76 7.48-3.285 11.12-5.117.66-.332 1.327-1.855 1.08-2.498-4.516-11.71 1.366-20.07 13.772-24.33-.098 1.03-.097 1.96-.286 2.86-4.734 22.43-9.443 44.86-14.308 67.26-.493 2.27-.05 2.79 2.18 2.7 3.243-.13 6.52-.28 9.736.03 2.856.27 3.625-1.04 4.084-3.33 1.654-8.28 3.505-16.52 5.076-24.81.376-1.98 1.075-2.64 3.15-3.15 12.707-3.12 22.915-9.55 27.92-21.84 5.226-12.83-1.67-24.76-15.526-27.42zM84.35 84.28c-.942.646-2.144.938-3.89 1.674 1.562-7.846 2.97-15.005 4.417-22.157.904-4.476 1.94-8.928 2.758-13.418.312-1.71.72-2.19 2.626-1.58 4.75 1.53 8.02 5.09 7.81 10.26-.41 10.42-4.76 19.06-13.72 25.21zm284.757-5.254c8.074-11.044 17.918-12.363 29.635-5.588-3.315 2.695-6.39 5.304-9.627 7.713-.503.38-1.86.06-2.608-.33-3.112-1.61-6.292-1.79-9.265-.07-6.032 3.48-10.918 8.01-12.384 15.03-1.725 8.27-3.383 16.55-4.942 24.84-.42 2.24-1.22 3.31-3.824 3.13-3.477-.24-6.99-.1-10.483-.01-1.91.05-2.28-.55-1.89-2.37 3.51-16.51 6.93-33.04 10.33-49.58.35-1.71 1.12-2.39 3.01-2.31 3.36.15 6.75.21 10.11-.02 2.73-.18 2.81 1.12 2.41 3.05-.4 1.92-.75 3.85-1.12 5.78l.64.77zm-.258.054l-.25-.255c-.08.155-.19.305-.23.47-.02.06.13.155.21.234l.25-.45z"/>
      <path fill="none" d="M0 0h699.38v187.03H0z"/>
    </g>
  </g>
</svg>
