<svg xmlns="http://www.w3.org/2000/svg" viewBox="0 0 648.75 660.75">
  <g id="Layer_5">
    <path fill="#F80E4A" d="M249.5 43.085l2.9 1c9.455 4.516 17.54 10.827 24.354 18.8.59.69 1.428 1.168 2.15 1.745l.74-3.058c1.296-3.877 2.76-7.708 3.857-11.642 2.41-8.62 4.58-17.3 6.95-25.93.41-1.494 1.28-2.862 1.94-4.29 1.15.992 2.28 1.995 3.45 2.966.37.306.81.524 1.22.782 16.08 12.385 25.29 29.413 32.73 47.955l1.36-9.385c2.94-13.272 8.37-25.335 17.6-35.46 3.58-3.924 7.67-7.433 13.26-7.707 2.39-.11 4.85 1.08 7.27 1.68-.47 1.93-.87 3.88-1.41 5.78-2.45 8.75-2.41 17.53.03 26.21.63 2.23 2.4 4.26 4.03 6.04 1.18 1.29 2.52.88 2.84-1.12 6.54-4.71 13.03-9.5 19.65-14.09 1.69-1.17 3.82-1.69 5.73-2.51.85.2 1.72.39 2.6.58l1.18 2.34c.13 2.07.26 4.14.38 6.2.58 10.83-3.85 20.18-8.86 29.29-4.55 8.3-9.78 16.24-13.96 24.71-12.89 26.14 1.68 46.04 21.97 55.79.28 0 .47.12.57.38-.01 0 .22.09.22.09.34.23.67.45.99.67l5.93 3.03c11.48 4.68 22.97 9.33 34.43 14.06 1.227.51 2.26 1.48 3.357 2.22l3.82 1.98.96.56c.22.03.417.11.58.25.29-.02.473.11.554.39.69.69 1.31 1.47 2.087 2.06 13.46 10.15 23.95 22.89 32.586 37.25 14.74 24.51 25.51 50.85 35.236 77.61 8.51 23.44 12.45 47.53 8.8 72.53-2.84 19.45-8.87 37.89-17.2 55.61-13.55 28.82-33.05 52.48-60.37 69.33-21.47 13.25-44.91 21.61-69.08 28.35-18.853 5.26-37.354 5.58-55.94-1.16-16.05-5.81-32.743-7.61-49.78-7.15-11.98.32-23.99.34-35.97.01-11.32-.31-22.25-2.85-32.68-7.39-14.41-6.28-27.03-15.47-39.82-24.39-1.175-.82-2.593-1.296-3.9-1.932l.08.06-1.53-.85.04.038-1.57-1.52.063.05-2.29-1.58.05.05-.81-.81.053.058c-.27-.264-.54-.532-.81-.8l.06.06-.82-.807.088.06-1.52-.835c-24.69-19.4-38.84-44.81-44.31-75.64-7.18-40.44-6.48-80.52 3.75-120.33 7.53-29.31 19.09-56.8 38.62-80.3 19.52-23.51 43.69-39.51 74.33-44.88 9.81-1.72 19.52-4.18 28.17-9.58 14.59-9.1 19.84-22.61 15.3-39.26-2.8-10.25-8.28-19.17-13.51-28.26-3.59-6.232-6.56-12.83-9.8-19.26-2.3-5.29-4.35-10.633-2.923-16.59zm47.106 86.832c-.06.706-.128 1.41-.182 2.117-1.155 15.278-12.147 28.23-27.074 31.626-4.492 1.022-9.088 1.61-13.654 2.277-37.762 5.507-65.963 25.105-84.9 58.025-8.644 15.024-13.203 31.747-18.86 48-9.273 26.652-15.446 53.866-12.898 82.256 1.772 19.747 4.535 39.415 7.234 59.067 1.533 11.16 6.515 20.878 14.21 29.19 11.03 11.92 22.037 23.862 32.965 35.875 11 12.092 24.478 19.793 40.622 22.138 23.08 3.352 46.17 6.812 69.38 9.05 24.83 2.393 49.43.088 73.1-8.5 25.62-9.297 46.7-24.458 59.75-48.952 14.71-27.618 22.69-57.344 24.12-88.518.94-20.562.42-41.213-.07-61.81-.45-18.47-1.46-36.953-5.74-55.05-7.14-30.167-23.45-53.216-52.21-66.285-7.15-3.246-14.74-5.5-22.01-8.485-4.38-1.796-8.79-3.726-12.73-6.296-11.07-7.22-18.13-16.957-17.45-30.806-16.91 4.446-31.35 12.775-43.71 26.135-.99-11.74-3.74-21.84-9.91-31.05z"/>
    <path id="shadow_9_" fill="#0C0D11" d="M168.766 484.038c1.306.636 2.723 1.112 3.9 1.933 12.788 8.93 25.406 18.12 39.818 24.4 10.43 4.55 21.36 7.08 32.68 7.4 11.984.33 23.99.31 35.975-.01 17.03-.45 33.73 1.34 49.78 7.16 18.58 6.74 37.08 6.42 55.94 1.16 24.17-6.74 47.6-15.09 69.08-28.34 27.32-16.85 46.82-40.51 60.37-69.33 8.33-17.72 14.36-36.15 17.2-55.61 3.64-25-.29-49.08-8.81-72.52-9.73-26.76-20.5-53.1-35.24-77.61-8.64-14.36-19.13-27.1-32.59-37.24-.77-.58-1.4-1.36-2.09-2.05 11.55 6.6 21.17 15.41 29 26.06 26.1 35.5 42.14 75.69 53.41 117.84 7.22 27.01 4.05 53.9-4.51 80.25-9.82 30.23-24.55 57.5-48.27 79.23-19.17 17.55-41.82 29.13-66.13 37.65-14.32 5.02-28.79 9.52-43.92 11.6-12.31 1.69-24.18-.19-35.65-4.27-19.86-7.08-40.27-8.48-61.11-7.53-16.71.77-33.44.86-49.73-4.12-10.58-3.23-20.25-8.33-29.39-14.39-9.35-6.2-18.41-12.83-27.56-19.32-.85-.6-1.47-1.51-2.19-2.27zm234.63-324.3c-20.296-9.757-34.867-29.655-21.974-55.793 4.178-8.47 9.408-16.416 13.96-24.71 5.006-9.115 9.446-18.46 8.865-29.29-.11-2.067-.25-4.133-.375-6.2.808-.314 1.66-.547 2.41-.96 1.755-.964 2.35-.534 2.93 1.464 2.717 9.33 1.545 18.39-2.443 26.93-3.73 7.98-8.22 15.61-12.57 23.29-4.55 8.03-9.1 16.05-10.78 25.25-2.4 13.18 2.3 24 11.67 33.04 2.59 2.5 5.52 4.64 8.29 6.95zM331.123 62.03l-1.356 9.384c-7.44-18.542-16.648-35.57-32.727-47.955.543-1.5 1.27-2.56 2.94-1.17 2.647 2.2 5.684 4.09 7.84 6.7 5.857 7.09 11.49 14.38 16.895 21.81 2.514 3.46 4.296 7.45 6.41 11.21zm43.6-4.59c-.317 1.995-1.658 2.406-2.836 1.118-1.624-1.777-3.397-3.808-4.026-6.036-2.44-8.675-2.48-17.46-.03-26.202.54-1.908.94-3.853 1.41-5.78 6.72 1.226 6.85 1.264 4.93 7.736-2.91 9.81-2.55 19.5.56 29.164zm-95.08 4.132l-.74 3.058c-.722-.577-1.56-1.055-2.15-1.745-6.813-7.973-14.9-14.284-24.353-18.8 10.726 3.29 19.57 9.477 27.244 17.487z"/>
    <path fill="#0C0D11" d="M411.106 163.893c-1.982-1.01-3.965-2.02-5.932-3.026 1.987 1.012 3.96 2.02 5.932 3.026zm-8.413-122.48c-.872-.19-1.745-.38-2.594-.58.88.188 1.73.383 2.59.58zm50.017 140.732c-1.28-.663-2.562-1.325-3.82-1.978 1.29.665 2.554 1.322 3.82 1.978zM165.793 481.76l1.563 1.52-1.563-1.52zm-2.227-1.525l2.29 1.574c-.763-.53-1.527-1.05-2.29-1.58zm-3.7-3.032c.507.28 1.013.56 1.52.838-.506-.27-1.012-.55-1.52-.83zm294.384-294.25c-.163-.142-.358-.226-.58-.25.247-.01.438.075.58.25zM167.318 483.245l1.526.85-1.526-.85zm-6.014-5.262l.82.804-.82-.804zm.756.747l.806.806-.806-.805zM404.19 160.2l-.227-.088c.004 0 .227.087.227.087zM162.81 479.477l.81.806-.81-.806z"/>
    <path fill="#FDFDFD" d="M296.606 129.917c6.173 9.207 8.923 19.308 9.91 31.055 12.355-13.36 26.802-21.69 43.705-26.135-.67 13.85 6.38 23.586 17.45 30.806 3.94 2.57 8.36 4.5 12.73 6.296 7.27 2.98 14.86 5.23 22.01 8.48 28.77 13.07 45.07 36.12 52.21 66.28 4.29 18.09 5.3 36.58 5.74 55.05.5 20.59 1.01 41.24.07 61.81-1.42 31.17-9.4 60.9-24.12 88.51-13.05 24.49-34.13 39.65-59.75 48.95-23.66 8.58-48.26 10.89-73.1 8.49-23.2-2.24-46.3-5.7-69.38-9.05-16.14-2.34-29.62-10.04-40.62-22.14-10.92-12.02-21.93-23.96-32.96-35.88-7.69-8.31-12.67-18.03-14.21-29.19-2.7-19.65-5.46-39.32-7.23-59.07-2.55-28.39 3.63-55.61 12.9-82.26 5.66-16.26 10.22-32.98 18.86-48 18.94-32.92 47.14-52.52 84.9-58.03 4.57-.67 9.17-1.26 13.66-2.28 14.93-3.4 25.92-16.35 27.08-31.63.06-.71.12-1.41.19-2.12zm111.27 215.605c2.285-.893 5.03-1.262 6.764-2.783 3.984-3.5 7.86-7.26 11.09-11.45 7.65-9.9 5.71-17.07-5.63-22.49-1.007-.49-2.063-1.22-3.096-1.22-1.534 0-3.54.04-4.526.95-6.784 6.25-11.788 13.79-14.962 22.48-2.94 8.05 1.54 14.19 10.36 14.5zM271.66 307.646c.316 9.333 2 17.57 5.7 25.343 3.236 6.8 9.6 8.59 15.195 3.59 2.495-2.23 4.85-5.87 5.132-9.05.526-5.98.04-12.19-1.013-18.13-1.487-8.38-7.117-11.56-15.428-9.61-1.574.37-3.1.93-4.656 1.38-3.668 1.04-6.082 2.91-4.932 6.47zm39.62 135.827c1.69 3.215 2.92 6.816 5.197 9.54 2.42 2.9 5.756 5.078 8.83 7.388 13.315 10.02 20.383 4.21 24.832-8.53.04-.12.14-.25.12-.35-.39-1.51-.31-3.5-1.27-4.46-6.61-6.67-14.63-11.1-23.57-13.88-7.54-2.33-13.1 1.82-14.15 10.31zm79.92-182.937c1.57 2.676 2.653 5.875 4.832 7.89 2.575 2.383 5.99 3.987 9.263 5.414 1.175.512 3.455.038 4.457-.855 6.815-6.07 11.66-13.57 14.938-22.063 3.432-8.89-2.228-15.81-11.726-14.417-7.648 1.123-20.58 15.69-21.764 24.03zm-90.72 109.33c2.612-1.028 5.493-1.646 7.783-3.16 6.39-4.22 10.8-10.322 14.185-17.05 2.182-4.336 1.267-8.76-2.46-11.875-2.815-2.35-6.3-3.89-9.45-5.85-2.057-1.27-3.607-.69-5.227.91-6.56 6.5-11.67 13.93-14.81 22.64-2.81 7.79 1.39 13.68 9.99 14.4zm44.773-73.44c.117-4.947-1.822-7.935-5.534-9.45-4.78-1.952-9.53-1.546-13.39 1.72-3.67 3.1-6.97 6.746-9.95 10.53-8.05 10.217-6.4 17.024 5.2 22.836 1 .5 2.07.844 3.06 1.373 1.98 1.068 3.37.405 4.91-1.076 6.65-6.44 11.59-13.97 14.82-22.62.51-1.38.75-2.86.87-3.32zm-96.22 167.89c2.41-.886 5.11-1.346 7.18-2.74 6.646-4.474 11.538-10.617 14.808-17.888 2-4.44.75-8.965-3.24-12.036-2.72-2.1-5.95-3.547-8.96-5.274-1.87-1.075-3.36-.69-4.93.854-6.58 6.476-11.67 13.928-14.9 22.58-2.98 7.984 1.26 13.9 10.06 14.505zm157.06-239.213c-1.518-3.876-2.866-7.832-4.663-11.574-.49-1.03-2.33-1.98-3.548-1.98-9.453.02-18.228 2.58-26.166 7.77-3.117 2.04-3.172 3.77-.86 6.76 4.243 5.49 8.254 11.16 12.586 16.58.895 1.12 2.782 2.08 4.192 2.05 9.62-.19 17.552-9.03 18.458-19.62zm-73.497 23.964c-.792.712-2.11 1.573-3.007 2.754-8.9 11.74-1.38 29.48 13.29 31.21 1.32.16 3.16-.65 4.13-1.63 6.28-6.35 10.31-14.02 12.39-22.7 1.09-4.54.01-5.8-4.65-6.24-5.19-.49-10.37-1.18-15.54-1.89-1.97-.27-3.9-.86-6.63-1.48zm83.742 118.225c-.31-9.282-7.052-17.314-16.683-19.194-1.493-.29-3.785.345-4.825 1.413-6.315 6.49-10.484 14.24-12.5 23.09-.932 4.1.226 5.38 4.39 5.8 5.558.56 11.13 1.19 16.618 2.21 7.31 1.37 9.22.48 11.603-6.75.7-2.11.95-4.36 1.4-6.55zm-80.03-33.532c.673 4.298 1.11 8.648 2.07 12.88 1.528 6.752 5.514 9.794 12.427 9.044 3.63-.394 7.17-1.888 10.658-3.145.758-.28 1.554-1.64 1.59-2.53.435-10.28-1.46-20.12-6.27-29.24-2.548-4.84-7.12-6.14-12.11-3.74-7.067 3.4-8.238 9.73-8.364 16.72zm69.34-36.29c-.833-4.767-1.39-9.605-2.57-14.284-1.49-5.9-6.11-8.92-12.106-8-3.28.502-6.44 1.775-9.665 2.668-2.008.556-2.553 1.84-2.598 3.876-.2 9.25 1.52 18.08 5.33 26.5 3.63 8.025 11.38 9.173 17.33 2.587 3.43-3.8 3.97-8.437 4.26-13.346zm-156.63-92.225c.145 8.712 2.018 17.027 5.88 24.853 2.698 5.467 7.252 7.026 12.73 4.404 5.3-2.537 7.773-7.126 7.724-12.67-.05-5.69-.6-11.45-1.667-17.04-1.23-6.44-5.665-9.42-12.215-8.888-2.324.19-4.668.773-6.885 1.523-5.617 1.9-5.59 1.977-5.568 7.818zm108.484 234.428c5.226-1.11 10.55-1.886 15.652-3.41 6.324-1.892 9.086-6.532 7.816-12.983-.663-3.37-2.192-6.6-3.626-9.76-.39-.858-1.847-1.734-2.823-1.744-10.35-.103-20 2.622-28.88 7.866-4.17 2.465-5.26 6.47-3.51 11.037 2.17 5.67 7.33 8.53 15.39 8.99zm-68.43 14.592c9.06-.228 17.035-6.727 19.383-15.667.94-3.577.453-5.97-2.795-8.27-6.63-4.692-13.672-8.187-21.682-9.67-5-.926-6.13.164-6.31 5.36-.19 5.46-.435 10.95-1.204 16.348-.97 6.8-.436 8.188 6.1 10.365 2.105.71 4.334 1.04 6.507 1.54zm-70.23-167.834c.02 11.04 7.56 19.73 17.433 21.03 1.18.16 2.98-.18 3.646-.99 5.82-7.07 10.66-14.71 12.72-23.8.89-3.94-.42-5.42-4.46-5.84-5.54-.58-11.1-1.2-16.58-2.22-7.28-1.36-9.31-.4-11.65 6.75-.65 2-.89 4.12-1.1 5.09zm-14.327 48.42c.255.91.413 2.46 1.1 3.73 2.962 5.47 8.287 7.7 13.776 9.57.63.22 1.75-.23 2.3-.74 7.79-7.15 13.5-15.67 16.48-25.87 1.05-3.59-.1-6.75-3.13-8.94-3.31-2.38-7.05-3.01-11.04-1.93-6.84 1.86-18.41 15.12-19.28 22.12-.06.5-.09 1-.18 2.08zm23.267 29.17c-1.666-2.63-2.886-5.75-5.115-7.75-2.526-2.26-5.852-3.77-9.044-5.09-1.207-.5-3.492-.07-4.47.83-6.828 6.26-11.84 13.81-15.03 22.52-3.043 8.31 2.22 14.95 11.02 13.96 8.346-.94 21.58-15.49 22.638-24.46zm81.574 27.51c-.286-9.38-7.704-18.04-16.958-19.22-1.457-.18-3.542.46-4.547 1.5-6.21 6.38-10.27 14.04-12.38 22.69-1.08 4.47.11 5.82 4.71 6.3 5.31.55 10.65 1.02 15.87 2.02 7.58 1.46 9.85.38 12.12-7.06.62-2 .81-4.13 1.2-6.2zm46.666-208.83c.164 7.46 2.023 15.32 5.58 22.73 3.236 6.74 9.88 8.27 15.345 3.21 2.232-2.07 4.08-5.16 4.827-8.11 1.86-7.33.38-14.68-1.727-21.77-1.495-5.02-5.445-7.45-10.61-7.13-2.46.16-4.965.63-7.312 1.38-6.39 2.07-6.486 2.34-6.104 9.7zm67.18 218.7l.904-.34c-1.537-3.99-2.934-8.05-4.712-11.94-.428-.93-2.107-1.81-3.226-1.83-9.755-.17-18.67 2.7-26.828 7.97-2.516 1.63-2.643 3.62-.826 5.99 4.374 5.72 8.558 11.59 13.047 17.21.88 1.1 2.84 2.04 4.22 1.94 10.01-.75 17.37-8.92 17.43-18.98zm-167.084-31.76c-.216-8.36-2.158-16.32-5.842-23.8-2.785-5.66-7.982-7.13-13.476-4.04-3.458 1.95-5.65 4.92-6.45 8.78-1.666 8.06-.484 15.92 2.23 23.53 1.2 3.37 3.924 5.66 7.626 5.76 3.06.08 6.247-.17 9.185-.98 6.8-1.87 6.94-2.3 6.73-9.23zm11.818 30.74c-1.567-4.12-2.967-8.32-4.815-12.31-.47-1.02-2.37-1.99-3.6-1.97-9.28.19-17.97 2.64-25.83 7.69-3.31 2.12-3.37 3.99-.95 7.04 4.08 5.15 8.23 10.28 11.82 15.77 1.78 2.73 3.69 3.29 6.47 2.8 8.96-1.6 15.75-9.49 16.93-18.99zm61.522-177.71c-.468-7.4-3.69-13.32-10.072-17.3-.958-.6-2.694-.74-3.73-.3-8.684 3.72-15.802 9.46-21.174 17.25-2.014 2.92-1.442 4.7 1.52 6.41 6.122 3.54 12.262 7.06 18.25 10.82 1.888 1.19 3.323 1.18 5.112.12 6.44-3.82 9.58-9.55 10.094-16.99zm-39.428 13.01c-8.822.67-16.45 2.68-23.457 6.83-5.29 3.13-5.303 4.47-1.463 9.13 3.756 4.57 7.207 9.43 10.3 14.46 1.557 2.54 3.11 3.44 5.954 3.06 13.947-1.88 21.198-16.89 14.31-29.63-1.427-2.65-3.024-4.61-5.644-3.83zm72.633-8.02l-.727-.31c-.38-3.59-.288-7.31-1.26-10.74-1.2-4.22-2.74-8.55-5.127-12.18-2.69-4.09-8.94-5.16-13.16-3.23-4.52 2.08-3.9 6.33-3.18 9.74 1.78 8.48 3.79 16.98 6.62 25.16 2.17 6.3 9.37 6.98 13.18 1.42 1.92-2.8 2.48-6.53 3.65-9.85zm-107.53 22.69c-.76-4.06-1.48-10.02-3.054-15.74-1.57-5.69-5.48-9.42-11.7-10.01-4.92-.46-8.3 1.88-8.28 6.68.04 10.85 2.62 21.25 7.66 30.86 2.08 3.98 6.43 4.34 10.34 1.65 4.09-2.82 4.6-7.13 5.01-13.43zm163.087 99.93c1.196 6.5 1.962 12.44 3.448 18.19 1.158 4.48 3.978 8 8.72 9.49 7.363 2.31 12.498-1.15 11.256-8.6-1.503-9.01-3.88-17.95-6.76-26.64-2.04-6.14-9.117-6.9-12.98-1.6-1.936 2.66-2.567 6.27-3.684 9.18zm-129.005 129.6c9.24-1.26 19.092-3.93 28.07-9.12 4.177-2.41 4.884-6.89 1.708-10.54-1.535-1.76-3.92-3.54-6.122-3.84-9.24-1.27-18.24.29-26.31 4.99-2.45 1.43-4.59 4.41-5.57 7.15-2.34 6.59.98 11.37 8.23 11.38zm22.128-105.12c1.154 6.54 1.855 11.97 3.13 17.27 1.05 4.37 3.58 7.93 7.938 9.79 7.44 3.18 12.78-.3 12.34-8.24-.51-9.29-2.87-18.18-6.66-26.65-2.66-5.94-8.88-7-12.82-1.82-2.17 2.86-2.84 6.86-3.92 9.64zm12.236-95.71c-1.35-6.05-2.35-12.2-4.14-18.12-1.33-4.39-4.69-7.24-9.42-8.22-6.34-1.3-10.13 1.47-9.93 7.85.29 9.85 2.82 19.26 6.94 28.16 2.47 5.34 7.59 6.12 12.01 2.19 3.54-3.14 3.86-7.36 4.52-11.86zm-107.51 25.24l.92-.25c-1.74-6.83-2.93-13.87-5.39-20.43-2-5.34-7.67-7.65-12.95-6.66-2.89.54-5.17 1.83-5.29 5.26-.39 11.62 2.49 22.49 7.92 32.66 1.57 2.95 5.06 3.44 8.28 1.93 5.34-2.51 6.34-7.28 6.49-12.49zm136.01 55.48c-.02-.16-.03-.33-.04-.5-3.84.34-7.74.32-11.49 1.09-6.88 1.4-10.48 7.73-7.31 12.97 2.47 4.09 6.56 6.21 11.5 6.35 7.86.22 15.03-1.87 21.31-6.62 1.33-1 2.53-2.46 3.22-3.97 2.28-5.05-1.4-10.37-6.79-10.02-3.47.22-6.94.47-10.41.71zm-39.01 69.36c7.39-.84 14.04-2.73 19.76-7.13 1.5-1.15 2.91-2.84 3.58-4.58 1.99-5.18-1.7-9.88-7.08-9.57-5.1.3-10.22.22-15.32.57-2.96.21-5.99.6-8.77 1.54-3.37 1.14-5.69 3.67-6 7.42-.31 3.7 1.33 6.78 4.47 8.45 2.88 1.54 6.2 2.24 9.33 3.32zm49.19-182.5h.19c0 4.97-.4 9.98.13 14.88.39 3.59 2.72 6.43 6.55 7.4 3.67.93 6.66-.52 9.04-3.17 6.51-7.25 3.6-27.99-4.59-33.21-3.28-2.09-6.72-1.33-9.54.5-1.25.81-1.54 3.51-1.73 5.4-.28 2.72-.07 5.48-.07 8.22zm7.12 43.43h.59c-.13-2.11-.07-4.25-.42-6.32-.95-5.5-4.17-8.994-8.3-9.31-4.47-.33-9.12 2.83-10.24 8.15-.91 4.286-1.34 9.02-.46 13.236.99 4.73 3.3 9.344 5.8 13.553 2.16 3.633 6 3.14 9.76 2.13 3.55-.96 3.24-3.538 3.24-6.14v-15.29zM231.13 424.4c0-4.606.31-9.238-.088-13.81-.413-4.768-3.925-8.303-7.878-8.83-3.774-.5-8.124 2.277-10.045 6.43-.26.566-.54 1.14-.68 1.74-2.3 9.673-.38 18.53 5.33 26.58.69.972 1.78 1.806 2.86 2.33 5.23 2.52 10.58-.89 10.52-6.597-.02-2.62 0-5.23 0-7.847zm141.183-84.72h-.242c0 1.996-.1 3.997.02 5.986.37 6.09 3.8 10.47 8.38 10.85 4.91.41 9.77-3.12 10.62-9.07.71-4.93.56-10.24-.49-15.1-.85-3.97-3.21-7.81-5.62-11.19-2.51-3.52-6.37-2.39-9.96-1.37-3.49.99-2.58 3.82-2.65 6.12-.14 4.6-.04 9.2-.04 13.8zm-106.8 26.772l-.663.015c.143 1.61.17 3.24.446 4.83.947 5.47 3.985 9.06 7.77 9.34 5.464.4 9.45-2.48 11.044-8.46 2.51-9.42.18-17.98-5.15-25.89-.48-.71-1.13-1.34-1.82-1.86-3.14-2.35-6.32-1.28-9.57-.13-2.95 1.04-1.94 3.46-1.99 5.37-.13 5.6-.05 11.2-.05 16.8zm95.493 36.494l.162.988c4.587-.89 9.49-1.04 13.692-2.837 6.63-2.835 6.952-11.004.943-15.072-1.797-1.217-4.024-2.16-6.16-2.452-8.527-1.17-16.3 1.084-23.31 5.986-1 .7-1.885 1.64-2.623 2.62-2.502 3.32-1.14 6.61.254 9.87 1.27 2.97 3.875 1.63 5.89 1.62 3.717-.02 7.432-.47 11.15-.73zm-98.43-84.93h.1c0-3.233.2-6.49-.048-9.704-.377-4.91-3.707-8.903-7.58-9.544-4.36-.72-9.01 1.968-10.563 7.054-1.096 3.592-1.47 7.57-1.314 11.34.25 6.076 2.37 11.71 6.22 16.51 2.42 3.02 5.83 3.276 10.24 1.867 3.84-1.23 2.82-4.17 2.92-6.72.13-3.6.04-7.21.04-10.81zm-7.24-41.22l-.545.02c.22 2.84.14 5.747.71 8.515.98 4.7 4.41 7.92 8.11 8.16 3.95.26 8.35-2.41 9.65-6.89 1.08-3.73 1.45-7.8 1.37-11.71-.12-5.84-2.27-11.2-5.7-15.94-2.49-3.43-5.95-3.92-10.75-2.32-4.01 1.34-2.72 4.49-2.8 7.13-.13 4.34-.03 8.69-.03 13.04z"/>
    <path fill="#F80E4A" d="M407.875 345.522c-8.82-.308-13.3-6.448-10.358-14.498 3.174-8.69 8.177-16.222 14.962-22.48.98-.91 2.99-.952 4.52-.953 1.03 0 2.09.74 3.09 1.22 11.34 5.43 13.27 12.59 5.63 22.49-3.23 4.19-7.11 7.95-11.09 11.44-1.74 1.52-4.48 1.89-6.77 2.79zm-136.213-37.876c-1.15-3.552 1.264-5.424 4.932-6.467 1.557-.45 3.082-1.01 4.655-1.38 8.31-1.95 13.94 1.23 15.42 9.61 1.05 5.93 1.54 12.15 1.01 18.12-.28 3.18-2.64 6.82-5.14 9.05-5.6 5-11.96 3.2-15.2-3.6-3.7-7.78-5.39-16.01-5.7-25.35zm39.62 135.827c1.052-8.492 6.608-12.643 14.146-10.305 8.94 2.773 16.956 7.208 23.57 13.878.954.963.877 2.95 1.263 4.468.03.1-.07.23-.11.35-4.45 12.742-11.52 18.55-24.83 8.538-3.07-2.31-6.41-4.487-8.83-7.387-2.27-2.726-3.5-6.326-5.19-9.542zm79.92-182.937c1.183-8.343 14.116-22.908 21.764-24.03 9.498-1.393 15.158 5.527 11.726 14.417-3.28 8.493-8.123 15.993-14.938 22.063-1.002.893-3.282 1.367-4.457.855-3.274-1.42-6.69-3.03-9.263-5.41-2.18-2.01-3.263-5.21-4.832-7.89zm-90.72 109.33c-8.595-.72-12.798-6.607-9.986-14.398 3.142-8.706 8.255-16.138 14.817-22.634 1.62-1.604 3.17-2.184 5.226-.907 3.15 1.958 6.63 3.502 9.45 5.854 3.72 3.12 4.64 7.54 2.46 11.88-3.39 6.73-7.8 12.83-14.19 17.05-2.29 1.52-5.17 2.13-7.79 3.16zm44.773-73.44c-.117.46-.357 1.94-.872 3.317-3.234 8.65-8.17 16.18-14.824 22.616-1.54 1.48-2.93 2.14-4.92 1.07-.98-.53-2.06-.88-3.06-1.38-11.61-5.81-13.25-12.62-5.21-22.84 2.98-3.79 6.27-7.43 9.94-10.53 3.86-3.27 8.61-3.67 13.39-1.72 3.71 1.51 5.65 4.5 5.53 9.45zm-96.22 167.89c-8.797-.604-13.034-6.52-10.054-14.505 3.23-8.65 8.32-16.1 14.9-22.57 1.57-1.54 3.07-1.93 4.94-.85 3.01 1.73 6.24 3.18 8.97 5.28 3.99 3.07 5.24 7.6 3.24 12.04-3.27 7.27-8.16 13.41-14.81 17.89-2.07 1.39-4.77 1.85-7.18 2.74zm157.06-239.213c-.907 10.59-8.84 19.434-18.46 19.62-1.41.027-3.296-.934-4.19-2.054-4.333-5.42-8.343-11.1-12.588-16.59-2.31-2.99-2.256-4.72.86-6.76 7.94-5.19 16.714-7.75 26.167-7.77 1.218-.01 3.057.95 3.548 1.97 1.797 3.74 3.145 7.69 4.662 11.57zm-73.497 23.964c2.736.625 4.66 1.214 6.627 1.486 5.17.716 10.346 1.402 15.54 1.895 4.658.442 5.738 1.698 4.648 6.24-2.082 8.68-6.107 16.346-12.395 22.7-.972.982-2.817 1.79-4.135 1.635-14.672-1.728-22.195-19.467-13.293-31.203.897-1.18 2.216-2.04 3.008-2.753zm83.742 118.225c-.453 2.19-.702 4.448-1.397 6.558-2.384 7.233-4.294 8.118-11.603 6.753-5.487-1.025-11.06-1.65-16.62-2.21-4.16-.418-5.32-1.703-4.388-5.796 2.017-8.854 6.185-16.604 12.5-23.085 1.04-1.067 3.332-1.704 4.825-1.413 9.63 1.88 16.372 9.91 16.683 19.19zm-80.03-33.532c.127-7 1.298-13.327 8.365-16.727 4.99-2.4 9.562-1.096 12.11 3.738 4.81 9.13 6.705 18.97 6.27 29.24-.037.9-.833 2.26-1.59 2.53-3.488 1.26-7.027 2.75-10.658 3.15-6.913.75-10.9-2.29-12.428-9.04-.96-4.23-1.4-8.58-2.07-12.88zm69.34-36.29c-.294 4.91-.83 9.545-4.266 13.347-5.952 6.586-13.706 5.437-17.336-2.587-3.81-8.42-5.535-17.25-5.335-26.5.044-2.037.59-3.32 2.597-3.876 3.224-.893 6.384-2.166 9.665-2.67 5.996-.918 10.616 2.1 12.106 8.002 1.18 4.68 1.74 9.518 2.57 14.285zm-156.63-92.225c-.024-5.84-.05-5.92 5.567-7.818 2.218-.75 4.56-1.334 6.885-1.523 6.55-.532 10.984 2.447 12.215 8.89 1.068 5.587 1.617 11.347 1.667 17.037.05 5.55-2.424 10.14-7.724 12.68-5.477 2.62-10.03 1.07-12.73-4.4-3.862-7.82-5.735-16.14-5.88-24.85zm108.484 234.428c-8.053-.462-13.217-3.32-15.383-8.995-1.74-4.57-.66-8.572 3.52-11.037 8.88-5.24 18.54-7.96 28.89-7.86.98.01 2.44.89 2.83 1.75 1.44 3.16 2.96 6.4 3.63 9.76 1.27 6.45-1.49 11.09-7.81 12.99-5.1 1.53-10.43 2.31-15.65 3.42zm-68.43 14.592c-2.174-.5-4.403-.833-6.51-1.534-6.534-2.17-7.067-3.56-6.1-10.36.77-5.4 1.015-10.89 1.205-16.34.18-5.19 1.31-6.28 6.31-5.36 8.01 1.48 15.05 4.98 21.68 9.67 3.25 2.3 3.73 4.69 2.79 8.27-2.35 8.94-10.32 15.44-19.39 15.67zm-70.23-167.835c.203-.97.447-3.098 1.1-5.092 2.336-7.15 4.364-8.11 11.65-6.75 5.475 1.022 11.036 1.643 16.58 2.224 4.042.423 5.353 1.903 4.463 5.847-2.053 9.09-6.902 16.73-12.714 23.8-.664.81-2.465 1.15-3.646.99-9.874-1.3-17.412-9.99-17.433-21.03zm-14.327 48.418c.095-1.08.124-1.58.186-2.074.87-7.003 12.445-20.262 19.285-22.12 3.99-1.084 7.732-.456 11.044 1.93 3.037 2.186 4.183 5.345 3.135 8.94-2.977 10.2-8.686 18.723-16.477 25.873-.554.508-1.674.955-2.297.743-5.49-1.87-10.814-4.104-13.776-9.57-.687-1.266-.845-2.82-1.1-3.722zm23.267 29.162c-1.058 8.974-14.292 23.52-22.637 24.46-8.802.993-14.064-5.648-11.022-13.956 3.19-8.714 8.203-16.268 15.03-22.522.98-.896 3.264-1.326 4.47-.828 3.193 1.318 6.52 2.826 9.044 5.09 2.23 2.003 3.45 5.128 5.11 7.757zm81.574 27.503c-.387 2.073-.582 4.204-1.194 6.208-2.268 7.44-4.537 8.52-12.113 7.06-5.22-1-10.56-1.47-15.86-2.02-4.6-.47-5.79-1.82-4.71-6.29 2.11-8.64 6.17-16.31 12.38-22.68 1.01-1.03 3.09-1.68 4.55-1.49 9.26 1.19 16.67 9.85 16.96 19.23zm46.666-208.836c-.383-7.364-.287-7.638 6.104-9.7 2.347-.756 4.852-1.226 7.313-1.38 5.17-.323 9.12 2.11 10.61 7.136 2.11 7.083 3.59 14.438 1.73 21.77-.75 2.948-2.59 6.038-4.83 8.108-5.46 5.07-12.11 3.53-15.34-3.2-3.55-7.4-5.41-15.26-5.58-22.72zm67.18 218.695c-.053 10.064-7.412 18.228-17.423 18.984-1.37.104-3.33-.834-4.21-1.936-4.49-5.626-8.67-11.493-13.04-17.213-1.81-2.376-1.69-4.367.83-5.992 8.16-5.27 17.08-8.14 26.83-7.967 1.12.02 2.8.9 3.23 1.836 1.78 3.886 3.18 7.946 4.71 11.943-.3.113-.6.23-.9.345zm-167.084-31.76c.206 6.93.065 7.366-6.727 9.238-2.937.81-6.125 1.063-9.185.986-3.703-.093-6.427-2.387-7.627-5.755-2.71-7.61-3.89-15.47-2.22-23.52.8-3.86 2.99-6.83 6.45-8.78 5.5-3.09 10.69-1.62 13.48 4.04 3.69 7.49 5.63 15.45 5.84 23.81zm11.818 30.733c-1.18 9.492-7.965 17.384-16.926 18.99-2.775.496-4.686-.07-6.466-2.794-3.585-5.48-7.738-10.61-11.816-15.76-2.415-3.05-2.353-4.91.955-7.03 7.86-5.04 16.55-7.49 25.837-7.68 1.225-.02 3.127.95 3.602 1.97 1.847 4 3.247 8.2 4.814 12.32zm61.522-177.718c-.513 7.44-3.655 13.174-10.094 16.992-1.79 1.06-3.224 1.06-5.112-.13-5.988-3.76-12.128-7.28-18.25-10.82-2.962-1.71-3.534-3.49-1.52-6.41 5.373-7.8 12.49-13.54 21.174-17.25 1.036-.45 2.772-.3 3.73.3 6.382 3.98 9.604 9.9 10.072 17.3zm-39.428 13.013c2.62-.788 4.216 1.18 5.646 3.826 6.886 12.74-.365 27.75-14.31 29.635-2.845.39-4.398-.51-5.955-3.05-3.093-5.03-6.544-9.89-10.3-14.46-3.84-4.66-3.827-5.99 1.463-9.12 7.007-4.14 14.635-6.15 23.456-6.82zm72.633-8.02c-1.174 3.312-1.732 7.047-3.652 9.85-3.804 5.554-11.004 4.874-13.18-1.42-2.826-8.177-4.837-16.673-6.618-25.153-.718-3.416-1.34-7.668 3.178-9.74 4.222-1.94 10.47-.865 13.158 3.227 2.39 3.632 3.93 7.96 5.13 12.184.97 3.423.88 7.148 1.26 10.74l.73.31zm-107.53 22.684c-.407 6.298-.917 10.608-5.015 13.427-3.915 2.7-8.26 2.34-10.347-1.64-5.042-9.61-7.623-20.01-7.663-30.86-.018-4.8 3.363-7.14 8.277-6.68 6.217.59 10.13 4.32 11.694 10.01 1.58 5.73 2.3 11.68 3.06 15.75zM418.22 350.24c1.117-2.904 1.748-6.514 3.685-9.172 3.862-5.297 10.94-4.54 12.978 1.602 2.88 8.68 5.258 17.624 6.76 26.637 1.243 7.448-3.892 10.904-11.255 8.6-4.742-1.482-7.562-5.005-8.72-9.484-1.485-5.747-2.252-11.68-3.448-18.182zM289.215 479.858c-7.25-.012-10.574-4.792-8.23-11.378.974-2.736 3.118-5.717 5.57-7.146 8.075-4.705 17.07-6.264 26.317-4.987 2.202.304 4.586 2.08 6.122 3.844 3.177 3.66 2.47 8.13-1.71 10.55-8.978 5.2-18.83 7.86-28.07 9.13zm22.128-105.126c1.078-2.784 1.75-6.783 3.924-9.64 3.935-5.175 10.16-4.118 12.82 1.82 3.79 8.467 6.15 17.364 6.66 26.647.44 7.93-4.9 11.41-12.337 8.23-4.358-1.87-6.888-5.43-7.94-9.8-1.272-5.3-1.973-10.73-3.127-17.27zm12.237-95.71c-.655 4.5-.976 8.713-4.52 11.86-4.42 3.926-9.542 3.14-12.013-2.19-4.128-8.906-6.654-18.31-6.95-28.16-.19-6.39 3.6-9.16 9.932-7.852 4.72.976 8.08 3.83 9.41 8.223 1.79 5.918 2.79 12.07 4.13 18.12zm-107.503 25.245c-.147 5.207-1.155 9.975-6.496 12.49-3.21 1.515-6.7 1.025-8.27-1.924-5.43-10.167-8.31-21.036-7.92-32.657.12-3.428 2.4-4.72 5.29-5.26 5.29-.99 10.95 1.323 12.95 6.663 2.46 6.56 3.65 13.6 5.39 20.43l-.92.25zm136.013 55.48c3.47-.238 6.938-.49 10.408-.71 5.39-.34 9.073 4.975 6.787 10.026-.684 1.51-1.892 2.967-3.22 3.97-6.28 4.747-13.447 6.84-21.308 6.62-4.94-.136-9.03-2.256-11.5-6.348-3.17-5.25.435-11.57 7.31-12.974 3.744-.76 7.65-.74 11.48-1.08l.043.5zm-39.01 69.36c-3.128-1.07-6.45-1.78-9.33-3.314-3.142-1.674-4.785-4.746-4.477-8.448.313-3.755 2.634-6.286 5.997-7.422 2.784-.94 5.818-1.33 8.772-1.536 5.093-.356 10.215-.278 15.313-.572 5.378-.31 9.068 4.392 7.076 9.575-.67 1.744-2.08 3.43-3.58 4.586-5.72 4.402-12.37 6.29-19.76 7.13z"/>
    <path fill="#F80E4A" d="M362.27 246.603c0-2.742-.207-5.504.07-8.217.195-1.893.488-4.59 1.73-5.397 2.815-1.84 6.26-2.59 9.537-.5 8.196 5.22 11.1 25.96 4.59 33.21-2.377 2.64-5.37 4.09-9.044 3.17-3.83-.97-6.163-3.82-6.553-7.4-.534-4.91-.134-9.92-.134-14.88h-.196zm7.124 43.425c0 5.096.003 10.19 0 15.287-.003 2.605.308 5.18-3.245 6.138-3.77 1.015-7.61 1.507-9.77-2.13-2.51-4.21-4.81-8.825-5.81-13.557-.89-4.212-.46-8.95.45-13.23 1.13-5.32 5.78-8.486 10.24-8.15 4.13.31 7.35 3.81 8.3 9.308.35 2.072.29 4.216.42 6.327l-.6.01zm-138.26 134.367c.002 2.614-.02 5.228.007 7.842.06 5.706-5.29 9.115-10.51 6.596-1.08-.523-2.17-1.357-2.86-2.33-5.7-8.05-7.63-16.907-5.32-26.58.15-.6.43-1.173.69-1.738 1.92-4.153 6.27-6.932 10.05-6.43 3.96.526 7.47 4.06 7.88 8.83.4 4.572.09 9.205.09 13.81zm141.183-84.72c0-4.6-.097-9.204.04-13.8.07-2.303-.836-5.13 2.656-6.12 3.587-1.018 7.444-2.15 9.962 1.377 2.415 3.38 4.767 7.225 5.624 11.194 1.04 4.863 1.19 10.166.49 15.1-.85 5.958-5.72 9.484-10.63 9.078-4.57-.378-8-4.763-8.38-10.844-.12-1.988-.02-3.99-.02-5.986h.24zm-106.8 26.772c0-5.6-.09-11.204.047-16.802.047-1.915-.957-4.332 1.99-5.372 3.254-1.147 6.43-2.22 9.576.132.69.516 1.348 1.15 1.827 1.86 5.333 7.902 7.668 16.47 5.158 25.888-1.595 5.985-5.58 8.86-11.046 8.467-3.79-.273-6.83-3.866-7.77-9.334-.28-1.586-.31-3.215-.45-4.825.22 0 .44-.01.66-.01zm95.493 36.493c-3.717.268-7.432.71-11.15.732-2.014.01-4.62 1.347-5.89-1.624-1.395-3.26-2.757-6.548-.255-9.874.738-.98 1.622-1.927 2.622-2.626 7.01-4.902 14.783-7.155 23.31-5.985 2.137.293 4.364 1.235 6.16 2.452 6.01 4.068 5.69 12.236-.942 15.072-4.2 1.796-9.104 1.948-13.693 2.837l-.162-.984zm-98.43-84.93c0 3.603.1 7.208-.032 10.805-.093 2.545.927 5.487-2.916 6.714-4.415 1.4-7.82 1.15-10.242-1.87-3.85-4.8-5.963-10.44-6.214-16.51-.156-3.77.218-7.75 1.314-11.34 1.55-5.09 6.204-7.78 10.56-7.06 3.876.64 7.206 4.63 7.582 9.54.246 3.22.047 6.47.047 9.71h-.1zm-7.24-41.223c0-4.346-.095-8.695.034-13.038.08-2.64-1.214-5.8 2.8-7.14 4.795-1.6 8.26-1.12 10.75 2.32 3.434 4.73 5.583 10.1 5.705 15.94.08 3.9-.29 7.98-1.37 11.71-1.3 4.48-5.7 7.14-9.65 6.89-3.7-.24-7.14-3.46-8.11-8.16-.58-2.77-.5-5.67-.71-8.52l.54-.02z"/>
    <path id="pomegranate_9_" fill="#0C0D11" d="M625.76 597.14c-2.575 2.328-4.61 5.342-7.4 7.33-9.108 6.494-18.81 2.16-20.434-8.874-.286-1.947-.24-3.007 2.45-3.15 8.787-.47 16.284-3.706 20.88-11.73 2.79-4.87 3.677-10.062 1.38-15.404-2.88-6.693-10.21-8.96-18.574-5.86-12.826 4.754-22.426 20.543-20.83 36.05.56 5.456-1.68 8.256-5.41 10.59-1.898 1.186-4.49 1.262-6.77 1.84-.282-2.238-1.136-4.58-.75-6.695 2.035-11.134 4.41-22.206 6.596-33.313.355-1.805 1.126-2.378 3.006-2.377 5 .003 6.372-1.46 7.183-7.1-1.758 0-3.52-.156-5.24.036-2.787.31-3.086-.922-2.543-3.252.932-3.99 1.588-8.05 2.5-12.05.39-1.7.205-2.34-1.733-1.92-3.76.82-7.56 1.5-11.35 2.21-1.89.36-2.93 1.16-3.19 3.36-.38 3.32-1.29 6.59-2.1 9.84-.16.66-.97 1.74-1.33 1.69-5.82-.9-5.47 3.71-6.92 7.14.93.05 1.43.08 1.93.09 4.6.09 4.55.08 3.61 4.59-1.39 6.7-2.92 13.38-4.01 20.14-1.22 7.59-5.12 13.17-11.78 16.72-1.54.82-4.03 1.2-5.41.48-.94-.48-1.23-3.33-.92-4.95 2.71-13.92 5.53-27.82 8.57-41.67.55-2.5-.15-2.65-2.18-2.63-8.62.07-17.25-.14-25.87.09-7.83.21-14.61 3.19-19.72 9.24-7.68 9.11-10.88 19.93-10.14 31.59.3 4.79-1.65 6.87-5.18 8.6-3.96 1.95-5.93.6-5.65-3.86.1-1.48.38-2.96.64-4.43 1.49-8.33 3.26-16.62 4.46-25 1.81-12.63-7.44-19.67-19.12-14.69-2.26.97-4.27 2.52-6.42 3.75-.92.54-1.91.95-2.88 1.42.12-1.01.03-2.1.38-3.02.98-2.66.55-3.86-2.65-3.56-2.97.28-6.01.27-8.98 0-2.604-.23-3.36.87-3.804 3.21-2.05 10.75-4.26 21.48-6.425 32.21-1.44 7.15-6.14 11.48-12.57 14.13-2.91 1.2-4.574-.05-4.64-3.14-.02-1.1.15-2.23.38-3.32 2.82-13.39 5.66-26.77 8.508-40.15.41-1.932.45-3.14-2.33-3.08-8.62.21-17.25-.09-25.87.14-6.804.187-12.93 2.53-17.81 7.45-9.31 9.37-12.65 21.176-12.06 33.847.55 11.796 10.69 18.22 21.813 14.146 4.83-1.77 9-5.326 13.36-8 3.02 7.133 6.01 9.52 12.08 9.08 6.22-.45 11.225-3.59 16.46-7.99-.43 1.82-.61 2.784-.88 3.717-.84 2.84-.08 4.094 3.13 3.77 2.72-.27 5.53-.355 8.23.024 3.5.49 4.41-1.31 4.92-4.19 1.73-9.684 3.66-19.33 5.33-29.024.965-5.63 3.94-9.92 8.27-13.33 2.3-1.81 5.24-4.516 7.865-2.3 1.398 1.176 1.028 5.068.64 7.608-1.275 8.36-3.162 16.63-4.37 25-1.275 8.86 3.088 15.68 10.51 16.73 5.377.76 10.046-1.45 14.11-4.78 1.89-1.544 2.928-2.17 4.96.168 3.49 4.02 8.32 5.17 13.61 4.51 7-.884 12.19-4.69 16.79-10.4 2.46 9.18 8.13 12.69 16.61 9.5 5.217-1.95 9.84-5.48 14.62-8.24 3.55 8.986 8.62 11.77 17.65 8.097 4.5-1.83 8.48-4.95 12.82-7.57 4.797 8.58 12.96 9.74 22.24 8.39 11.666-1.7 17.957-9.655 22.757-19.64-1.88.36-3.63 1.065-4.94 2.25zm-27.237-12.988c1.573-5.967 3.63-11.635 7.962-16.2.93-.978 2.007-1.88 3.167-2.565 4.014-2.37 6.098-1.15 6.108 3.477.02 9.11-6.808 17.373-14.75 17.96-2.11.157-3.204.046-2.487-2.672zm-191.065-12.174c-1.787 7.492-3.055 15.108-4.562 22.668-.804 4.032-8.943 11.824-12.973 12.55-2.423.437-4.35-.337-5.107-2.634-.917-2.785-1.387-5.716-2.05-8.584.822-8.99 2.745-17.43 8.01-24.725 1.774-2.456 4.206-4.54 6.652-6.374 2.255-1.7 4.952-1.62 7.32.1 2.363 1.71 3.494 3.71 2.71 6.99zm121.842-.47c-1.407 6.947-2.835 13.89-4.102 20.86-1.288 7.088-6.302 11.114-11.962 14.38-3.138 1.813-5.8.44-6.99-3.14-.813-2.448-1.093-5.073-1.374-6.458.8-11.08 2.845-20.543 9.562-28.18 1.94-2.207 4.783-4.12 7.575-4.962 4.35-1.313 8.19 3.026 7.29 7.5zm-263.29 67.828c3.08-3.253 6.002-6.436 9.07-9.47.44-.434 1.696-.404 2.4-.135 1.374.53 2.575 1.5 3.937 2.07 5.04 2.13 7.19.92 8.258-4.42 1.288-6.43 2.647-12.85 3.65-19.61-5.67 4.21-11.436 7.55-18.713 6.86-7.727-.73-12.02-5.34-14.427-12.77-5.317 6.91-11.415 11.78-20.124 12.83-8.52 1.03-15.95-.17-21.21-7.95-4.63 4.03-9.45 7.53-15.78 7.83-8.75.41-14.05-5.11-12.72-13.82 1.44-9.46 3.53-18.83 5.06-28.29.39-2.38-.24-4.92-.4-7.39-2.18 1.22-4.68 2.1-6.47 3.74-5.04 4.62-6.62 10.9-7.66 17.41-1.38 8.61-3.09 17.16-4.44 25.77-.32 2.05-1.2 2.42-2.93 2.39-3.24-.06-6.51-.19-9.74.02-2.53.17-2.61-1.1-2.28-2.94 2.35-12.98 4.78-25.95 6.95-38.96.38-2.26-.38-4.71-.62-7.07-2.28.91-4.95 1.34-6.76 2.82-3.38 2.79-5.74 6.35-6.59 10.96-2 10.89-4.41 21.7-6.51 32.56-.39 2.03-1.14 2.71-3.18 2.62-3.24-.15-6.5-.17-9.74.03-2.6.16-3.24-.71-2.7-3.2 2.23-10.46 4.34-20.94 6.48-31.43.12-.59.09-1.22.16-2.15-3.38 2.05-6.57 3.85-9.6 5.89-.63.43-.81 1.68-1 2.6-2.54 12.29-8.32 22.198-20.51 27.05-15.85 6.31-29.98-3.64-29.63-20.68.31-14.603 11.13-28.94 25.04-33.06 12.13-3.6 24.85.42 26.19 16.83.61-.2 1.18-.44 1.77-.57 6.62-1.48 10.84-4.94 10.81-12.33-.02-3.65 1.55-5.66 5.72-4.964 2.43.41 5 .24 7.48.026 3.08-.27 3.84.81 2.7 3.61-.31.77-.23 1.7-.4 3.15 4.58-3.68 8.85-6.91 14.65-6.93 6.81-.03 9.7 4.11 10.91 10.263 2.38-2.14 4.37-4.19 6.62-5.88 1.88-1.4 3.96-2.67 6.14-3.49 7.98-2.98 14.41 1.17 14.19 9.66-.17 6.55-1.42 13.09-2.41 19.6-.67 4.428-1.76 8.78-2.582 13.18-.787 4.15.9 5.82 4.94 4.59 1.96-.6 4.16-1.58 5.39-3.09.963-1.195.86-3.48.79-5.26-.59-14.273 3.09-26.803 15.274-35.38 3.11-2.18 7.22-3.48 11.037-4.02 10.16-1.44 16.06 7.025 13.81 16.895-2.26 9.89-10.21 16.12-22.32 17.11-3.31.278-3.45 1.21-2.91 3.97 2.002 10.31 10.85 14.366 19.61 8.56 5.384-3.57 9.33-7.95 10.14-15.21.64-5.756 2.963-11.595 5.7-16.786 4.98-9.45 13.053-14.94 24.062-15.15 8.99-.172 17.99-.09 26.99-.17 1.56-.013 2.31.3 1.92 2.11-4.23 19.44-8.4 38.9-12.63 58.34-.347 1.57-.99 3.08-1.6 4.578-7.078 17.16-21.13 23.27-39.2 16.73zm-151.944-64.552l.393.532-.1-.852c-.91-2.012-1.53-4.237-2.79-5.994-3.18-4.41-7.5-4.55-10.8-.21-1.77 2.324-3.04 5.136-4.03 7.907-2.78 7.728-4.09 15.688-2.08 23.826.86 3.505 2.68 6.597 6.66 7.276 3.73.63 6.37-1.59 7.85-4.55 2.03-4.07 3.37-8.47 5.08-12.71 1.15-2.84.72-4.52-2.64-5.34-2.1-.51-3.99-1.96-5.89-3.12-.45-.28-.98-1.34-.81-1.59 1.53-2.27 3.01-4.66 4.99-6.49.53-.49 2.71.8 4.14 1.28zm161.984 19.312c.598 3.265.908 6.618 1.882 9.767.84 2.716 3.38 4.092 5.975 2.875 5.857-2.748 10.885-6.747 12.538-13.333 1.87-7.454 2.932-15.11 4.745-22.582.702-2.893.324-5.27-2.096-6.403-2.123-.995-5.1-1.66-7.154-.933-2.506.887-4.83 3.073-6.555 5.238-5.85 7.346-8.257 16.015-9.335 25.37zm-27.117-24.9c-.59-1.547-.91-4.173-1.826-4.4-1.625-.403-3.627.593-5.435 1.13-.553.163-1.02.7-1.467 1.13-5.146 4.94-7.458 11.323-8.95 18.06-.085.39 1.388 1.626 2.122 1.614 8.112-.126 14.93-8.064 15.556-17.535zM68.686 531.23c-10.18-2.02-19.847-.265-29.048 4.204-14.86 7.216-22.41 19.674-21.515 34.953.116 1.984.445 2.802 2.564 1.757 3.68-1.815 7.48-3.39 11.12-5.28.66-.344 1.327-1.916 1.08-2.58-4.516-12.076 1.366-20.713 13.772-25.1-.1 1.062-.1 2.027-.29 2.953-4.74 23.145-9.45 46.295-14.31 69.412-.5 2.34-.05 2.87 2.18 2.78 3.24-.13 6.52-.29 9.73.03 2.85.28 3.62-1.07 4.08-3.44 1.65-8.55 3.5-17.05 5.07-25.61.38-2.05 1.07-2.73 3.15-3.25 12.71-3.22 22.91-9.85 27.92-22.54 5.23-13.25-1.67-25.56-15.53-28.31zm-9.65 42.385c-.942.667-2.144.968-3.89 1.728 1.562-8.098 2.97-15.486 4.417-22.868.904-4.62 1.94-9.215 2.758-13.85.32-1.764.72-2.255 2.63-1.62 4.75 1.576 8.02 5.252 7.81 10.592-.41 10.756-4.76 19.676-13.72 26.018zm284.757-5.422c8.074-11.398 17.918-12.76 29.635-5.767-3.315 2.78-6.39 5.475-9.627 7.96-.5.386-1.86.06-2.6-.34-3.11-1.67-6.29-1.85-9.26-.08-6.03 3.593-10.92 8.26-12.38 15.514-1.72 8.53-3.38 17.074-4.94 25.636-.42 2.312-1.22 3.416-3.82 3.227-3.48-.253-6.99-.104-10.48-.01-1.91.05-2.27-.574-1.89-2.446 3.51-17.043 6.93-34.105 10.34-51.17.36-1.773 1.13-2.475 3.01-2.387 3.37.156 6.76.21 10.11-.024 2.73-.19 2.81 1.153 2.41 3.142-.39 1.982-.75 3.973-1.12 5.96l.65.785zm-.258.056l-.242-.27c-.08.16-.188.31-.226.48-.014.06.137.16.213.24l.255-.47z"/>
    <path fill="none" stroke="#231F20" d="M0 0h648.75v660.75H0z"/>
    <g fill="none" stroke="#231F20">
      <path d="M249.5 43.085l2.9 1c9.455 4.516 17.54 10.827 24.354 18.8.59.69 1.428 1.168 2.15 1.745l.74-3.058c1.296-3.877 2.76-7.708 3.857-11.642 2.41-8.62 4.58-17.3 6.95-25.93.41-1.494 1.28-2.862 1.94-4.29 1.15.992 2.28 1.995 3.45 2.966.37.306.81.524 1.22.782 16.08 12.385 25.29 29.413 32.73 47.955l1.36-9.385c2.94-13.272 8.37-25.335 17.6-35.46 3.58-3.924 7.67-7.433 13.26-7.707 2.39-.11 4.85 1.08 7.27 1.68-.47 1.93-.87 3.88-1.41 5.78-2.45 8.75-2.41 17.53.03 26.21.63 2.23 2.4 4.26 4.03 6.04 1.18 1.29 2.52.88 2.84-1.12 6.54-4.71 13.03-9.5 19.65-14.09 1.69-1.17 3.82-1.69 5.73-2.51.85.2 1.72.39 2.6.58l1.18 2.34c.13 2.07.26 4.14.38 6.2.58 10.83-3.85 20.18-8.86 29.29-4.55 8.3-9.78 16.24-13.96 24.71-12.89 26.14 1.68 46.04 21.97 55.79.28 0 .47.12.57.38-.01 0 .22.09.22.09.34.23.67.45.99.67l5.93 3.03c11.48 4.68 22.97 9.33 34.43 14.06 1.227.51 2.26 1.48 3.357 2.22l3.82 1.98.96.56c.22.03.417.11.58.25.29-.02.473.11.554.39.69.69 1.31 1.47 2.087 2.06 13.46 10.15 23.95 22.89 32.586 37.25 14.74 24.51 25.51 50.85 35.236 77.61 8.51 23.44 12.45 47.53 8.8 72.53-2.84 19.45-8.87 37.89-17.2 55.61-13.55 28.82-33.05 52.48-60.37 69.33-21.47 13.25-44.91 21.61-69.08 28.35-18.853 5.26-37.354 5.58-55.94-1.16-16.05-5.81-32.743-7.61-49.78-7.15-11.98.32-23.99.34-35.97.01-11.32-.31-22.25-2.85-32.68-7.39-14.41-6.28-27.03-15.47-39.82-24.39-1.175-.82-2.593-1.296-3.9-1.932l.08.06-1.53-.85.04.038-1.57-1.52.063.05-2.29-1.58.05.05-.81-.81.053.058c-.27-.264-.54-.532-.81-.8l.06.06-.82-.807.088.06-1.52-.835c-24.69-19.4-38.84-44.81-44.31-75.64-7.18-40.44-6.48-80.52 3.75-120.33 7.53-29.31 19.09-56.8 38.62-80.3 19.52-23.51 43.69-39.51 74.33-44.88 9.81-1.72 19.52-4.18 28.17-9.58 14.59-9.1 19.84-22.61 15.3-39.26-2.8-10.25-8.28-19.17-13.51-28.26-3.59-6.232-6.56-12.83-9.8-19.26-2.3-5.29-4.35-10.633-2.923-16.59zm47.106 86.832c-.06.706-.128 1.41-.182 2.117-1.155 15.278-12.147 28.23-27.074 31.626-4.492 1.022-9.088 1.61-13.654 2.277-37.762 5.507-65.963 25.105-84.9 58.025-8.644 15.024-13.203 31.747-18.86 48-9.273 26.652-15.446 53.866-12.898 82.256 1.772 19.747 4.535 39.415 7.234 59.067 1.533 11.16 6.515 20.878 14.21 29.19 11.03 11.92 22.037 23.862 32.965 35.875 11 12.092 24.478 19.793 40.622 22.138 23.08 3.352 46.17 6.812 69.38 9.05 24.83 2.393 49.43.088 73.1-8.5 25.62-9.297 46.7-24.458 59.75-48.952 14.71-27.618 22.69-57.344 24.12-88.518.94-20.562.42-41.213-.07-61.81-.45-18.47-1.46-36.953-5.74-55.05-7.14-30.167-23.45-53.216-52.21-66.285-7.15-3.246-14.74-5.5-22.01-8.485-4.38-1.796-8.79-3.726-12.73-6.296-11.07-7.22-18.13-16.957-17.45-30.806-16.91 4.446-31.35 12.775-43.71 26.135-.99-11.74-3.74-21.84-9.91-31.05z"/>
      <path id="shadow_7_" d="M168.766 484.038c1.306.636 2.723 1.112 3.9 1.933 12.788 8.93 25.406 18.12 39.818 24.4 10.43 4.55 21.36 7.08 32.68 7.4 11.984.33 23.99.31 35.975-.01 17.03-.45 33.73 1.34 49.78 7.16 18.58 6.74 37.08 6.42 55.94 1.16 24.17-6.74 47.6-15.09 69.08-28.34 27.32-16.85 46.82-40.51 60.37-69.33 8.33-17.72 14.36-36.15 17.2-55.61 3.64-25-.29-49.08-8.81-72.52-9.73-26.76-20.5-53.1-35.24-77.61-8.64-14.36-19.13-27.1-32.59-37.24-.77-.58-1.4-1.36-2.09-2.05 11.55 6.6 21.17 15.41 29 26.06 26.1 35.5 42.14 75.69 53.41 117.84 7.22 27.01 4.05 53.9-4.51 80.25-9.82 30.23-24.55 57.5-48.27 79.23-19.17 17.55-41.82 29.13-66.13 37.65-14.32 5.02-28.79 9.52-43.92 11.6-12.31 1.69-24.18-.19-35.65-4.27-19.86-7.08-40.27-8.48-61.11-7.53-16.71.77-33.44.86-49.73-4.12-10.58-3.23-20.25-8.33-29.39-14.39-9.35-6.2-18.41-12.83-27.56-19.32-.85-.6-1.47-1.51-2.19-2.27zm234.63-324.3c-20.296-9.757-34.867-29.655-21.974-55.793 4.178-8.47 9.408-16.416 13.96-24.71 5.006-9.115 9.446-18.46 8.865-29.29-.11-2.067-.25-4.133-.375-6.2.808-.314 1.66-.547 2.41-.96 1.755-.964 2.35-.534 2.93 1.464 2.717 9.33 1.545 18.39-2.443 26.93-3.73 7.98-8.22 15.61-12.57 23.29-4.55 8.03-9.1 16.05-10.78 25.25-2.4 13.18 2.3 24 11.67 33.04 2.59 2.5 5.52 4.64 8.29 6.95zM331.123 62.03l-1.356 9.384c-7.44-18.542-16.648-35.57-32.727-47.955.543-1.5 1.27-2.56 2.94-1.17 2.647 2.2 5.684 4.09 7.84 6.7 5.857 7.09 11.49 14.38 16.895 21.81 2.514 3.46 4.296 7.45 6.41 11.21zm43.6-4.59c-.317 1.995-1.658 2.406-2.836 1.118-1.624-1.777-3.397-3.808-4.026-6.036-2.44-8.675-2.48-17.46-.03-26.202.54-1.908.94-3.853 1.41-5.78 6.72 1.226 6.85 1.264 4.93 7.736-2.91 9.81-2.55 19.5.56 29.164zm-95.08 4.132l-.74 3.058c-.722-.577-1.56-1.055-2.15-1.745-6.813-7.973-14.9-14.284-24.353-18.8 10.726 3.29 19.57 9.477 27.244 17.487z"/>
      <path d="M411.106 163.893c-1.982-1.01-3.965-2.02-5.932-3.026 1.987 1.012 3.96 2.02 5.932 3.026zm-8.413-122.48c-.872-.19-1.745-.38-2.594-.58.88.188 1.73.383 2.59.58zm50.017 140.732c-1.28-.663-2.562-1.325-3.82-1.978 1.29.665 2.554 1.322 3.82 1.978zM165.793 481.76l1.563 1.52-1.563-1.52zm-2.227-1.525l2.29 1.574c-.763-.53-1.527-1.05-2.29-1.58zm-3.7-3.032c.507.28 1.013.56 1.52.838-.506-.27-1.012-.55-1.52-.83zm294.384-294.25c-.163-.142-.358-.226-.58-.25.247-.01.438.075.58.25zM167.318 483.245l1.526.85-1.526-.85zm-6.014-5.262l.82.804-.82-.804zm.756.747l.806.806-.806-.805zM404.19 160.2l-.227-.088c.004 0 .227.087.227.087zM162.81 479.477l.81.806-.81-.806zm133.796-349.56c6.173 9.207 8.923 19.308 9.91 31.055 12.355-13.36 26.802-21.69 43.705-26.135-.67 13.85 6.38 23.586 17.45 30.806 3.94 2.57 8.36 4.5 12.73 6.296 7.27 2.98 14.86 5.23 22.01 8.48 28.77 13.07 45.07 36.12 52.21 66.28 4.29 18.09 5.3 36.58 5.74 55.05.5 20.59 1.01 41.24.07 61.81-1.42 31.17-9.4 60.9-24.12 88.51-13.05 24.49-34.13 39.65-59.75 48.95-23.66 8.58-48.26 10.89-73.1 8.49-23.2-2.24-46.3-5.7-69.38-9.05-16.14-2.34-29.62-10.04-40.62-22.14-10.92-12.02-21.93-23.96-32.96-35.88-7.69-8.31-12.67-18.03-14.21-29.19-2.7-19.65-5.46-39.32-7.23-59.07-2.55-28.39 3.63-55.61 12.9-82.26 5.66-16.26 10.22-32.98 18.86-48 18.94-32.92 47.14-52.52 84.9-58.03 4.57-.67 9.17-1.26 13.66-2.28 14.93-3.4 25.92-16.35 27.08-31.63.06-.71.12-1.41.19-2.12zm111.27 215.605c2.285-.893 5.03-1.262 6.764-2.783 3.984-3.5 7.86-7.26 11.09-11.45 7.65-9.9 5.71-17.07-5.63-22.49-1.007-.49-2.063-1.22-3.096-1.22-1.534 0-3.54.04-4.526.95-6.784 6.25-11.788 13.79-14.962 22.48-2.94 8.05 1.54 14.19 10.36 14.5zM271.66 307.646c.316 9.333 2 17.57 5.7 25.343 3.236 6.8 9.6 8.59 15.195 3.59 2.495-2.23 4.85-5.87 5.132-9.05.526-5.98.04-12.19-1.013-18.13-1.487-8.38-7.117-11.56-15.428-9.61-1.574.37-3.1.93-4.656 1.38-3.668 1.04-6.082 2.91-4.932 6.47zm39.62 135.827c1.69 3.215 2.92 6.816 5.197 9.54 2.42 2.9 5.756 5.078 8.83 7.388 13.315 10.02 20.383 4.21 24.832-8.53.04-.12.14-.25.12-.35-.39-1.51-.31-3.5-1.27-4.46-6.61-6.67-14.63-11.1-23.57-13.88-7.54-2.33-13.1 1.82-14.15 10.31zm79.92-182.937c1.57 2.676 2.653 5.875 4.832 7.89 2.575 2.383 5.99 3.987 9.263 5.414 1.175.512 3.455.038 4.457-.855 6.815-6.07 11.66-13.57 14.938-22.063 3.432-8.89-2.228-15.81-11.726-14.417-7.648 1.123-20.58 15.69-21.764 24.03zm-90.72 109.33c2.612-1.028 5.493-1.646 7.783-3.16 6.39-4.22 10.8-10.322 14.185-17.05 2.182-4.336 1.267-8.76-2.46-11.875-2.815-2.35-6.3-3.89-9.45-5.85-2.057-1.27-3.607-.69-5.227.91-6.56 6.5-11.67 13.93-14.81 22.64-2.81 7.79 1.39 13.68 9.99 14.4zm44.773-73.44c.117-4.947-1.822-7.935-5.534-9.45-4.78-1.952-9.53-1.546-13.39 1.72-3.67 3.1-6.97 6.746-9.95 10.53-8.05 10.217-6.4 17.024 5.2 22.836 1 .5 2.07.844 3.06 1.373 1.98 1.068 3.37.405 4.91-1.076 6.65-6.44 11.59-13.97 14.82-22.62.51-1.38.75-2.86.87-3.32zm-96.22 167.89c2.41-.886 5.11-1.346 7.18-2.74 6.646-4.474 11.538-10.617 14.808-17.888 2-4.44.75-8.965-3.24-12.036-2.72-2.1-5.95-3.547-8.96-5.274-1.87-1.075-3.36-.69-4.93.854-6.58 6.476-11.67 13.928-14.9 22.58-2.98 7.984 1.26 13.9 10.06 14.505zm157.06-239.213c-1.518-3.876-2.866-7.832-4.663-11.574-.49-1.03-2.33-1.98-3.548-1.98-9.453.02-18.228 2.58-26.166 7.77-3.117 2.04-3.172 3.77-.86 6.76 4.243 5.49 8.254 11.16 12.586 16.58.895 1.12 2.782 2.08 4.192 2.05 9.62-.19 17.552-9.03 18.458-19.62zm-73.497 23.964c-.792.712-2.11 1.573-3.007 2.754-8.9 11.74-1.38 29.48 13.29 31.21 1.32.16 3.16-.65 4.13-1.63 6.28-6.35 10.31-14.02 12.39-22.7 1.09-4.54.01-5.8-4.65-6.24-5.19-.49-10.37-1.18-15.54-1.89-1.97-.27-3.9-.86-6.63-1.48zm83.742 118.225c-.31-9.282-7.052-17.314-16.683-19.194-1.493-.29-3.785.345-4.825 1.413-6.315 6.49-10.484 14.24-12.5 23.09-.932 4.1.226 5.38 4.39 5.8 5.558.56 11.13 1.19 16.618 2.21 7.31 1.37 9.22.48 11.603-6.75.7-2.11.95-4.36 1.4-6.55zm-80.03-33.532c.673 4.298 1.11 8.648 2.07 12.88 1.528 6.752 5.514 9.794 12.427 9.044 3.63-.394 7.17-1.888 10.658-3.145.758-.28 1.554-1.64 1.59-2.53.435-10.28-1.46-20.12-6.27-29.24-2.548-4.84-7.12-6.14-12.11-3.74-7.067 3.4-8.238 9.73-8.364 16.72zm69.34-36.29c-.833-4.767-1.39-9.605-2.57-14.284-1.49-5.9-6.11-8.92-12.106-8-3.28.502-6.44 1.775-9.665 2.668-2.008.556-2.553 1.84-2.598 3.876-.2 9.25 1.52 18.08 5.33 26.5 3.63 8.025 11.38 9.173 17.33 2.587 3.43-3.8 3.97-8.437 4.26-13.346zm-156.63-92.225c.145 8.712 2.018 17.027 5.88 24.853 2.698 5.467 7.252 7.026 12.73 4.404 5.3-2.537 7.773-7.126 7.724-12.67-.05-5.69-.6-11.45-1.667-17.04-1.23-6.44-5.665-9.42-12.215-8.888-2.324.19-4.668.773-6.885 1.523-5.617 1.9-5.59 1.977-5.568 7.818zm108.484 234.428c5.226-1.11 10.55-1.886 15.652-3.41 6.324-1.892 9.086-6.532 7.816-12.983-.663-3.37-2.192-6.6-3.626-9.76-.39-.858-1.847-1.734-2.823-1.744-10.35-.103-20 2.622-28.88 7.866-4.17 2.465-5.26 6.47-3.51 11.037 2.17 5.67 7.33 8.53 15.39 8.99zm-68.43 14.592c9.06-.228 17.035-6.727 19.383-15.667.94-3.577.453-5.97-2.795-8.27-6.63-4.692-13.672-8.187-21.682-9.67-5-.926-6.13.164-6.31 5.36-.19 5.46-.435 10.95-1.204 16.348-.97 6.8-.436 8.188 6.1 10.365 2.105.71 4.334 1.04 6.507 1.54zm-70.23-167.834c.02 11.04 7.56 19.73 17.433 21.03 1.18.16 2.98-.18 3.646-.99 5.82-7.07 10.66-14.71 12.72-23.8.89-3.94-.42-5.42-4.46-5.84-5.54-.58-11.1-1.2-16.58-2.22-7.28-1.36-9.31-.4-11.65 6.75-.65 2-.89 4.12-1.1 5.09zm-14.327 48.42c.255.91.413 2.46 1.1 3.73 2.962 5.47 8.287 7.7 13.776 9.57.63.22 1.75-.23 2.3-.74 7.79-7.15 13.5-15.67 16.48-25.87 1.05-3.59-.1-6.75-3.13-8.94-3.31-2.38-7.05-3.01-11.04-1.93-6.84 1.86-18.41 15.12-19.28 22.12-.06.5-.09 1-.18 2.08zm23.267 29.17c-1.666-2.63-2.886-5.75-5.115-7.75-2.526-2.26-5.852-3.77-9.044-5.09-1.207-.5-3.492-.07-4.47.83-6.828 6.26-11.84 13.81-15.03 22.52-3.043 8.31 2.22 14.95 11.02 13.96 8.346-.94 21.58-15.49 22.638-24.46zm81.574 27.51c-.286-9.38-7.704-18.04-16.958-19.22-1.457-.18-3.542.46-4.547 1.5-6.21 6.38-10.27 14.04-12.38 22.69-1.08 4.47.11 5.82 4.71 6.3 5.31.55 10.65 1.02 15.87 2.02 7.58 1.46 9.85.38 12.12-7.06.62-2 .81-4.13 1.2-6.2zm46.666-208.83c.164 7.46 2.023 15.32 5.58 22.73 3.236 6.74 9.88 8.27 15.345 3.21 2.232-2.07 4.08-5.16 4.827-8.11 1.86-7.33.38-14.68-1.727-21.77-1.495-5.02-5.445-7.45-10.61-7.13-2.46.16-4.965.63-7.312 1.38-6.39 2.07-6.486 2.34-6.104 9.7zm67.18 218.7l.904-.34c-1.537-3.99-2.934-8.05-4.712-11.94-.428-.93-2.107-1.81-3.226-1.83-9.755-.17-18.67 2.7-26.828 7.97-2.516 1.63-2.643 3.62-.826 5.99 4.374 5.72 8.558 11.59 13.047 17.21.88 1.1 2.84 2.04 4.22 1.94 10.01-.75 17.37-8.92 17.43-18.98zm-167.084-31.76c-.216-8.36-2.158-16.32-5.842-23.8-2.785-5.66-7.982-7.13-13.476-4.04-3.458 1.95-5.65 4.92-6.45 8.78-1.666 8.06-.484 15.92 2.23 23.53 1.2 3.37 3.924 5.66 7.626 5.76 3.06.08 6.247-.17 9.185-.98 6.8-1.87 6.94-2.3 6.73-9.23zm11.818 30.74c-1.567-4.12-2.967-8.32-4.815-12.31-.47-1.02-2.37-1.99-3.6-1.97-9.28.19-17.97 2.64-25.83 7.69-3.31 2.12-3.37 3.99-.95 7.04 4.08 5.15 8.23 10.28 11.82 15.77 1.78 2.73 3.69 3.29 6.47 2.8 8.96-1.6 15.75-9.49 16.93-18.99zm61.522-177.71c-.468-7.4-3.69-13.32-10.072-17.3-.958-.6-2.694-.74-3.73-.3-8.684 3.72-15.802 9.46-21.174 17.25-2.014 2.92-1.442 4.7 1.52 6.41 6.122 3.54 12.262 7.06 18.25 10.82 1.888 1.19 3.323 1.18 5.112.12 6.44-3.82 9.58-9.55 10.094-16.99zm-39.428 13.01c-8.822.67-16.45 2.68-23.457 6.83-5.29 3.13-5.303 4.47-1.463 9.13 3.756 4.57 7.207 9.43 10.3 14.46 1.557 2.54 3.11 3.44 5.954 3.06 13.947-1.88 21.198-16.89 14.31-29.63-1.427-2.65-3.024-4.61-5.644-3.83zm72.633-8.02l-.727-.31c-.38-3.59-.288-7.31-1.26-10.74-1.2-4.22-2.74-8.55-5.127-12.18-2.69-4.09-8.94-5.16-13.16-3.23-4.52 2.08-3.9 6.33-3.18 9.74 1.78 8.48 3.79 16.98 6.62 25.16 2.17 6.3 9.37 6.98 13.18 1.42 1.92-2.8 2.48-6.53 3.65-9.85zm-107.53 22.69c-.76-4.06-1.48-10.02-3.054-15.74-1.57-5.69-5.48-9.42-11.7-10.01-4.92-.46-8.3 1.88-8.28 6.68.04 10.85 2.62 21.25 7.66 30.86 2.08 3.98 6.43 4.34 10.34 1.65 4.09-2.82 4.6-7.13 5.01-13.43zm163.087 99.93c1.196 6.5 1.962 12.44 3.448 18.19 1.158 4.48 3.978 8 8.72 9.49 7.363 2.31 12.498-1.15 11.256-8.6-1.503-9.01-3.88-17.95-6.76-26.64-2.04-6.14-9.117-6.9-12.98-1.6-1.936 2.66-2.567 6.27-3.684 9.18zm-129.005 129.6c9.24-1.26 19.092-3.93 28.07-9.12 4.177-2.41 4.884-6.89 1.708-10.54-1.535-1.76-3.92-3.54-6.122-3.84-9.24-1.27-18.24.29-26.31 4.99-2.45 1.43-4.59 4.41-5.57 7.15-2.34 6.59.98 11.37 8.23 11.38zm22.128-105.12c1.154 6.54 1.855 11.97 3.13 17.27 1.05 4.37 3.58 7.93 7.938 9.79 7.44 3.18 12.78-.3 12.34-8.24-.51-9.29-2.87-18.18-6.66-26.65-2.66-5.94-8.88-7-12.82-1.82-2.17 2.86-2.84 6.86-3.92 9.64zm12.236-95.71c-1.35-6.05-2.35-12.2-4.14-18.12-1.33-4.39-4.69-7.24-9.42-8.22-6.34-1.3-10.13 1.47-9.93 7.85.29 9.85 2.82 19.26 6.94 28.16 2.47 5.34 7.59 6.12 12.01 2.19 3.54-3.14 3.86-7.36 4.52-11.86zm-107.51 25.24l.92-.25c-1.74-6.83-2.93-13.87-5.39-20.43-2-5.34-7.67-7.65-12.95-6.66-2.89.54-5.17 1.83-5.29 5.26-.39 11.62 2.49 22.49 7.92 32.66 1.57 2.95 5.06 3.44 8.28 1.93 5.34-2.51 6.34-7.28 6.49-12.49zm136.01 55.48c-.02-.16-.03-.33-.04-.5-3.84.34-7.74.32-11.49 1.09-6.88 1.4-10.48 7.73-7.31 12.97 2.47 4.09 6.56 6.21 11.5 6.35 7.86.22 15.03-1.87 21.31-6.62 1.33-1 2.53-2.46 3.22-3.97 2.28-5.05-1.4-10.37-6.79-10.02-3.47.22-6.94.47-10.41.71zm-39.01 69.36c7.39-.84 14.04-2.73 19.76-7.13 1.5-1.15 2.91-2.84 3.58-4.58 1.99-5.18-1.7-9.88-7.08-9.57-5.1.3-10.22.22-15.32.57-2.96.21-5.99.6-8.77 1.54-3.37 1.14-5.69 3.67-6 7.42-.31 3.7 1.33 6.78 4.47 8.45 2.88 1.54 6.2 2.24 9.33 3.32zm49.19-182.5h.19c0 4.97-.4 9.98.13 14.88.39 3.59 2.72 6.43 6.55 7.4 3.67.93 6.66-.52 9.04-3.17 6.51-7.25 3.6-27.99-4.59-33.21-3.28-2.09-6.72-1.33-9.54.5-1.25.81-1.54 3.51-1.73 5.4-.28 2.72-.07 5.48-.07 8.22zm7.12 43.43h.59c-.13-2.11-.07-4.25-.42-6.32-.95-5.5-4.17-8.994-8.3-9.31-4.47-.33-9.12 2.83-10.24 8.15-.91 4.286-1.34 9.02-.46 13.236.99 4.73 3.3 9.344 5.8 13.553 2.16 3.633 6 3.14 9.76 2.13 3.55-.96 3.24-3.538 3.24-6.14v-15.29zM231.13 424.4c0-4.606.31-9.238-.088-13.81-.413-4.768-3.925-8.303-7.878-8.83-3.774-.5-8.124 2.277-10.045 6.43-.26.566-.54 1.14-.68 1.74-2.3 9.673-.38 18.53 5.33 26.58.69.972 1.78 1.806 2.86 2.33 5.23 2.52 10.58-.89 10.52-6.597-.02-2.62 0-5.23 0-7.847zm141.183-84.72h-.242c0 1.996-.1 3.997.02 5.986.37 6.09 3.8 10.47 8.38 10.85 4.91.41 9.77-3.12 10.62-9.07.71-4.93.56-10.24-.49-15.1-.85-3.97-3.21-7.81-5.62-11.19-2.51-3.52-6.37-2.39-9.96-1.37-3.49.99-2.58 3.82-2.65 6.12-.14 4.6-.04 9.2-.04 13.8zm-106.8 26.772l-.663.015c.143 1.61.17 3.24.446 4.83.947 5.47 3.985 9.06 7.77 9.34 5.464.4 9.45-2.48 11.044-8.46 2.51-9.42.18-17.98-5.15-25.89-.48-.71-1.13-1.34-1.82-1.86-3.14-2.35-6.32-1.28-9.57-.13-2.95 1.04-1.94 3.46-1.99 5.37-.13 5.6-.05 11.2-.05 16.8zm95.493 36.494l.162.988c4.587-.89 9.49-1.04 13.692-2.837 6.63-2.835 6.952-11.004.943-15.072-1.797-1.217-4.024-2.16-6.16-2.452-8.527-1.17-16.3 1.084-23.31 5.986-1 .7-1.885 1.64-2.623 2.62-2.502 3.32-1.14 6.61.254 9.87 1.27 2.97 3.875 1.63 5.89 1.62 3.717-.02 7.432-.47 11.15-.73zm-98.43-84.93h.1c0-3.233.2-6.49-.048-9.704-.377-4.91-3.707-8.903-7.58-9.544-4.36-.72-9.01 1.968-10.563 7.054-1.096 3.592-1.47 7.57-1.314 11.34.25 6.076 2.37 11.71 6.22 16.51 2.42 3.02 5.83 3.276 10.24 1.867 3.84-1.23 2.82-4.17 2.92-6.72.13-3.6.04-7.21.04-10.81zm-7.24-41.22l-.545.02c.22 2.84.14 5.747.71 8.515.98 4.7 4.41 7.92 8.11 8.16 3.95.26 8.35-2.41 9.65-6.89 1.08-3.73 1.45-7.8 1.37-11.71-.12-5.84-2.27-11.2-5.7-15.94-2.49-3.43-5.95-3.92-10.75-2.32-4.01 1.34-2.72 4.49-2.8 7.13-.13 4.34-.03 8.69-.03 13.04z"/>
      <path d="M407.875 345.522c-8.82-.308-13.3-6.448-10.358-14.498 3.174-8.69 8.177-16.222 14.962-22.48.98-.91 2.99-.952 4.52-.953 1.03 0 2.09.74 3.09 1.22 11.34 5.43 13.27 12.59 5.63 22.49-3.23 4.19-7.11 7.95-11.09 11.44-1.74 1.52-4.48 1.89-6.77 2.79zm-136.213-37.876c-1.15-3.552 1.264-5.424 4.932-6.467 1.557-.45 3.082-1.01 4.655-1.38 8.31-1.95 13.94 1.23 15.42 9.61 1.05 5.93 1.54 12.15 1.01 18.12-.28 3.18-2.64 6.82-5.14 9.05-5.6 5-11.96 3.2-15.2-3.6-3.7-7.78-5.39-16.01-5.7-25.35zm39.62 135.827c1.052-8.492 6.608-12.643 14.146-10.305 8.94 2.773 16.956 7.208 23.57 13.878.954.963.877 2.95 1.263 4.468.03.1-.07.23-.11.35-4.45 12.742-11.52 18.55-24.83 8.538-3.07-2.31-6.41-4.487-8.83-7.387-2.27-2.726-3.5-6.326-5.19-9.542zm79.92-182.937c1.183-8.343 14.116-22.908 21.764-24.03 9.498-1.393 15.158 5.527 11.726 14.417-3.28 8.493-8.123 15.993-14.938 22.063-1.002.893-3.282 1.367-4.457.855-3.274-1.42-6.69-3.03-9.263-5.41-2.18-2.01-3.263-5.21-4.832-7.89zm-90.72 109.33c-8.595-.72-12.798-6.607-9.986-14.398 3.142-8.706 8.255-16.138 14.817-22.634 1.62-1.604 3.17-2.184 5.226-.907 3.15 1.958 6.63 3.502 9.45 5.854 3.72 3.12 4.64 7.54 2.46 11.88-3.39 6.73-7.8 12.83-14.19 17.05-2.29 1.52-5.17 2.13-7.79 3.16zm44.773-73.44c-.117.46-.357 1.94-.872 3.317-3.234 8.65-8.17 16.18-14.824 22.616-1.54 1.48-2.93 2.14-4.92 1.07-.98-.53-2.06-.88-3.06-1.38-11.61-5.81-13.25-12.62-5.21-22.84 2.98-3.79 6.27-7.43 9.94-10.53 3.86-3.27 8.61-3.67 13.39-1.72 3.71 1.51 5.65 4.5 5.53 9.45zm-96.22 167.89c-8.797-.604-13.034-6.52-10.054-14.505 3.23-8.65 8.32-16.1 14.9-22.57 1.57-1.54 3.07-1.93 4.94-.85 3.01 1.73 6.24 3.18 8.97 5.28 3.99 3.07 5.24 7.6 3.24 12.04-3.27 7.27-8.16 13.41-14.81 17.89-2.07 1.39-4.77 1.85-7.18 2.74zm157.06-239.213c-.907 10.59-8.84 19.434-18.46 19.62-1.41.027-3.296-.934-4.19-2.054-4.333-5.42-8.343-11.1-12.588-16.59-2.31-2.99-2.256-4.72.86-6.76 7.94-5.19 16.714-7.75 26.167-7.77 1.218-.01 3.057.95 3.548 1.97 1.797 3.74 3.145 7.69 4.662 11.57zm-73.497 23.964c2.736.625 4.66 1.214 6.627 1.486 5.17.716 10.346 1.402 15.54 1.895 4.658.442 5.738 1.698 4.648 6.24-2.082 8.68-6.107 16.346-12.395 22.7-.972.982-2.817 1.79-4.135 1.635-14.672-1.728-22.195-19.467-13.293-31.203.897-1.18 2.216-2.04 3.008-2.753zm83.742 118.225c-.453 2.19-.702 4.448-1.397 6.558-2.384 7.233-4.294 8.118-11.603 6.753-5.487-1.025-11.06-1.65-16.62-2.21-4.16-.418-5.32-1.703-4.388-5.796 2.017-8.854 6.185-16.604 12.5-23.085 1.04-1.067 3.332-1.704 4.825-1.413 9.63 1.88 16.372 9.91 16.683 19.19zm-80.03-33.532c.127-7 1.298-13.327 8.365-16.727 4.99-2.4 9.562-1.096 12.11 3.738 4.81 9.13 6.705 18.97 6.27 29.24-.037.9-.833 2.26-1.59 2.53-3.488 1.26-7.027 2.75-10.658 3.15-6.913.75-10.9-2.29-12.428-9.04-.96-4.23-1.4-8.58-2.07-12.88zm69.34-36.29c-.294 4.91-.83 9.545-4.266 13.347-5.952 6.586-13.706 5.437-17.336-2.587-3.81-8.42-5.535-17.25-5.335-26.5.044-2.037.59-3.32 2.597-3.876 3.224-.893 6.384-2.166 9.665-2.67 5.996-.918 10.616 2.1 12.106 8.002 1.18 4.68 1.74 9.518 2.57 14.285zm-156.63-92.225c-.024-5.84-.05-5.92 5.567-7.818 2.218-.75 4.56-1.334 6.885-1.523 6.55-.532 10.984 2.447 12.215 8.89 1.068 5.587 1.617 11.347 1.667 17.037.05 5.55-2.424 10.14-7.724 12.68-5.477 2.62-10.03 1.07-12.73-4.4-3.862-7.82-5.735-16.14-5.88-24.85zm108.484 234.428c-8.053-.462-13.217-3.32-15.383-8.995-1.74-4.57-.66-8.572 3.52-11.037 8.88-5.24 18.54-7.96 28.89-7.86.98.01 2.44.89 2.83 1.75 1.44 3.16 2.96 6.4 3.63 9.76 1.27 6.45-1.49 11.09-7.81 12.99-5.1 1.53-10.43 2.31-15.65 3.42zm-68.43 14.592c-2.174-.5-4.403-.833-6.51-1.534-6.534-2.17-7.067-3.56-6.1-10.36.77-5.4 1.015-10.89 1.205-16.34.18-5.19 1.31-6.28 6.31-5.36 8.01 1.48 15.05 4.98 21.68 9.67 3.25 2.3 3.73 4.69 2.79 8.27-2.35 8.94-10.32 15.44-19.39 15.67zm-70.23-167.835c.203-.97.447-3.098 1.1-5.092 2.336-7.15 4.364-8.11 11.65-6.75 5.475 1.022 11.036 1.643 16.58 2.224 4.042.423 5.353 1.903 4.463 5.847-2.053 9.09-6.902 16.73-12.714 23.8-.664.81-2.465 1.15-3.646.99-9.874-1.3-17.412-9.99-17.433-21.03zm-14.327 48.418c.095-1.08.124-1.58.186-2.074.87-7.003 12.445-20.262 19.285-22.12 3.99-1.084 7.732-.456 11.044 1.93 3.037 2.186 4.183 5.345 3.135 8.94-2.977 10.2-8.686 18.723-16.477 25.873-.554.508-1.674.955-2.297.743-5.49-1.87-10.814-4.104-13.776-9.57-.687-1.266-.845-2.82-1.1-3.722zm23.267 29.162c-1.058 8.974-14.292 23.52-22.637 24.46-8.802.993-14.064-5.648-11.022-13.956 3.19-8.714 8.203-16.268 15.03-22.522.98-.896 3.264-1.326 4.47-.828 3.193 1.318 6.52 2.826 9.044 5.09 2.23 2.003 3.45 5.128 5.11 7.757zm81.574 27.503c-.387 2.073-.582 4.204-1.194 6.208-2.268 7.44-4.537 8.52-12.113 7.06-5.22-1-10.56-1.47-15.86-2.02-4.6-.47-5.79-1.82-4.71-6.29 2.11-8.64 6.17-16.31 12.38-22.68 1.01-1.03 3.09-1.68 4.55-1.49 9.26 1.19 16.67 9.85 16.96 19.23zm46.666-208.836c-.383-7.364-.287-7.638 6.104-9.7 2.347-.756 4.852-1.226 7.313-1.38 5.17-.323 9.12 2.11 10.61 7.136 2.11 7.083 3.59 14.438 1.73 21.77-.75 2.948-2.59 6.038-4.83 8.108-5.46 5.07-12.11 3.53-15.34-3.2-3.55-7.4-5.41-15.26-5.58-22.72zm67.18 218.695c-.053 10.064-7.412 18.228-17.423 18.984-1.37.104-3.33-.834-4.21-1.936-4.49-5.626-8.67-11.493-13.04-17.213-1.81-2.376-1.69-4.367.83-5.992 8.16-5.27 17.08-8.14 26.83-7.967 1.12.02 2.8.9 3.23 1.836 1.78 3.886 3.18 7.946 4.71 11.943-.3.113-.6.23-.9.345zm-167.084-31.76c.206 6.93.065 7.366-6.727 9.238-2.937.81-6.125 1.063-9.185.986-3.703-.093-6.427-2.387-7.627-5.755-2.71-7.61-3.89-15.47-2.22-23.52.8-3.86 2.99-6.83 6.45-8.78 5.5-3.09 10.69-1.62 13.48 4.04 3.69 7.49 5.63 15.45 5.84 23.81zm11.818 30.733c-1.18 9.492-7.965 17.384-16.926 18.99-2.775.496-4.686-.07-6.466-2.794-3.585-5.48-7.738-10.61-11.816-15.76-2.415-3.05-2.353-4.91.955-7.03 7.86-5.04 16.55-7.49 25.837-7.68 1.225-.02 3.127.95 3.602 1.97 1.847 4 3.247 8.2 4.814 12.32zm61.522-177.718c-.513 7.44-3.655 13.174-10.094 16.992-1.79 1.06-3.224 1.06-5.112-.13-5.988-3.76-12.128-7.28-18.25-10.82-2.962-1.71-3.534-3.49-1.52-6.41 5.373-7.8 12.49-13.54 21.174-17.25 1.036-.45 2.772-.3 3.73.3 6.382 3.98 9.604 9.9 10.072 17.3zm-39.428 13.013c2.62-.788 4.216 1.18 5.646 3.826 6.886 12.74-.365 27.75-14.31 29.635-2.845.39-4.398-.51-5.955-3.05-3.093-5.03-6.544-9.89-10.3-14.46-3.84-4.66-3.827-5.99 1.463-9.12 7.007-4.14 14.635-6.15 23.456-6.82zm72.633-8.02c-1.174 3.312-1.732 7.047-3.652 9.85-3.804 5.554-11.004 4.874-13.18-1.42-2.826-8.177-4.837-16.673-6.618-25.153-.718-3.416-1.34-7.668 3.178-9.74 4.222-1.94 10.47-.865 13.158 3.227 2.39 3.632 3.93 7.96 5.13 12.184.97 3.423.88 7.148 1.26 10.74l.73.31zm-107.53 22.684c-.407 6.298-.917 10.608-5.015 13.427-3.915 2.7-8.26 2.34-10.347-1.64-5.042-9.61-7.623-20.01-7.663-30.86-.018-4.8 3.363-7.14 8.277-6.68 6.217.59 10.13 4.32 11.694 10.01 1.58 5.73 2.3 11.68 3.06 15.75zM418.22 350.24c1.117-2.904 1.748-6.514 3.685-9.172 3.862-5.297 10.94-4.54 12.978 1.602 2.88 8.68 5.258 17.624 6.76 26.637 1.243 7.448-3.892 10.904-11.255 8.6-4.742-1.482-7.562-5.005-8.72-9.484-1.485-5.747-2.252-11.68-3.448-18.182zM289.215 479.858c-7.25-.012-10.574-4.792-8.23-11.378.974-2.736 3.118-5.717 5.57-7.146 8.075-4.705 17.07-6.264 26.317-4.987 2.202.304 4.586 2.08 6.122 3.844 3.177 3.66 2.47 8.13-1.71 10.55-8.978 5.2-18.83 7.86-28.07 9.13zm22.128-105.126c1.078-2.784 1.75-6.783 3.924-9.64 3.935-5.175 10.16-4.118 12.82 1.82 3.79 8.467 6.15 17.364 6.66 26.647.44 7.93-4.9 11.41-12.337 8.23-4.358-1.87-6.888-5.43-7.94-9.8-1.272-5.3-1.973-10.73-3.127-17.27zm12.237-95.71c-.655 4.5-.976 8.713-4.52 11.86-4.42 3.926-9.542 3.14-12.013-2.19-4.128-8.906-6.654-18.31-6.95-28.16-.19-6.39 3.6-9.16 9.932-7.852 4.72.976 8.08 3.83 9.41 8.223 1.79 5.918 2.79 12.07 4.13 18.12zm-107.503 25.245c-.147 5.207-1.155 9.975-6.496 12.49-3.21 1.515-6.7 1.025-8.27-1.924-5.43-10.167-8.31-21.036-7.92-32.657.12-3.428 2.4-4.72 5.29-5.26 5.29-.99 10.95 1.323 12.95 6.663 2.46 6.56 3.65 13.6 5.39 20.43l-.92.25zm136.013 55.48c3.47-.238 6.938-.49 10.408-.71 5.39-.34 9.073 4.975 6.787 10.026-.684 1.51-1.892 2.967-3.22 3.97-6.28 4.747-13.447 6.84-21.308 6.62-4.94-.136-9.03-2.256-11.5-6.348-3.17-5.25.435-11.57 7.31-12.974 3.744-.76 7.65-.74 11.48-1.08l.043.5zm-39.01 69.36c-3.128-1.07-6.45-1.78-9.33-3.314-3.142-1.674-4.785-4.746-4.477-8.448.313-3.755 2.634-6.286 5.997-7.422 2.784-.94 5.818-1.33 8.772-1.536 5.093-.356 10.215-.278 15.313-.572 5.378-.31 9.068 4.392 7.076 9.575-.67 1.744-2.08 3.43-3.58 4.586-5.72 4.402-12.37 6.29-19.76 7.13z"/>
      <path d="M362.27 246.603c0-2.742-.207-5.504.07-8.217.195-1.893.488-4.59 1.73-5.397 2.815-1.84 6.26-2.59 9.537-.5 8.196 5.22 11.1 25.96 4.59 33.21-2.377 2.64-5.37 4.09-9.044 3.17-3.83-.97-6.163-3.82-6.553-7.4-.534-4.91-.134-9.92-.134-14.88h-.196zm7.124 43.425c0 5.096.003 10.19 0 15.287-.003 2.605.308 5.18-3.245 6.138-3.77 1.015-7.61 1.507-9.77-2.13-2.51-4.21-4.81-8.825-5.81-13.557-.89-4.212-.46-8.95.45-13.23 1.13-5.32 5.78-8.486 10.24-8.15 4.13.31 7.35 3.81 8.3 9.308.35 2.072.29 4.216.42 6.327l-.6.01zm-138.26 134.367c.002 2.614-.02 5.228.007 7.842.06 5.706-5.29 9.115-10.51 6.596-1.08-.523-2.17-1.357-2.86-2.33-5.7-8.05-7.63-16.907-5.32-26.58.15-.6.43-1.173.69-1.738 1.92-4.153 6.27-6.932 10.05-6.43 3.96.526 7.47 4.06 7.88 8.83.4 4.572.09 9.205.09 13.81zm141.183-84.72c0-4.6-.097-9.204.04-13.8.07-2.303-.836-5.13 2.656-6.12 3.587-1.018 7.444-2.15 9.962 1.377 2.415 3.38 4.767 7.225 5.624 11.194 1.04 4.863 1.19 10.166.49 15.1-.85 5.958-5.72 9.484-10.63 9.078-4.57-.378-8-4.763-8.38-10.844-.12-1.988-.02-3.99-.02-5.986h.24zm-106.8 26.772c0-5.6-.09-11.204.047-16.802.047-1.915-.957-4.332 1.99-5.372 3.254-1.147 6.43-2.22 9.576.132.69.516 1.348 1.15 1.827 1.86 5.333 7.902 7.668 16.47 5.158 25.888-1.595 5.985-5.58 8.86-11.046 8.467-3.79-.273-6.83-3.866-7.77-9.334-.28-1.586-.31-3.215-.45-4.825.22 0 .44-.01.66-.01zm95.493 36.493c-3.717.268-7.432.71-11.15.732-2.014.01-4.62 1.347-5.89-1.624-1.395-3.26-2.757-6.548-.255-9.874.738-.98 1.622-1.927 2.622-2.626 7.01-4.902 14.783-7.155 23.31-5.985 2.137.293 4.364 1.235 6.16 2.452 6.01 4.068 5.69 12.236-.942 15.072-4.2 1.796-9.104 1.948-13.693 2.837l-.162-.984zm-98.43-84.93c0 3.603.1 7.208-.032 10.805-.093 2.545.927 5.487-2.916 6.714-4.415 1.4-7.82 1.15-10.242-1.87-3.85-4.8-5.963-10.44-6.214-16.51-.156-3.77.218-7.75 1.314-11.34 1.55-5.09 6.204-7.78 10.56-7.06 3.876.64 7.206 4.63 7.582 9.54.246 3.22.047 6.47.047 9.71h-.1zm-7.24-41.223c0-4.346-.095-8.695.034-13.038.08-2.64-1.214-5.8 2.8-7.14 4.795-1.6 8.26-1.12 10.75 2.32 3.434 4.73 5.583 10.1 5.705 15.94.08 3.9-.29 7.98-1.37 11.71-1.3 4.48-5.7 7.14-9.65 6.89-3.7-.24-7.14-3.46-8.11-8.16-.58-2.77-.5-5.67-.71-8.52l.54-.02z"/>
    </g>
    <path id="pomegranate_7_" fill="none" stroke="#231F20" d="M625.76 597.14c-2.575 2.328-4.61 5.342-7.4 7.33-9.108 6.494-18.81 2.16-20.434-8.874-.286-1.947-.24-3.007 2.45-3.15 8.787-.47 16.284-3.706 20.88-11.73 2.79-4.87 3.677-10.062 1.38-15.404-2.88-6.693-10.21-8.96-18.574-5.86-12.826 4.754-22.426 20.543-20.83 36.05.56 5.456-1.68 8.256-5.41 10.59-1.898 1.186-4.49 1.262-6.77 1.84-.282-2.238-1.136-4.58-.75-6.695 2.035-11.134 4.41-22.206 6.596-33.313.355-1.805 1.126-2.378 3.006-2.377 5 .003 6.372-1.46 7.183-7.1-1.758 0-3.52-.156-5.24.036-2.787.31-3.086-.922-2.543-3.252.932-3.99 1.588-8.05 2.5-12.05.39-1.7.205-2.34-1.733-1.92-3.76.82-7.56 1.5-11.35 2.21-1.89.36-2.93 1.16-3.19 3.36-.38 3.32-1.29 6.59-2.1 9.84-.16.66-.97 1.74-1.33 1.69-5.82-.9-5.47 3.71-6.92 7.14.93.05 1.43.08 1.93.09 4.6.09 4.55.08 3.61 4.59-1.39 6.7-2.92 13.38-4.01 20.14-1.22 7.59-5.12 13.17-11.78 16.72-1.54.82-4.03 1.2-5.41.48-.94-.48-1.23-3.33-.92-4.95 2.71-13.92 5.53-27.82 8.57-41.67.55-2.5-.15-2.65-2.18-2.63-8.62.07-17.25-.14-25.87.09-7.83.21-14.61 3.19-19.72 9.24-7.68 9.11-10.88 19.93-10.14 31.59.3 4.79-1.65 6.87-5.18 8.6-3.96 1.95-5.93.6-5.65-3.86.1-1.48.38-2.96.64-4.43 1.49-8.33 3.26-16.62 4.46-25 1.81-12.63-7.44-19.67-19.12-14.69-2.26.97-4.27 2.52-6.42 3.75-.92.54-1.91.95-2.88 1.42.12-1.01.03-2.1.38-3.02.98-2.66.55-3.86-2.65-3.56-2.97.28-6.01.27-8.98 0-2.604-.23-3.36.87-3.804 3.21-2.05 10.75-4.26 21.48-6.425 32.21-1.44 7.15-6.14 11.48-12.57 14.13-2.91 1.2-4.574-.05-4.64-3.14-.02-1.1.15-2.23.38-3.32 2.82-13.39 5.66-26.77 8.508-40.15.41-1.932.45-3.14-2.33-3.08-8.62.21-17.25-.09-25.87.14-6.804.187-12.93 2.53-17.81 7.45-9.31 9.37-12.65 21.176-12.06 33.847.55 11.796 10.69 18.22 21.813 14.146 4.83-1.77 9-5.326 13.36-8 3.02 7.133 6.01 9.52 12.08 9.08 6.22-.45 11.225-3.59 16.46-7.99-.43 1.82-.61 2.784-.88 3.717-.84 2.84-.08 4.094 3.13 3.77 2.72-.27 5.53-.355 8.23.024 3.5.49 4.41-1.31 4.92-4.19 1.73-9.684 3.66-19.33 5.33-29.024.965-5.63 3.94-9.92 8.27-13.33 2.3-1.81 5.24-4.516 7.865-2.3 1.398 1.176 1.028 5.068.64 7.608-1.275 8.36-3.162 16.63-4.37 25-1.275 8.86 3.088 15.68 10.51 16.73 5.377.76 10.046-1.45 14.11-4.78 1.89-1.544 2.928-2.17 4.96.168 3.49 4.02 8.32 5.17 13.61 4.51 7-.884 12.19-4.69 16.79-10.4 2.46 9.18 8.13 12.69 16.61 9.5 5.217-1.95 9.84-5.48 14.62-8.24 3.55 8.986 8.62 11.77 17.65 8.097 4.5-1.83 8.48-4.95 12.82-7.57 4.797 8.58 12.96 9.74 22.24 8.39 11.666-1.7 17.957-9.655 22.757-19.64-1.88.36-3.63 1.065-4.94 2.25zm-27.237-12.988c1.573-5.967 3.63-11.635 7.962-16.2.93-.978 2.007-1.88 3.167-2.565 4.014-2.37 6.098-1.15 6.108 3.477.02 9.11-6.808 17.373-14.75 17.96-2.11.157-3.204.046-2.487-2.672zm-191.065-12.174c-1.787 7.492-3.055 15.108-4.562 22.668-.804 4.032-8.943 11.824-12.973 12.55-2.423.437-4.35-.337-5.107-2.634-.917-2.785-1.387-5.716-2.05-8.584.822-8.99 2.745-17.43 8.01-24.725 1.774-2.456 4.206-4.54 6.652-6.374 2.255-1.7 4.952-1.62 7.32.1 2.363 1.71 3.494 3.71 2.71 6.99zm121.842-.47c-1.407 6.947-2.835 13.89-4.102 20.86-1.288 7.088-6.302 11.114-11.962 14.38-3.138 1.813-5.8.44-6.99-3.14-.813-2.448-1.093-5.073-1.374-6.458.8-11.08 2.845-20.543 9.562-28.18 1.94-2.207 4.783-4.12 7.575-4.962 4.35-1.313 8.19 3.026 7.29 7.5zm-263.29 67.828c3.08-3.253 6.002-6.436 9.07-9.47.44-.434 1.696-.404 2.4-.135 1.374.53 2.575 1.5 3.937 2.07 5.04 2.13 7.19.92 8.258-4.42 1.288-6.43 2.647-12.85 3.65-19.61-5.67 4.21-11.436 7.55-18.713 6.86-7.727-.73-12.02-5.34-14.427-12.77-5.317 6.91-11.415 11.78-20.124 12.83-8.52 1.03-15.95-.17-21.21-7.95-4.63 4.03-9.45 7.53-15.78 7.83-8.75.41-14.05-5.11-12.72-13.82 1.44-9.46 3.53-18.83 5.06-28.29.39-2.38-.24-4.92-.4-7.39-2.18 1.22-4.68 2.1-6.47 3.74-5.04 4.62-6.62 10.9-7.66 17.41-1.38 8.61-3.09 17.16-4.44 25.77-.32 2.05-1.2 2.42-2.93 2.39-3.24-.06-6.51-.19-9.74.02-2.53.17-2.61-1.1-2.28-2.94 2.35-12.98 4.78-25.95 6.95-38.96.38-2.26-.38-4.71-.62-7.07-2.28.91-4.95 1.34-6.76 2.82-3.38 2.79-5.74 6.35-6.59 10.96-2 10.89-4.41 21.7-6.51 32.56-.39 2.03-1.14 2.71-3.18 2.62-3.24-.15-6.5-.17-9.74.03-2.6.16-3.24-.71-2.7-3.2 2.23-10.46 4.34-20.94 6.48-31.43.12-.59.09-1.22.16-2.15-3.38 2.05-6.57 3.85-9.6 5.89-.63.43-.81 1.68-1 2.6-2.54 12.29-8.32 22.198-20.51 27.05-15.85 6.31-29.98-3.64-29.63-20.68.31-14.603 11.13-28.94 25.04-33.06 12.13-3.6 24.85.42 26.19 16.83.61-.2 1.18-.44 1.77-.57 6.62-1.48 10.84-4.94 10.81-12.33-.02-3.65 1.55-5.66 5.72-4.964 2.43.41 5 .24 7.48.026 3.08-.27 3.84.81 2.7 3.61-.31.77-.23 1.7-.4 3.15 4.58-3.68 8.85-6.91 14.65-6.93 6.81-.03 9.7 4.11 10.91 10.263 2.38-2.14 4.37-4.19 6.62-5.88 1.88-1.4 3.96-2.67 6.14-3.49 7.98-2.98 14.41 1.17 14.19 9.66-.17 6.55-1.42 13.09-2.41 19.6-.67 4.428-1.76 8.78-2.582 13.18-.787 4.15.9 5.82 4.94 4.59 1.96-.6 4.16-1.58 5.39-3.09.963-1.195.86-3.48.79-5.26-.59-14.273 3.09-26.803 15.274-35.38 3.11-2.18 7.22-3.48 11.037-4.02 10.16-1.44 16.06 7.025 13.81 16.895-2.26 9.89-10.21 16.12-22.32 17.11-3.31.278-3.45 1.21-2.91 3.97 2.002 10.31 10.85 14.366 19.61 8.56 5.384-3.57 9.33-7.95 10.14-15.21.64-5.756 2.963-11.595 5.7-16.786 4.98-9.45 13.053-14.94 24.062-15.15 8.99-.172 17.99-.09 26.99-.17 1.56-.013 2.31.3 1.92 2.11-4.23 19.44-8.4 38.9-12.63 58.34-.347 1.57-.99 3.08-1.6 4.578-7.078 17.16-21.13 23.27-39.2 16.73zm-151.944-64.552l.393.532-.1-.852c-.91-2.012-1.53-4.237-2.79-5.994-3.18-4.41-7.5-4.55-10.8-.21-1.77 2.324-3.04 5.136-4.03 7.907-2.78 7.728-4.09 15.688-2.08 23.826.86 3.505 2.68 6.597 6.66 7.276 3.73.63 6.37-1.59 7.85-4.55 2.03-4.07 3.37-8.47 5.08-12.71 1.15-2.84.72-4.52-2.64-5.34-2.1-.51-3.99-1.96-5.89-3.12-.45-.28-.98-1.34-.81-1.59 1.53-2.27 3.01-4.66 4.99-6.49.53-.49 2.71.8 4.14 1.28zm161.984 19.312c.598 3.265.908 6.618 1.882 9.767.84 2.716 3.38 4.092 5.975 2.875 5.857-2.748 10.885-6.747 12.538-13.333 1.87-7.454 2.932-15.11 4.745-22.582.702-2.893.324-5.27-2.096-6.403-2.123-.995-5.1-1.66-7.154-.933-2.506.887-4.83 3.073-6.555 5.238-5.85 7.346-8.257 16.015-9.335 25.37zm-27.117-24.9c-.59-1.547-.91-4.173-1.826-4.4-1.625-.403-3.627.593-5.435 1.13-.553.163-1.02.7-1.467 1.13-5.146 4.94-7.458 11.323-8.95 18.06-.085.39 1.388 1.626 2.122 1.614 8.112-.126 14.93-8.064 15.556-17.535zM68.686 531.23c-10.18-2.02-19.847-.265-29.048 4.204-14.86 7.216-22.41 19.674-21.515 34.953.116 1.984.445 2.802 2.564 1.757 3.68-1.815 7.48-3.39 11.12-5.28.66-.344 1.327-1.916 1.08-2.58-4.516-12.076 1.366-20.713 13.772-25.1-.1 1.062-.1 2.027-.29 2.953-4.74 23.145-9.45 46.295-14.31 69.412-.5 2.34-.05 2.87 2.18 2.78 3.24-.13 6.52-.29 9.73.03 2.85.28 3.62-1.07 4.08-3.44 1.65-8.55 3.5-17.05 5.07-25.61.38-2.05 1.07-2.73 3.15-3.25 12.71-3.22 22.91-9.85 27.92-22.54 5.23-13.25-1.67-25.56-15.53-28.31zm-9.65 42.385c-.942.667-2.144.968-3.89 1.728 1.562-8.098 2.97-15.486 4.417-22.868.904-4.62 1.94-9.215 2.758-13.85.32-1.764.72-2.255 2.63-1.62 4.75 1.576 8.02 5.252 7.81 10.592-.41 10.756-4.76 19.676-13.72 26.018zm284.757-5.422c8.074-11.398 17.918-12.76 29.635-5.767-3.315 2.78-6.39 5.475-9.627 7.96-.5.386-1.86.06-2.6-.34-3.11-1.67-6.29-1.85-9.26-.08-6.03 3.593-10.92 8.26-12.38 15.514-1.72 8.53-3.38 17.074-4.94 25.636-.42 2.312-1.22 3.416-3.82 3.227-3.48-.253-6.99-.104-10.48-.01-1.91.05-2.27-.574-1.89-2.446 3.51-17.043 6.93-34.105 10.34-51.17.36-1.773 1.13-2.475 3.01-2.387 3.37.156 6.76.21 10.11-.024 2.73-.19 2.81 1.153 2.41 3.142-.39 1.982-.75 3.973-1.12 5.96l.65.785zm-.258.056l-.242-.27c-.08.16-.188.31-.226.48-.014.06.137.16.213.24l.255-.47z"/>
  </g>
</svg>
