<svg xmlns="http://www.w3.org/2000/svg" viewBox="0 0 648.75 660.75">
  <g id="Layer_4">
    <path fill="#F80E4A" d="M247.866 95.744l2.9 1c9.455 4.516 17.54 10.827 24.354 18.8.59.69 1.428 1.168 2.15 1.745l.74-3.06c1.296-3.88 2.76-7.71 3.857-11.64 2.4-8.62 4.58-17.3 6.942-25.93.4-1.5 1.28-2.87 1.93-4.29 1.14.99 2.28 1.99 3.44 2.96.36.3.8.52 1.21.78 16.08 12.38 25.28 29.41 32.72 47.95l1.36-9.39c2.94-13.27 8.36-25.34 17.59-35.46 3.57-3.93 7.66-7.44 13.25-7.71 2.39-.12 4.84 1.08 7.27 1.68-.47 1.92-.87 3.87-1.41 5.78-2.46 8.74-2.42 17.52.03 26.2.63 2.22 2.4 4.26 4.02 6.03 1.18 1.29 2.52.87 2.83-1.12 6.54-4.72 13.02-9.51 19.65-14.1 1.69-1.17 3.82-1.7 5.72-2.51.85.19 1.72.38 2.59.57l1.18 2.33c.124 2.06.263 4.13.374 6.2.58 10.83-3.86 20.17-8.866 29.29-4.553 8.29-9.783 16.24-13.96 24.71-12.894 26.13 1.676 46.03 21.97 55.79.277-.01.47.12.57.37l.225.08c.33.22.663.45.98.67l5.93 3.02c11.48 4.68 22.97 9.33 34.43 14.06 1.224.502 2.257 1.47 3.354 2.213 1.26.66 2.54 1.32 3.82 1.98l.96.56c.22.024.42.11.58.25.29-.025.475.1.556.38.69.687 1.31 1.47 2.088 2.05 13.46 10.146 23.95 22.885 32.587 37.247 14.74 24.51 25.51 50.84 35.24 77.61 8.516 23.44 12.45 47.52 8.805 72.53-2.84 19.456-8.865 37.888-17.2 55.61-13.55 28.82-33.05 52.48-60.37 69.336-21.47 13.25-44.91 21.604-69.08 28.35-18.85 5.26-37.35 5.574-55.94-1.16-16.05-5.82-32.74-7.61-49.78-7.16-11.98.32-23.99.34-35.97.01-11.32-.31-22.25-2.85-32.68-7.395-14.414-6.28-27.03-15.47-39.82-24.39-1.18-.826-2.595-1.3-3.9-1.94l.08.06-1.53-.85.04.035-1.56-1.52.06.05-2.29-1.57.05.05-.81-.806.06.055-.804-.81.064.06-.82-.804.08.06c-.5-.28-1.01-.56-1.52-.84-24.69-19.4-38.84-44.81-44.31-75.64-7.172-40.44-6.48-80.52 3.757-120.33 7.536-29.31 19.096-56.795 38.62-80.3 19.526-23.505 43.69-39.505 74.33-44.874 9.81-1.72 19.526-4.183 28.17-9.58 14.59-9.106 19.84-22.617 15.3-39.26-2.795-10.25-8.28-19.17-13.51-28.265-3.59-6.24-6.55-12.837-9.79-19.26-2.3-5.29-4.35-10.64-2.92-16.6zm47.106 86.832c-.06.706-.128 1.41-.182 2.117-1.155 15.278-12.147 28.23-27.074 31.626-4.492 1.02-9.088 1.61-13.654 2.27-37.762 5.5-65.963 25.1-84.9 58.02-8.644 15.02-13.203 31.74-18.86 48-9.273 26.65-15.446 53.86-12.898 82.25 1.772 19.74 4.535 39.41 7.234 59.06 1.533 11.16 6.515 20.88 14.21 29.19 11.03 11.92 22.037 23.86 32.965 35.87 11 12.09 24.478 19.79 40.622 22.13 23.08 3.35 46.178 6.81 69.38 9.05 24.835 2.39 49.433.09 73.1-8.5 25.623-9.3 46.703-24.46 59.754-48.95 14.71-27.62 22.69-57.35 24.12-88.52.93-20.56.42-41.21-.08-61.81-.45-18.47-1.46-36.95-5.74-55.05-7.14-30.17-23.45-53.22-52.21-66.29-7.15-3.25-14.74-5.5-22.01-8.49-4.38-1.8-8.79-3.73-12.73-6.3-11.07-7.22-18.13-16.96-17.45-30.81-16.9 4.45-31.35 12.78-43.71 26.14-.99-11.745-3.74-21.847-9.91-31.054z"/>
    <path id="shadow_2_" fill="#0C0D11" d="M167.132 536.697c1.306.636 2.723 1.112 3.9 1.933 12.788 8.924 25.406 18.112 39.818 24.39 10.43 4.545 21.36 7.083 32.68 7.396 11.984.33 23.99.31 35.975-.01 17.036-.457 33.73 1.337 49.783 7.153 18.583 6.73 37.084 6.41 55.938 1.15 24.17-6.75 47.607-15.1 69.08-28.35 27.32-16.86 46.82-40.52 60.37-69.34 8.33-17.73 14.36-36.16 17.2-55.61 3.648-25-.29-49.09-8.806-72.53-9.725-26.77-20.494-53.1-35.233-77.61-8.637-14.36-19.124-27.1-32.584-37.25-.772-.58-1.393-1.37-2.083-2.05 11.548 6.59 21.173 15.4 29.006 26.06 26.102 35.49 42.142 75.68 53.412 117.84 7.22 27 4.05 53.9-4.506 80.25-9.813 30.23-24.544 57.5-48.27 79.22-19.165 17.55-41.82 29.13-66.128 37.64-14.315 5.01-28.787 9.52-43.92 11.59-12.31 1.69-24.18-.19-35.646-4.28-19.866-7.08-40.268-8.49-61.112-7.53-16.71.76-33.442.85-49.73-4.13-10.58-3.24-20.252-8.34-29.392-14.4-9.348-6.2-18.407-12.83-27.562-19.32-.845-.6-1.466-1.51-2.19-2.27zm234.628-324.3c-20.294-9.757-34.865-29.655-21.972-55.793 4.178-8.47 9.408-16.416 13.96-24.71 5.006-9.115 9.446-18.46 8.865-29.29-.11-2.067-.25-4.133-.375-6.2.808-.314 1.66-.547 2.41-.96 1.755-.964 2.35-.534 2.93 1.464 2.717 9.338 1.545 18.393-2.443 26.932-3.728 7.98-8.216 15.617-12.563 23.295-4.546 8.028-9.1 16.053-10.774 25.257-2.395 13.18 2.303 24 11.668 33.047 2.59 2.5 5.52 4.64 8.295 6.95zm-72.27-97.71l-1.356 9.386c-7.44-18.542-16.648-35.57-32.727-47.955.54-1.495 1.268-2.556 2.94-1.163 2.645 2.206 5.682 4.094 7.84 6.706 5.854 7.09 11.487 14.38 16.892 21.82 2.51 3.46 4.29 7.46 6.41 11.21zm43.6-4.587c-.317 1.995-1.658 2.406-2.836 1.118-1.624-1.777-3.397-3.808-4.026-6.036-2.448-8.675-2.487-17.46-.03-26.202.535-1.908.938-3.853 1.404-5.78 6.722 1.226 6.848 1.264 4.93 7.736-2.91 9.81-2.555 19.5.557 29.164zm-95.08 4.13l-.74 3.06c-.722-.578-1.56-1.056-2.15-1.746-6.813-7.973-14.9-14.284-24.353-18.8 10.724 3.292 19.57 9.477 27.242 17.487z"/>
    <path fill="#0C0D11" d="M409.472 216.552c-1.982-1.01-3.965-2.02-5.932-3.026 1.987 1.012 3.96 2.02 5.932 3.026zM401.06 94.07c-.873-.19-1.746-.38-2.595-.577.88.187 1.738.382 2.594.578zm50.016 140.734c-1.28-.663-2.562-1.325-3.82-1.978l3.82 1.978zM164.16 534.42l1.562 1.52-1.563-1.52z"/>
    <path fill="#0C0D11" d="M161.93 532.894c.765.524 1.528 1.05 2.292 1.574l-2.29-1.574zm-3.697-3.032c.506.28 1.012.56 1.52.838-.507-.28-1.013-.56-1.52-.838zm294.382-294.25c-.162-.142-.357-.226-.58-.25.248-.01.44.075.58.25zm-286.93 300.292l1.525.85-1.526-.85zm-6.015-5.26l.82.803-.82-.804zm.756.746c.27.268.537.536.806.805-.27-.268-.537-.537-.806-.805zm242.13-318.532l-.227-.087.22.09zm-241.38 319.278l.81.806-.81-.806z"/>
    <path fill="#FDFDFD" d="M294.972 182.576c6.173 9.207 8.923 19.308 9.91 31.055 12.355-13.36 26.802-21.68 43.705-26.13-.675 13.85 6.38 23.59 17.45 30.81 3.938 2.57 8.353 4.5 12.726 6.3 7.27 2.99 14.86 5.24 22.005 8.49 28.764 13.07 45.067 36.12 52.21 66.29 4.283 18.1 5.296 36.58 5.74 55.05.493 20.6 1.01 41.25.07 61.81-1.422 31.17-9.403 60.9-24.12 88.52-13.05 24.49-34.13 39.66-59.752 48.95-23.668 8.59-48.266 10.89-73.1 8.5-23.203-2.24-46.3-5.7-69.38-9.05-16.145-2.34-29.624-10.04-40.623-22.14-10.928-12.01-21.934-23.96-32.966-35.87-7.694-8.31-12.676-18.03-14.21-29.19-2.698-19.65-5.46-39.32-7.233-59.06-2.548-28.39 3.626-55.6 12.9-82.25 5.655-16.25 10.214-32.97 18.857-48 18.94-32.92 47.14-52.52 84.91-58.02 4.57-.67 9.16-1.25 13.66-2.28 14.93-3.4 25.92-16.35 27.08-31.63.06-.7.12-1.41.19-2.11zm111.27 215.606c2.285-.893 5.03-1.262 6.764-2.783 3.984-3.5 7.86-7.26 11.09-11.45 7.65-9.9 5.71-17.07-5.63-22.49-1.007-.49-2.063-1.22-3.096-1.22-1.534 0-3.54.04-4.526.95-6.784 6.25-11.788 13.79-14.962 22.48-2.94 8.05 1.54 14.19 10.36 14.5zm-136.214-37.877c.316 9.333 2 17.57 5.7 25.343 3.236 6.802 9.6 8.595 15.195 3.598 2.495-2.23 4.85-5.865 5.132-9.05.527-5.98.042-12.19-1.012-18.128-1.487-8.374-7.117-11.554-15.428-9.61-1.573.37-3.098.936-4.655 1.38-3.668 1.043-6.082 2.915-4.932 6.467zm39.62 135.828c1.69 3.215 2.92 6.816 5.197 9.54 2.422 2.9 5.757 5.078 8.83 7.388 13.316 10.02 20.384 4.21 24.833-8.53.04-.12.144-.25.12-.35-.387-1.51-.31-3.5-1.265-4.46-6.612-6.67-14.628-11.1-23.57-13.88-7.537-2.33-13.093 1.82-14.145 10.31zm79.92-182.938c1.57 2.676 2.653 5.875 4.832 7.89 2.575 2.383 5.99 3.987 9.263 5.414 1.175.51 3.455.03 4.457-.86 6.815-6.07 11.66-13.57 14.938-22.07 3.432-8.89-2.228-15.81-11.726-14.42-7.648 1.12-20.58 15.69-21.764 24.03zm-90.72 109.33c2.612-1.028 5.493-1.646 7.783-3.16 6.39-4.22 10.8-10.322 14.19-17.05 2.18-4.336 1.27-8.76-2.46-11.875-2.81-2.352-6.3-3.896-9.45-5.854-2.05-1.277-3.6-.697-5.22.907-6.56 6.496-11.67 13.928-14.81 22.634-2.81 7.792 1.39 13.678 9.99 14.397zm44.773-73.438c.12-4.948-1.82-7.936-5.53-9.452-4.78-1.95-9.53-1.545-13.39 1.72-3.66 3.1-6.96 6.747-9.94 10.53-8.04 10.218-6.4 17.025 5.21 22.837 1 .5 2.08.844 3.06 1.373 1.98 1.068 3.38.405 4.91-1.076 6.66-6.44 11.59-13.97 14.83-22.62.52-1.38.76-2.86.87-3.32zm-96.22 167.89c2.42-.887 5.11-1.347 7.18-2.74 6.65-4.475 11.54-10.618 14.81-17.89 2-4.44.75-8.964-3.24-12.035-2.72-2.1-5.95-3.547-8.96-5.274-1.87-1.075-3.36-.69-4.93.854-6.58 6.476-11.67 13.928-14.9 22.58-2.98 7.984 1.26 13.9 10.06 14.505zm157.06-239.215c-1.51-3.876-2.86-7.832-4.66-11.574-.49-1.022-2.33-1.978-3.55-1.976-9.45.02-18.22 2.58-26.16 7.768-3.11 2.038-3.17 3.77-.86 6.76 4.25 5.49 8.26 11.167 12.59 16.587.9 1.12 2.79 2.082 4.2 2.054 9.62-.18 17.55-9.02 18.46-19.61zm-73.49 23.965c-.79.712-2.11 1.573-3 2.754-8.9 11.74-1.38 29.48 13.3 31.21 1.32.16 3.17-.65 4.14-1.63 6.29-6.35 10.32-14.02 12.4-22.7 1.09-4.54.01-5.8-4.65-6.24-5.19-.49-10.37-1.18-15.53-1.89-1.96-.27-3.89-.86-6.62-1.48zm83.74 118.225c-.31-9.282-7.05-17.314-16.68-19.194-1.49-.29-3.78.345-4.82 1.413-6.31 6.49-10.48 14.24-12.5 23.09-.93 4.1.23 5.38 4.39 5.8 5.56.56 11.13 1.19 16.62 2.21 7.31 1.37 9.22.48 11.6-6.75.7-2.11.95-4.36 1.4-6.55zm-80.03-33.533c.68 4.29 1.11 8.64 2.07 12.88 1.53 6.75 5.52 9.79 12.43 9.04 3.63-.4 7.17-1.89 10.66-3.15.76-.28 1.56-1.64 1.59-2.53.44-10.28-1.46-20.12-6.27-29.24-2.55-4.84-7.12-6.14-12.11-3.74-7.07 3.4-8.24 9.73-8.36 16.73zm69.34-36.29c-.83-4.77-1.39-9.61-2.57-14.29-1.49-5.9-6.11-8.92-12.1-8-3.28.5-6.44 1.77-9.66 2.67-2.01.55-2.55 1.84-2.59 3.87-.2 9.25 1.53 18.08 5.34 26.5 3.63 8.02 11.39 9.17 17.34 2.58 3.44-3.8 3.97-8.44 4.27-13.35zM247.39 257.9c.144 8.712 2.017 17.027 5.88 24.853 2.697 5.467 7.25 7.026 12.73 4.404 5.3-2.537 7.772-7.126 7.723-12.67-.05-5.69-.6-11.45-1.666-17.04-1.23-6.44-5.665-9.42-12.215-8.888-2.324.19-4.67.77-6.885 1.52-5.617 1.9-5.59 1.97-5.568 7.82zm108.48 234.43c5.227-1.11 10.55-1.887 15.653-3.41 6.324-1.893 9.086-6.533 7.816-12.984-.67-3.37-2.2-6.604-3.63-9.764-.39-.857-1.85-1.733-2.83-1.743-10.35-.11-20.01 2.62-28.89 7.86-4.18 2.46-5.26 6.47-3.52 11.03 2.16 5.67 7.33 8.53 15.38 8.99zm-68.43 14.592c9.06-.228 17.036-6.727 19.384-15.667.94-3.577.453-5.97-2.795-8.27-6.63-4.692-13.68-8.187-21.69-9.67-5-.926-6.13.164-6.31 5.36-.19 5.46-.44 10.95-1.21 16.348-.97 6.8-.44 8.188 6.1 10.365 2.1.704 4.33 1.036 6.5 1.537zM217.21 339.09c.02 11.034 7.56 19.724 17.433 21.025 1.18.156 2.98-.185 3.646-.993 5.81-7.07 10.66-14.712 12.71-23.805.89-3.944-.42-5.424-4.46-5.847-5.55-.58-11.11-1.202-16.58-2.224-7.29-1.36-9.32-.4-11.65 6.75-.66 1.995-.9 4.122-1.1 5.094zm-14.327 48.417c.255.903.413 2.456 1.1 3.723 2.962 5.466 8.287 7.7 13.776 9.57.62.212 1.74-.235 2.29-.743 7.79-7.15 13.5-15.673 16.47-25.874 1.05-3.594-.1-6.754-3.14-8.94-3.32-2.385-7.06-3.012-11.05-1.93-6.84 1.86-18.42 15.117-19.29 22.12-.07.495-.09.993-.19 2.074zm23.267 29.163c-1.666-2.63-2.886-5.754-5.115-7.755-2.524-2.266-5.85-3.774-9.043-5.09-1.207-.5-3.492-.07-4.47.827-6.828 6.253-11.84 13.807-15.03 22.522-3.043 8.308 2.22 14.948 11.02 13.957 8.346-.94 21.58-15.48 22.638-24.46zm81.574 27.502c-.286-9.383-7.704-18.044-16.958-19.226-1.457-.186-3.542.462-4.547 1.493-6.22 6.37-10.28 14.03-12.38 22.68-1.09 4.47.1 5.82 4.7 6.29 5.3.54 10.64 1.01 15.87 2.02 7.57 1.46 9.84.37 12.11-7.06.61-2.01.8-4.14 1.19-6.21zm46.666-208.836c.164 7.462 2.023 15.32 5.58 22.726 3.236 6.738 9.88 8.273 15.345 3.208 2.233-2.07 4.08-5.16 4.828-8.11 1.86-7.33.38-14.685-1.727-21.768-1.495-5.027-5.445-7.458-10.61-7.136-2.46.154-4.965.624-7.312 1.38-6.39 2.062-6.487 2.336-6.104 9.7zm67.18 218.695l.904-.34c-1.537-3.99-2.934-8.05-4.712-11.94-.428-.93-2.107-1.81-3.226-1.83-9.755-.17-18.67 2.7-26.828 7.97-2.516 1.63-2.643 3.62-.826 5.99 4.374 5.72 8.558 11.59 13.047 17.22.88 1.1 2.84 2.04 4.21 1.94 10.01-.75 17.37-8.92 17.42-18.98zm-167.084-31.76c-.216-8.36-2.158-16.32-5.842-23.8-2.785-5.66-7.982-7.13-13.476-4.03-3.458 1.95-5.65 4.92-6.45 8.78-1.666 8.06-.484 15.92 2.23 23.53 1.2 3.37 3.924 5.66 7.626 5.76 3.06.08 6.247-.17 9.185-.98 6.79-1.87 6.93-2.3 6.72-9.23zm11.817 30.74c-1.567-4.12-2.967-8.32-4.815-12.31-.475-1.02-2.376-1.99-3.602-1.97-9.287.19-17.975 2.64-25.837 7.69-3.31 2.12-3.37 3.99-.96 7.04 4.08 5.15 8.23 10.28 11.81 15.76 1.78 2.73 3.69 3.29 6.46 2.8 8.96-1.61 15.74-9.5 16.92-18.99zm61.522-177.72c-.468-7.4-3.69-13.31-10.072-17.3-.958-.6-2.694-.74-3.73-.3-8.684 3.72-15.802 9.46-21.174 17.25-2.02 2.92-1.45 4.7 1.51 6.41 6.12 3.54 12.26 7.06 18.25 10.82 1.89 1.19 3.32 1.18 5.11.12 6.44-3.81 9.58-9.55 10.09-16.99zm-39.427 13.01c-8.822.67-16.45 2.68-23.457 6.83-5.29 3.13-5.3 4.47-1.46 9.13 3.76 4.57 7.21 9.43 10.3 14.46 1.56 2.54 3.11 3.44 5.96 3.05 13.95-1.88 21.2-16.89 14.31-29.63-1.42-2.64-3.02-4.61-5.64-3.83zm72.632-8.02l-.727-.31c-.38-3.59-.288-7.31-1.26-10.74-1.2-4.22-2.74-8.55-5.127-12.18-2.688-4.09-8.936-5.16-13.158-3.23-4.517 2.08-3.895 6.33-3.178 9.74 1.78 8.48 3.792 16.98 6.618 25.16 2.176 6.3 9.375 6.98 13.18 1.42 1.92-2.8 2.48-6.53 3.652-9.85zm-107.528 22.69c-.76-4.06-1.482-10.02-3.055-15.74-1.564-5.69-5.477-9.42-11.694-10.01-4.914-.46-8.294 1.88-8.277 6.68.04 10.85 2.62 21.25 7.663 30.86 2.08 3.98 6.43 4.34 10.34 1.65 4.1-2.81 4.61-7.13 5.01-13.42zm163.084 99.93c1.196 6.5 1.962 12.44 3.448 18.19 1.158 4.48 3.978 8 8.72 9.49 7.363 2.31 12.498-1.15 11.256-8.6-1.503-9.01-3.88-17.95-6.76-26.64-2.04-6.15-9.117-6.9-12.98-1.61-1.936 2.66-2.567 6.27-3.684 9.17zM287.58 532.52c9.24-1.266 19.093-3.93 28.07-9.124 4.178-2.417 4.885-6.892 1.71-10.542-1.536-1.76-3.92-3.54-6.123-3.84-9.248-1.27-18.242.28-26.317 4.99-2.452 1.43-4.596 4.41-5.57 7.15-2.343 6.586.98 11.367 8.23 11.378zm22.13-105.126c1.153 6.54 1.854 11.97 3.128 17.27 1.05 4.37 3.58 7.94 7.94 9.8 7.436 3.18 12.776-.3 12.337-8.232-.513-9.283-2.87-18.18-6.66-26.646-2.66-5.94-8.886-6.996-12.82-1.822-2.175 2.86-2.848 6.86-3.926 9.64zm12.235-95.7c-1.342-6.05-2.348-12.2-4.136-18.12-1.33-4.39-4.69-7.244-9.42-8.22-6.34-1.306-10.13 1.464-9.93 7.853.29 9.85 2.82 19.255 6.95 28.16 2.47 5.33 7.59 6.116 12.01 2.19 3.54-3.147 3.86-7.36 4.52-11.86zm-107.503 25.24l.92-.254c-1.74-6.83-2.93-13.87-5.387-20.43-1.998-5.34-7.663-7.655-12.948-6.665-2.888.54-5.172 1.833-5.285 5.26-.384 11.62 2.497 22.49 7.925 32.658 1.575 2.95 5.065 3.44 8.28 1.926 5.34-2.51 6.348-7.28 6.495-12.49zm136.014 55.48c-.014-.165-.028-.33-.04-.5-3.834.34-7.738.32-11.483 1.087-6.875 1.4-10.48 7.73-7.31 12.98 2.473 4.09 6.56 6.21 11.5 6.35 7.862.22 15.028-1.87 21.308-6.62 1.33-1 2.54-2.46 3.23-3.97 2.29-5.05-1.4-10.36-6.78-10.02-3.47.22-6.94.47-10.41.71zm-39.01 69.36c7.39-.84 14.04-2.73 19.767-7.13 1.502-1.155 2.915-2.842 3.585-4.586 1.992-5.18-1.698-9.88-7.076-9.57-5.1.293-10.22.215-15.313.57-2.96.207-5.99.596-8.78 1.536-3.37 1.136-5.69 3.667-6 7.422-.31 3.7 1.33 6.775 4.47 8.448 2.88 1.537 6.2 2.244 9.33 3.315zm49.19-182.502h.196c0 4.965-.4 9.974.134 14.88.39 3.585 2.722 6.432 6.553 7.397 3.67.92 6.66-.53 9.04-3.17 6.51-7.26 3.6-28-4.59-33.22-3.28-2.09-6.72-1.34-9.54.49-1.25.81-1.54 3.51-1.73 5.4-.28 2.71-.07 5.47-.07 8.22zm7.124 43.425l.596-.01c-.128-2.11-.064-4.254-.42-6.326-.948-5.5-4.167-9-8.3-9.31-4.462-.33-9.112 2.83-10.24 8.15-.91 4.28-1.34 9.02-.452 13.23.997 4.74 3.302 9.35 5.805 13.56 2.16 3.64 6 3.15 9.76 2.13 3.55-.95 3.24-3.53 3.24-6.13V342.7zm-138.262 134.36c0-4.605.31-9.237-.086-13.81-.413-4.767-3.925-8.302-7.878-8.83-3.774-.5-8.124 2.278-10.045 6.43-.27.567-.55 1.14-.69 1.74-2.31 9.68-.38 18.53 5.32 26.587.69.972 1.77 1.806 2.86 2.33 5.22 2.518 10.57-.89 10.51-6.597-.03-2.614-.01-5.23-.01-7.843zm141.185-84.72h-.242c0 1.997-.1 3.998.02 5.987.38 6.08 3.81 10.46 8.38 10.84 4.91.403 9.77-3.12 10.62-9.08.71-4.934.56-10.237-.49-15.1-.85-3.97-3.21-7.813-5.62-11.194-2.52-3.526-6.37-2.395-9.96-1.377-3.49.99-2.58 3.816-2.65 6.12-.14 4.594-.04 9.2-.04 13.8zm-106.8 26.773l-.663.014c.142 1.61.17 3.232.445 4.82.95 5.47 3.987 9.06 7.77 9.332 5.466.394 9.45-2.483 11.046-8.467 2.51-9.42.18-17.99-5.15-25.89-.48-.71-1.13-1.35-1.82-1.86-3.14-2.35-6.32-1.28-9.57-.13-2.95 1.04-1.94 3.45-1.99 5.37-.13 5.6-.05 11.2-.05 16.8zm95.493 36.494l.162.98c4.588-.89 9.492-1.04 13.693-2.84 6.64-2.834 6.96-11.003.95-15.07-1.79-1.217-4.02-2.16-6.16-2.45-8.52-1.17-16.3 1.082-23.31 5.984-1 .7-1.88 1.645-2.62 2.626-2.5 3.328-1.14 6.616.26 9.876 1.27 2.97 3.88 1.635 5.89 1.624 3.72-.02 7.44-.465 11.15-.73zm-98.43-84.93h.1c0-3.24.2-6.49-.048-9.71-.376-4.91-3.706-8.908-7.58-9.55-4.358-.72-9.01 1.97-10.562 7.055-1.096 3.59-1.47 7.57-1.314 11.34.25 6.07 2.365 11.71 6.214 16.51 2.42 3.02 5.827 3.27 10.24 1.86 3.844-1.23 2.824-4.17 2.917-6.72.132-3.6.034-7.2.034-10.8zm-7.24-41.23l-.545.02c.22 2.842.14 5.746.71 8.514.98 4.7 4.41 7.91 8.11 8.153 3.95.26 8.35-2.41 9.65-6.89 1.08-3.73 1.45-7.8 1.37-11.71-.12-5.84-2.27-11.2-5.7-15.94-2.49-3.43-5.95-3.91-10.75-2.31-4.01 1.34-2.72 4.5-2.8 7.14-.13 4.35-.03 8.69-.03 13.04z"/>
    <path fill="#F80E4A" d="M406.24 398.182c-8.818-.308-13.298-6.448-10.357-14.498 3.174-8.69 8.177-16.222 14.962-22.48.987-.91 2.992-.952 4.526-.953 1.04 0 2.09.74 3.1 1.22 11.34 5.43 13.28 12.59 5.63 22.49-3.23 4.19-7.1 7.95-11.09 11.44-1.73 1.52-4.48 1.89-6.76 2.79zm-136.212-37.877c-1.15-3.552 1.264-5.424 4.932-6.467 1.557-.443 3.082-1.01 4.655-1.378 8.31-1.946 13.94 1.235 15.428 9.61 1.054 5.937 1.54 12.148 1.012 18.126-.28 3.186-2.637 6.822-5.132 9.05-5.595 4.998-11.96 3.205-15.195-3.597-3.7-7.78-5.384-16.02-5.7-25.35zm39.62 135.828c1.052-8.492 6.608-12.643 14.146-10.305 8.94 2.773 16.956 7.208 23.57 13.878.954.963.877 2.95 1.263 4.468.025.1-.078.23-.12.35-4.448 12.742-11.517 18.55-24.832 8.538-3.073-2.31-6.408-4.487-8.83-7.387-2.277-2.727-3.507-6.327-5.197-9.542zm79.92-182.938c1.183-8.343 14.116-22.908 21.764-24.03 9.498-1.393 15.158 5.527 11.726 14.417-3.28 8.493-8.123 15.993-14.938 22.063-1.002.892-3.282 1.367-4.457.855-3.274-1.427-6.69-3.03-9.263-5.413-2.18-2.016-3.263-5.216-4.832-7.892zm-90.72 109.33c-8.595-.72-12.798-6.607-9.986-14.398 3.142-8.706 8.255-16.138 14.817-22.634 1.62-1.604 3.17-2.184 5.22-.907 3.15 1.958 6.63 3.502 9.45 5.854 3.73 3.115 4.64 7.54 2.46 11.875-3.39 6.728-7.8 12.83-14.19 17.05-2.29 1.514-5.17 2.133-7.79 3.16zm44.772-73.438c-.116.458-.356 1.938-.87 3.316-3.235 8.65-8.172 16.18-14.825 22.616-1.532 1.48-2.93 2.14-4.91 1.07-.982-.53-2.06-.88-3.06-1.38-11.603-5.81-13.247-12.62-5.204-22.84 2.98-3.79 6.28-7.43 9.95-10.53 3.87-3.27 8.62-3.67 13.39-1.72 3.72 1.51 5.65 4.5 5.54 9.45zm-96.22 167.89c-8.796-.605-13.033-6.52-10.053-14.506 3.228-8.65 8.315-16.1 14.9-22.57 1.568-1.54 3.062-1.93 4.935-.85 3.01 1.73 6.24 3.18 8.966 5.28 3.99 3.07 5.238 7.6 3.24 12.04-3.27 7.27-8.16 13.41-14.808 17.89-2.07 1.39-4.77 1.85-7.18 2.74zm157.06-239.215c-.906 10.59-8.84 19.434-18.458 19.62-1.41.027-3.297-.934-4.192-2.054-4.332-5.42-8.342-11.096-12.587-16.588-2.31-2.99-2.256-4.72.86-6.76 7.94-5.188 16.714-7.746 26.167-7.767 1.218-.003 3.057.954 3.548 1.976 1.797 3.74 3.145 7.69 4.662 11.57zm-73.496 23.965c2.736.625 4.66 1.214 6.628 1.486 5.17.716 10.346 1.402 15.54 1.895 4.658.442 5.738 1.698 4.648 6.24-2.082 8.68-6.107 16.346-12.395 22.7-.972.982-2.817 1.79-4.135 1.635-14.672-1.728-22.195-19.467-13.293-31.203.896-1.18 2.215-2.04 3.007-2.753zm83.742 118.225c-.453 2.19-.702 4.448-1.397 6.558-2.39 7.233-4.3 8.118-11.61 6.753-5.49-1.025-11.06-1.65-16.62-2.21-4.16-.418-5.32-1.703-4.39-5.796 2.01-8.854 6.18-16.604 12.5-23.085 1.04-1.067 3.33-1.704 4.82-1.413 9.63 1.87 16.37 9.91 16.68 19.19zm-80.03-33.532c.127-7 1.298-13.328 8.365-16.728 4.99-2.4 9.57-1.096 12.11 3.738 4.81 9.127 6.71 18.967 6.28 29.24-.04.892-.83 2.255-1.59 2.528-3.49 1.256-7.03 2.75-10.66 3.145-6.91.75-10.9-2.292-12.42-9.043-.96-4.232-1.39-8.583-2.07-12.88zm69.34-36.29c-.294 4.91-.83 9.545-4.266 13.347-5.952 6.586-13.706 5.437-17.336-2.587-3.81-8.42-5.535-17.25-5.335-26.5.04-2.037.59-3.32 2.59-3.876 3.22-.893 6.38-2.166 9.66-2.67 5.99-.918 10.61 2.1 12.1 8.002 1.18 4.68 1.73 9.517 2.57 14.285zm-156.63-92.225c-.024-5.84-.05-5.92 5.567-7.818 2.218-.75 4.56-1.334 6.885-1.523 6.55-.532 10.984 2.447 12.215 8.89 1.068 5.587 1.617 11.347 1.667 17.037.05 5.55-2.424 10.14-7.724 12.68-5.478 2.62-10.03 1.07-12.73-4.4-3.862-7.82-5.735-16.14-5.88-24.85zM355.87 492.332c-8.053-.462-13.217-3.32-15.383-8.995-1.744-4.57-.66-8.572 3.514-11.037 8.89-5.244 18.54-7.97 28.89-7.866.98.01 2.44.886 2.83 1.743 1.44 3.16 2.96 6.393 3.63 9.76 1.27 6.452-1.49 11.092-7.81 12.983-5.1 1.526-10.42 2.303-15.65 3.412zm-68.43 14.593c-2.174-.5-4.403-.833-6.51-1.534-6.534-2.17-7.067-3.56-6.098-10.36.77-5.4 1.013-10.89 1.203-16.34.18-5.19 1.31-6.28 6.31-5.36 8.01 1.48 15.053 4.98 21.683 9.67 3.25 2.3 3.735 4.7 2.795 8.27-2.348 8.94-10.322 15.44-19.384 15.67zM217.21 339.09c.203-.972.447-3.1 1.1-5.093 2.336-7.15 4.364-8.11 11.65-6.75 5.475 1.022 11.036 1.643 16.58 2.224 4.042.43 5.353 1.91 4.463 5.85-2.053 9.1-6.902 16.74-12.714 23.81-.67.81-2.47 1.15-3.65 1-9.88-1.3-17.42-9.99-17.44-21.02zm-14.327 48.417c.095-1.08.124-1.58.186-2.074.87-7.003 12.44-20.262 19.28-22.12 3.99-1.084 7.73-.456 11.04 1.93 3.03 2.186 4.18 5.345 3.13 8.94-2.98 10.2-8.69 18.723-16.48 25.873-.56.508-1.68.955-2.3.743-5.49-1.87-10.82-4.11-13.78-9.57-.69-1.27-.85-2.82-1.1-3.73zm23.267 29.163c-1.058 8.973-14.292 23.52-22.637 24.46-8.802.992-14.064-5.65-11.022-13.957 3.2-8.714 8.21-16.268 15.04-22.522.98-.89 3.27-1.32 4.47-.82 3.19 1.32 6.52 2.83 9.05 5.09 2.23 2.01 3.45 5.13 5.12 7.76zm81.574 27.502c-.387 2.073-.582 4.204-1.194 6.208-2.268 7.43-4.537 8.52-12.113 7.06-5.226-1.008-10.565-1.473-15.87-2.02-4.602-.475-5.794-1.826-4.707-6.297 2.104-8.647 6.163-16.308 12.38-22.684 1.005-1.04 3.09-1.68 4.547-1.5 9.253 1.18 16.67 9.84 16.957 19.22zm46.666-208.836c-.383-7.364-.287-7.638 6.104-9.7 2.347-.756 4.852-1.226 7.313-1.38 5.164-.323 9.114 2.11 10.61 7.136 2.105 7.083 3.585 14.438 1.726 21.77-.748 2.948-2.595 6.038-4.828 8.108-5.465 5.065-12.11 3.53-15.345-3.208-3.557-7.406-5.416-15.264-5.58-22.726zm67.18 218.694c-.053 10.065-7.412 18.23-17.423 18.985-1.378.104-3.338-.834-4.218-1.936-4.49-5.63-8.68-11.5-13.05-17.22-1.82-2.38-1.69-4.37.82-5.99 8.16-5.27 17.07-8.14 26.83-7.97 1.12.02 2.8.9 3.22 1.83 1.77 3.88 3.17 7.94 4.71 11.94l-.91.34zm-167.084-31.76c.206 6.932.065 7.367-6.727 9.24-2.94.81-6.13 1.062-9.19.985-3.71-.093-6.43-2.387-7.63-5.755-2.72-7.613-3.9-15.475-2.23-23.53.8-3.86 2.99-6.83 6.45-8.78 5.49-3.093 10.69-1.62 13.47 4.037 3.68 7.483 5.62 15.444 5.84 23.804zm11.817 30.734c-1.18 9.492-7.965 17.384-16.926 18.99-2.775.496-4.686-.07-6.466-2.794-3.58-5.486-7.73-10.613-11.81-15.762-2.41-3.05-2.35-4.916.96-7.037 7.86-5.04 16.55-7.49 25.84-7.68 1.23-.02 3.13.95 3.61 1.97 1.85 4 3.25 8.2 4.82 12.32zm61.522-177.718c-.513 7.44-3.655 13.174-10.094 16.992-1.78 1.06-3.22 1.064-5.11-.12-5.99-3.76-12.13-7.277-18.25-10.816-2.96-1.71-3.53-3.486-1.52-6.408 5.38-7.795 12.49-13.534 21.18-17.25 1.04-.442 2.77-.3 3.73.3 6.39 3.985 9.61 9.9 10.07 17.302zm-39.427 13.012c2.62-.787 4.216 1.182 5.646 3.827 6.886 12.74-.365 27.75-14.31 29.635-2.845.384-4.398-.517-5.955-3.05-3.1-5.035-6.55-9.9-10.3-14.46-3.84-4.665-3.83-6 1.46-9.128 7-4.143 14.63-6.156 23.45-6.824zm72.632-8.02c-1.174 3.313-1.732 7.048-3.652 9.85-3.804 5.555-11.004 4.875-13.18-1.42-2.826-8.177-4.837-16.673-6.618-25.153-.717-3.416-1.34-7.668 3.178-9.74 4.222-1.94 10.47-.865 13.158 3.227 2.385 3.632 3.928 7.96 5.127 12.184.972 3.423.88 7.148 1.26 10.74l.727.312zm-107.528 22.685c-.408 6.298-.918 10.608-5.016 13.427-3.915 2.694-8.26 2.338-10.347-1.642-5.05-9.612-7.63-20.013-7.67-30.86-.02-4.805 3.36-7.145 8.27-6.68 6.21.59 10.13 4.318 11.69 10.01 1.57 5.725 2.29 11.682 3.05 15.745zM416.586 402.9c1.117-2.905 1.748-6.515 3.685-9.173 3.87-5.297 10.94-4.54 12.98 1.602 2.88 8.68 5.26 17.62 6.76 26.63 1.25 7.44-3.89 10.9-11.25 8.6-4.74-1.48-7.56-5.01-8.72-9.49-1.48-5.75-2.25-11.68-3.45-18.18zM287.58 532.517c-7.25-.012-10.573-4.792-8.23-11.378.975-2.74 3.12-5.72 5.57-7.15 8.076-4.71 17.07-6.27 26.318-4.99 2.202.3 4.586 2.08 6.122 3.84 3.177 3.65 2.47 8.12-1.71 10.54-8.978 5.19-18.83 7.86-28.07 9.12zm22.13-105.127c1.077-2.783 1.75-6.782 3.923-9.64 3.935-5.174 10.16-4.117 12.82 1.822 3.79 8.466 6.15 17.363 6.66 26.646.44 7.936-4.9 11.415-12.337 8.235-4.358-1.863-6.888-5.427-7.94-9.797-1.272-5.295-1.973-10.728-3.127-17.265zm12.235-95.708c-.654 4.5-.975 8.712-4.52 11.86-4.42 3.925-9.54 3.14-12.012-2.19-4.128-8.907-6.654-18.31-6.95-28.16-.19-6.39 3.6-9.16 9.932-7.853 4.728.97 8.086 3.82 9.413 8.22 1.788 5.92 2.795 12.07 4.137 18.12zm-107.503 25.244c-.147 5.206-1.155 9.975-6.495 12.49-3.214 1.515-6.705 1.025-8.28-1.924-5.427-10.167-8.31-21.036-7.924-32.657.113-3.428 2.397-4.72 5.285-5.26 5.285-.99 10.95 1.323 12.948 6.663 2.456 6.563 3.648 13.6 5.386 20.432l-.92.256zm136.014 55.48c3.47-.238 6.938-.49 10.408-.71 5.39-.34 9.073 4.975 6.787 10.026-.68 1.51-1.89 2.967-3.22 3.97-6.28 4.747-13.44 6.84-21.3 6.62-4.94-.136-9.03-2.256-11.5-6.348-3.17-5.25.44-11.57 7.31-12.974 3.75-.764 7.65-.748 11.48-1.084.02.167.03.333.05.5zm-39.01 69.36c-3.128-1.07-6.45-1.78-9.33-3.314-3.142-1.674-4.785-4.746-4.477-8.448.31-3.755 2.63-6.286 5.99-7.422 2.78-.94 5.82-1.33 8.77-1.536 5.09-.356 10.21-.278 15.31-.572 5.38-.31 9.07 4.392 7.07 9.575-.67 1.74-2.09 3.43-3.59 4.58-5.73 4.4-12.38 6.29-19.77 7.13z"/>
    <path fill="#F80E4A" d="M360.636 299.262c0-2.742-.207-5.504.07-8.217.195-1.893.488-4.59 1.73-5.397 2.815-1.83 6.26-2.584 9.537-.495 8.196 5.223 11.1 25.96 4.59 33.215-2.377 2.647-5.37 4.096-9.044 3.17-3.84-.964-6.17-3.812-6.56-7.395-.54-4.907-.14-9.916-.14-14.88h-.2zm7.124 43.425c0 5.096.003 10.19 0 15.287-.003 2.605.308 5.18-3.245 6.138-3.765 1.015-7.602 1.507-9.765-2.13-2.504-4.21-4.808-8.825-5.805-13.557-.888-4.212-.458-8.95.45-13.23 1.13-5.32 5.78-8.486 10.242-8.15 4.133.31 7.352 3.81 8.3 9.308.356 2.072.292 4.216.42 6.327l-.597.007zM229.5 477.054c.002 2.614-.02 5.228.007 7.842.06 5.706-5.292 9.115-10.517 6.596-1.084-.523-2.17-1.357-2.86-2.33-5.707-8.05-7.632-16.907-5.326-26.58.143-.6.425-1.173.686-1.738 1.92-4.153 6.27-6.932 10.045-6.43 3.953.526 7.464 4.06 7.878 8.83.395 4.572.085 9.205.087 13.81zm141.183-84.72c0-4.6-.097-9.204.04-13.8.07-2.303-.836-5.13 2.656-6.12 3.58-1.018 7.44-2.15 9.96 1.377 2.41 3.39 4.76 7.23 5.62 11.2 1.05 4.87 1.19 10.17.49 15.1-.85 5.96-5.72 9.49-10.62 9.08-4.57-.38-8-4.76-8.38-10.84-.13-1.99-.02-3.99-.02-5.98h.24zm-106.8 26.772c0-5.6-.09-11.204.047-16.802.047-1.915-.957-4.332 1.99-5.372 3.254-1.147 6.43-2.22 9.576.132.69.516 1.348 1.15 1.827 1.86 5.333 7.902 7.668 16.47 5.158 25.888-1.59 5.985-5.58 8.86-11.04 8.467-3.78-.28-6.82-3.87-7.77-9.34-.27-1.59-.3-3.22-.44-4.83l.67-.02zm95.493 36.494c-3.717.268-7.432.71-11.15.732-2.014.01-4.62 1.347-5.89-1.624-1.395-3.26-2.757-6.548-.255-9.874.74-.98 1.63-1.927 2.63-2.626 7.01-4.902 14.79-7.155 23.31-5.985 2.14.293 4.37 1.235 6.16 2.452 6.01 4.068 5.69 12.236-.94 15.072-4.2 1.796-9.1 1.948-13.69 2.837l-.16-.984zm-98.43-84.93c0 3.602.1 7.207-.032 10.804-.093 2.545.927 5.487-2.916 6.714-4.415 1.41-7.82 1.152-10.24-1.866-3.85-4.8-5.964-10.435-6.215-16.51-.156-3.77.218-7.75 1.314-11.34 1.55-5.087 6.204-7.776 10.56-7.055 3.876.64 7.206 4.634 7.582 9.544.24 3.22.04 6.48.04 9.71h-.1zm-7.24-41.224c0-4.346-.095-8.695.034-13.038.08-2.64-1.214-5.792 2.8-7.132 4.795-1.6 8.26-1.12 10.75 2.318 3.434 4.737 5.583 10.098 5.705 15.938.082 3.906-.29 7.98-1.37 11.713-1.296 4.48-5.696 7.147-9.646 6.89-3.7-.242-7.14-3.455-8.11-8.155-.58-2.768-.5-5.672-.71-8.515l.54-.02z"/>
    <path fill="none" d="M0 0h648.75v660.75H0z"/>
  </g>
</svg>
